<?xml version="1.0" encoding="UTF-8" standalone="no"?>
<!-- Created with Inkscape (http://www.inkscape.org/) -->

<svg
   xmlns:dc="http://purl.org/dc/elements/1.1/"
   xmlns:cc="http://creativecommons.org/ns#"
   xmlns:rdf="http://www.w3.org/1999/02/22-rdf-syntax-ns#"
   xmlns:svg="http://www.w3.org/2000/svg"
   xmlns="http://www.w3.org/2000/svg"
   xmlns:sodipodi="http://sodipodi.sourceforge.net/DTD/sodipodi-0.dtd"
   xmlns:inkscape="http://www.inkscape.org/namespaces/inkscape"
   width="2545"
   height="1581"
   viewBox="0 0 2545.0001 1581"
   id="svg2"
   version="1.1"
   inkscape:version="0.92.5 (2060ec1f9f, 2020-04-08)"
   sodipodi:docname="logo.svg">
  <defs
     id="defs4">
    <style
       id="style4140"
       type="text/css"><![CDATA[
    .fil0 {fill:#47B5E7;fill-rule:nonzero}
    .fil2 {fill:#FEFEFE;fill-rule:nonzero}
    .fil1 {fill:#FFF225;fill-rule:nonzero}
   ]]></style>
    <style
       id="style4229"
       type="text/css"><![CDATA[
    .fil0 {fill:#FFF225;fill-rule:nonzero}
   ]]></style>
    <style
       id="style4249"
       type="text/css"><![CDATA[
    .fil0 {fill:#47B5E7;fill-rule:nonzero}
    .fil2 {fill:#FEFEFE;fill-rule:nonzero}
    .fil1 {fill:#FFF225;fill-rule:nonzero}
   ]]></style>
  </defs>
  <sodipodi:namedview
     id="base"
     pagecolor="#ffffff"
     bordercolor="#666666"
     borderopacity="1.0"
     inkscape:pageopacity="0.0"
     inkscape:pageshadow="2"
     inkscape:zoom="0.27685547"
     inkscape:cx="598.99241"
     inkscape:cy="634.22431"
     inkscape:document-units="px"
     inkscape:current-layer="g898"
     showgrid="false"
     units="px"
     inkscape:window-width="1848"
     inkscape:window-height="1016"
     inkscape:window-x="1752"
     inkscape:window-y="27"
     inkscape:window-maximized="1" />
  <metadata
     id="metadata7">
    <rdf:RDF>
      <cc:Work
         rdf:about="">
        <dc:format>image/svg+xml</dc:format>
        <dc:type
           rdf:resource="http://purl.org/dc/dcmitype/StillImage" />
        <dc:title></dc:title>
      </cc:Work>
    </rdf:RDF>
  </metadata>
  <g
     inkscape:label="Ebene 1"
     inkscape:groupmode="layer"
     id="layer1"
     transform="translate(0,528.63782)">
    <g
       style="clip-rule:evenodd;fill-rule:evenodd;image-rendering:optimizeQuality;shape-rendering:geometricPrecision;text-rendering:geometricPrecision"
       id="g4306"
       transform="matrix(0.12701101,0,0,0.1270111,-26.037257,866.67196)">
      <g
         id="g898"
         transform="translate(-3589.0665,166.45493)">
        <path
           id="path4255"
           d="m 23824.999,-5798.0001 c 0,-30 -80,-60 -140,-100 -180,-150 -829.999,-790 -2099.999,-750 -160,10 -310,20 -440,40 270,-90 410,-140 490,-170 100,-40 750,-260 1100,-1400 30,-100 110,-330 90,-350 -30,-20 -240,20 -470,150 -220,130 -970,250 -1050,270 -50,10 -270,-20 -600,150 370,-380 760,-920 860,-1670 50,-360 30,-509.9999 10,-509.9999 -20,0 -30,0 -60,10 -80,20 -170,90 -440,269.9999 -270,180 -560,380 -560,380 0,0 100,-979.9999 70,-1009.9999 -30,-20 -590,-20 -1450,939.9999 0,0 100,-819.9999 -60,-1129.9999 0,0 -40,-220 -80,-340 -20,-60 -60,-120 -70,-120 -10,10 -90,20 -210,160 -190,220 -1070,480 -1210,1619.9999 -110,-460 -340,-1069.9999 -920,-1379.9999 -330,-320 -470,-410 -490,-410 -10,10 -10,150 -60,470 -60,360 -110,470 -110,470 0,0 -610,-530 -620,-550 -30,-30 -400,1139.9999 -290,1719.9999 0,0 -190,-150 -540,-330 -400,-200 -1060,-240 -1060,-210 10,50 560,1130 800,1510 0,0 -1490,-260 -1470,-160 10,30 40,90 100,340 0,0 -590,-10 -580,40 10,50 440,770 480,810 0,0 -450,90 -550,90 -60,0 300,1020 1310,1270 140,39.9999 280,59.9999 410,79.9999 110,10 250,20 370,40 600,20 990,-129.9999 920,-349.9999 0,0 -20,-80 -630,-310 0,0 20,-70 60,-80 40,-10 680,220 640,190 -50,-40 -280,-300 -240,-300 40,0 340,130 440,40 100,-90 160,-250 220,-290 60,-40 -170,-250 140,-150 0,0 210,-120 40,-300 -160,-190 -670,-800 160,-60 200,180 700,-360 660,-650 0,0 200,200 240,220 40,20 320,50 390,-40 30,-40 -100,-460 -20,-640 0,0 40,0 70,40 30,40 40,470 190,550 0,0 170,-100 200,-170 30,-80 -50,470 470,230 0,0 250,-220 320,-230 70,-10 -50,260 10,360 60,100 270,160 340,40 70,-120 390,-360 410,-350 30,10 -160,510 -180,560 -30,70 -50,180 -50,180 0,0 20,140 200,180 0,0 330,-190 670,-440 -40,40 -70,90 -110,140 0,0 -440,460 -440,520 0,70 150,210 280,130 120,-80 420,-210 450,-190 30,20 70,80 10,120 -60,40 -410,220 -410,220 0,0 400,30 890,-70 -530,210 -710,540 -710,570 20,100 840,-110 860,-60 120,270 -260,100 -430,130 -170,30 -590,40 -200,369.9999 0,0 70,10 -120,120 -190,110 430,180 500,260 70,80 -620,-10 -600,200 10,210 -120,80 340,570 0,0 -280,-60 -310,-30 -30,40 600,570 600,720 0,0 -130,90 -180,10 -60,-80 -440,-500 -500,-520 -50,-10 -140,10 -180,100 0,0 170,390 120,400 -50,10 -320,-170 -320,-170 0,0 -170,80 -120,230 60,160 530,690 500,720 0,0 -40,90 -100,80 -60,-10 -390,-590 -470,-620 -80,-20 90,550 90,550 0,0 -290,-310 -370,-370 -80,-60 -90,70 -90,70 l 80,650 c 0,0 -910,-1360 -690,260 0,0 -20,90 -50,90 -30,0 -220,-540 -200,-680 20,-150 -160,400 -160,400 0,0 -290,-1140 -880,30 0,0 -40,-440 -130,-520 -90,-80 -160,-100 -190,-100 -20,0 -140,0 -250,200 -420,540 -690,1240 -760,1839.99996 -10,419.99999 30,1169.99997 10,1329.99997 -10,90 10,100 20,140 0,10 160,-120 210,-150 70,-50 840,-1069.99998 880,-1329.99997 0,0 410,1779.99996 540,1979.99994 30,40 50,90 80,60 40,-60 100,-229.99998 150,-239.99998 60,-20 230,-40 320,-289.99999 90,-250 250,-499.999994 330,-1159.99998 0,0 860,1099.99998 980,1199.99998 40,39.99999 280,-350 380,-979.99999 100,-629.99994 -120,-1469.99994 -260,-1499.99994 0,0 -60,-90 110,-30 90,30 450,660 1280,1129.99995 140,80 440,80 440,80 70,-190 -580,-1889.99995 -580,-1889.99995 0,0 20,-20 150,30 130,50 1370,860 2130,480 150,-80 160,-90 160,-90 90,-370 -580,-1070 -990,-1390 0,0 1070,-40 1229.999,-330 0,0 200,-70 300,-210 20,-20 -120,-270 -270,-380 -399.999,-280 -489.999,-390 -489.999,-390 0,0 110,-140 280,-190 159.999,-50 689.999,-380 549.999,-540 0,0 170,-149.9999 160,-189.9999 z"
           class="fil1"
           inkscape:connector-curvature="0"
           style="fill:#fff225;fill-opacity:1;fill-rule:nonzero;stroke-width:10" />
        <g
           id="g880"
           transform="rotate(-6.0942723,-5025.9121,-3540.3799)"
           style="fill:#f9f9f9">
          <text
             id="text845"
             y="-988.9082"
             x="3544.283"
             style="font-style:normal;font-weight:normal;font-size:1892.37719727px;line-height:1.25;font-family:sans-serif;letter-spacing:0px;word-spacing:0px;fill:#f9f9f9;fill-opacity:1;stroke:none;stroke-width:47.30942917"
             xml:space="preserve"><tspan
               style="font-style:normal;font-variant:normal;font-weight:normal;font-stretch:normal;font-family:'Futura Condensed Extra Bold';-inkscape-font-specification:'Futura Condensed Extra Bold, ';fill:#f9f9f9;stroke-width:47.30942917"
               y="-988.9082"
               x="3544.283"
               id="tspan843"
               sodipodi:role="line">GRÜN MACHT</tspan></text>
          <text
             id="text845-3"
             y="1607.769"
             x="6986.293"
             style="font-style:normal;font-weight:normal;font-size:1892.37719727px;line-height:1.25;font-family:sans-serif;letter-spacing:0px;word-spacing:0px;clip-rule:evenodd;fill:#f9f9f9;fill-opacity:1;fill-rule:evenodd;stroke:none;stroke-width:47.30942917;image-rendering:optimizeQuality;shape-rendering:geometricPrecision;text-rendering:geometricPrecision"
             xml:space="preserve"><tspan
               style="font-style:normal;font-variant:normal;font-weight:normal;font-stretch:normal;font-family:'Futura Condensed Extra Bold';-inkscape-font-specification:'Futura Condensed Extra Bold, ';fill:#f9f9f9;stroke-width:47.30942917"
               y="1607.769"
               x="6986.293"
               id="tspan843-6"
               sodipodi:role="line">ZUKUNFT</tspan></text>
        </g>
      </g>
    </g>
  </g>
</svg>
