<?xml version="1.0" encoding="UTF-8" standalone="no"?>
<svg
   version="1.1"
   id="svg2"
   viewBox="0 0 200 94.000007"
   height="94"
   width="200"
   sodipodi:docname="logo.svg"
   inkscape:version="1.1.2 (0a00cf5339, 2022-02-04)"
   xmlns:inkscape="http://www.inkscape.org/namespaces/inkscape"
   xmlns:sodipodi="http://sodipodi.sourceforge.net/DTD/sodipodi-0.dtd"
   xmlns="http://www.w3.org/2000/svg"
   xmlns:svg="http://www.w3.org/2000/svg"
   xmlns:rdf="http://www.w3.org/1999/02/22-rdf-syntax-ns#"
   xmlns:cc="http://creativecommons.org/ns#"
   xmlns:dc="http://purl.org/dc/elements/1.1/">
  <sodipodi:namedview
     pagecolor="#ffffff"
     bordercolor="#666666"
     borderopacity="1"
     objecttolerance="10"
     gridtolerance="10"
     guidetolerance="10"
     inkscape:pageopacity="0"
     inkscape:pageshadow="2"
     inkscape:window-width="3362"
     inkscape:window-height="1376"
     id="namedview12"
     showgrid="false"
     inkscape:zoom="7.2407734"
     inkscape:cx="-58.488227"
     inkscape:cy="111.79745"
     inkscape:window-x="78"
     inkscape:window-y="27"
     inkscape:window-maximized="1"
     inkscape:current-layer="g14353"
     inkscape:pagecheckerboard="0"
     units="px"
     width="200px" />
  <defs
     id="defs4">
    <style
       type="text/css"
       id="style4140"><![CDATA[
    .fil0 {fill:#47B5E7;fill-rule:nonzero}
    .fil2 {fill:#FEFEFE;fill-rule:nonzero}
    .fil1 {fill:#FFF225;fill-rule:nonzero}
   ]]></style>
    <style
       type="text/css"
       id="style4229"><![CDATA[
    .fil0 {fill:#FFF225;fill-rule:nonzero}
   ]]></style>
  </defs>
  <metadata
     id="metadata7">
    <rdf:RDF>
      <cc:Work
         rdf:about="">
        <dc:format>image/svg+xml</dc:format>
        <dc:type
           rdf:resource="http://purl.org/dc/dcmitype/StillImage" />
      </cc:Work>
    </rdf:RDF>
  </metadata>
  <g
     transform="matrix(10.000001,0,0,10.000001,0,-7502.0929)"
     id="layer1">
    <g
       transform="matrix(0.04221784,0,0,0.04221785,0.04221784,750.25128)"
       id="g4240"
       style="clip-rule:evenodd;fill-rule:evenodd;image-rendering:optimizeQuality;shape-rendering:geometricPrecision;text-rendering:geometricPrecision">
      <g
         id="Layer_x0020_1-4">
        <metadata
           id="CorelCorpID_0Corel-Layer-0" />
        <g
           id="g14353"
           transform="matrix(0.03109032,0,0,0.03109032,251.83652,-0.96528967)">
          <path
             style="fill:#ffe100;fill-opacity:1;fill-rule:nonzero"
             class="fil0"
             d="m 7105,3126 c -3,-18 -49,-35 -81,-61 -106,-88 -485,-461 -1230,-437 -94,3 -180,12 -259,25 159,-51 241,-82 289,-101 58,-23 438,-153 643,-822 17,-57 67,-195 55,-205 -15,-13 -143,10 -272,89 -130,79 -565,148 -617,156 -30,5 -158,-14 -350,86 215,-221 444,-536 505,-977 29,-212 17,-298 8,-297 -13,1 -20,1 -36,6 -48,14 -97,55 -255,161 -159,106 -327,223 -327,223 0,0 58,-576 40,-590 -18,-13 -345,-10 -847,550 0,0 57,-479 -37,-660 0,0 -26,-131 -47,-199 -10,-34 -37,-70 -41,-67 -5,4 -50,11 -121,93 -111,127 -626,282 -711,949 C 3349,779 3212,419 2874,237 2696,63 2610,2 2591,-1 h -3 c 0,0 0,0 0,0 -9,4 -5,87 -34,275 -33,210 -62,276 -62,276 0,0 -354,-312 -363,-321 -17,-16 -233,668 -169,1009 0,0 -112,-87 -316,-192 -232,-119 -621,-140 -619,-121 5,31 329,664 465,887 0,0 -873,-150 -858,-95 5,18 26,52 60,198 0,0 -343,-7 -338,21 5,32 260,453 279,476 0,0 -265,51 -321,54 -38,2 177,596 767,744 89,22 175,39 257,51 -193,-4 -407,37 -653,128 0,0 -142,55 -217,115 -74,59 -441,121 -467,175 v 4 c 23,48 456,345 456,345 0,0 -263,128 -281,152 -12,17 -22,32 -19,36 3,5 21,26 66,54 105,65 1040,163 1098,140 57,-23 -508,613 -517,933 0,0 93,7 145,11 40,3 -170,401 -132,399 254,-11 675,-256 754,-313 79,-56 187,-140 216,-168 29,-27 -184,354 -97,690 0,0 28,260 29,313 1,52 75,53 75,88 -1,43 206,-163 304,-242 98,-79 231,-232 295,-333 64,-101 7,789 -19,960 -8,55 4,61 13,80 3,6 94,-70 123,-89 43,-29 489,-628 517,-778 0,0 238,1045 318,1157 12,16 22,34 32,38 h 7 c 2,-1 4,-3 6,-6 24,-37 59,-135 86,-143 34,-10 135,-23 188,-172 53,-149 148,-294 193,-681 0,0 506,645 571,705 26,24 163,-205 224,-572 61,-367 -70,-860 -152,-877 0,0 -34,-54 61,-20 55,20 265,385 750,662 82,47 255,47 256,44 39,-109 -342,-1105 -342,-1105 0,0 9,-11 86,20 76,31 804,502 1245,281 89,-45 95,-54 95,-54 51,-217 -338,-628 -577,-814 0,0 627,-25 723,-192 0,0 116,-42 175,-124 10,-14 -67,-157 -158,-220 -237,-164 -288,-226 -288,-226 0,0 66,-80 162,-110 96,-30 404,-220 322,-314 0,0 93,-81 96,-107 v -2 0 z m -2027,-12 c -97,16 -346,22 -116,218 0,0 42,3 -71,70 -113,67 252,106 295,155 43,49 -362,-4 -354,117 8,122 -70,45 199,332 0,0 -162,-38 -180,-15 -19,23 354,332 352,420 0,0 -76,53 -108,7 -32,-46 -258,-296 -294,-303 -28,-5 -80,7 -105,56 0,0 99,230 68,236 -31,6 -185,-102 -185,-102 0,0 -101,44 -68,136 33,92 308,403 292,422 0,0 -23,51 -59,48 -35,-4 -225,-348 -272,-361 -47,-13 55,321 55,321 0,0 -171,-181 -217,-218 -46,-38 -52,40 -52,40 l 50,382 c 0,0 -534,-796 -403,153 0,0 -12,54 -30,52 -18,-2 -131,-314 -118,-400 13,-86 -94,237 -94,237 0,0 -167,-665 -514,17 0,0 -24,-258 -78,-302 -53,-44 -97,-68 -111,-60 -13,8 -136,125 -184,137 -48,11 38,-154 -33,-201 0,0 6,-46 -35,-112 -41,-66 -81,-42 -320,216 0,0 100,-244 99,-329 -1,-84 -94,-104 -94,-104 0,0 -174,132 -224,116 -51,-16 83,-178 86,-223 1,-14 -19,-9 -19,-9 0,0 -21,-15 -196,87 l -283,180 c -21,-13 -49,-10 -40,-78 2,-19 529,-267 506,-293 -23,-26 -199,-69 -199,-69 0,0 110,-133 77,-148 -33,-14 -273,-34 -273,-34 0,0 -42,-66 -33,-53 8,13 235,-36 235,-36 l -152,-119 c 0,0 383,-67 45,-271 -125,-75 -256,-127 -397,-152 361,18 600,-73 559,-206 0,0 -11,-48 -371,-179 0,0 10,-43 34,-49 24,-6 398,131 372,109 -27,-22 -164,-174 -139,-173 25,1 200,75 259,21 56,-52 91,-148 128,-169 37,-21 -98,-145 80,-88 0,0 120,-67 25,-178 -95,-111 -395,-466 95,-37 117,103 410,-210 386,-380 0,0 117,118 142,131 25,13 189,32 226,-25 17,-26 -60,-268 -10,-375 0,0 21,-2 41,21 20,23 22,275 111,323 0,0 100,-59 117,-102 17,-44 -27,273 272,136 0,0 146,-130 188,-133 42,-4 -31,154 5,210 37,56 160,94 199,24 39,-70 226,-211 241,-205 15,6 -95,298 -108,327 -18,42 -31,104 -31,104 0,0 14,82 116,104 0,0 193,-113 393,-259 -21,25 -42,52 -64,80 0,0 -259,267 -260,305 0,39 89,125 162,76 73,-49 248,-121 264,-109 15,13 43,49 7,70 -37,21 -241,128 -241,128 0,0 233,16 519,-42 -309,125 -416,316 -413,334 9,61 489,-63 502,-33 69,156 -152,60 -249,76 z"
             id="path4233"
             inkscape:connector-curvature="0" />
          <g
             aria-label="WEIL ES UM
ALLE GEHT."
             id="text2054"
             style="font-size:1970.82px;letter-spacing:-0.478834px;word-spacing:-1.51211px;fill:#044e5a;stroke-width:49.2706">
            <path
               d="m -7144.9437,2796.5027 45.3288,-900.6648 h -240.44 l -238.4692,900.6648 45.3288,-900.6648 h -338.981 l -5.9125,1576.656 h 305.4771 l 222.7027,-746.9408 -13.7958,746.9408 h 305.4771 l 492.705,-1576.656 h -340.9518 z"
               style="-inkscape-font-specification:BereitBold"
               id="path22873" />
            <path
               d="m -5836.8,1895.8379 h -618.8374 l -252.265,1576.656 h 620.8083 l 45.3288,-285.7689 h -301.5354 l 59.1246,-368.5433 h 214.8194 l 41.3872,-270.0024 h -212.8486 l 57.1538,-364.6016 h 301.5355 z"
               style="-inkscape-font-specification:BereitBold"
               id="path22875" />
            <path
               d="m -5657.9373,3472.4939 252.2649,-1576.656 h -319.2728 l -252.2649,1576.656 z"
               style="-inkscape-font-specification:BereitBold"
               id="path22877" />
            <path
               d="m -4948.9215,1895.8379 h -317.302 l -252.265,1576.656 h 620.8083 l 45.3289,-285.7689 h -301.5355 z"
               style="-inkscape-font-specification:BereitBold"
               id="path22879" />
            <path
               d="M -3575.7625,1895.8379 H -4194.6 l -252.2649,1576.656 h 620.8083 l 45.3288,-285.7689 h -301.5354 l 59.1246,-368.5433 h 214.8193 l 41.3873,-270.0024 h -212.8486 l 57.1538,-364.6016 h 301.5354 z"
               style="-inkscape-font-specification:BereitBold"
               id="path22881" />
            <path
               d="m -3676.7564,3141.3961 c -39.4164,230.586 96.5702,350.806 354.7476,350.806 228.6151,0 380.3683,-104.4535 419.7846,-331.0978 l 37.4456,-216.7901 c 31.5331,-187.2279 -51.2413,-307.448 -212.8485,-368.5434 -153.724,-57.1538 -173.4322,-78.8328 -157.6656,-171.4613 l 27.5915,-167.5197 c 9.8541,-65.0371 39.4164,-90.6577 82.7744,-90.6577 47.2997,0 65.0371,33.5039 55.183,90.6577 l -29.5623,177.3738 h 317.302 l 31.5331,-187.2279 c 37.4456,-226.6443 -108.3951,-350.806 -348.8351,-350.806 -218.7611,0 -388.2516,100.5119 -427.668,331.0978 l -37.4456,220.7318 c -31.5331,183.2863 33.504,277.8856 214.8194,348.8352 157.6656,59.1246 175.403,72.9203 155.6948,191.1695 l -27.5915,163.578 c -11.8249,65.0371 -39.4164,90.6578 -82.7744,90.6578 -47.2997,0 -63.0663,-33.504 -53.2122,-90.6578 l 29.5623,-177.3737 h -317.302 z"
               style="-inkscape-font-specification:BereitBold"
               id="path22883" />
            <path
               d="m -2102.5732,3492.2021 c 250.2941,0 394.164,-120.22 429.6387,-346.8643 l 199.0529,-1249.4999 h -317.3021 l -199.0528,1251.4707 c -9.8541,65.0371 -37.4456,92.6285 -80.8036,92.6285 -47.2997,0 -63.0662,-35.4747 -53.2121,-92.6285 l 199.0528,-1251.4707 h -319.2728 l -195.1112,1229.7917 c -39.4164,246.3525 100.5118,366.5725 337.0102,366.5725 z"
               style="-inkscape-font-specification:BereitBold"
               id="path22885" />
            <path
               d="m -967.86283,2812.2692 -25.62066,-916.4313 h -354.74761 l -252.2649,1576.656 h 303.5062 l 130.0742,-823.8027 9.8541,823.8027 h 171.46129 l 264.08988,-815.9195 -126.13248,815.9195 h 301.53545 l 248.32331,-1576.656 h -354.74759 z"
               style="-inkscape-font-specification:BereitBold"
               id="path22887" />
            <path
               d="m -7243.4847,3682.5063 h -384.3099 l -504.5299,1576.656 h 329.1269 l 61.0954,-238.4693 h 187.2279 l -15.7666,238.4693 h 337.0103 z m -244.3817,352.7768 -49.2705,733.145 h -139.9282 z"
               style="-inkscape-font-specification:BereitBold"
               id="path22889" />
            <path
               d="m -6566.0051,3682.5063 h -317.302 l -252.265,1576.656 h 620.8083 l 45.3289,-285.7689 h -301.5355 z"
               style="-inkscape-font-specification:BereitBold"
               id="path22891" />
            <path
               d="m -5837.2827,3682.5063 h -317.302 l -252.265,1576.656 h 620.8083 l 45.3289,-285.7689 h -301.5355 z"
               style="-inkscape-font-specification:BereitBold"
               id="path22893" />
            <path
               d="m -4807.0247,3682.5063 h -618.8375 l -252.2649,1576.656 h 620.8082 l 45.3289,-285.7689 h -301.5354 l 59.1246,-368.5434 h 214.8193 l 41.3872,-270.0023 h -212.8485 l 57.1538,-364.6017 h 301.5354 z"
               style="-inkscape-font-specification:BereitBold"
               id="path22895" />
            <path
               d="m -3993.5797,3662.7981 c -248.3233,0 -392.1932,120.22 -427.6679,346.8643 l -141.8991,902.6355 c -39.4164,246.3525 100.5119,366.5726 340.9519,366.5726 246.3525,0 390.2223,-120.2201 425.6971,-346.8644 l 90.6577,-571.5377 h -384.3099 l -39.4164,252.2649 h 67.0079 l -51.2413,323.2145 c -9.8541,65.037 -37.4456,90.6577 -80.8036,90.6577 -47.2997,0 -63.0663,-33.5039 -53.2122,-90.6577 l 145.8407,-930.227 c 9.8541,-65.0371 37.4456,-90.6577 80.8036,-90.6577 47.2997,0 63.0663,31.5331 53.2122,90.6577 l -29.5623,193.1403 h 317.302 l 29.5623,-167.5197 c 43.358,-248.3233 -102.4827,-368.5433 -342.9227,-368.5433 z"
               style="-inkscape-font-specification:BereitBold"
               id="path22897" />
            <path
               d="m -2850.983,3682.5063 h -618.8374 l -252.265,1576.656 h 620.8083 l 45.3289,-285.7689 h -301.5355 l 59.1246,-368.5434 h 214.8194 l 41.3872,-270.0023 h -212.8486 l 57.1538,-364.6017 h 301.5355 z"
               style="-inkscape-font-specification:BereitBold"
               id="path22899" />
            <path
               d="M -2390.2934,4342.731 H -2526.28 l 106.4243,-660.2247 h -319.2728 l -252.265,1576.656 h 319.2728 l 106.4243,-662.1955 h 135.9866 l -106.4243,662.1955 h 319.2728 l 252.265,-1576.656 h -319.2728 z"
               style="-inkscape-font-specification:BereitBold"
               id="path22901" />
            <path
               d="m -1866.5363,3682.5063 -45.3288,285.7689 h 185.2571 l -204.9653,1290.8871 h 319.2728 l 204.9653,-1290.8871 h 185.2571 l 45.3288,-285.7689 z"
               style="-inkscape-font-specification:BereitBold"
               id="path22903" />
            <path
               d="m -1147.6699,5259.1623 45.3289,-289.7106 h -289.7105 l -45.3289,289.7106 z"
               style="-inkscape-font-specification:BereitBold"
               id="path22905" />
          </g>
        </g>
      </g>
    </g>
  </g>
</svg>
