<svg id="Ebene_1" data-name="Ebene 1" xmlns="http://www.w3.org/2000/svg" width="161.04mm" height="177.03mm" viewBox="0 0 456.5 501.81"><defs><style>.cls-1{fill:#e6007e;}.cls-2{fill:#fff;}</style></defs><title>kw2020pin</title><path class="cls-1" d="M451.88,182.75C426.75,59.25,306.26-20.5,182.75,4.63S-20.5,150.24,4.63,273.75c1.44,7.1,52.65,228.06,52.65,228.06l229-52.87C402.58,418.47,476.14,302,451.88,182.75"/><path class="cls-2" d="M86.5,171.48l22.33-5.19,2.2,9.46-4.72,1.1-2.09,45.49-14.86,3.45L73.92,195.07l-.49,34.42L58.7,232.91,36.57,193l-5.27,1.22-2.19-9.46,22.36-5.19,2.2,9.46-5.44,1.26,14.2,26.33L63,177l12.8-3,17.78,35.36,1.18-29.9-6,1.41Z"/><path class="cls-2" d="M113.4,165.23l41.49-9.64,3.92,16.86-11.22,2.61-1.72-7.4-13.45,3.13,2.67,11.49,10.35-2.41,2.19,9.43-10.35,2.41,2.86,12.35,13.46-3.13-2.15-9.25,11.22-2.61L167,207.76l-41.49,9.63L123.32,208l5.4-1.26L121,173.44l-5.4,1.25Z"/><path class="cls-2" d="M160.87,154.21,183.2,149l2.2,9.46-5.51,1.28L187.62,193l5.51-1.27,2.18,9.42L173,206.37l-2.19-9.43,5.41-1.25-7.73-33.28-5.4,1.26Z"/><path class="cls-2" d="M189.6,147.53l22.33-5.18,2.2,9.46-5.51,1.28,7.73,33.27,11.36-2.63c1.2-.28,2-2.1,1.73-3.31l-1.62-7L239,170.85,243.42,190l-41.71,9.69-2.19-9.43,5.41-1.25-7.73-33.28L191.8,157Z"/><path class="cls-2" d="M102.86,241.93l22.33-5.18,2.2,9.46-4.71,1.1-2.1,45.48-14.86,3.46L90.28,265.53,89.79,300l-14.73,3.42L52.93,263.5l-5.27,1.22-2.19-9.46,22.36-5.19,2.2,9.46-5.44,1.26,14.2,26.33.56-39.62,12.8-3,17.78,35.36,1.18-29.9-6,1.41Z"/><path class="cls-2" d="M129.76,235.69l22.33-5.19,2.19,9.47-5.5,1.27,7.73,33.28,5.5-1.28,2.19,9.43-22.33,5.18-2.19-9.43,5.4-1.25-7.72-33.27L132,245.15Z"/><path class="cls-2" d="M158.49,229l27.59-6.41c10.74-2.49,18.6,3,20.4,10.71,1.62,7-.63,11.17-5.46,15.05,2.58.67,5.08,2.66,6.87,6.31l3.5,7.09,4.3-1,2.25,9.42L202.8,273.7l-4.94-11.91c-2.2-5.72-5.25-7.62-10.82-6.33l-4.44,1,2.63,11.36,4.79-1.12,2.19,9.43-21.61,5-2.19-9.43,5.4-1.25-7.73-33.27-5.4,1.25Zm19,5.55,2.93,12.63,6.85-1.59c5.19-1.21,8.08-3.91,7.09-8.21-.93-4-4.45-5.71-10-4.42Z"/><path class="cls-2" d="M100,316.86l22.37-5.19,2.2,9.46L119,322.41l7.73,33.28,5.5-1.28,2.19,9.42L112.07,369l-2.19-9.43,5.43-1.26L112.21,345l-23.53,5.46,3.1,13.35,5.5-1.28L99.47,372l-22.33,5.19L75,367.71l5.4-1.25-7.72-33.28-5.4,1.26L65,325l22.33-5.18,2.2,9.46-5.51,1.28,2.52,10.84,23.53-5.47-2.51-10.83-5.44,1.26Z"/><path class="cls-2" d="M128.71,310.19,151,305l2.2,9.46-5.51,1.28L155.46,349l5.51-1.28,2.19,9.42-22.34,5.19-2.19-9.43,5.41-1.25-7.73-33.27-5.4,1.25Z"/><path class="cls-2" d="M157.44,303.52l41.5-9.64,3.91,16.86-11.21,2.61-1.72-7.4-13.46,3.12,2.67,11.49,10.36-2.4,2.19,9.43L181.32,330l2.87,12.35,13.45-3.12L195.49,330l11.22-2.6L211.05,346l-41.5,9.64-2.19-9.43,5.41-1.25L165,311.72l-5.4,1.26Z"/><path class="cls-2" d="M204.92,292.49l27.59-6.41c10.74-2.49,18.61,3,20.4,10.71,1.63,7-.63,11.18-5.46,15,2.59.67,5.08,2.67,6.87,6.31l3.5,7.1,4.3-1,2.26,9.41-15.14,3.52-4.94-11.91c-2.2-5.73-5.26-7.63-10.83-6.34L229,320l2.64,11.36,4.78-1.11,2.19,9.43-21.61,5-2.19-9.43,5.4-1.26-7.72-33.27L207.11,302Zm19,5.56,2.93,12.63,6.85-1.59c5.2-1.21,8.09-3.91,7.09-8.21-.93-4-4.45-5.72-10-4.42Z"/><path class="cls-2" d="M81.39,395.43l22.33-5.18,2.2,9.46L100.41,401l7.73,33.27,11.35-2.63c1.21-.28,2-2.1,1.74-3.31l-1.62-7,11.14-2.59,4.45,19.16L93.5,447.6l-2.19-9.43,5.4-1.26L89,403.64l-5.4,1.26Z"/><path class="cls-2" d="M127.7,384.68l41.49-9.63,3.92,16.86-11.22,2.6-1.72-7.4-13.45,3.13,2.67,11.49,10.35-2.41,2.19,9.43-10.35,2.41,2.86,12.35,13.46-3.12-2.15-9.26L177,408.52l4.33,18.69-41.49,9.63-2.19-9.42,5.4-1.26-7.73-33.27-5.4,1.25Z"/><path class="cls-2" d="M185.09,416.39l5.34-1.24-7.73-33.27-5.33,1.24-2.21-9.53,25.44-5.84a16.08,16.08,0,0,1,19.74,12.06c1.16,5,.06,8.69-2.72,11.44a11.44,11.44,0,0,1,7.89,8.68c2.19,9.43-3.13,17.74-12,19.81l-26.19,6.08Zm9-37.16,2.71,11.7L205,389c2.58-.59,4.06-3.91,3.39-6.8s-3.52-5.49-6.1-4.89Zm4.9,21.12,2.82,12.15,8.67-2c2.69-.63,4.1-4.07,3.36-7.27-.79-3.37-3.56-5.49-6.18-4.88Z"/><path class="cls-2" d="M222.85,362.58l41.5-9.63,3.92,16.86-11.22,2.6L255.33,365l-13.45,3.12,2.67,11.49,10.35-2.4,2.19,9.43-10.36,2.4,2.87,12.35,13.46-3.12L260.91,389l11.22-2.6,4.33,18.68L235,414.75l-2.19-9.43,5.4-1.25-7.73-33.28-5.4,1.26Z"/><path class="cls-2" d="M304.36,343.66l19.79-4.6,2.19,9.47-4.23,1,9.92,42.7-11.39,2.64-29.07-28.2,5.51,23.74,4-.94,2.19,9.43-20.86,4.84-2.18-9.43,5.4-1.25-7.73-33.27L272.6,361l-2.2-9.47,16.83-3.9,29.14,28.84-5.65-24.33-4.16,1Z"/></svg>