<?xml version="1.0" encoding="UTF-8" standalone="no"?>
<!-- Created with Inkscape (http://www.inkscape.org/) -->

<svg
   xmlns:dc="http://purl.org/dc/elements/1.1/"
   xmlns:cc="http://creativecommons.org/ns#"
   xmlns:rdf="http://www.w3.org/1999/02/22-rdf-syntax-ns#"
   xmlns:svg="http://www.w3.org/2000/svg"
   xmlns="http://www.w3.org/2000/svg"
   xmlns:sodipodi="http://sodipodi.sourceforge.net/DTD/sodipodi-0.dtd"
   xmlns:inkscape="http://www.inkscape.org/namespaces/inkscape"
   width="300"
   height="303"
   id="svg4681"
   version="1.1"
   inkscape:version="0.48.5 r10040"
   sodipodi:docname="Neues Dokument 17">
  <defs
     id="defs4683" />
  <sodipodi:namedview
     id="base"
     pagecolor="#ffffff"
     bordercolor="#666666"
     borderopacity="1.0"
     inkscape:pageopacity="0.0"
     inkscape:pageshadow="2"
     inkscape:zoom="2.8"
     inkscape:cx="185.94419"
     inkscape:cy="195.8217"
     inkscape:document-units="px"
     inkscape:current-layer="layer1"
     showgrid="false"
     inkscape:window-width="1920"
     inkscape:window-height="1058"
     inkscape:window-x="1912"
     inkscape:window-y="-8"
     inkscape:window-maximized="1" />
  <metadata
     id="metadata4686">
    <rdf:RDF>
      <cc:Work
         rdf:about="">
        <dc:format>image/svg+xml</dc:format>
        <dc:type
           rdf:resource="http://purl.org/dc/dcmitype/StillImage" />
        <dc:title></dc:title>
      </cc:Work>
    </rdf:RDF>
  </metadata>
  <g
     inkscape:label="Ebene 1"
     inkscape:groupmode="layer"
     id="layer1"
     transform="translate(0,-749.36218)">
    <path
       inkscape:connector-curvature="0"
       id="path4138"
       d="m 142.3841,1052.2829 c 0,-0.091 0,-0.2467 0.0118,-0.3473 0,-0.1006 -0.28996,-0.6398 -0.65455,-1.1983 -1.95132,-2.9892 -5.71587,-16.041 -10.9057,-37.8105 -1.23851,-5.195 -2.32042,-9.7309 -2.40428,-10.0798 -0.29067,-1.2104 -0.99592,-0.6863 -1.97892,1.4708 -2.4134,5.2958 -13.01067,21.0203 -19.06115,28.2837 -1.38136,1.6582 -6.16077,5.4577 -6.5571,5.2128 -0.26876,-0.1661 -0.16441,-2.1419 0.50234,-9.521 0.82476,-9.1269 1.13569,-15.7133 1.14493,-24.248 0.0118,-8.95154 -0.10779,-10.00941 -1.10584,-10.00941 -0.21486,0 -1.508565,1.49083 -2.874873,3.31297 -1.366427,1.82213 -4.199606,5.02954 -6.295914,7.12764 -4.358445,4.3619 -15.315683,14.0894 -15.870493,14.0894 -0.0995,0 -0.4937,-0.2855 -0.87653,-0.6344 -0.3827,-0.3489 -1.07385,-0.9191 -1.53569,-1.2671 -0.93515,-0.7047 -0.81978,-0.085 -1.61457,-8.6718 -0.24401,-2.6362 -0.65503,-5.8082 -0.91324,-7.0488 -0.6433,-3.08914 -0.6234,-9.83108 0.0391,-13.25188 0.71425,-3.68864 1.7778,-7.48621 3.03099,-10.82298 1.25307,-3.33613 1.34238,-3.97961 0.55257,-3.97961 -0.30098,0 -0.62541,0.12647 -0.72088,0.28103 -0.36637,0.59274 -9.20253,7.05114 -11.59046,8.47149 -4.08258,2.4284 -11.8263,6.26297 -15.75974,7.80396 -5.97587,2.34117 -12.26692,3.81176 -12.2636,2.8667 0,-0.35911 0.60977,-1.89192 4.29673,-10.82358 1.43762,-3.48256 1.73681,-4.61464 1.3701,-5.18487 -0.21546,-0.33507 -3.04733,-0.77788 -5.49615,-0.85941 -0.47415,-0.0157 -0.51501,-0.1811 -0.37062,-1.498 0.23145,-2.11255 1.11804,-4.63384 3.03241,-8.62377 2.77323,-5.78001 6.52902,-11.66369 13.88825,-21.75681 2.31791,-3.17903 4.34956,-6.07462 4.5149,-6.43465 0.45343,-0.98786 -0.10305,-1.1687 -3.61482,-1.1754 -7.42983,-0.0142 -28.62092,-2.46858 -37.78152,-4.37594 -4.82798,-1.00524 -7.79548,-2.62265 -7.35544,-4.00906 0.20492,-0.64547 3.21506,-2.45798 8.28989,-4.99149 2.85047,-1.42307 3.73221,-1.98954 3.6622,-2.3529 -0.0509,-0.26321 -1.42292,-1.42172 -3.04946,-2.57445 C 9.2837,912.84355 4.24274,909.11806 2.25624,907.44398 1.09319,906.46387 0.10983,905.68946 0.0711,905.72308 0.032,905.75668 0,905.68908 0,905.57273 c 0,-0.11632 0.0948,-0.22277 0.21143,-0.23659 0.11608,-0.0139 0.78247,-0.28995 1.48026,-0.61363 0.6979,-0.32368 3.23543,-1.17581 5.63911,-1.89363 9.5182,-2.84244 10.66656,-3.26356 12.91164,-4.73484 7.63936,-5.0064 20.77025,-8.99123 32.06009,-9.72925 2.47439,-0.16174 3.10146,-0.28799 3.10146,-0.62441 0,-0.27579 -0.43897,-0.50572 -1.26882,-0.66463 -9.04855,-1.73273 -13.70395,-3.15463 -18.32701,-5.59751 -8.44528,-4.46266 -15.95174,-12.15712 -20.30308,-20.8115 -1.14872,-2.28466 -2.37395,-5.60761 -2.1502,-5.8314 0.0722,-0.0721 2.26723,-0.49666 4.87783,-0.94325 7.83528,-1.34035 8.30671,-1.44424 8.46862,-1.86608 0.0841,-0.22048 -0.26106,-1.06162 -0.76814,-1.86921 -1.90087,-3.02766 -8.39732,-13.95094 -9.4598,-15.90583 -0.85485,-1.57294 -1.02814,-2.10738 -0.76778,-2.36772 0.2305,-0.23061 2.40012,-0.38959 6.90639,-0.5061 l 6.57025,-0.16987 0.0841,-0.71626 c 0.0711,-0.60698 -1.37614,-5.8327 -2.0462,-7.3899 -0.19308,-0.44878 0.0142,-0.4934 2.28499,-0.49308 3.84557,5.5e-4 12.4613,1.07343 26.10649,3.251 7.03799,1.12316 7.2647,1.13957 7.2647,0.52544 0,-0.24888 -1.2552,-2.69131 -2.78923,-5.42762 -4.97591,-8.87517 -14.4838,-27.14188 -15.93386,-30.61229 l -0.45698,-1.09353 3.45752,0.17362 c 6.02289,0.30243 13.72633,1.84565 18.61093,3.72832 2.98218,1.14943 9.38352,4.63009 13.46681,7.32244 1.52775,1.00736 2.94985,1.83156 3.16033,1.83156 0.30975,0 0.3833,-1.11368 0.38614,-5.85055 0,-6.19541 0.3531,-9.60422 1.69477,-16.53397 1.596461,-8.24561 4.751465,-19.34472 5.498878,-19.34472 0.148061,0 3.49365,2.8548 7.434918,6.34398 3.941154,3.48918 7.347974,6.34397 7.570784,6.34397 0.2228,0 0.53669,-0.1586 0.69754,-0.35245 0.81434,-0.98126 2.85746,-11.82873 3.47849,-18.468 0.24436,-2.61362 0.4552,-3.73589 0.70169,-3.73589 0.50116,0 3.31693,2.30249 7.67502,6.27595 2.06847,1.88596 4.46895,3.85553 5.33434,4.37683 9.09012,5.47581 15.90875,15.56793 19.8563,29.38917 0.71377,2.49916 0.98478,3.09705 1.4035,3.09705 0.28546,0 0.51892,-0.057 0.51892,-0.12667 0,-0.0696 0.26142,-1.48164 0.58112,-3.13773 0.80687,-4.18115 2.21582,-8.30952 4.07926,-11.95255 4.05047,-7.91855 9.44914,-13.36993 20.22408,-20.4215 1.88191,-1.23161 4.28287,-3.12067 5.55407,-4.36984 2.13966,-2.10263 3.81701,-3.2523 4.3049,-2.95074 0.57661,0.3564 1.35293,2.54245 2.18894,6.164 0.50116,2.17105 1.22215,4.83253 1.60214,5.91441 1.19444,3.40018 1.58532,6.93621 1.5589,14.10434 -0.013,3.56672 -0.13775,7.62686 -0.27693,9.02253 -0.26319,2.63719 -0.20717,3.24248 0.29991,3.24248 0.16524,0 2.59415,-2.26048 5.39748,-5.02327 5.43278,-5.35433 9.35296,-8.6429 13.72432,-11.51301 3.33777,-2.19155 7.58606,-4.34442 10.46354,-5.30253 2.47783,-0.82507 5.40648,-1.22649 5.68306,-0.77897 0.22919,0.37084 -0.2446,8.0532 -1.04496,16.94393 -0.47048,5.22639 -0.54131,6.97909 -0.29529,7.31548 0.28119,0.38462 0.65004,0.21669 2.82453,-1.28595 7.28342,-5.03324 18.72262,-12.73564 20.09912,-13.53351 0.86609,-0.50205 1.94232,-0.91441 2.39148,-0.91635 l 0.8167,-0.004 -0.17044,4.72274 c -0.2581,7.15629 -1.22761,12.51919 -3.50443,19.38436 -2.90437,8.75739 -9.06928,18.97214 -15.74056,26.08077 -2.63537,2.80817 -2.61179,3.55646 0.077,2.44204 3.85599,-1.59825 7.38245,-2.44155 10.21468,-2.44265 3.01926,-10e-4 15.17567,-2.32204 21.53768,-4.1119 2.34671,-0.66021 4.77314,-1.62876 7.66329,-3.05896 4.14535,-2.0513 7.19731,-3.15707 9.16356,-3.32003 0.95482,-0.0791 0.98443,-0.0521 0.91502,0.83648 -0.0948,1.21674 -3.45599,11.45769 -4.89419,14.91323 -4.71143,11.32049 -11.20207,19.57548 -19.14513,24.34937 -2.39374,1.43873 -6.36521,3.08521 -12.40113,5.1413 -2.69258,0.91721 -3.5473,1.32684 -3.62394,1.7369 -0.0924,0.49753 0.0296,0.52262 1.69086,0.34445 15.60232,-1.67392 28.15778,-0.10341 40.49435,5.06509 5.63687,2.36167 11.95149,6.26836 16.84189,10.41972 2.41506,2.0501 5.39571,4.1949 5.85055,4.20984 0.11608,0.004 0.21143,0.1021 0.21143,0.21841 0,0.11631 0,0.33835 0,0.49342 0,0.15507 -0.0948,0.2536 -0.21143,0.21894 -0.11608,-0.0347 -1.017,0.78212 -2.00143,1.81508 -1.72983,1.81495 -1.78361,1.91563 -1.60119,2.99547 0.25762,1.52489 -0.45994,2.84753 -2.71237,4.99935 -2.88115,2.75242 -8.31369,6.11048 -11.56889,7.15116 -2.32907,0.74457 -6.56646,4.06069 -6.38606,4.99755 0.13776,0.71514 4.22614,4.15391 9.05625,7.61711 5.27926,3.7853 8.02005,6.80082 9.30072,10.23294 0.33936,0.90946 0.32254,0.9424 -1.17146,2.28282 -0.83376,0.74801 -2.41967,1.83043 -3.52445,2.40537 -1.10477,0.57493 -2.59438,1.5866 -3.31041,2.24814 -0.71602,0.66155 -1.92135,1.51301 -2.67859,1.89214 -4.27719,2.14162 -12.46154,3.82947 -22.78341,4.69865 -1.84887,0.15569 -3.47079,0.39222 -3.60416,0.52562 -0.4263,0.42628 0.0486,0.99396 2.63916,3.15638 3.17585,2.65079 10.19489,9.8035 12.72804,12.97052 5.13796,6.42355 7.94247,11.6388 8.50368,15.81356 0.29103,2.16377 -0.0509,2.6091 -3.2269,4.20288 -3.42542,1.71894 -6.44327,2.49419 -10.57666,2.717 -9.06797,0.48881 -21.87869,-3.32409 -35.24435,-10.48988 -8.32956,-4.46577 -10.60165,-5.33842 -11.02522,-4.23449 -0.10186,0.26645 0.45946,2.20436 1.29761,4.47722 7.80448,21.16172 12.51626,36.04729 12.74628,40.26829 l 0.0829,1.521 -2.33237,-0.076 c -3.28139,-0.1065 -6.09325,-0.7656 -8.23516,-1.9303 -2.80689,-1.5263 -8.53294,-5.44162 -11.98881,-8.19754 -3.88441,-3.09777 -10.60022,-9.76665 -14.85325,-14.74941 -1.78692,-2.09352 -3.48986,-4.01239 -3.78421,-4.26416 -0.76825,-0.65696 -2.56406,-1.17569 -3.36987,-0.97344 -0.94439,0.23702 -0.96476,1.60917 -0.0332,2.21966 1.54765,1.01403 3.67961,6.5649 4.94927,12.88633 1.44685,7.2038 1.87291,16.83786 1.00847,22.80216 -1.15606,7.975 -4.04645,17.0863 -7.08573,22.3356 -1.45562,2.5142 -1.65994,2.59 -2.9598,1.0977 -2.04668,-2.3498 -10.26502,-12.4983 -16.43561,-20.2957 -3.37485,-4.2645 -6.36391,-7.7927 -6.6425,-7.8404 -0.56216,-0.096 -0.61735,0.086 -1.13604,3.7521 -0.47546,3.3595 -1.30116,7.235 -2.27931,10.6973 -1.14635,4.0577 -5.86666,15.8342 -7.01668,17.5057 -1.04957,1.5255 -2.91041,2.7981 -4.96952,3.3985 -1.13699,0.3316 -1.6025,0.6529 -2.15518,1.4881 -1.03157,1.5588 -2.47108,4.4911 -2.38769,4.8636 0.0403,0.1772 -0.0865,0.3803 -0.28037,0.4513 -0.19378,0.071 -0.35239,0.055 -0.35239,-0.035 z m 22.46182,-79.88428 c 0.37856,-0.90597 0.39526,-1.45242 0.11845,-3.87688 -1.14327,-10.0141 -0.4141,-15.6704 2.12853,-16.50951 2.29021,-0.75586 6.56787,2.6038 11.77299,9.24647 1.36702,1.7446 2.66285,3.17199 2.87961,3.17199 0.55765,0 0.51904,-0.6012 -0.56986,-8.85333 -0.99236,-7.51989 -0.98715,-8.62477 0.0403,-8.63074 0.27516,-0.001 2.44171,1.96503 4.81436,4.37029 3.98284,4.03758 4.87014,4.7423 5.23248,4.15588 0.0734,-0.11952 -0.36305,-2.11788 -0.97105,-4.44078 -0.60788,-2.32291 -1.17643,-5.11162 -1.26349,-6.19715 l -0.15801,-1.97368 0.89156,0.98685 c 0.49038,0.54276 2.63893,3.58786 4.77468,6.7669 4.5206,6.72896 5.02709,7.33082 6.16905,7.33082 0.92272,0 2.58029,-1.60117 2.58029,-2.49235 0,-0.5929 -1.18934,-2.29387 -5.95276,-8.5131 -4.3716,-5.70775 -6.32695,-8.67475 -6.56965,-9.96862 -0.2388,-1.27278 0.33142,-2.64831 1.50832,-3.63861 1.02873,-0.86567 0.73202,-0.95525 4.335,1.30874 3.14849,1.97841 4.30786,2.3938 4.93398,1.76769 0.59746,-0.59745 0.2388,-2.35369 -1.33136,-6.5206 -0.63406,-1.68253 -1.15286,-3.28154 -1.15286,-3.55335 0,-0.64279 1.43311,-1.65389 2.61618,-1.84588 0.77809,-0.12627 1.16115,0.032 2.34718,0.96949 1.46379,1.15704 7.20122,7.22682 9.73579,10.29973 1.85135,2.24465 2.56134,2.56894 4.41731,2.01778 0.76921,-0.22846 1.55488,-0.60364 1.74594,-0.83375 0.97282,-1.17222 -1.15713,-4.08435 -8.44695,-11.54888 l -6.07145,-6.21702 0.9868,-0.0995 c 0.54285,-0.0547 2.0263,0.0525 3.29667,0.23824 2.2112,0.32328 2.90638,0.25751 2.90638,-0.27499 0,-0.13416 -1.39651,-1.74439 -3.10336,-3.57828 -1.70697,-1.8339 -3.55833,-3.98671 -4.11421,-4.78401 l -1.01072,-1.44964 0.23725,-2.46877 c 0.21131,-2.19846 0.31839,-2.52913 0.97756,-3.02001 1.04223,-0.77603 3.46274,-1.28289 7.71837,-1.61627 5.02223,-0.39344 5.73908,-0.5294 6.07216,-1.15179 0.46823,-0.87487 -0.55505,-1.5657 -3.7341,-2.52101 -8.6219,-2.59086 -9.77049,-3.04249 -9.37298,-3.68562 0.09,-0.14626 0.84703,-0.7026 1.68126,-1.23631 0.83436,-0.53371 1.73232,-1.29908 1.99563,-1.70081 l 0.47853,-0.73043 -1.77661,-1.79013 c -2.00984,-2.02503 -2.50946,-2.79203 -2.52379,-3.87427 -0.0201,-1.49458 2.0064,-2.41754 6.72162,-3.06191 2.13303,-0.29148 3.29394,-0.28977 6.22567,0.009 3.9376,0.40147 5.76882,0.28703 6.45949,-0.40367 0.59687,-0.5969 0.57247,-2.4104 -0.045,-3.35311 -0.64104,-0.97833 -1.75008,-0.9875 -7.3982,-0.0611 -9.55254,1.56671 -13.27871,1.88149 -13.56109,1.14559 -0.22861,-0.59549 2.0417,-3.66191 4.21903,-5.69872 2.17496,-2.03458 6.50604,-4.96312 9.56333,-6.46633 1.98402,-0.97551 2.56145,-1.53078 1.97122,-1.89553 -0.11726,-0.0727 -1.83335,0.10435 -3.81275,0.39339 -5.4689,0.7987 -14.87054,1.37057 -14.85905,0.90382 0,-0.11631 1.73397,-1.09962 3.84686,-2.18514 2.11301,-1.08553 4.14074,-2.20493 4.50603,-2.48757 0.84348,-0.65239 0.86634,-1.83191 0.0557,-2.86264 -0.51809,-0.65866 -0.76376,-0.75323 -1.64857,-0.63454 -1.51164,0.20275 -6.56029,2.28072 -9.08479,3.73922 -1.50312,0.86844 -2.50081,1.25868 -3.21767,1.25868 -1.37756,0 -3.24147,-1.12215 -3.90241,-2.34941 -0.49808,-0.92498 -0.50128,-1.0222 -0.0545,-1.704 0.85449,-1.30415 4.58101,-5.61182 7.74822,-8.95671 6.67613,-7.05042 6.50296,-7.90941 -0.62624,-3.10843 -6.56906,4.42368 -10.48309,6.81405 -11.15753,6.81405 -0.96027,0 -2.72729,-1.0466 -3.4278,-2.0303 -0.41409,-0.58162 -0.63879,-1.27771 -0.61628,-1.90957 0.019,-0.54688 1.0536,-3.78568 2.29814,-7.19732 3.71408,-10.18091 3.99836,-11.53341 2.31153,-10.99802 -1.80848,0.57398 -7.9144,5.90461 -10.16362,8.87304 -0.62494,0.8248 -0.90211,0.95501 -2.25563,1.05971 -2.11253,0.16342 -4.39812,-0.96753 -5.17645,-2.56138 -0.51549,-1.05572 -0.51667,-1.18304 -0.0403,-4.15805 0.58703,-3.66103 0.46858,-4.48032 -0.64744,-4.48032 -0.95588,0 -2.53315,0.97666 -5.6788,3.5163 -3.06782,2.4768 -4.34257,3.03921 -7.19991,3.1766 -1.91828,0.0923 -2.39551,0.0204 -3.19102,-0.48008 -1.044,-0.65693 -2.13539,-2.77291 -2.45106,-4.75219 -0.1066,-0.66986 -0.37311,-1.28658 -0.59177,-1.37049 -0.23015,-0.0884 -0.85425,0.31805 -1.48215,0.96506 -0.59651,0.61469 -1.67996,1.52726 -2.40771,2.02794 -1.09944,0.75647 -1.39568,0.85005 -1.75281,0.55369 -1.11815,-0.92795 -2.09986,-3.86952 -2.94535,-8.82492 -0.58881,-3.45092 -0.8706,-4.28591 -1.64809,-4.8828 -2.25006,-1.72754 -3.12469,2.55976 -2.02584,9.92991 0.32372,2.17105 0.58929,4.42964 0.59012,5.01909 0,0.97093 -0.0971,1.11292 -1.04745,1.50998 -1.14327,0.47773 -4.76212,0.61389 -6.79375,0.25563 -1.02056,-0.17999 -1.64407,-0.62302 -3.86582,-2.74707 -3.09057,-2.95456 -3.54742,-3.05988 -3.85977,-0.88969 -0.51952,3.60977 -2.81565,7.50395 -6.42905,10.90318 -2.71082,2.55014 -4.87879,3.71201 -6.9263,3.71201 -1.37602,0 -1.53166,-0.0843 -3.90277,-2.11465 -6.05902,-5.1883 -9.400584,-7.57922 -10.040208,-7.18387 -0.941787,0.58201 0.487417,2.97888 4.940028,8.28497 3.06984,3.6583 3.52587,4.40464 3.52717,5.77349 0.001,1.15485 -0.84548,2.82603 -1.64537,3.24787 -0.2767,0.14591 -1.06746,0.12299 -1.93273,-0.056 -1.08227,-0.22389 -1.652482,-0.21726 -2.185147,0.0255 -0.840513,0.38297 -0.888485,0.87537 -0.263786,2.70882 l 0.456976,1.34101 -0.838973,0.89437 c -0.461359,0.49189 -1.333142,1.70989 -1.937113,2.70665 -0.60409,0.99677 -1.623461,2.39244 -2.265217,3.1015 l -1.166958,1.2892 -2.07558,-0.0226 c -1.332432,-0.0146 -3.07138,-0.29845 -4.856997,-0.79307 -4.024425,-1.11467 -4.449415,-0.73731 -2.255985,2.00301 0.718519,0.89772 1.82341,2.17145 2.455335,2.83051 0.631806,0.65908 0.993194,1.19832 0.803083,1.19832 -0.190229,0 -3.103128,-0.8991 -6.473238,-1.998 -3.36999,-1.0989 -6.55164,-2.01254 -7.07021,-2.03032 -1.05041,-0.036 -2.00025,0.88469 -2.01138,1.94962 -0.0119,0.8094 0.17246,0.91631 4.22306,2.49582 4.67138,1.82159 7.78422,3.26185 9.703807,4.48981 1.508328,0.96484 1.574304,1.05752 1.572527,2.20891 0,2.53165 -2.147834,4.24661 -7.097104,5.677 -3.21849,0.93019 -9.06395,1.55522 -14.82305,1.585 -0.19378,0.001 -0.35239,0.1886 -0.35239,0.41687 0,0.26539 0.58455,0.57659 1.62121,0.863 4.09964,1.13269 6.39778,1.98751 9.79786,3.64453 4.41376,2.15093 6.66228,3.61837 8.414019,5.49116 1.089019,1.16429 1.31348,1.58821 1.31348,2.48133 0,0.59245 -0.196151,1.35724 -0.43601,1.69955 -0.595443,0.85023 -2.465399,1.88578 -4.498219,2.49103 -1.76169,0.52454 -2.39658,0.86097 -2.39658,1.26989 0,0.13279 1.14185,1.15576 2.53753,2.27328 1.39569,1.11751 2.53765,2.1208 2.53765,2.22951 0,0.2051 -5.95122,1.38974 -6.98161,1.38974 -1.56447,0 -1.90608,0.86112 -0.90151,2.272 0.65004,0.91294 0.58703,0.89828 6.6143,1.53746 4.954601,0.52542 5.498163,0.63784 5.498163,1.13726 0,0.20588 -0.697901,1.4169 -1.550852,2.69116 -0.852832,1.27426 -1.550732,2.49046 -1.550732,2.70266 0,0.4591 0.368139,0.61439 4.229336,1.78434 3.313607,1.00401 3.692051,1.22614 3.089383,1.81312 -0.649218,0.63237 -4.638221,2.85831 -12.190408,6.80242 -3.84236,2.00674 -7.32985,3.92065 -7.74975,4.25311 -1.07291,0.84956 -1.04449,2.73384 0.0557,3.68003 0.41552,0.35733 0.97625,0.64968 1.24632,0.64968 0.27006,0 3.40327,-1.85439 6.96266,-4.12086 7.913809,-5.03912 13.661541,-7.9183 13.661541,-6.84338 0,0.17856 -0.821561,1.79868 -1.825771,3.60029 -1.966844,3.52892 -2.406052,4.84882 -1.840222,5.53056 0.869652,1.04794 3.260187,0.21892 7.743714,-2.68555 2.609308,-1.69029 2.665098,-1.71095 3.482758,-1.28813 0.45697,0.23634 1.17939,0.84379 1.60522,1.34991 0.72775,0.86477 0.76518,1.04138 0.62233,2.93112 -0.10661,1.41211 -0.66332,3.53066 -1.86865,7.11447 -0.94404,2.80694 -1.71645,5.23544 -1.71645,5.39665 0,0.84541 1.1871,-0.0814 4.68643,-3.65858 5.20429,-5.32033 6.92749,-6.41347 8.08805,-5.13104 0.62695,0.69279 1.51875,2.78915 1.76477,4.14852 0.11253,0.62031 0.43945,1.43041 0.72716,1.80025 0.59899,0.77006 0.67113,2.3366 0.23192,5.04256 -0.64081,3.94892 0.86515,3.85027 5.93453,-0.38872 1.55606,-1.30116 3.05503,-2.36574 3.3309,-2.36574 0.62114,0 2.74896,1.34182 3.76892,2.37664 1.02802,1.04307 1.79628,3.49548 2.56975,8.20337 0.81706,4.97365 0.99935,5.0647 3.03111,1.5142 4.4551,-7.78511 8.58458,-10.96449 12.25117,-9.43248 2.17223,0.90762 4.74233,4.61538 6.36343,9.18034 1.11638,3.1437 1.39094,2.96817 3.08772,-1.97368 1.23779,-3.60516 1.68281,-4.52304 1.68281,-3.47071 0,1.5398 2.49441,9.70581 3.96697,12.98667 0.67788,1.51045 0.89618,1.76222 1.52787,1.76222 0.58478,0 0.82796,-0.21781 1.17762,-1.05462 z M 109.11347,750.14544 c 0,-0.36483 0.47936,-0.36483 0.70489,0 0.0959,0.15507 -0.0237,0.28195 -0.26533,0.28195 -0.24175,0 -0.43956,-0.12688 -0.43956,-0.28195 z"
       style="fill:#ffee00;fill-opacity:1" />
  </g>
</svg>
