<?xml version="1.0" encoding="UTF-8" standalone="no"?>
<!-- Created with Inkscape (http://www.inkscape.org/) -->

<svg
   xmlns:dc="http://purl.org/dc/elements/1.1/"
   xmlns:cc="http://creativecommons.org/ns#"
   xmlns:rdf="http://www.w3.org/1999/02/22-rdf-syntax-ns#"
   xmlns:svg="http://www.w3.org/2000/svg"
   xmlns="http://www.w3.org/2000/svg"
   xmlns:sodipodi="http://sodipodi.sourceforge.net/DTD/sodipodi-0.dtd"
   xmlns:inkscape="http://www.inkscape.org/namespaces/inkscape"
   width="300"
   height="160.161"
   viewBox="0 0 300.00001 160.161"
   id="svg2"
   version="1.1"
   inkscape:version="0.91 r13725"
   sodipodi:docname="berlin-gruen.svg">
  <defs
     id="defs4">
    <style
       id="style4140"
       type="text/css"><![CDATA[
    .fil0 {fill:#47B5E7;fill-rule:nonzero}
    .fil2 {fill:#FEFEFE;fill-rule:nonzero}
    .fil1 {fill:#FFF225;fill-rule:nonzero}
   ]]></style>
    <style
       id="style4229"
       type="text/css"><![CDATA[
    .fil0 {fill:#FFF225;fill-rule:nonzero}
   ]]></style>
    <style
       id="style4249"
       type="text/css"><![CDATA[
    .fil0 {fill:#47B5E7;fill-rule:nonzero}
    .fil2 {fill:#FEFEFE;fill-rule:nonzero}
    .fil1 {fill:#FFF225;fill-rule:nonzero}
   ]]></style>
  </defs>
  <sodipodi:namedview
     id="base"
     pagecolor="#ffffff"
     bordercolor="#666666"
     borderopacity="1.0"
     inkscape:pageopacity="0.0"
     inkscape:pageshadow="2"
     inkscape:zoom="1.751976"
     inkscape:cx="201.89618"
     inkscape:cy="9.0225106"
     inkscape:document-units="px"
     inkscape:current-layer="Layer_x0020_1"
     showgrid="false"
     units="px"
     inkscape:window-width="1680"
     inkscape:window-height="987"
     inkscape:window-x="-8"
     inkscape:window-y="-8"
     inkscape:window-maximized="1" />
  <metadata
     id="metadata7">
    <rdf:RDF>
      <cc:Work
         rdf:about="">
        <dc:format>image/svg+xml</dc:format>
        <dc:type
           rdf:resource="http://purl.org/dc/dcmitype/StillImage" />
        <dc:title />
      </cc:Work>
    </rdf:RDF>
  </metadata>
  <g
     inkscape:label="Ebene 1"
     inkscape:groupmode="layer"
     id="layer1"
     transform="translate(0,-892.20119)">
    <g
       style="clip-rule:evenodd;fill-rule:evenodd;image-rendering:optimizeQuality;shape-rendering:geometricPrecision;text-rendering:geometricPrecision"
       id="g4306"
       transform="matrix(0.12701101,0,0,0.1270111,-26.037257,866.67196)">
      <g
         id="Layer_x0020_1">
        <metadata
           id="CorelCorpID_0Corel-Layer" />
        <path
           style="fill:#fff225;fill-opacity:1"
           d="m 1921.7008,1417.1929 c -6.2825,-9.5884 -22.6566,-65.2992 -39.564,-134.6123 -12.3057,-50.4473 -16.9069,-65.5092 -16.9069,-55.3439 0,6.126 -30.6123,54.7017 -56.8032,90.1354 -22.5986,30.5738 -41.2134,49.5984 -48.53,49.5984 -1.5452,0 -3.5253,-31.4912 -4.4816,-71.2746 -1.885,-78.421 1.1186,-103.7555 17.8489,-150.5441 10.2742,-28.7333 48.1099,-103.7306 63.5671,-126.0017 0.4038,-0.5819 6.618,-0.044 13.8094,1.1953 l 13.0751,2.2532 -11.7227,4.9659 -11.7225,4.9659 8.0795,3.6814 c 11.9638,5.4511 46.1964,4.341 64.8563,-2.1031 20.8533,-7.2017 14.5463,0.2801 -7.2745,8.6293 l -14.9596,5.7239 8.5256,3.2868 c 14.9478,5.7628 37.6944,3.9516 54.633,-4.3501 l 15.5823,-7.637 -12.7538,12.1796 -12.7538,12.1798 9.0688,0 c 10.548,0 35.7185,-12.0368 52.0236,-24.8781 13.6008,-10.7116 14.4898,-7.8467 2.0737,6.6822 -10.7289,12.5544 -7.9911,14.3397 11.872,7.7422 16.5773,-5.5061 36.3486,-21.162 49.2956,-39.035 9.3983,-12.9739 11.3202,-9.6282 5.7088,9.9377 -1.6372,5.7085 -2.3104,11.0455 -1.4961,11.8597 0.8143,0.8143 7.5352,-4.8384 14.9354,-12.5616 15.0577,-15.7151 25.8794,-44.04795 25.8794,-67.75645 0,-7.41839 1.1681,-12.76602 2.5959,-11.88357 3.0191,1.86591 9.1943,31.12568 10.2829,48.72332 l 0.7495,12.1139 6.536,-10.18672 c 9.3706,-14.60407 14.2238,-44.75648 12.3875,-76.96116 -1.5582,-27.32951 -1.5379,-27.42834 4.1233,-20.12836 8.4615,10.911 20.8664,36.48021 20.8664,43.01066 0,8.86512 6.7331,4.49457 10.9178,-7.08683 8.4675,-23.4349 1.9362,-63.10294 -15.3198,-93.04491 l -7.4763,-12.97277 9.1912,5.40149 c 5.0551,2.9708 17.3807,13.91907 27.3902,24.32954 10.0096,10.41047 18.7674,18.92804 19.4618,18.92804 0.6944,0 1.2624,-3.39238 1.2624,-7.5387 0,-16.836 -18.9626,-53.43302 -38.8383,-74.95614 -4.214,-4.56321 -6.8656,-9.09285 -5.8926,-10.06592 2.0563,-2.05638 18.7676,6.08678 29.2398,14.24822 3.9724,3.0958 8.258,5.62872 9.5237,5.62872 2.7761,0 -0.8761,-17.40858 -5.4421,-25.94034 -3.4919,-6.52456 -27.5342,-29.61671 -40.0748,-38.49102 -7.5314,-5.32954 -7.4837,-5.34753 9.0854,-3.41846 9.1612,1.06671 25.1744,5.01608 35.5849,8.77648 20.0303,7.23533 21.6105,6.41824 14.4323,-7.46265 -6.5603,-12.68628 -27.6883,-28.8241 -53.3085,-40.71787 -25.2044,-11.70061 -24.895,-12.26569 9.9278,-18.13313 22.0517,-3.71554 22.0874,-3.73723 14.4491,-8.74201 -4.2115,-2.75945 -17.7518,-6.44891 -30.0894,-8.19861 -12.3375,-1.7498 -22.8828,-3.6323 -23.4338,-4.1832 -1.8554,-1.85542 33.8454,-16.5511 45.3088,-18.65045 6.2462,-1.14405 11.3568,-3.2271 11.3568,-4.62916 0,-4.21507 -21.5249,-8.85932 -40.8847,-8.82125 -9.9941,0.018 -27.6167,2.03669 -39.1615,4.48237 -11.5449,2.44569 -21.4894,3.94787 -22.099,3.33822 -1.8819,-1.8819 27.3386,-22.16514 38.5468,-26.75683 l 10.5997,-4.34257 -11.7353,-3.89761 c -14.0826,-4.67722 -33.484,-2.53451 -52.2616,5.77172 l -13.4778,5.96187 6.39,-8.97384 c 7.9019,-11.09735 37.3977,-35.40111 50.6424,-41.72821 12.8353,-6.13145 12.4156,-8.45142 -1.9448,-10.74772 -28.3441,-4.53243 -72.8622,12.01428 -103.148,38.33853 -6.1014,5.30326 -10.9301,7.65102 -11.6004,5.64021 -2.3877,-7.16318 6.6548,-26.20074 18.6677,-39.30201 l 12.4704,-13.6004 -13.6282,2.06477 c -18.0309,2.73177 -35.9839,15.58772 -43.7111,31.30115 -3.4425,7.0002 -7.1515,12.7913 -8.2423,12.86905 -3.1253,0.22293 0.3783,-23.71699 6.6277,-45.28607 3.137,-10.82686 9.8186,-26.15858 14.8482,-34.0706 8.9974,-14.15369 9.0359,-14.38482 2.3972,-14.35694 -20.9941,0.0889 -61.9757,37.73907 -78.2935,71.92998 -9.1042,19.07604 -9.7833,19.76023 -12.6221,12.71456 -1.6502,-4.09546 -3.1484,-21.99926 -3.3292,-39.78625 -0.3205,-31.50201 -0.4778,-32.20839 -6.0685,-27.25646 -8.6242,7.63842 -17.0552,28.75774 -23.0767,57.80617 l -5.3933,26.01818 -6.6908,-14.79901 c -3.6799,-8.13946 -7.4052,-22.67826 -8.2785,-32.30841 -1.9064,-21.02369 -6.3442,-21.15829 -16.3466,-0.49583 -5.2746,10.89571 -6.7148,19.10311 -6.5958,37.58559 0.084,13.00524 -0.3264,23.64594 -0.9114,23.64594 -0.5849,0 -4.5049,-6.79126 -8.7111,-15.0916 -9.5299,-18.80653 -16.6825,-45.71934 -16.6825,-62.77138 0,-7.14549 -1.2639,-12.99195 -2.8086,-12.99195 -5.229,0 -15.3512,15.89629 -20.0319,31.45864 -5.2556,17.47412 -6.1689,64.3606 -1.5612,80.16067 2.6112,8.95395 2.3471,9.9589 -2.2166,8.43683 -2.8495,-0.95029 -15.1508,-5.2464 -27.3361,-9.54691 -16.6818,-5.88733 -26.7824,-7.59756 -40.8848,-6.92256 l -18.7294,0.89644 18.3781,9.97139 c 10.1079,5.48423 26.8059,17.74962 37.1065,27.25646 l 18.7287,17.28507 -15.4818,27.25646 c -8.515,14.99106 -20.2412,32.22606 -26.0584,38.29995 -20.5274,21.43349 -54.5507,34.55374 -69.2309,26.69718 -9.5323,-5.10161 -21.641,0.046 -23.0219,9.78703 -0.8914,6.28813 -2.3502,6.88789 -14.6185,6.01054 -20.9442,-1.49799 -70.9847,-12.10282 -89.1122,-18.88518 -36.1584,-13.52865 -71.7704,-43.64369 -97.8664,-82.76024 -14.1047,-21.1423 -28.7467,-52.7898 -26.2743,-56.79023 0.7441,-1.2041 11.3924,-3.80877 23.6627,-5.7882 12.2703,-1.97933 23.8313,-4.53933 25.6912,-5.68888 2.202,-1.36088 -4.7048,-15.59851 -19.7991,-40.81429 -18.4813,-30.87397 -22.3178,-39.27063 -18.9245,-41.41884 2.3409,-1.482 15.4994,-2.71538 29.2412,-2.74096 13.7418,-0.024 24.9851,-0.48045 24.9851,-1.01095 0,-0.53051 -2.137,-8.16044 -4.7487,-16.95541 -2.6119,-8.79497 -3.9675,-16.77225 -3.0125,-17.72714 2.1157,-2.11573 56.549,3.93728 104.2152,11.5888 19.2737,3.0938 35.5534,5.1149 36.1769,4.49136 0.6237,-0.62374 -6.9997,-15.89639 -16.9407,-33.9395 -19.7546,-35.85497 -58.1488,-111.77369 -58.1488,-114.98061 0,-3.58604 46.3187,1.53416 70.7104,7.8165 21.4006,5.512 49.6416,19.00398 76.9289,36.7522 l 9.8426,6.40195 0,-24.12868 c 0,-36.7715 18.3154,-127.87954 28.4495,-141.51961 2.7944,-3.76101 8.3704,-0.047 33.6347,22.40066 27.1422,24.1168 30.5246,26.27679 32.5945,20.81535 1.9521,-5.15028 6.2178,-30.18489 13.1691,-77.28611 0.7989,-5.41338 2.4665,-9.84259 3.7059,-9.84259 1.2394,0 11.7395,8.60271 23.3336,19.1172 11.5942,10.51439 27.213,23.2996 34.7085,28.4114 32.7101,22.30784 56.852,56.27212 71.964,101.24292 l 8.7609,26.07104 3.6296,-17.57265 c 9.132,-44.21297 39.4418,-85.17035 87.2043,-117.83839 13.0786,-8.94526 29.6985,-21.62215 36.9331,-28.17078 8.4399,-7.63973 14.1998,-10.86064 16.0728,-8.98783 1.6053,1.60541 7.2077,17.08252 12.4498,34.39356 8.7561,28.91583 9.5422,35.04478 9.6694,75.38792 l 0.1384,43.91309 21.0521,-20.89738 c 24.9797,-24.79629 51.2287,-44.63156 74.8927,-56.59348 19.5586,-9.88666 42.1367,-15.80416 45.909,-12.03226 1.3985,1.39846 0.8977,23.20237 -1.113,48.45322 -2.0106,25.25074 -3.1549,46.39294 -2.5428,46.98261 0.6121,0.58966 22.4795,-13.28894 48.5941,-30.8414 32.7752,-22.02914 49.083,-31.29886 52.6529,-29.92898 4.5418,1.74291 4.9222,5.06145 3.1224,27.24237 -5.314,65.49157 -26.7912,116.07341 -73.9261,174.10591 l -10.0401,12.36132 11.1109,-4.64245 c 6.111,-2.5533 22.8944,-5.97086 37.2965,-7.59466 42.3897,-4.77915 89.7557,-16.75166 118.3085,-29.90429 27.9099,-12.85645 39.6169,-15.17353 39.6169,-7.84108 0,6.81874 -14.3669,50.64479 -23.0432,70.2927 -17.6952,40.07224 -52.276,80.80629 -81.0828,95.51048 -6.8591,3.5012 -21.3294,9.53262 -32.1564,13.40334 l -19.6852,7.03758 24.2281,-1.7523 c 48.562,-3.51219 108.7765,8.24218 151.4248,29.55945 22.4982,11.24555 80.2551,52.28887 80.2551,57.03114 0,1.15335 -3.4071,5.29767 -7.5713,9.20977 -4.504,4.23135 -7.5711,10.47512 -7.5711,15.41295 0,11.0471 -21.846,30.37644 -49.7529,44.02141 -20.5695,10.05743 -32.0166,18.07877 -32.0166,22.43534 0,1.2046 13.0352,11.988 28.9673,23.9632 18.3332,13.78027 32.2259,26.91172 37.8444,35.77114 l 8.8773,13.99801 -6.8024,7.29148 c -3.7413,4.01042 -11.6634,9.78493 -17.6047,12.83247 -5.9413,3.04754 -12.5179,7.60795 -14.6146,10.13438 -7.3416,8.84613 -47.677,19.29317 -95.0832,24.62691 l -17.5314,1.97243 21.2476,19.67209 c 39.1957,36.2892 69.6092,79.0236 74.3948,104.5329 1.7533,9.3464 0.932,11.6228 -6.2256,17.2529 -20.1787,15.8726 -61.2235,19.7231 -102.8102,9.6447 -29.2526,-7.0891 -53.1434,-16.6525 -95.7153,-38.314 -17.6643,-8.988 -33.581,-16.3419 -35.3703,-16.3419 -1.8465,0 0.5305,10.1516 5.4953,23.4708 19.0591,51.1301 45.7605,135.1925 47.4361,149.3402 l 1.7712,14.9557 -11.7986,0 c -18.5817,0 -29.9475,-4.5028 -57.2917,-22.6969 -24.6339,-16.3909 -60.8654,-49.6076 -90.0347,-82.5434 -19.1866,-21.6638 -24.891,-21.0446 -13.9501,1.5143 18.5543,38.2573 24.0711,109.3165 12.2938,158.3514 -9.6781,40.2946 -25.5251,75.5999 -33.9337,75.5999 -1.4649,0 -23.4366,-25.8615 -48.8258,-57.47 -25.3894,-31.6085 -46.8607,-56.7716 -47.7143,-55.918 -0.8535,0.8535 -4.036,13.848 -7.0721,28.8766 -3.0363,15.0287 -11.7648,42.9289 -19.3967,62.0005 -13.8638,34.6443 -20.1264,42.9195 -36.2673,47.9235 -3.5116,1.0887 -8.8292,7.4002 -11.8168,14.0256 -6.3281,14.0332 -8.1796,14.6298 -14.6682,4.7272 z M 1812.0503,759.90615 c -6.2991,-9.61356 -4.8038,-16.21875 5.3933,-23.8247 10.8896,-8.12257 22.0663,-3.6398 25.0746,10.05703 4.1516,18.90186 -19.9638,29.79907 -30.4679,13.76767 z m 23.9293,-20.5912 c -1.8809,-3.06863 -15.4335,-2.89625 -17.36,0.22073 -0.8471,1.37078 3.0256,2.39292 8.6059,2.27142 5.5805,-0.12141 9.5198,-1.24298 8.7541,-2.49225 z"
           id="path4178"
           inkscape:connector-curvature="0"
           sodipodi:nodetypes="ssssssscscccssscsscccsssssscsssscsssssscssssscsssssssssssssscssscsscsssscscsscsssssssscssscssssssssscsscsssssssssssscsscscsssscssssssssscsssssscsssscsssscssssssscssssssssscsssscsssssssscssssssscsssssssssccccc" />
        <polygon
           id="polygon4253"
           points="205,1462 1656,1462 1670,1379 219,1379 "
           class="fil0"
           style="fill:#47b5e7;fill-rule:nonzero" />
        <path
           id="path4257"
           d="m 1590,1305 9,-52 c 1,-8 2,-17 3,-28 1,-11 1,-23 1,-38 1,6 2,13 3,20 1,7 3,15 4,23 l 16,75 56,0 34,-205 -56,0 -8,46 c -1,9 -3,19 -4,32 -1,13 -2,28 -3,46 l -3,-18 c -1,-7 -2,-13 -3,-19 -1,-5 -2,-10 -3,-15 l -17,-72 -53,0 -34,205 56,0 z"
           class="fil2"
           inkscape:connector-curvature="0"
           style="fill:#46962b;fill-rule:nonzero;fill-opacity:1" />
        <polygon
           id="polygon4259"
           points="1536,1149 1544,1100 1436,1100 1402,1305 1510,1305 1518,1256 1468,1256 1473,1227 1518,1227 1526,1178 1481,1178 1486,1149 "
           class="fil2"
           style="fill:#46962b;fill-rule:nonzero;fill-opacity:1" />
        <path
           id="path4261"
           d="m 1283,1305 9,-52 c 1,-8 2,-17 3,-28 1,-11 1,-23 1,-38 1,6 2,13 3,20 1,7 3,15 4,23 l 16,75 56,0 34,-205 -56,0 -8,46 c -1,9 -3,19 -4,32 -1,13 -2,28 -3,46 l -3,-18 c -1,-7 -2,-13 -3,-19 -1,-5 -2,-10 -3,-15 l -17,-72 -53,0 -34,205 56,0 z"
           class="fil2"
           inkscape:connector-curvature="0"
           style="fill:#46962b;fill-rule:nonzero;fill-opacity:1" />
        <path
           id="path4263"
           d="m 1055,1168 c 4,-23 -1,-41 -16,-54 -11,-10 -30,-15 -56,-15 l -59,0 -34,205 58,0 12,-72 2,-14 c 1,3 1,5 1,7 0,2 1,4 1,5 l 17,73 63,0 -29,-85 c 24,-9 38,-27 42,-51 z m -57,-2 c -1,8 -5,14 -10,19 -5,5 -11,7 -18,7 l -4,0 8,-49 2,0 c 17,0 24,8 21,23 z"
           class="fil2"
           inkscape:connector-curvature="0"
           style="fill:#46962b;fill-rule:nonzero;fill-opacity:1" />
        <path
           id="path4265"
           d="m 799,1229 21,0 c -1,4 -2,8 -3,11 -2,3 -3,6 -5,8 -2,2 -4,4 -7,5 -3,1 -6,2 -9,2 -8,0 -13,-4 -15,-11 -2,-8 -2,-20 1,-36 7,-39 18,-59 34,-59 5,0 8,2 10,6 2,4 3,9 3,15 l 60,-20 c -10,-34 -32,-50 -66,-50 -26,0 -47,9 -65,28 -18,18 -29,44 -35,76 -5,32 -2,56 10,75 12,18 31,27 57,27 26,0 48,-9 64,-27 15,-17 26,-44 32,-83 l 1,-8 -81,0 -7,43 z"
           class="fil2"
           inkscape:connector-curvature="0"
           style="fill:#46962b;fill-rule:nonzero;fill-opacity:1" />
        <polygon
           id="polygon4267"
           points="620,1149 628,1100 521,1100 487,1305 594,1305 603,1256 553,1256 558,1227 602,1227 610,1178 566,1178 570,1149 "
           class="fil2"
           style="fill:#46962b;fill-rule:nonzero;fill-opacity:1" />
        <polygon
           id="polygon4269"
           points="494,1100 436,1100 402,1305 460,1305 "
           class="fil2"
           style="fill:#46962b;fill-rule:nonzero;fill-opacity:1" />
        <path
           id="path4271"
           d="m 397,1203 c 6,-34 0,-61 -18,-80 -14,-15 -35,-22 -63,-22 l -50,0 -34,205 54,0 c 30,0 54,-8 72,-24 21,-18 34,-45 40,-79 z m -60,2 c -6,33 -19,50 -40,51 l 17,-104 2,0 c 9,0 15,5 19,14 4,9 4,22 2,39 z"
           class="fil2"
           inkscape:connector-curvature="0"
           style="fill:#46962b;fill-rule:nonzero;fill-opacity:1" />
        <path
           id="path4273"
           d="m 1743,850 c -10,-18 -27,-28 -51,-28 -23,0 -44,9 -60,27 -17,18 -28,43 -33,73 -5,33 -3,58 8,77 11,18 28,28 53,28 23,0 42,-9 58,-27 16,-18 27,-43 32,-74 5,-32 3,-58 -7,-76 z m -50,76 c -3,18 -7,31 -11,40 -5,8 -10,13 -17,13 -12,0 -15,-19 -9,-58 5,-32 14,-49 27,-49 13,0 16,18 10,54 z"
           class="fil2"
           inkscape:connector-curvature="0"
           style="fill:#46962b;fill-rule:nonzero;fill-opacity:1" />
        <path
           id="path4275"
           d="m 1573,842 c -11,-13 -27,-20 -48,-20 -22,0 -41,7 -57,20 -16,14 -26,31 -29,52 -3,18 0,33 8,45 8,12 20,18 35,18 6,0 13,-2 21,-6 -3,3 -5,6 -8,9 -2,3 -4,5 -6,7 l -44,58 62,0 26,-35 c 30,-41 47,-74 51,-97 4,-22 0,-39 -11,-53 z m -45,50 c -3,18 -10,26 -21,26 -11,0 -16,-9 -13,-26 3,-18 10,-28 21,-28 11,0 15,9 12,27 z"
           class="fil2"
           inkscape:connector-curvature="0"
           style="fill:#46962b;fill-rule:nonzero;fill-opacity:1" />
        <path
           id="path4277"
           d="m 1263,1027 c 20,0 37,-6 52,-19 15,-13 24,-29 27,-48 2,-11 1,-21 -3,-30 -4,-9 -11,-17 -22,-25 l -8,-6 c -7,-5 -10,-10 -9,-16 1,-3 2,-6 6,-8 3,-2 7,-4 12,-4 6,0 11,2 17,6 5,4 10,10 13,17 l 10,-61 c -13,-7 -26,-10 -40,-10 -16,0 -29,4 -42,13 -4,3 -9,6 -12,10 -4,4 -7,8 -10,13 -6,10 -10,20 -12,29 -1,5 -1,10 -1,15 0,5 2,10 4,14 2,5 5,9 9,13 4,4 8,9 14,13 l 8,7 c 6,5 9,10 8,15 -1,4 -3,7 -6,9 -4,2 -8,4 -13,4 -13,0 -24,-7 -33,-22 l -10,63 c 15,6 29,8 42,8 z"
           class="fil2"
           inkscape:connector-curvature="0"
           style="fill:#46962b;fill-rule:nonzero;fill-opacity:1" />
        <polygon
           id="polygon4279"
           points="1231,822 1173,822 1139,1027 1197,1027 "
           class="fil2"
           style="fill:#46962b;fill-rule:nonzero;fill-opacity:1" />
        <path
           id="path4281"
           d="m 1019,1027 9,-52 c 1,-8 2,-17 3,-28 1,-11 1,-23 1,-38 1,6 2,13 3,20 1,7 3,15 4,23 l 16,75 56,0 34,-205 -56,0 -8,46 c -1,9 -3,19 -4,32 -1,13 -2,28 -3,46 l -3,-18 c -1,-7 -2,-13 -3,-19 -1,-5 -2,-10 -3,-15 l -17,-72 -53,0 -34,205 56,0 z"
           class="fil2"
           inkscape:connector-curvature="0"
           style="fill:#46962b;fill-rule:nonzero;fill-opacity:1" />
        <path
           id="path4283"
           d="m 963,925 c 6,-35 0,-61 -18,-80 -14,-15 -35,-22 -63,-22 l -50,0 -34,205 54,0 c 30,0 54,-8 72,-24 21,-18 34,-45 40,-79 z m -60,2 c -6,33 -19,50 -40,51 l 17,-104 2,0 c 9,0 15,5 19,14 4,9 4,22 2,39 z"
           class="fil2"
           inkscape:connector-curvature="0"
           style="fill:#46962b;fill-rule:nonzero;fill-opacity:1" />
        <path
           id="path4285"
           d="m 678,1027 9,-52 c 1,-8 2,-17 3,-28 1,-11 1,-23 1,-38 1,6 2,13 3,20 1,7 3,15 4,23 l 16,75 56,0 34,-205 -56,0 -8,46 c -1,9 -3,19 -4,32 -1,13 -2,28 -3,46 l -3,-18 c -1,-7 -2,-13 -3,-19 -1,-5 -2,-10 -3,-15 l -17,-72 -53,0 -34,205 56,0 z"
           class="fil2"
           inkscape:connector-curvature="0"
           style="fill:#46962b;fill-rule:nonzero;fill-opacity:1" />
        <path
           id="path4287"
           d="m 445,880 c 3,-17 -1,-31 -12,-42 -10,-11 -28,-16 -53,-16 l -68,0 -34,205 81,0 c 19,0 36,-5 50,-16 14,-11 22,-25 25,-42 2,-14 1,-25 -5,-32 -6,-7 -16,-12 -31,-14 27,-2 43,-16 47,-42 z m -90,63 c 8,0 13,2 17,5 4,4 5,8 4,15 -1,6 -4,11 -9,15 -5,4 -11,6 -18,6 -1,0 -1,0 -2,0 -1,0 -2,0 -3,0 l 7,-40 5,0 z m 32,-61 c -1,6 -4,10 -8,13 -5,3 -10,5 -17,5 l -4,0 6,-35 c 1,0 3,0 4,0 1,0 2,0 2,0 14,0 19,6 18,18 z"
           class="fil2"
           inkscape:connector-curvature="0"
           style="fill:#46962b;fill-rule:nonzero;fill-opacity:1" />
        <path
           id="path4289"
           d="m 1152,1234 c -2,9 -4,16 -6,19 -3,3 -7,5 -12,5 -5,0 -9,-2 -11,-6 -2,-4 -2,-10 0,-19 l 22,-132 -58,0 -23,137 c -4,26 1,45 16,57 12,9 28,14 48,14 18,0 33,-4 47,-13 10,-6 18,-14 23,-21 5,-8 9,-17 11,-29 l 24,-145 -58,0 -22,132 z"
           class="fil2"
           inkscape:connector-curvature="0"
           style="fill:#46962b;fill-rule:nonzero;fill-opacity:1" />
        <path
           id="path4291"
           d="m 1153,1048 c -4,-4 -8,-6 -15,-6 -6,0 -12,2 -17,6 -5,4 -8,9 -9,15 -1,6 0,11 4,15 4,4 9,6 15,6 6,0 11,-2 16,-6 5,-4 8,-9 9,-15 1,-6 0,-11 -4,-15 z"
           class="fil2"
           inkscape:connector-curvature="0"
           style="fill:#46962b;fill-rule:nonzero;fill-opacity:1" />
        <path
           id="path4293"
           d="m 1214,1048 c -4,-4 -9,-6 -15,-6 -6,0 -12,2 -17,6 -5,4 -8,9 -9,15 -1,6 0,11 4,15 4,4 9,6 15,6 6,0 12,-2 17,-6 5,-4 8,-9 9,-15 1,-6 0,-11 -4,-15 z"
           class="fil2"
           inkscape:connector-curvature="0"
           style="fill:#46962b;fill-rule:nonzero;fill-opacity:1" />
        <path
           id="path4295"
           d="m 546,954 c -2,9 -4,16 -6,19 -3,3 -7,5 -12,5 -5,0 -9,-2 -11,-6 -2,-4 -2,-10 0,-19 l 22,-132 -58,0 -23,137 c -4,26 1,45 16,57 12,9 28,14 48,14 18,0 33,-4 47,-13 10,-6 18,-13 23,-21 5,-8 9,-17 11,-29 l 24,-145 -58,0 -22,132 z"
           class="fil2"
           inkscape:connector-curvature="0"
           style="fill:#46962b;fill-rule:nonzero;fill-opacity:1" />
        <path
           id="path4297"
           d="m 547,768 c -4,-4 -8,-6 -15,-6 -6,0 -12,2 -17,6 -5,4 -8,9 -9,15 -1,6 0,11 4,15 4,4 9,6 15,6 6,0 11,-2 17,-6 5,-4 8,-9 9,-15 1,-6 0,-11 -4,-15 z"
           class="fil2"
           inkscape:connector-curvature="0"
           style="fill:#46962b;fill-rule:nonzero;fill-opacity:1" />
        <path
           id="path4299"
           d="m 609,769 c -4,-4 -9,-6 -15,-6 -6,0 -12,2 -17,6 -5,4 -8,9 -9,15 -1,6 0,11 4,15 4,4 9,6 15,6 6,0 12,-2 17,-6 5,-4 8,-9 9,-15 1,-6 0,-11 -4,-15 z"
           class="fil2"
           inkscape:connector-curvature="0"
           style="fill:#46962b;fill-rule:nonzero;fill-opacity:1" />
        <path
           style="fill:#000000"
           d=""
           id="path4174"
           inkscape:connector-curvature="0" />
      </g>
    </g>
  </g>
</svg>
