<?xml version="1.0" encoding="UTF-8" standalone="no"?>
<!-- Created with Inkscape (http://www.inkscape.org/) -->

<svg
   xmlns:dc="http://purl.org/dc/elements/1.1/"
   xmlns:cc="http://creativecommons.org/ns#"
   xmlns:rdf="http://www.w3.org/1999/02/22-rdf-syntax-ns#"
   xmlns:svg="http://www.w3.org/2000/svg"
   xmlns="http://www.w3.org/2000/svg"
   xmlns:sodipodi="http://sodipodi.sourceforge.net/DTD/sodipodi-0.dtd"
   xmlns:inkscape="http://www.inkscape.org/namespaces/inkscape"
   width="300"
   height="300"
   id="svg4681"
   version="1.1"
   inkscape:version="0.92.4 (unknown)"
   sodipodi:docname="sonnenblume-weiss.svg">
  <defs
     id="defs4683" />
  <sodipodi:namedview
     id="base"
     pagecolor="#ffffff"
     bordercolor="#666666"
     borderopacity="1.0"
     inkscape:pageopacity="0.0"
     inkscape:pageshadow="2"
     inkscape:zoom="1.979899"
     inkscape:cx="35.513099"
     inkscape:cy="187.63268"
     inkscape:document-units="px"
     inkscape:current-layer="layer1"
     showgrid="false"
     inkscape:window-width="1920"
     inkscape:window-height="995"
     inkscape:window-x="0"
     inkscape:window-y="0"
     inkscape:window-maximized="1" />
  <metadata
     id="metadata4686">
    <rdf:RDF>
      <cc:Work
         rdf:about="">
        <dc:format>image/svg+xml</dc:format>
        <dc:type
           rdf:resource="http://purl.org/dc/dcmitype/StillImage" />
        <dc:title></dc:title>
      </cc:Work>
    </rdf:RDF>
  </metadata>
  <g
     inkscape:label="Ebene 1"
     inkscape:groupmode="layer"
     id="layer1"
     transform="translate(0,-752.36218)">
    <path
       inkscape:connector-curvature="0"
       id="path4138"
       d="m 142.3841,1052.2839 c 0,-0.09 0,-0.2446 0.0118,-0.3444 0,-0.1 -0.28996,-0.6345 -0.65455,-1.1884 -1.95132,-2.9646 -5.71587,-15.909 -10.9057,-37.4993 -1.23851,-5.1522 -2.32042,-9.6508 -2.40428,-9.9968 -0.29067,-1.2005 -0.99592,-0.6807 -1.97892,1.4587 -2.4134,5.2522 -13.01067,20.8472 -19.06115,28.0509 -1.38136,1.6445 -6.16077,5.4127 -6.5571,5.1698 -0.26876,-0.1647 -0.16441,-2.1242 0.50234,-9.4426 0.82476,-9.0518 1.13569,-15.5839 1.14493,-24.0484 0.0118,-8.87779 -0.10779,-9.92698 -1.10584,-9.92698 -0.21486,0 -1.508568,1.47863 -2.874878,3.28573 -1.36642,1.8071 -4.1996,4.98805 -6.29591,7.06895 -4.35844,4.326 -15.31568,13.9734 -15.87049,13.9734 -0.0995,0 -0.4937,-0.2832 -0.87653,-0.6292 -0.3827,-0.346 -1.07385,-0.9115 -1.53569,-1.2567 -0.93515,-0.6989 -0.81978,-0.084 -1.61457,-8.6004 -0.24401,-2.6145 -0.65503,-5.7604 -0.91324,-6.9908 -0.6433,-3.06361 -0.6234,-9.75002 0.0391,-13.14266 0.71425,-3.65834 1.7778,-7.42468 3.03099,-10.73391 1.25307,-3.30874 1.34238,-3.94684 0.55257,-3.94684 -0.30098,0 -0.62541,0.12536 -0.72088,0.27868 -0.36637,0.58782 -9.20253,6.99306 -11.59046,8.40177 -4.08258,2.40841 -11.8263,6.21145 -15.75974,7.73966 -5.97587,2.32193 -12.26692,3.78043 -12.2636,2.84311 0,-0.35615 0.60977,-1.87633 4.29673,-10.73441 1.43762,-3.45393 1.73681,-4.57672 1.3701,-5.14222 -0.21546,-0.33234 -3.04733,-0.7715 -5.49615,-0.85233 -0.47415,-0.0159 -0.51501,-0.17961 -0.37062,-1.48567 0.23145,-2.09521 1.11804,-4.59575 3.03241,-8.5528 2.77323,-5.73243 6.52902,-11.56768 13.88825,-21.57772 2.31791,-3.15287 4.34956,-6.02462 4.5149,-6.38169 0.45343,-0.97973 -0.10305,-1.15908 -3.61482,-1.16572 -7.42983,-0.0141 -28.620922,-2.44826 -37.781522,-4.33992 -4.82798,-0.99697 -7.79548,-2.60106 -7.35544,-3.97606 0.20492,-0.64016 3.21506,-2.43775 8.28989,-4.95041 2.85047,-1.41135 3.73221,-1.97316 3.6622,-2.33353 -0.0509,-0.26104 -1.42292,-1.41001 -3.04946,-2.55326 C 9.2837,913.99243 4.24274,910.2976 2.25624,908.6373 1.09319,907.66526 0.10983,906.89722 0.0711,906.93057 0.032,906.96389 0,906.89685 0,906.78145 c 0,-0.11536 0.0948,-0.22093 0.21143,-0.23464 0.11608,-0.0138 0.78247,-0.28756 1.48026,-0.60858 0.6979,-0.32101 3.23543,-1.16613 5.63911,-1.87804 9.5182,-2.81904 10.66656,-3.2367 12.91164,-4.69587 7.63936,-4.96519 20.770252,-8.91722 32.060092,-9.64916 2.47439,-0.16041 3.10146,-0.28562 3.10146,-0.61927 0,-0.27352 -0.43897,-0.50156 -1.26882,-0.65916 -9.04855,-1.71847 -13.70395,-3.12866 -18.32701,-5.55144 C 27.36288,878.45937 19.85642,870.82824 15.50508,862.2451 c -1.14872,-2.26585 -2.37395,-5.56145 -2.1502,-5.7834 0.0722,-0.0715 2.26723,-0.49257 4.87783,-0.93548 7.83528,-1.32932 8.30671,-1.43236 8.46862,-1.85072 0.0841,-0.21867 -0.26106,-1.05288 -0.76814,-1.85383 -1.90087,-3.00274 -8.39732,-13.8361 -9.4598,-15.7749 -0.85485,-1.55999 -1.02814,-2.09003 -0.76778,-2.34823 0.2305,-0.22871 2.40012,-0.38638 6.90639,-0.50193 l 6.57025,-0.16848 0.0841,-0.71036 c 0.0711,-0.60198 -1.37614,-5.78469 -2.0462,-7.32907 -0.19308,-0.44509 0.0142,-0.48934 2.28499,-0.48902 3.845572,5.4e-4 12.461302,1.06459 26.106492,3.22424 7.03799,1.11391 7.2647,1.13019 7.2647,0.52111 0,-0.24683 -1.2552,-2.66916 -2.78923,-5.38294 -4.97591,-8.80212 -14.4838,-26.91847 -15.93386,-30.36031 l -0.45698,-1.08453 3.45752,0.17219 c 6.02289,0.29994 13.72633,1.83046 18.61093,3.69763 2.98218,1.13997 9.38352,4.59198 13.46681,7.26217 1.52775,0.99907 2.94985,1.81648 3.16033,1.81648 0.30975,0 0.3833,-1.10451 0.38614,-5.80239 0,-6.14441 0.3531,-9.52516 1.69477,-16.39787 1.59646,-8.17774 4.75146,-19.18549 5.49888,-19.18549 0.14806,0 3.49365,2.8313 7.43491,6.29176 3.941158,3.46046 7.347978,6.29175 7.570788,6.29175 0.2228,0 0.53669,-0.15729 0.69754,-0.34955 0.81434,-0.97318 2.85746,-11.73136 3.47849,-18.31598 0.24436,-2.59211 0.4552,-3.70514 0.70169,-3.70514 0.50116,0 3.31693,2.28354 7.67502,6.22429 2.06847,1.87044 4.46895,3.8238 5.33434,4.3408 9.09012,5.43074 15.90875,15.43979 19.8563,29.14726 0.71377,2.47859 0.98478,3.07156 1.4035,3.07156 0.28546,0 0.51892,-0.0565 0.51892,-0.12563 0,-0.069 0.26142,-1.46944 0.58112,-3.1119 0.80687,-4.14673 2.21582,-8.24112 4.07926,-11.85417 4.05047,-7.85336 9.44914,-13.25987 20.22408,-20.2534 1.88191,-1.22147 4.28287,-3.09498 5.55407,-4.33387 2.13966,-2.08532 3.81701,-3.22553 4.3049,-2.92645 0.57661,0.35347 1.35293,2.52152 2.18894,6.11326 0.50116,2.15318 1.22215,4.79275 1.60214,5.86573 1.19444,3.37219 1.58532,6.87911 1.5589,13.98824 -0.013,3.53736 -0.13775,7.56408 -0.27693,8.94826 -0.26319,2.61548 -0.20717,3.21579 0.29991,3.21579 0.16524,0 2.59415,-2.24187 5.39748,-4.98192 5.43278,-5.31026 9.35296,-8.57176 13.72432,-11.41824 3.33777,-2.17351 7.58606,-4.30866 10.46354,-5.25888 2.47783,-0.81828 5.40648,-1.2164 5.68306,-0.77256 0.22919,0.36779 -0.2446,7.98691 -1.04496,16.80446 -0.47048,5.18337 -0.54131,6.92164 -0.29529,7.25526 0.28119,0.38145 0.65004,0.21491 2.82453,-1.27537 7.28342,-4.9918 18.72262,-12.6308 20.09912,-13.42211 0.86609,-0.49791 1.94232,-0.90688 2.39148,-0.9088 l 0.8167,-0.004 -0.17044,4.68387 c -0.2581,7.09738 -1.22761,12.41614 -3.50443,19.2248 -2.90437,8.6853 -9.06928,18.81597 -15.74056,25.86609 -2.63537,2.78505 -2.61179,3.52718 0.077,2.42193 3.85599,-1.58509 7.38245,-2.42145 10.21468,-2.42254 3.01926,-9.9e-4 15.17567,-2.30293 21.53768,-4.07805 2.34671,-0.65478 4.77314,-1.61536 7.66329,-3.03378 4.14535,-2.03442 7.19731,-3.13109 9.16356,-3.29271 0.95482,-0.0784 0.98443,-0.0517 0.91502,0.8296 -0.0948,1.20672 -3.45599,11.36338 -4.89419,14.79047 -4.71143,11.22731 -11.20207,19.41435 -19.14513,24.14894 -2.39374,1.42689 -6.36521,3.05982 -12.40113,5.09898 -2.69258,0.90966 -3.5473,1.31592 -3.62394,1.72261 -0.0924,0.49343 0.0296,0.51832 1.69086,0.34161 15.60232,-1.66014 28.15778,-0.10256 40.49435,5.0234 5.63687,2.34223 11.95149,6.21676 16.84189,10.33395 2.41506,2.03323 5.39571,4.16037 5.85055,4.17519 0.11608,0.004 0.21143,0.10126 0.21143,0.21661 0,0.11535 0,0.33557 0,0.48936 0,0.15379 -0.0948,0.25151 -0.21143,0.21714 -0.11608,-0.0344 -1.017,0.77568 -2.00143,1.80014 -1.72983,1.80001 -1.78361,1.89986 -1.60119,2.97081 0.25762,1.51234 -0.45994,2.82409 -2.71237,4.9582 -2.88115,2.72976 -8.31369,6.06018 -11.56889,7.09229 -2.32907,0.73844 -6.56646,4.02727 -6.38606,4.95642 0.13776,0.70925 4.22614,4.11971 9.05625,7.55441 5.27926,3.75414 8.02005,6.74484 9.30072,10.14871 0.33936,0.90197 0.32254,0.93464 -1.17146,2.26403 -0.83376,0.74185 -2.41967,1.81536 -3.52445,2.38557 -1.10477,0.57019 -2.59438,1.57354 -3.31041,2.22963 -0.71602,0.65611 -1.92135,1.50056 -2.67859,1.87657 -4.27719,2.12399 -12.46154,3.79794 -22.78341,4.65997 -1.84887,0.15441 -3.47079,0.38899 -3.60416,0.52129 -0.4263,0.42277 0.0486,0.98578 2.63916,3.1304 3.17585,2.62897 10.19489,9.72281 12.72804,12.86376 5.13796,6.37067 7.94247,11.54299 8.50368,15.68338 0.29103,2.14599 -0.0509,2.58762 -3.2269,4.1683 -3.42542,1.70476 -6.44327,2.47367 -10.57666,2.69464 -9.06797,0.48478 -21.87869,-3.29674 -35.24435,-10.40354 -8.32956,-4.42901 -10.60165,-5.29448 -11.02522,-4.19964 -0.10186,0.26426 0.45946,2.18622 1.29761,4.44037 7.80448,20.98757 12.51626,35.7505 12.74628,39.9368 l 0.0829,1.5085 -2.33237,-0.075 c -3.28139,-0.1056 -6.09325,-0.7593 -8.23516,-1.9144 -2.80689,-1.5137 -8.53294,-5.3968 -11.98881,-8.13003 -3.88441,-3.0723 -10.60022,-9.68631 -14.85325,-14.628 -1.78692,-2.07626 -3.48986,-3.97937 -3.78421,-4.2291 -0.76825,-0.65149 -2.56406,-1.16602 -3.36987,-0.96538 -0.94439,0.23505 -0.96476,1.59595 -0.0332,2.20133 1.54765,1.00575 3.67961,6.51086 4.94927,12.78032 1.44685,7.14451 1.87291,16.69926 1.00847,22.61446 -1.15606,7.9093 -4.04645,16.9456 -7.08573,22.1517 -1.45562,2.4935 -1.65994,2.5687 -2.9598,1.0887 -2.04668,-2.3305 -10.26502,-12.3954 -16.43561,-20.1287 -3.37485,-4.2294 -6.36391,-7.7285 -6.6425,-7.7758 -0.56216,-0.095 -0.61735,0.085 -1.13604,3.7212 -0.47546,3.3318 -1.30116,7.1754 -2.27931,10.6092 -1.14635,4.0243 -5.86666,15.7039 -7.01668,17.3616 -1.04957,1.513 -2.91041,2.7751 -4.96952,3.3706 -1.13699,0.3288 -1.6025,0.6475 -2.15518,1.4758 -1.03157,1.546 -2.47108,4.4541 -2.38769,4.8236 0.0403,0.1757 -0.0865,0.3771 -0.28037,0.4476 -0.19378,0.07 -0.35239,0.054 -0.35239,-0.035 z m 22.46182,-79.22657 c 0.37856,-0.89855 0.39526,-1.44055 0.11845,-3.84499 -1.14327,-9.9317 -0.4141,-15.54144 2.12853,-16.37365 2.29021,-0.74963 6.56787,2.58237 11.77299,9.17036 1.36702,1.73024 2.66285,3.14588 2.87961,3.14588 0.55765,0 0.51904,-0.59625 -0.56986,-8.78045 -0.99236,-7.45799 -0.98715,-8.55378 0.0403,-8.5597 0.27516,-9.9e-4 2.44171,1.94886 4.81436,4.33432 3.98284,4.00434 4.87014,4.70326 5.23248,4.12167 0.0734,-0.11854 -0.36305,-2.10045 -0.97105,-4.40423 -0.60788,-2.30379 -1.17643,-5.06954 -1.26349,-6.14614 l -0.15801,-1.95743 0.89156,0.97873 c 0.49038,0.53829 2.63893,3.55832 4.77468,6.7112 4.5206,6.67357 5.02709,7.27047 6.16905,7.27047 0.92272,0 2.58029,-1.58799 2.58029,-2.47183 0,-0.58802 -1.18934,-2.27499 -5.95276,-8.44303 -4.3716,-5.66076 -6.32695,-8.60334 -6.56965,-9.88656 -0.2388,-1.26231 0.33142,-2.62651 1.50832,-3.60866 1.02873,-0.85855 0.73202,-0.94739 4.335,1.29797 3.14849,1.96212 4.30786,2.37409 4.93398,1.75314 0.59746,-0.59254 0.2388,-2.33432 -1.33136,-6.46693 -0.63406,-1.66868 -1.15286,-3.25453 -1.15286,-3.5241 0,-0.6375 1.43311,-1.64028 2.61618,-1.83069 0.77809,-0.12523 1.16115,0.0317 2.34718,0.96151 1.46379,1.14752 7.20122,7.16734 9.73579,10.21495 1.85135,2.22617 2.56134,2.54779 4.41731,2.00117 0.76921,-0.22658 1.55488,-0.59867 1.74594,-0.82689 0.97282,-1.16257 -1.15713,-4.05073 -8.44695,-11.45381 l -6.07145,-6.16585 0.9868,-0.0987 c 0.54285,-0.0543 2.0263,0.0521 3.29667,0.23628 2.2112,0.32062 2.90638,0.25539 2.90638,-0.27273 0,-0.13305 -1.39651,-1.73003 -3.10336,-3.54882 -1.70697,-1.81881 -3.55833,-3.9539 -4.11421,-4.74463 l -1.01072,-1.43771 0.23725,-2.44845 c 0.21131,-2.18036 0.31839,-2.50831 0.97756,-2.99515 1.04223,-0.76964 3.46274,-1.27233 7.71837,-1.60297 5.02223,-0.3902 5.73908,-0.52504 6.07216,-1.14231 0.46823,-0.86766 -0.55505,-1.55281 -3.7341,-2.50025 -8.6219,-2.56954 -9.77049,-3.01745 -9.37298,-3.65529 0.09,-0.14505 0.84703,-0.69681 1.68126,-1.22613 0.83436,-0.52932 1.73232,-1.28839 1.99563,-1.68681 l 0.47853,-0.72442 -1.77661,-1.77539 c -2.00984,-2.00836 -2.50946,-2.76905 -2.52379,-3.84238 -0.0201,-1.48228 2.0064,-2.39764 6.72162,-3.03671 2.13303,-0.28908 3.29394,-0.28738 6.22567,0.009 3.9376,0.39816 5.76882,0.28467 6.45949,-0.40035 0.59687,-0.59199 0.57247,-2.39056 -0.045,-3.32551 -0.64104,-0.97028 -1.75008,-0.97937 -7.3982,-0.0606 -9.55254,1.55382 -13.27871,1.86601 -13.56109,1.13616 -0.22861,-0.59058 2.0417,-3.63176 4.21903,-5.65181 2.17496,-2.01783 6.50604,-4.92226 9.56333,-6.4131 1.98402,-0.96748 2.56145,-1.51818 1.97122,-1.87993 -0.11726,-0.0721 -1.83335,0.10349 -3.81275,0.39015 -5.4689,0.79213 -14.87054,1.35929 -14.85905,0.89638 0,-0.11535 1.73397,-1.09056 3.84686,-2.16715 2.11301,-1.07659 4.14074,-2.18678 4.50603,-2.46709 0.84348,-0.64702 0.86634,-1.81683 0.0557,-2.83908 -0.51809,-0.65324 -0.76376,-0.74703 -1.64857,-0.62932 -1.51164,0.20108 -6.56029,2.26195 -9.08479,3.70844 -1.50312,0.8613 -2.50081,1.24832 -3.21767,1.24832 -1.37756,0 -3.24147,-1.11291 -3.90241,-2.33007 -0.49808,-0.91736 -0.50128,-1.01378 -0.0545,-1.68997 0.85449,-1.29342 4.58101,-5.56563 7.74822,-8.88298 6.67613,-6.99239 6.50296,-7.84431 -0.62624,-3.08285 -6.56906,4.38727 -10.48309,6.75796 -11.15753,6.75796 -0.96027,0 -2.72729,-1.03798 -3.4278,-2.01358 -0.41409,-0.57684 -0.63879,-1.2672 -0.61628,-1.89386 0.019,-0.54237 1.0536,-3.75452 2.29814,-7.13807 3.71408,-10.09711 3.99836,-11.43848 2.31153,-10.90749 -1.80848,0.56925 -7.9144,5.856 -10.16362,8.8 -0.62494,0.81801 -0.90211,0.94715 -2.25563,1.05099 -2.11253,0.16207 -4.39812,-0.95957 -5.17645,-2.5403 -0.51549,-1.04703 -0.51667,-1.1733 -0.0403,-4.12382 0.58703,-3.6309 0.46858,-4.44344 -0.64744,-4.44344 -0.95588,0 -2.53315,0.96862 -5.6788,3.48735 -3.06782,2.45641 -4.34257,3.01419 -7.19991,3.15045 -1.91828,0.0915 -2.39551,0.0202 -3.19102,-0.47612 -1.044,-0.65153 -2.13539,-2.75009 -2.45106,-4.71308 -0.1066,-0.66434 -0.37311,-1.27599 -0.59177,-1.35921 -0.23015,-0.0877 -0.85425,0.31544 -1.48215,0.95712 -0.59651,0.60963 -1.67996,1.51469 -2.40771,2.01125 -1.09944,0.75024 -1.39568,0.84305 -1.75281,0.54913 -1.11815,-0.92031 -2.09986,-3.83767 -2.94535,-8.75228 -0.58881,-3.42251 -0.8706,-4.25063 -1.64809,-4.84261 -2.25006,-1.71332 -3.12469,2.53869 -2.02584,9.84818 0.32372,2.15317 0.58929,4.39317 0.59012,4.97777 0,0.96294 -0.0971,1.10376 -1.04745,1.49755 -1.14327,0.4738 -4.76212,0.60884 -6.79375,0.25353 -1.02056,-0.17851 -1.64407,-0.61789 -3.86582,-2.72446 -3.09057,-2.93024 -3.54742,-3.03469 -3.85977,-0.88237 -0.51952,3.58006 -2.81565,7.44219 -6.42905,10.81344 -2.71082,2.52914 -4.87879,3.68145 -6.9263,3.68145 -1.37602,0 -1.53166,-0.0836 -3.90277,-2.09724 -6.05902,-5.1456 -9.400588,-7.51684 -10.040208,-7.12474 -0.94179,0.57722 0.48742,2.95436 4.940028,8.21677 3.06984,3.62819 3.52587,4.36839 3.52717,5.72597 0.001,1.14534 -0.84548,2.80277 -1.64537,3.22114 -0.2767,0.1447 -1.06746,0.12197 -1.93273,-0.0555 -1.08227,-0.22205 -1.652478,-0.21548 -2.185148,0.0253 -0.84051,0.37981 -0.88848,0.86816 -0.26379,2.68652 l 0.45698,1.32997 -0.83897,0.88701 c -0.46136,0.48784 -1.33314,1.69581 -1.93712,2.68437 -0.60409,0.98856 -1.62346,2.37275 -2.26521,3.07597 l -1.16696,1.27859 -2.07558,-0.0224 c -1.33243,-0.0145 -3.07138,-0.29599 -4.857,-0.78654 -4.02442,-1.10549 -4.44941,-0.73124 -2.25598,1.98652 0.71852,0.89034 1.82341,2.15358 2.45533,2.80722 0.63181,0.65365 0.9932,1.18845 0.80309,1.18845 -0.19023,0 -3.10313,-0.8917 -6.47324,-1.98155 -3.36999,-1.08986 -6.55164,-1.99598 -7.07021,-2.01361 -1.05041,-0.0357 -2.00025,0.87741 -2.01138,1.93357 -0.0119,0.80274 0.17246,0.90877 4.22306,2.47528 4.67138,1.80659 7.78422,3.235 9.7038,4.45285 1.50833,0.9569 1.57431,1.04882 1.57253,2.19073 0,2.51081 -2.14783,4.21165 -7.0971,5.63027 -3.21849,0.92253 -9.06395,1.54242 -14.82305,1.57195 -0.19378,9.9e-4 -0.35239,0.18705 -0.35239,0.41344 0,0.26321 0.58455,0.57185 1.62121,0.8559 4.09964,1.12336 6.39778,1.97115 9.79786,3.61453 4.41376,2.13322 6.66228,3.58858 8.41402,5.44596 1.08902,1.1547 1.31348,1.57514 1.31348,2.4609 0,0.58758 -0.19615,1.34607 -0.43601,1.68556 -0.59545,0.84324 -2.4654,1.87026 -4.49822,2.47053 -1.76169,0.52022 -2.39658,0.85388 -2.39658,1.25944 0,0.13169 1.14185,1.14624 2.53753,2.25456 1.39569,1.10832 2.53765,2.10335 2.53765,2.21116 0,0.20341 -5.95122,1.3783 -6.98161,1.3783 -1.56447,0 -1.90608,0.85403 -0.90151,2.2533 0.65004,0.90543 0.58703,0.89089 6.6143,1.52481 4.9546,0.52109 5.49816,0.63259 5.49816,1.12789 0,0.20419 -0.6979,1.40524 -1.55085,2.66901 -0.85283,1.26377 -1.55073,2.46996 -1.55073,2.68042 0,0.45532 0.36814,0.60933 4.22933,1.76965 3.31361,0.99574 3.69205,1.21605 3.08939,1.79819 -0.64922,0.62717 -4.63823,2.83479 -12.19041,6.74643 -3.84236,1.99022 -7.32985,3.88838 -7.74975,4.2181 -1.07291,0.84257 -1.04449,2.71134 0.0557,3.64974 0.41552,0.35439 0.97625,0.64433 1.24632,0.64433 0.27006,0 3.40327,-1.83912 6.96266,-4.08694 7.91381,-4.99764 13.66154,-7.85312 13.66154,-6.78705 0,0.17709 -0.82156,1.78388 -1.82577,3.57066 -1.96685,3.49987 -2.40605,4.80891 -1.84022,5.48503 0.86965,1.03932 3.26018,0.21712 7.74371,-2.66344 2.609308,-1.67638 2.665098,-1.69687 3.482758,-1.27753 0.45697,0.2344 1.17939,0.83685 1.60522,1.3388 0.72775,0.85765 0.76518,1.03281 0.62233,2.90699 -0.10661,1.40049 -0.66332,3.5016 -1.86865,7.05591 -0.94404,2.78384 -1.71645,5.19235 -1.71645,5.35223 0,0.83845 1.1871,-0.0807 4.68643,-3.62846 5.20429,-5.27654 6.92749,-6.36068 8.08805,-5.08881 0.62695,0.68709 1.51875,2.76619 1.76477,4.11437 0.11253,0.61521 0.43945,1.41864 0.72716,1.78543 0.59899,0.76373 0.67113,2.31737 0.23192,5.00106 -0.64081,3.91641 0.86515,3.81857 5.93453,-0.38552 1.55606,-1.29045 3.05503,-2.34627 3.3309,-2.34627 0.62114,0 2.74896,1.33078 3.76892,2.35708 1.02802,1.03448 1.79628,3.4667 2.56975,8.13584 0.81706,4.93269 0.99935,5.02304 3.03111,1.50174 4.4551,-7.72103 8.58458,-10.87424 12.25117,-9.35484 2.17223,0.90015 4.74233,4.57739 6.36343,9.10477 1.11638,3.1178 1.39094,2.94374 3.08772,-1.95743 1.23779,-3.57548 1.68281,-4.48581 1.68281,-3.44214 0,1.52712 2.49441,9.62597 3.96697,12.87976 0.67788,1.49807 0.89618,1.7477 1.52787,1.7477 0.58478,0 0.82796,-0.21601 1.17762,-1.04592 z M 109.11347,752.63354 c 0,-0.36182 0.47936,-0.36182 0.70489,0 0.0959,0.1538 -0.0237,0.27963 -0.26533,0.27963 -0.24175,0 -0.43956,-0.12583 -0.43956,-0.27963 z"
       style="fill:#ffffff;fill-opacity:1;stroke-width:0.99587584" />
  </g>
</svg>
