<?xml version="1.0" encoding="UTF-8" standalone="no"?>
<svg
   xmlns:dc="http://purl.org/dc/elements/1.1/"
   xmlns:cc="http://creativecommons.org/ns#"
   xmlns:rdf="http://www.w3.org/1999/02/22-rdf-syntax-ns#"
   xmlns:svg="http://www.w3.org/2000/svg"
   xmlns="http://www.w3.org/2000/svg"
   xmlns:sodipodi="http://sodipodi.sourceforge.net/DTD/sodipodi-0.dtd"
   xmlns:inkscape="http://www.inkscape.org/namespaces/inkscape"
   version="1.1"
   id="svg2"
   viewBox="0 0 3000.0001 3021.5304"
   height="3021.5303"
   width="3000"
   sodipodi:docname="sonnenblume-viertel.svg"
   inkscape:version="0.92.5 (2060ec1f9f, 2020-04-08)">
  <sodipodi:namedview
     pagecolor="#ffffff"
     bordercolor="#666666"
     borderopacity="1"
     objecttolerance="10"
     gridtolerance="10"
     guidetolerance="10"
     inkscape:pageopacity="0"
     inkscape:pageshadow="2"
     inkscape:window-width="1848"
     inkscape:window-height="1016"
     id="namedview12"
     showgrid="false"
     inkscape:zoom="0.097632652"
     inkscape:cx="-1087.012"
     inkscape:cy="-451.8927"
     inkscape:window-x="1752"
     inkscape:window-y="27"
     inkscape:window-maximized="1"
     inkscape:current-layer="svg2" />
  <defs
     id="defs4">
    <style
       type="text/css"
       id="style4140"><![CDATA[
    .fil0 {fill:#47B5E7;fill-rule:nonzero}
    .fil2 {fill:#FEFEFE;fill-rule:nonzero}
    .fil1 {fill:#FFF225;fill-rule:nonzero}
   ]]></style>
    <style
       type="text/css"
       id="style4229"><![CDATA[
    .fil0 {fill:#FFF225;fill-rule:nonzero}
   ]]></style>
  </defs>
  <metadata
     id="metadata7">
    <rdf:RDF>
      <cc:Work
         rdf:about="">
        <dc:format>image/svg+xml</dc:format>
        <dc:type
           rdf:resource="http://purl.org/dc/dcmitype/StillImage" />
        <dc:title></dc:title>
      </cc:Work>
    </rdf:RDF>
  </metadata>
  <path
     style="clip-rule:evenodd;fill:#fff225;fill-rule:nonzero;stroke-width:0.72817981;image-rendering:optimizeQuality;shape-rendering:geometricPrecision;text-rendering:geometricPrecision"
     d="M 741.15234 96.759766 C 741.0295 96.773478 740.92306 96.814546 740.83203 96.882812 C 737.1911 99.795542 704.42346 104.89278 652.72266 164.60352 C 571.89473 257.08238 196.88162 369.95047 134.98633 855.64648 C 109.71192 751.04923 69.476205 627.56185 0 515 L 0 1615.5664 C 29.383922 1613.1829 56.748294 1605.52 67.994141 1588.1953 C 80.373189 1569.2626 24.303898 1393.0423 60.712891 1315.127 C 60.712891 1315.127 76.004765 1313.6717 90.568359 1330.4199 C 105.13195 1347.168 106.58849 1530.6686 171.39648 1565.6211 C 171.39648 1565.6211 244.21275 1522.6594 256.5918 1491.3477 C 268.97088 1459.3078 236.93246 1690.1395 454.6582 1590.3789 C 454.6582 1590.3789 560.97112 1495.716 591.55469 1493.5312 C 622.13827 1490.6185 568.98274 1605.671 595.19727 1646.4492 C 622.13991 1687.2273 711.70446 1714.8984 740.10352 1663.9258 C 768.5025 1612.9532 904.67306 1510.2795 915.5957 1514.6484 C 926.51834 1519.0177 846.41746 1731.6464 836.95117 1752.7637 C 823.84401 1783.3472 814.37891 1828.4941 814.37891 1828.4941 C 814.37891 1828.4941 824.57327 1888.2047 898.84766 1904.2246 C 898.84766 1904.2246 1039.3857 1821.9414 1185.0215 1715.627 C 1169.7297 1733.8315 1154.4378 1753.492 1138.418 1773.8809 C 1138.418 1773.8809 949.81988 1968.3058 949.0918 1995.9766 C 949.0918 2024.3756 1013.8994 2086.9992 1067.0566 2051.3184 C 1120.2136 2015.6376 1247.6459 1963.2071 1259.2969 1971.9453 C 1270.2196 1981.4116 1290.607 2007.6262 1264.3926 2022.918 C 1237.4499 2038.2098 1088.9023 2116.125 1088.9023 2116.125 C 1088.9023 2116.125 1258.5688 2127.7776 1466.8281 2085.543 C 1241.8207 2176.5655 1163.9052 2315.6467 1166.0898 2328.7539 C 1172.6433 2373.1729 1522.1684 2282.8792 1531.6348 2304.7246 C 1581.8793 2418.3205 1420.9519 2348.4155 1350.3184 2360.0664 L 1346.6777 2360.0664 C 1276.0443 2371.7173 1094.7276 2376.0853 1262.209 2518.8086 C 1262.209 2518.8086 1292.7921 2520.9932 1210.5078 2569.7812 C 1128.2234 2618.5694 1394.0087 2646.9695 1425.3203 2682.6504 C 1456.6322 2718.3312 1161.7194 2679.736 1167.5449 2767.8457 C 1173.3704 2856.6837 1116.5728 2800.6139 1312.4531 3009.6016 C 1312.4531 3009.6016 1194.4881 2981.9317 1181.3809 2998.6797 C 1179.1481 3001.3825 1184.3817 3009.5322 1194.6699 3021.5312 L 2697.2285 3021.5312 C 2675.7547 2987.4727 2643.9499 2947.6371 2609.3418 2923.6777 C 2436.7634 2804.2562 2399.625 2759.1094 2399.625 2759.1094 C 2399.625 2759.1094 2447.6846 2700.853 2517.5898 2679.0078 C 2587.4951 2657.1624 2811.7753 2518.8082 2752.0645 2450.3594 C 2752.0645 2450.3594 2819.7863 2391.3781 2821.9707 2372.4453 L 2821.9707 2370.9883 L 2822.6973 2368.8047 C 2820.5129 2355.6975 2787.0166 2343.3174 2763.7148 2324.3848 C 2686.5278 2260.3049 2410.5486 1988.6936 1868.0547 2006.1699 C 1799.6059 2008.3545 1736.9813 2014.9087 1679.4551 2024.375 C 1795.2358 1987.2378 1854.9478 1964.6635 1889.9004 1950.8281 C 1932.1348 1934.0799 2208.8422 1839.4179 2358.1191 1352.2656 C 2370.4982 1310.7593 2406.9081 1210.27 2398.1699 1202.9883 C 2387.2472 1193.522 2294.0387 1210.2707 2200.1035 1267.7969 C 2105.4401 1325.3232 1788.6838 1375.5673 1750.8184 1381.3926 C 1728.9729 1385.0336 1635.7657 1371.1976 1495.9551 1444.0156 C 1652.5136 1283.0878 1819.2664 1053.7113 1863.6855 732.58398 C 1884.8026 578.20982 1876.0654 515.58626 1869.5117 516.31445 C 1860.0455 517.04262 1854.9477 517.04269 1843.2969 520.68359 C 1808.3442 530.87812 1772.6637 560.73284 1657.6113 637.91992 C 1541.8306 715.10702 1419.4961 800.30469 1419.4961 800.30469 C 1419.4961 800.30469 1461.7302 380.87224 1448.623 370.67773 C 1435.5158 361.21139 1197.4016 363.39702 831.85547 771.17773 C 831.85547 771.17773 873.36102 422.37871 804.91211 290.57812 C 804.91211 290.57812 785.97938 195.18615 770.6875 145.66992 C 763.63333 121.68548 744.96059 96.334673 741.15234 96.759766 z "
     id="path4233" />
</svg>
