<?xml version="1.0" encoding="UTF-8" standalone="no"?>
<!-- Created with Inkscape (http://www.inkscape.org/) -->

<svg
   width="195"
   height="33"
   viewBox="0 0 51.593749 8.7312502"
   version="1.1"
   id="svg5"
   xmlns="http://www.w3.org/2000/svg"
   xmlns:svg="http://www.w3.org/2000/svg">
  <defs
     id="defs2" />
  <g
     id="layer1">
    <path
       style="fill:#000080;stroke-width:0.212602"
       d="M 15.421334,8.4310224 C 13.94874,7.9065687 13.558104,6.8338219 14.695337,6.4373261 15.057588,6.3110258 15.97126,6.1444389 16.725719,6.0671338 17.962887,5.9403655 18.091188,5.8826748 18.03352,5.4790777 17.974306,5.0646569 17.859586,5.0369629 16.481462,5.104412 12.979883,5.2757948 11.53838,5.2328856 11.193986,4.9470256 10.923413,4.7224388 10.721134,4.7125165 10.263449,4.9013801 9.9418038,5.0341077 9.4394775,5.1275031 9.1471688,5.1089276 8.85486,5.0903416 8.2808717,5.1422529 7.8716397,5.2242667 7.3633513,5.326133 6.9988915,5.2784121 6.7214546,5.0736671 6.3751761,4.8181158 6.1732288,4.8167225 5.3510313,5.0642022 4.8206679,5.2238384 3.7395224,5.4146109 2.9484869,5.4881408 1.3228345,5.639248 0.68454179,5.3764157 0.17869132,4.3476038 -0.07557961,3.8304602 -0.0658308,3.6603016 0.25527542,3.0108693 0.45764412,2.6015828 0.62781347,2.1054787 0.63342949,1.9084166 0.64231138,1.5967107 0.90729714,1.5527942 2.6714261,1.5706612 5.011209,1.5943497 5.1016058,1.8656317 2.8101844,1.9870648 1.1646305,2.0742711 0.8655567,2.2590289 0.85948389,3.1921505 0.85628276,3.6842043 0.88567802,3.6911364 2.663259,3.6173845 3.6571258,3.5761516 4.4702759,3.6016538 4.4702589,3.6740573 4.4702164,3.8568693 3.0778922,4.0688108 1.8585429,4.0716159 0.90944257,4.073731 0.85642859,4.1022842 1.0674734,4.4966807 1.3985896,5.1154605 2.2013814,5.233232 4.245165,4.9628595 5.6646765,4.7750718 6.1287545,4.6275469 6.3563048,4.2917505 c 0.380457,-0.5614433 0.6191153,-0.5451627 0.7033431,0.047977 0.054263,0.3821239 0.2250617,0.4914695 0.8487989,0.543402 0.668926,0.055695 0.7908272,-0.00288 0.850353,-0.4085806 0.092549,-0.6307801 0.5988405,-0.7735409 0.746091,-0.2103764 0.1323751,0.5062722 0.2423314,0.5322847 1.0123142,0.239498 0.42715,-0.1624228 0.731857,-0.111955 1.38743,0.2297952 1.019957,0.5317031 1.541975,0.4643968 1.70343,-0.2196298 0.161535,-0.6843675 0.590676,-0.8023293 0.677977,-0.1863625 0.102608,0.7239746 1.069545,0.765464 2.090557,0.089696 1.66508,-1.1020482 2.112278,-0.959491 2.424985,0.7730254 0.129593,0.7180022 0.211677,0.7998151 0.825187,0.8224699 l 0.681279,0.025143 -0.628343,0.1347632 c -0.526838,0.112992 -0.656001,0.2720783 -0.799539,0.9847744 -0.305726,1.5179866 -1.518675,1.9646381 -3.458834,1.2736636 z M 18.15447,7.8479103 c 0.0705,-0.2631152 0.129493,-0.6936632 0.13109,-0.9567784 0.0027,-0.4456945 -0.0879,-0.4781897 -1.325774,-0.475485 -2.442353,0.00534 -2.892787,0.4193964 -1.491915,1.3714425 1.069778,0.7270335 2.499414,0.7593964 2.686599,0.060821 z m 0.133992,-3.3361731 c 0,-0.3342762 -0.420439,-0.4850688 -0.96873,-0.3474397 -0.772956,0.1940269 -0.627904,0.5475104 0.224671,0.5475104 0.409232,0 0.744059,-0.090032 0.744059,-0.2000707 z m 9.448462,4.0126622 C 26.913126,8.2849464 26.058482,7.3941946 26.228178,6.9519132 26.40644,6.4873075 27.209952,6.223526 28.935526,6.063131 30.314569,5.934943 30.405686,5.8952382 30.277792,5.4781709 30.202326,5.2320793 30.128554,5.018213 30.113846,5.0029106 c -0.0147,-0.015308 -0.689925,0.062791 -1.500488,0.1735375 -1.20339,0.1644162 -1.63995,0.1378776 -2.379705,-0.1446776 -0.778292,-0.2972733 -0.98366,-0.3053105 -1.457452,-0.057033 -0.398203,0.2086685 -0.94343,0.2484314 -1.961468,0.1430463 -0.801339,-0.082952 -1.670759,-0.055031 -2.014131,0.064686 -0.749617,0.2613519 -1.143004,0.1229163 -1.294231,-0.4554528 -0.07921,-0.302931 0.01363,-0.5157238 0.289383,-0.6633255 0.338731,-0.1813076 0.406002,-0.1445135 0.406002,0.2220727 0,0.5861287 0.561433,0.7736545 1.034452,0.3455202 0.474124,-0.4291362 0.817587,-0.4363485 1.228094,-0.025777 0.386131,0.3861848 1.17106,0.4233383 1.122996,0.053157 -0.07265,-0.5595187 0.02719,-0.7973167 0.334752,-0.7973167 0.198414,0 0.318882,0.2008057 0.318882,0.5315445 0,0.6253656 0.03636,0.6336063 0.87711,0.1987779 0.55782,-0.2884985 0.704875,-0.2929718 1.105531,-0.033632 0.945311,0.6118927 1.631365,0.6369931 2.188224,0.080061 0.284348,-0.2843873 0.815326,-0.6406548 1.179954,-0.7917092 0.607281,-0.2515802 0.69609,-0.2337213 1.057481,0.2126395 0.216989,0.2680036 0.394523,0.8115536 0.394523,1.2078854 0,0.8307055 0.369117,0.9446725 0.956649,0.2953724 0.364522,-0.4028487 0.365492,-0.4465484 0.01843,-0.8301026 C 31.712102,4.3932024 31.696223,4.257268 31.921284,3.8968471 32.06912,3.6600881 32.434395,3.3554544 32.733009,3.2198848 l 0.542928,-0.2464935 -0.509526,0.544055 c -0.438554,0.4682727 -0.469397,0.5924183 -0.221409,0.8912621 0.210873,0.2541209 0.508924,0.3175883 1.111704,0.2367273 0.452968,-0.060766 0.867378,-0.1542826 0.920906,-0.2078198 0.05353,-0.053538 0.144728,-0.5160491 0.202665,-1.0278072 0.196887,-1.7391075 0.685052,-3.07519689 1.211182,-3.3149487 0.965233,-0.43985165 2.165695,0.73681829 1.77926,1.7439958 -0.06695,0.1744839 -0.651255,0.6560259 -1.298458,1.0700925 -1.093714,0.6997361 -1.381658,1.1018129 -1.036363,1.4471561 0.07721,0.077215 0.279282,-0.057958 0.449063,-0.3003824 l 0.308687,-0.4407744 0.560732,0.5317956 c 0.308404,0.2924854 0.900859,0.594277 1.316573,0.6706436 0.669996,0.1230802 0.784161,0.076677 1.005234,-0.4085938 0.307098,-0.6740937 0.631486,-0.7060918 0.722052,-0.071227 0.07312,0.5125909 0.557668,0.6968094 1.325713,0.5040143 0.454599,-0.1141123 0.479472,-0.2210652 0.468474,-2.0144079 -0.0079,-1.278753 0.08026,-2.00460999 0.271242,-2.23476209 0.45973,-0.55401693 0.620128,-0.21074122 0.407933,0.87303819 -0.396688,2.0260488 0.15974,3.6716047 1.241517,3.6716047 0.451223,0 0.499723,-0.09582 0.511195,-1.0099323 0.01917,-1.5270047 0.312325,-3.0207237 0.66138,-3.36982373 0.17162,-0.17164711 0.659719,-0.36851092 1.08466,-0.43748015 0.664422,-0.10783333 0.863314,-0.0346869 1.42025,0.52232021 1.139908,1.14006367 0.797086,2.16675257 -1.05308,3.15380537 l -0.744059,0.3969505 1.228285,0.063941 c 0.980773,0.051055 1.339973,-0.023927 1.782521,-0.3720801 0.579506,-0.4558996 1.863938,-0.5913529 2.09297,-0.220719 0.07318,0.1184165 -0.279922,0.3950549 -0.784662,0.6147507 -0.734542,0.3197245 -0.842668,0.4301198 -0.541752,0.5531127 0.206773,0.084512 0.816315,0.042761 1.354535,-0.092782 1.144083,-0.288123 1.468722,-0.1710787 0.480818,0.173355 -0.993586,0.3464114 -2.637819,0.300943 -2.955363,-0.081728 -0.188756,-0.227466 -0.688042,-0.3189236 -1.741061,-0.3189236 -1.304288,0 -1.464203,0.043377 -1.371662,0.3720801 0.05761,0.204642 0.169265,0.6918866 0.248122,1.0827589 0.124135,0.615298 0.0906,0.7008493 -0.249862,0.6374108 C 44.707467,6.7614209 44.458086,6.4421564 44.339699,6.0402329 44.152336,5.4041255 44.066376,5.3496682 43.249643,5.3496682 c -0.49335,0 -0.99436,-0.1297954 -1.12947,-0.2926096 -0.206004,-0.2482543 -0.374602,-0.2471994 -1.11219,0.00695 -0.499356,0.1720647 -1.063087,0.2322777 -1.324483,0.1414679 -0.250306,-0.086952 -0.858915,-0.129539 -1.35247,-0.094632 -0.526073,0.037207 -1.185781,-0.080499 -1.594412,-0.2844746 -0.665813,-0.3323488 -0.712857,-0.32842 -1.050002,0.087679 -0.422546,0.5215007 -0.816276,0.5666676 -0.816276,0.093641 0,-0.5132652 -0.899193,-0.2143183 -1.667925,0.5545192 -0.350813,0.3508581 -0.828701,0.6379237 -1.061981,0.6379237 -0.794358,0 -1.096682,0.2433871 -1.096682,0.8828812 0,0.9240639 -0.840659,1.6733477 -1.850486,1.6493499 -0.443778,-0.010548 -1.099132,-0.104129 -1.456345,-0.2079569 z m 2.540027,-0.5344157 c 0.272572,-0.7104065 0.14085,-1.5765867 -0.242988,-1.5978403 -1.68754,-0.093448 -3.241972,0.1676655 -3.241972,0.5445837 0,0.2603921 0.771525,0.8904002 1.488118,1.2151639 0.632831,0.2868039 1.862949,0.1870632 1.996842,-0.1619073 z m 2.639353,-2.4436553 c -0.0419,-0.1257081 -0.16706,-0.2285631 -0.278137,-0.2285631 -0.111077,0 -0.236238,0.102855 -0.278135,0.2285631 -0.0419,0.1257109 0.08326,0.2285632 0.278135,0.2285632 0.194873,0 0.320034,-0.1028523 0.278137,-0.2285632 z M 30.343921,4.418963 C 30.225122,4.062069 29.580158,4.0015363 29.20593,4.3121582 28.911763,4.5563304 28.918156,4.6000327 29.2659,4.7220316 29.783535,4.9036327 30.443495,4.7180916 30.343923,4.418963 Z M 49.857813,4.0336982 c 0.137849,-0.1329812 -0.0059,-0.1806413 -0.408781,-0.1355642 -0.341756,0.038232 -0.663984,0.1991507 -0.716065,0.3575972 -0.07032,0.2139165 0.03492,0.2488174 0.408782,0.1355643 0.27691,-0.083883 0.599141,-0.2448042 0.716064,-0.3575973 z m -4.194691,-0.0762 C 47.196366,3.3167826 47.758999,2.3537118 47.204948,1.3183195 46.71013,0.39362108 44.861987,0.3683039 44.861987,1.2862262 c 0,0.2126104 -0.06146,0.9746639 -0.136577,1.693454 -0.07512,0.7187901 -0.07204,1.3068938 0.0068,1.3068938 0.07888,0 0.497776,-0.1480855 0.930886,-0.3290758 z M 36.710426,2.4685063 C 37.495703,1.8694653 37.618577,1.242397 37.06957,0.63567036 36.342843,-0.16746276 35.934281,0.24797325 35.622342,2.1072474 c -0.181347,1.0808924 0.04584,1.1563231 1.088084,0.3612589 z M 6.5103428,3.0440889 C 6.436777,2.9250405 6.4801763,2.7636064 6.606786,2.6853469 6.9336373,2.4833117 7.1445212,2.7600479 6.8716673,3.0329399 6.7189909,3.1856362 6.6000805,3.1893057 6.5103428,3.0440969 Z m 7.1053592,-0.030634 c -0.263909,-0.1631261 -0.254178,-0.2141914 0.06409,-0.3363383 0.443562,-0.1702353 0.733192,0.04246 0.447247,0.3284438 -0.120754,0.1207696 -0.323659,0.1239024 -0.51134,0.00791 z m 25.40011,-0.2152013 c 0.07226,-0.1169387 0.269239,-0.2126184 0.437726,-0.2126184 0.168483,0 0.306334,0.095679 0.306334,0.2126184 0,0.1169386 -0.196975,0.2126156 -0.437723,0.2126156 -0.240747,0 -0.378598,-0.095677 -0.306337,-0.2126156 z"
       id="path856" />
  </g>
</svg>
