<?xml version="1.0" encoding="UTF-8" standalone="no"?>
<!-- Created with Inkscape (http://www.inkscape.org/) -->

<svg
   xmlns:dc="http://purl.org/dc/elements/1.1/"
   xmlns:cc="http://creativecommons.org/ns#"
   xmlns:rdf="http://www.w3.org/1999/02/22-rdf-syntax-ns#"
   xmlns:svg="http://www.w3.org/2000/svg"
   xmlns="http://www.w3.org/2000/svg"
   xmlns:sodipodi="http://sodipodi.sourceforge.net/DTD/sodipodi-0.dtd"
   xmlns:inkscape="http://www.inkscape.org/namespaces/inkscape"
   version="1.1"
   id="svg2"
   xml:space="preserve"
   width="302.35999"
   height="302.35999"
   viewBox="0 0 302.35999 302.35999"
   sodipodi:docname="alle-stimmen.svg"
   inkscape:version="0.92.5 (2060ec1f9f, 2020-04-08)"><metadata
     id="metadata8"><rdf:RDF><cc:Work
         rdf:about=""><dc:format>image/svg+xml</dc:format><dc:type
           rdf:resource="http://purl.org/dc/dcmitype/StillImage" /><dc:title></dc:title></cc:Work></rdf:RDF></metadata><defs
     id="defs6" /><sodipodi:namedview
     pagecolor="#ffffff"
     bordercolor="#666666"
     borderopacity="1"
     objecttolerance="10"
     gridtolerance="10"
     guidetolerance="10"
     inkscape:pageopacity="0"
     inkscape:pageshadow="2"
     inkscape:window-width="984"
     inkscape:window-height="480"
     id="namedview4"
     showgrid="false"
     inkscape:zoom="0.78052656"
     inkscape:cx="151.17999"
     inkscape:cy="151.17999"
     inkscape:window-x="2154"
     inkscape:window-y="194"
     inkscape:window-maximized="0"
     inkscape:current-layer="g12" /><g
     id="g10"
     inkscape:groupmode="layer"
     inkscape:label="ink_ext_XXXXXX"
     transform="matrix(1.3333333,0,0,-1.3333333,0,302.36)"><g
       id="g12"
       transform="scale(0.1)"><path
         d="M 1311.21,14.1406 C 1929.61,112.078 2351.54,692.77 2253.6,1311.26 2155.66,1929.66 1574.94,2351.53 956.512,2253.59 338.113,2155.61 -83.8203,1574.96 14.1211,956.559 112.066,338.07 692.813,-83.8711 1311.21,14.1406"
         style="fill:#f24e60;fill-opacity:1;fill-rule:nonzero;stroke:none"
         id="path14"
         inkscape:connector-curvature="0" /><path
         d="m 874.926,1612.65 c -4.473,45.89 -20.196,187.69 -20.196,187.69 -0.546,-0.09 -16.035,-146.83 -20.339,-194.11 z m -144.903,-162.74 70.813,460.35 106.797,16.91 72.129,-437.71 -92.004,-14.57 -9.403,66.45 -49.289,-7.81 -9.226,-69.4 -89.817,-14.22"
         style="fill:#ffffff;fill-opacity:1;fill-rule:nonzero;stroke:none"
         id="path16"
         inkscape:connector-curvature="0" /><path
         d="m 1002.39,1942.18 79.41,12.58 -0.16,-449.16 -79.42,-12.58 0.17,449.16"
         style="fill:#ffffff;fill-opacity:1;fill-rule:nonzero;stroke:none"
         id="path18"
         inkscape:connector-curvature="0" /><path
         d="m 1115.75,1960.13 79.41,12.58 -0.15,-449.16 -79.43,-12.58 0.17,449.16"
         style="fill:#ffffff;fill-opacity:1;fill-rule:nonzero;stroke:none"
         id="path20"
         inkscape:connector-curvature="0" /><path
         d="m 1336.9,1722.88 0.05,84.78 c 0,10.66 -5.98,16.45 -16.38,14.8 -10.41,-1.64 -16.48,-9.35 -16.48,-20 l -0.04,-84.79 z m -112.26,-117.15 0.15,176.3 c -0.18,57.81 55.08,91.82 95.06,98.15 39.43,6.25 96.54,-10.54 96.63,-67.79 l -0.35,-111.21 -112.27,-17.79 0.32,-72.92 c 0,-10.67 7.62,-16.21 16.38,-14.82 8.76,1.39 16.49,9.35 16.49,20.03 l -0.11,43.2 79.41,12.58 -0.02,-35.37 c -0.1,-59.53 -56.71,-92.08 -96.69,-98.41 -39.98,-6.34 -95.08,11.89 -95,68.05"
         style="fill:#ffffff;fill-opacity:1;fill-rule:nonzero;stroke:none"
         id="path22"
         inkscape:connector-curvature="0" /><path
         d="M 326.957,979.031 415.133,993 414.496,936.762 c -0.457,-11.301 7.969,-18.403 19.016,-17.203 10.859,2.281 18.867,11.972 18.777,23.179 l 0.695,52.332 c 0.274,33.72 -5.265,36.77 -51.679,46.27 -53.516,11.74 -76.301,35.07 -75.051,87.48 l 0.684,62.99 c 0.753,69.73 48.964,102.07 109.757,111.7 61.883,9.8 108.25,-6.44 107.129,-77.34 l -0.754,-59.08 -88.718,-14.05 0.632,56.24 c 0.461,11.3 -7.5,19.03 -19.004,17.2 -10.957,-1.73 -18.875,-11.98 -18.789,-23.18 l -0.515,-53.42 c -0.305,-26.44 6.121,-31.6 51.367,-40.72 47.586,-9.86 75.879,-39.61 75.359,-93.04 l -0.859,-61.901 c -1.211,-70.36 -49.512,-102.141 -110.301,-111.77 -61.887,-9.808 -106.691,7.231 -106.027,77.512 l 0.742,59.07"
         style="fill:#ffffff;fill-opacity:1;fill-rule:nonzero;stroke:none"
         id="path24"
         inkscape:connector-curvature="0" /><path
         d="m 585.406,1147.97 -23.008,-3.64 -0.253,58.35 22.996,3.64 0.019,81.4 78.867,12.49 -0.019,-81.4 38.887,6.16 -0.293,-58.44 -38.329,-6.07 -0.168,-154.98 c -0.203,-48.308 3.555,-68.492 45.149,-54.601 l 0.176,-57.801 c -12.805,-4.277 -25.227,-7.359 -37.278,-9.277 -50.925,-8.063 -86.882,9.828 -87.031,71 l 0.285,193.169"
         style="fill:#ffffff;fill-opacity:1;fill-rule:nonzero;stroke:none"
         id="path26"
         inkscape:connector-curvature="0" /><path
         d="m 732.035,1335.13 80.508,12.75 -0.008,-81.41 -80.519,-12.75 z m -0.117,-105.56 79.414,12.57 0.129,-334.019 -79.414,-12.582 -0.129,334.031"
         style="fill:#ffffff;fill-opacity:1;fill-rule:nonzero;stroke:none"
         id="path28"
         inkscape:connector-curvature="0" /><path
         d="m 844.184,1247.35 79.414,12.58 -0.379,-25.89 c 6.933,12.88 26.238,32.79 54.168,37.21 29.573,4.68 48.463,-4.68 55.483,-27.7 1.09,10.83 22.29,40.02 56.79,45.48 37.79,5.99 58.53,-11.5 58.49,-50.25 l -0.42,-277.401 -79.4,-12.578 0.15,257.719 c 0.06,6.74 -2.6,16.43 -15.74,14.35 -7.67,-1.22 -16.75,-7.71 -16.83,-17.82 l 0.1,-259.359 -79.412,-12.582 -0.383,257.631 c 0.058,6.74 -2.598,16.43 -15.195,14.43 -7.676,-1.21 -15.028,-7.99 -17.352,-14.54 l 0.066,-262.732 -79.414,-12.57 -0.136,334.022"
         style="fill:#ffffff;fill-opacity:1;fill-rule:nonzero;stroke:none"
         id="path30"
         inkscape:connector-curvature="0" /><path
         d="m 1176.08,1299.92 79.41,12.58 -0.38,-25.89 c 6.94,12.88 26.24,32.78 54.17,37.21 29.57,4.68 48.46,-4.68 55.48,-27.7 1.09,10.83 22.3,40.02 56.79,45.48 37.79,5.99 58.53,-11.5 58.49,-50.25 l -0.42,-277.4 -79.4,-12.58 0.16,257.72 c 0.05,6.74 -2.6,16.43 -15.75,14.35 -7.66,-1.22 -16.74,-7.71 -16.82,-17.82 l 0.1,-259.37 -79.42,-12.57 -0.38,257.63 c 0.05,6.74 -2.61,16.42 -15.2,14.43 -7.67,-1.21 -15.02,-7.99 -17.36,-14.54 l 0.08,-262.731 -79.41,-12.578 -0.14,334.029"
         style="fill:#ffffff;fill-opacity:1;fill-rule:nonzero;stroke:none"
         id="path32"
         inkscape:connector-curvature="0" /><path
         d="m 1617.7,1212.66 0.05,84.79 c 0,10.66 -5.98,16.44 -16.38,14.8 -10.41,-1.65 -16.48,-9.35 -16.48,-20.01 l -0.04,-84.78 z m -112.26,-117.15 0.15,176.31 c -0.17,57.81 55.08,91.81 95.06,98.14 39.43,6.25 96.54,-10.53 96.63,-67.78 l -0.35,-111.22 -112.28,-17.78 0.34,-72.93 c 0,-10.67 7.61,-16.19 16.37,-14.8 8.76,1.39 16.49,9.33 16.49,20 l -0.12,43.22 79.41,12.57 -0.01,-35.37 c -0.11,-59.53 -56.71,-92.07 -96.7,-98.4 -39.98,-6.33 -95.07,11.89 -94.99,68.04"
         style="fill:#ffffff;fill-opacity:1;fill-rule:nonzero;stroke:none"
         id="path34"
         inkscape:connector-curvature="0" /><path
         d="m 1725,1052.81 -0.23,334.57 79.41,12.58 -0.3,-26.44 c 6.95,12.89 26.24,32.79 54.17,37.22 38.34,6.07 58.54,-11.51 58.5,-50.25 l 0.13,-277.32 -79.42,-12.57 -0.38,257.63 c 0.06,6.73 -2.6,16.42 -15.2,14.43 -7.66,-1.21 -14.55,-7.36 -17.52,-13.45 l 0.24,-263.82 -79.4,-12.58"
         style="fill:#ffffff;fill-opacity:1;fill-rule:nonzero;stroke:none"
         id="path36"
         inkscape:connector-curvature="0" /><path
         d="m 735.914,690.621 c -0.117,64.551 40.047,105.16 107.41,115.828 66.817,10.582 107.149,-17.277 107.278,-81.828 l -0.442,-53.949 -88.172,-13.973 -0.148,61.16 c -0.086,11.219 -7.957,18.403 -18.914,16.672 -10.949,-1.742 -18.418,-11.351 -18.321,-22.57 l -0.421,-277.383 c 0.097,-11.226 7.968,-18.398 18.925,-16.668 10.95,1.731 18.965,11.43 18.868,22.649 l -0.391,98.179 -16.981,-2.699 -0.148,71.852 105.703,16.73 0.508,-162.711 C 950.238,397.27 910.074,356.66 843.258,346.082 775.883,335.41 735.551,363.27 735.98,427.91 l -0.066,262.711"
         style="fill:#ffffff;fill-opacity:1;fill-rule:nonzero;stroke:none"
         id="path38"
         inkscape:connector-curvature="0" /><path
         d="m 978.082,707.09 79.408,12.582 v -35.371 c 9.15,27.277 39.58,47.801 69.66,49.211 l -0.24,-65.731 c -48.75,-7.73 -68.8,-29.98 -69.42,-72.191 l 0.13,-209.942 -79.401,-12.578 -0.137,334.02"
         style="fill:#ffffff;fill-opacity:1;fill-rule:nonzero;stroke:none"
         id="path40"
         inkscape:connector-curvature="0" /><path
         d="m 1249.6,768.629 -0.17,57.793 56.96,9.019 -0.37,-57.882 z m -74.11,46.082 56.42,8.937 0.17,-57.796 -56.96,-9.024 z m -30.26,-361.859 0.44,280.789 78.87,12.488 0.35,-261 c 0.21,-8.399 5.9,-15.918 15.75,-14.348 9.85,1.559 15.94,9.25 17.64,16.27 l -0.88,264.277 79.41,12.582 c -0.01,-46.039 0.14,-287.988 0.14,-334.019 l -79.43,-12.582 0.08,20.781 c -7.86,-14.16 -26.38,-28.32 -52.67,-32.481 -31.77,-5.039 -59.34,13.063 -59.7,47.243"
         style="fill:#ffffff;fill-opacity:1;fill-rule:nonzero;stroke:none"
         id="path42"
         inkscape:connector-curvature="0" /><path
         d="m 1364.88,434.309 -0.23,334.57 79.42,12.582 -0.31,-26.441 c 6.95,12.89 26.25,32.789 54.18,37.21 38.33,6.079 58.53,-11.5 58.49,-50.242 l 0.14,-277.316 -79.42,-12.582 -0.39,257.64 c 0.06,6.731 -2.59,16.418 -15.19,14.43 -7.67,-1.219 -14.56,-7.359 -17.52,-13.449 l 0.24,-263.82 -79.41,-12.582"
         style="fill:#ffffff;fill-opacity:1;fill-rule:nonzero;stroke:none"
         id="path44"
         inkscape:connector-curvature="0" /><path
         d="m 1590.82,553.191 79.97,12.661 0.15,-82.5 -80.51,-12.75 z m -4.53,365.321 88.72,14.047 -1.66,-195.071 -4.58,-137.707 -77.21,-12.23 -4.75,136.23 -0.52,194.731"
         style="fill:#ffffff;fill-opacity:1;fill-rule:nonzero;stroke:none"
         id="path46"
         inkscape:connector-curvature="0" /></g></g></svg>