<?xml version="1.0" encoding="UTF-8" standalone="no"?>
<svg
   xmlns:dc="http://purl.org/dc/elements/1.1/"
   xmlns:cc="http://creativecommons.org/ns#"
   xmlns:rdf="http://www.w3.org/1999/02/22-rdf-syntax-ns#"
   xmlns:svg="http://www.w3.org/2000/svg"
   xmlns="http://www.w3.org/2000/svg"
   viewBox="0 0 302.35999 302.35999"
   height="302.35999"
   width="302.35999"
   xml:space="preserve"
   id="svg2"
   version="1.1"><metadata
     id="metadata8"><rdf:RDF><cc:Work
         rdf:about=""><dc:format>image/svg+xml</dc:format><dc:type
           rdf:resource="http://purl.org/dc/dcmitype/StillImage" /><dc:title></dc:title></cc:Work></rdf:RDF></metadata><defs
     id="defs6" /><g
     transform="matrix(1.3333333,0,0,-1.3333333,0,302.36)"
     id="g10"><g
       transform="scale(0.1)"
       id="g12"><path
         id="path14"
         style="fill:#f25564;fill-opacity:1;fill-rule:nonzero;stroke:none"
         d="M 1311.21,14.1289 C 1929.64,112.059 2351.54,692.781 2253.59,1311.21 2155.65,1929.61 1574.91,2351.54 956.512,2253.6 338.078,2155.65 -83.8203,1574.91 14.125,956.52 112.063,338.078 692.813,-83.8086 1311.21,14.1289" /><path
         id="path16"
         style="fill:#ffffff;fill-opacity:1;fill-rule:nonzero;stroke:none"
         d="m 438.027,918.93 c 0.028,-16.102 -5.816,-23.571 -16.636,-25.258 l -19.137,-3.043 0.129,116.721 18.164,2.88 c 10.785,1.69 17.699,-3.75 17.508,-18.351 z m -35.617,243.89 15.727,2.48 c 11.758,1.86 16.855,-4.86 16.73,-19.98 v -60.39 c 0.125,-16.55 -4.656,-21.39 -16.445,-23.24 l -16.195,-2.55 z m 77.106,-112.06 c 25.765,15.15 33.711,35.05 33.363,62.62 l -0.563,44.72 c -0.558,57.73 -36.238,82.76 -100.523,72.57 l -88.801,-14.07 -0.66,-402.51 103.531,16.379 c 59.879,9.5 91.957,45.25 91.832,103.09 l -0.062,60.882 c -0.188,29.609 -11.223,48.519 -38.117,56.319" /><path
         id="path18"
         style="fill:#ffffff;fill-opacity:1;fill-rule:nonzero;stroke:none"
         d="m 619.969,1120.31 0.191,40.26 -71.168,-11.28 0.129,-299.278 71.16,11.258 -0.312,183.04 c 0.156,40.27 17.011,57.53 57.066,58.85 l 0.66,69.02 c -28.55,-0.97 -48.218,-19.68 -57.726,-51.87" /><path
         id="path20"
         style="fill:#ffffff;fill-opacity:1;fill-rule:nonzero;stroke:none"
         d="m 773.809,1184.89 -71.133,-11.26 0.09,-299.29 71.168,11.262 -0.125,299.288" /><path
         id="path22"
         style="fill:#ffffff;fill-opacity:1;fill-rule:nonzero;stroke:none"
         d="m 769.965,1205.93 0.094,62.9 -62.321,-9.87 -0.093,-62.91 62.32,9.88" /><path
         id="path24"
         style="fill:#ffffff;fill-opacity:1;fill-rule:nonzero;stroke:none"
         d="m 877.086,1136.35 c 0.094,12.1 5.129,18.44 13.473,19.76 10.32,1.64 15.73,-4.05 15.949,-18.09 l 0.469,-72.89 -29.922,-4.72 z m 100.773,-143.971 -0.156,26.611 -70.691,-11.2 -0.285,-36.27 c -0.094,-12.071 -4.161,-18.258 -13.477,-19.731 -10.285,-1.629 -15.727,4.031 -15.945,18.082 l 0.062,59.869 100.621,15.95 -0.687,86.92 c -0.285,65.37 -37.399,83.62 -87.457,75.7 -50.059,-7.92 -82.489,-35.18 -82.864,-93.11 l -0.468,-139.891 c -0.184,-65.481 37.398,-83.649 87.457,-75.707 50.058,7.91 84.422,35.488 83.89,92.777" /><path
         id="path26"
         style="fill:#ffffff;fill-opacity:1;fill-rule:nonzero;stroke:none"
         d="m 1111.84,1290.26 9.32,1.49 -0.06,51.26 -18.14,-2.87 c -55.47,-8.79 -81.92,-35.6 -81.92,-86.4 l 0.19,-29.65 -21.1,-3.35 0.15,-51.8 20.61,3.26 -0.04,-247.489 70.64,11.187 0.06,247.492 27.48,4.36 -0.15,51.8 -27.48,-4.35 -0.04,28.69 c -0.03,16.09 5.28,23.97 20.48,26.37" /><path
         id="path28"
         style="fill:#ffffff;fill-opacity:1;fill-rule:nonzero;stroke:none"
         d="m 1303.92,1268.86 -49.06,-7.77 -20.98,-178.88 -21.73,172.13 -71.16,-11.29 49.21,-291.511 71.14,11.262 18.16,123.629 18.16,-117.879 71.14,11.289 48.96,307.04 -71.13,-11.25 -21.48,-178.98 -21.23,172.21" /><path
         id="path30"
         style="fill:#ffffff;fill-opacity:1;fill-rule:nonzero;stroke:none"
         d="m 1528.95,1052.48 c -10.32,-1.64 -15.76,4.03 -15.97,18.06 l -0.1,57.88 c -0.16,10.52 6.5,16.11 15.82,17.58 l 14.23,2.25 0.1,-79.95 c -1.95,-9.86 -6.73,-14.67 -14.08,-15.82 z m 84.83,-33.84 c 0.28,26.67 -0.12,200.69 0,212.79 -0.87,65.73 -37.71,85.57 -87.77,77.64 -50.52,-8.01 -83.41,-35.33 -83.98,-95.29 l -0.13,-15.12 70.67,11.2 -0.32,24.12 c -0.34,15.01 5.73,21 15.04,22.46 9.83,1.57 15.67,-3.54 15.55,-18.64 l 0.16,-42.26 -18.18,-2.88 c -60.34,-9.55 -82.48,-31.66 -82.79,-87.06 l -0.28,-55.38 c -0.1,-43.74 24.11,-60.072 55.49,-55.06 19.15,3 37.21,12.91 50.53,33.64 l -0.24,-20.66 66.25,10.5" /><path
         id="path32"
         style="fill:#ffffff;fill-opacity:1;fill-rule:nonzero;stroke:none"
         d="m 1767.02,1347.25 c -23.54,-3.74 -39.33,-18.32 -47.55,-33.21 l 0.03,123.74 -71.17,-11.25 -0.12,-402.45 71.13,11.26 0.03,237.95 c 3.57,6.11 8.51,9.91 14.89,10.91 9.31,1.47 14.16,-3.79 14.16,-16.39 l 0.38,-227.79 71.16,11.26 -0.13,238.93 c -0.03,44.75 -19.41,62.33 -52.81,57.04" /><path
         id="path34"
         style="fill:#ffffff;fill-opacity:1;fill-rule:nonzero;stroke:none"
         d="m 1855.98,1459.4 -0.15,-402.42 71.16,11.25 0.16,402.45 -71.17,-11.28" /><path
         id="path36"
         style="fill:#ffffff;fill-opacity:1;fill-rule:nonzero;stroke:none"
         d="m 843.77,771.809 -62.317,-9.868 -0.094,-62.953 62.317,9.883 0.094,62.938" /><path
         id="path38"
         style="fill:#ffffff;fill-opacity:1;fill-rule:nonzero;stroke:none"
         d="m 776.859,676.691 0.938,-317.3 c 0.094,-16.571 -5.16,-21.45 -15.449,-23.071 l -5.91,-0.941 0.156,-51.777 7.351,1.16 c 55.469,8.777 84.543,31.508 84.766,87.386 l -0.223,315.864 -71.629,-11.321" /><path
         id="path40"
         style="fill:#ffffff;fill-opacity:1;fill-rule:nonzero;stroke:none"
         d="m 952.234,563.602 0.067,75.957 c 0.062,12.07 5.125,18.41 13.445,19.722 10.317,1.66 15.758,-4 15.945,-18.07 l 0.469,-72.891 z m 100.936,-14.731 -0.69,86.961 c -0.28,65.316 -37.39,83.609 -87.457,75.699 C 914.965,703.59 882.57,676.32 882.195,618.41 l -0.468,-139.922 c -0.219,-65.437 37.398,-83.636 87.425,-75.687 50.058,7.91 84.428,35.449 83.898,92.758 l -0.16,26.64 -70.699,-11.187 -0.285,-36.274 c -0.09,-12.066 -4.125,-18.258 -13.476,-19.726 -10.282,-1.633 -15.692,4 -15.942,18.066 l 0.094,59.844 100.588,15.949" /><path
         id="path42"
         style="fill:#ffffff;fill-opacity:1;fill-rule:nonzero;stroke:none"
         d="m 1192.61,494.539 c -25.97,-4.141 -28.38,14.102 -28.38,52.301 l 0.04,139.39 34.34,5.442 0.37,51.879 -34.84,-5.539 v 72.949 l -70.66,-11.191 -0.04,-72.95 -20.57,-3.25 0.12,-51.808 20.64,3.277 -0.19,-173.598 c 0.13,-54.781 29.86,-74.261 78.45,-66.562 12.28,1.961 24.66,6.43 32.91,11.281 l -0.12,51.809 c -4.25,-1.719 -8.13,-2.848 -12.07,-3.43" /><path
         id="path44"
         style="fill:#ffffff;fill-opacity:1;fill-rule:nonzero;stroke:none"
         d="m 1299.61,524.551 80.6,195.859 0.37,51.91 -157.51,-24.961 0.11,-64.379 79.99,12.668 -81.17,-195.957 0.19,-51.8 159.96,25.347 -0.63,64.282 -81.91,-12.969" /><path
         id="path46"
         style="fill:#ffffff;fill-opacity:1;fill-rule:nonzero;stroke:none"
         d="m 1518.54,546.16 c -25.95,-4.129 -28.39,14.102 -28.39,52.301 l 0.06,139.398 34.33,5.442 0.38,51.871 -34.83,-5.543 v 72.949 l -70.67,-11.187 -0.06,-72.95 -20.57,-3.25 0.12,-51.812 20.64,3.281 -0.19,-173.601 c 0.12,-54.77 29.9,-74.258 78.48,-66.559 12.26,1.969 24.64,6.43 32.89,11.289 l -0.12,51.801 c -4.25,-1.711 -8.13,-2.84 -12.07,-3.43" /><path
         id="path48"
         style="fill:#ffffff;fill-opacity:1;fill-rule:nonzero;stroke:none"
         d="m 1562.19,575.672 0.19,-73.922 72.1,11.449 -0.13,73.91 -72.16,-11.437" /><path
         id="path50"
         style="fill:#ffffff;fill-opacity:1;fill-rule:nonzero;stroke:none"
         d="m 1558.56,729.012 4.25,-122.043 69.17,10.941 4.12,123.379 1.51,174.832 -79.54,-12.582 0.49,-174.527" /><path
         id="path52"
         style="fill:#ffffff;fill-opacity:1;fill-rule:nonzero;stroke:none"
         d="m 1061.36,1720.57 -100.438,-189.09 -91.168,280.65 z m 296.95,266.37 -162.11,-299.17 -307.048,146.74 z m 120.68,-286.02 -192.24,93.98 101.09,186.55 z m -491.365,-180.06 99.525,187.39 121.25,-57.94 64.72,119.44 191.87,-93.8 z M 1520.95,1664.13 1401.73,2031.09 829.043,1845 948.266,1478.04 1520.95,1664.13" /><path
         id="path54"
         style="fill:#ffffff;fill-opacity:1;fill-rule:nonzero;stroke:none"
         d="m 626.223,1561.23 211.156,68.61 -8.82,27.18 -211.153,-68.62 8.817,-27.17" /><path
         id="path56"
         style="fill:#ffffff;fill-opacity:1;fill-rule:nonzero;stroke:none"
         d="m 765.789,1707.64 -8.816,27.17 -211.168,-68.61 8.816,-27.18 211.168,68.62" /><path
         id="path58"
         style="fill:#ffffff;fill-opacity:1;fill-rule:nonzero;stroke:none"
         d="m 816.367,1551.99 -211.168,-68.6 8.817,-27.18 211.164,68.61 -8.813,27.17" /></g></g></svg>