<?xml version="1.0" encoding="UTF-8" standalone="no"?>
<!-- Created with Inkscape (http://www.inkscape.org/) -->

<svg
   xmlns:dc="http://purl.org/dc/elements/1.1/"
   xmlns:cc="http://creativecommons.org/ns#"
   xmlns:rdf="http://www.w3.org/1999/02/22-rdf-syntax-ns#"
   xmlns:svg="http://www.w3.org/2000/svg"
   xmlns="http://www.w3.org/2000/svg"
   xmlns:sodipodi="http://sodipodi.sourceforge.net/DTD/sodipodi-0.dtd"
   xmlns:inkscape="http://www.inkscape.org/namespaces/inkscape"
   version="1.1"
   id="svg2"
   xml:space="preserve"
   width="302.35999"
   height="302.35999"
   viewBox="0 0 302.35999 302.35999"
   sodipodi:docname="zweitstimme.svg"
   inkscape:version="0.92.5 (2060ec1f9f, 2020-04-08)"><metadata
     id="metadata8"><rdf:RDF><cc:Work
         rdf:about=""><dc:format>image/svg+xml</dc:format><dc:type
           rdf:resource="http://purl.org/dc/dcmitype/StillImage" /><dc:title></dc:title></cc:Work></rdf:RDF></metadata><defs
     id="defs6" /><sodipodi:namedview
     pagecolor="#ffffff"
     bordercolor="#666666"
     borderopacity="1"
     objecttolerance="10"
     gridtolerance="10"
     guidetolerance="10"
     inkscape:pageopacity="0"
     inkscape:pageshadow="2"
     inkscape:window-width="984"
     inkscape:window-height="480"
     id="namedview4"
     showgrid="false"
     inkscape:zoom="0.78052656"
     inkscape:cx="151.17999"
     inkscape:cy="151.17999"
     inkscape:window-x="2180"
     inkscape:window-y="373"
     inkscape:window-maximized="0"
     inkscape:current-layer="g10" /><g
     id="g10"
     inkscape:groupmode="layer"
     inkscape:label="ink_ext_XXXXXX"
     transform="matrix(1.3333333,0,0,-1.3333333,0,302.36)"><g
       id="g12"
       transform="scale(0.1)"><path
         d="m 1133.86,0.0117188 c 626.2,0 1133.86,507.6362812 1133.86,1133.8482812 0,626.21 -507.66,1133.86 -1133.86,1133.86 C 507.648,2267.72 0,1760.07 0,1133.86 0,507.648 507.648,0.0117188 1133.86,0.0117188"
         style="fill:#f25564;fill-opacity:1;fill-rule:nonzero;stroke:none"
         id="path14"
         inkscape:connector-curvature="0" /><path
         d="m 422.258,1190.84 0.242,-42.36 -80.957,-242.73 81.457,12.898 0.273,-60.238 -146.777,-23.25 -0.254,42.379 81.348,242.781 -81.848,-12.97 -0.262,60.24 146.778,23.25"
         style="fill:#ffffff;fill-opacity:1;fill-rule:nonzero;stroke:none"
         id="path16"
         inkscape:connector-curvature="0" /><path
         d="m 602.246,1134.12 57.051,9.03 -38.113,-253.388 -57.063,-9.043 -15.019,97.402 L 535,876.102 477.941,867.07 437.363,1108 l 57.063,9.04 18.074,-142.22 16.164,147.65 39.344,6.23 17.695,-142.29 16.543,147.71"
         style="fill:#ffffff;fill-opacity:1;fill-rule:nonzero;stroke:none"
         id="path18"
         inkscape:connector-curvature="0" /><path
         d="m 735.891,1038.88 24.004,3.8 -0.657,60.18 c -0.234,11.61 -4.609,16.32 -12.871,15 -6.679,-1.06 -10.703,-6.26 -10.73,-16.24 z m 80.164,59.26 0.879,-71.78 -80.664,-12.78 0.168,-49.439 c 0.222,-11.61 4.597,-16.321 12.859,-15.012 7.48,1.18 10.703,6.269 10.742,16.262 l 0.098,29.929 56.66,8.98 0.254,-21.991 c 0.637,-47.289 -26.844,-69.93 -66.981,-76.278 -40.136,-6.359 -70.363,8.797 -70.449,62.821 l -0.156,115.558 c 0.086,47.82 25.996,70.21 66.121,76.57 40.148,6.35 69.98,-8.87 70.469,-62.84"
         style="fill:#ffffff;fill-opacity:1;fill-rule:nonzero;stroke:none"
         id="path20"
         inkscape:connector-curvature="0" /><path
         d="m 846.945,1190.75 -0.168,51.94 49.981,7.92 0.168,-51.94 z m -2.695,-265.672 -1.23,247.172 57.058,9.04 1.231,-247.169 -57.059,-9.043"
         style="fill:#ffffff;fill-opacity:1;fill-rule:nonzero;stroke:none"
         id="path22"
         inkscape:connector-curvature="0" /><path
         d="m 994.434,1153.42 0.48,-115.09 c 0.156,-31.57 2.137,-46.631 22.996,-43.318 3.15,0.488 6.23,1.386 9.65,2.758 l 0.31,-42.77 c -6.63,-3.949 -16.54,-7.602 -26.37,-9.16 -38.969,-6.168 -62.895,10 -63.207,55.25 l -0.527,143.35 -16.524,-2.61 -0.312,42.76 16.523,2.62 -0.273,60.24 56.668,8.98 0.265,-60.25 27.937,4.43 -0.08,-42.83 -27.536,-4.36"
         style="fill:#ffffff;fill-opacity:1;fill-rule:nonzero;stroke:none"
         id="path24"
         inkscape:connector-curvature="0" /><path
         d="m 1044.15,1027.84 -0.15,11.2 56.66,8.97 -0.01,-25.36 c -0.05,-12.48 5.11,-17.06 14.17,-15.63 6.69,1.06 11.1,6.33 10.87,17.94 l -0.13,18.68 c -0.28,19.5 -9.58,19.7 -38.85,28.77 -20.36,6.34 -42.08,21.19 -42.73,60.99 l -0.11,8.3 c -0.7,47.7 25.93,70.62 66.06,76.98 40.13,6.35 70.9,-9.55 72.22,-63.8 l 0.23,-9.11 -56.66,-8.98 -0.25,21.99 c -0.1,13.3 -5.31,18.29 -13.97,16.91 -7.48,-1.18 -11.5,-6.38 -11.53,-16.37 l 0.14,-18.68 c 0.2,-19.1 8.32,-21.96 34.11,-29.52 33,-9.74 48.24,-24.38 48.33,-55.53 l 0.01,-15.38 c 0.25,-47.358 -26.84,-69.94 -68.54,-76.538 -38.57,-6.113 -69.25,9.387 -69.87,64.168"
         style="fill:#ffffff;fill-opacity:1;fill-rule:nonzero;stroke:none"
         id="path26"
         inkscape:connector-curvature="0" /><path
         d="m 1271.81,1197.35 0.48,-115.09 c 0.16,-31.56 2.14,-46.62 23,-43.32 3.14,0.49 6.23,1.39 9.65,2.76 l 0.31,-42.77 c -6.63,-3.95 -16.54,-7.602 -26.38,-9.149 -38.96,-6.172 -62.89,9.989 -63.2,55.239 l -0.53,143.35 -16.52,-2.61 -0.32,42.76 16.53,2.62 -0.27,60.24 56.67,8.98 0.26,-60.25 27.94,4.43 -0.08,-42.83 -27.54,-4.36"
         style="fill:#ffffff;fill-opacity:1;fill-rule:nonzero;stroke:none"
         id="path28"
         inkscape:connector-curvature="0" /><path
         d="m 1328.92,1267.09 -0.16,51.94 49.97,7.92 0.16,-51.95 z m -2.7,-265.67 -1.23,247.17 57.06,9.03 1.23,-247.16 -57.06,-9.04"
         style="fill:#ffffff;fill-opacity:1;fill-rule:nonzero;stroke:none"
         id="path30"
         inkscape:connector-curvature="0" /><path
         d="m 1628.99,1246.85 1.01,-197.32 -57.06,-9.04 -1.17,188.15 c -0.03,10.39 -3.94,14.76 -11.42,13.58 -5.12,-0.81 -8.66,-3.87 -11.56,-8.49 l 0.93,-196.91 -57.06,-9.04 -1.16,188.15 c -0.03,10.38 -3.95,14.76 -11.43,13.57 -5.11,-0.81 -9.06,-3.92 -11.82,-9.36 l 0.8,-196.1 -57.06,-9.03 -1.22,247.16 57.05,9.04 -0.12,-17.06 c 6.98,11.91 19.15,24.23 38.44,27.28 19.28,3.06 32.82,-3.53 38.87,-21.28 5.47,13.76 18.57,30.38 41.4,33.99 26.76,4.24 42.38,-10.32 42.58,-47.29"
         style="fill:#ffffff;fill-opacity:1;fill-rule:nonzero;stroke:none"
         id="path32"
         inkscape:connector-curvature="0" /><path
         d="m 1874.51,1285.74 1,-197.32 -57.06,-9.04 -1.15,188.14 c -0.04,10.39 -3.95,14.77 -11.43,13.59 -5.11,-0.82 -8.67,-3.87 -11.57,-8.5 l 0.94,-196.91 -57.06,-9.03 -1.16,188.14 c -0.03,10.39 -3.95,14.76 -11.43,13.58 -5.11,-0.81 -9.05,-3.93 -11.82,-9.36 l 0.8,-196.1 -57.05,-9.04 -1.23,247.17 57.06,9.03 -0.13,-17.05 c 6.99,11.91 19.15,24.23 38.44,27.28 19.27,3.06 32.83,-3.53 38.86,-21.28 5.49,13.76 18.59,30.38 41.41,33.99 26.76,4.24 42.38,-10.33 42.58,-47.29"
         style="fill:#ffffff;fill-opacity:1;fill-rule:nonzero;stroke:none"
         id="path34"
         inkscape:connector-curvature="0" /><path
         d="m 1956.77,1232.25 24.01,3.8 -0.66,60.18 c -0.22,11.61 -4.6,16.31 -12.86,15 -6.7,-1.06 -10.71,-6.27 -10.74,-16.25 z m 80.17,59.25 0.88,-71.77 -80.68,-12.78 0.18,-49.44 c 0.23,-11.61 4.6,-16.32 12.86,-15.01 7.48,1.18 10.71,6.26 10.74,16.25 l 0.1,29.94 56.66,8.97 0.26,-21.98 c 0.63,-47.29 -26.84,-69.93 -66.99,-76.29 -40.12,-6.36 -70.36,8.81 -70.45,62.83 l -0.14,115.56 c 0.09,47.81 25.98,70.2 66.12,76.56 40.14,6.36 69.98,-8.87 70.46,-62.84"
         style="fill:#ffffff;fill-opacity:1;fill-rule:nonzero;stroke:none"
         id="path36"
         inkscape:connector-curvature="0" /><path
         d="m 944.492,723.98 -0.867,-49.082 -90.43,-14.32 -0.293,56.371 c 0.137,17.301 -5.773,25.571 -19.257,23.442 -12.356,-1.961 -19.063,-10.5 -18.938,-29.493 l 0.43,-271.699 c -0.235,-16.719 5.781,-25.558 19.258,-23.429 12.355,1.96 19.062,10.5 18.925,29.48 l 0.02,94.43 -19.102,-3.02 -0.144,73.68 109.531,17.351 -0.039,-166.992 c 0.117,-66.187 -35.461,-106.937 -105.676,-118.07 -68.523,-10.848 -113.828,17.09 -113.719,89.07 l -0.304,263.68 c -0.117,66.191 35.461,106.949 106.23,118.16 68.528,10.852 115.528,-16.84 114.375,-89.559"
         style="fill:#ffffff;fill-opacity:1;fill-rule:nonzero;stroke:none"
         id="path38"
         inkscape:connector-curvature="0" /><path
         d="m 1063.6,680.66 c 10.87,36.84 33.39,58.25 66.03,59.391 l -0.73,-78.992 c -45.83,-1.5 -65.15,-21.258 -65.34,-67.36 l 0.37,-209.519 -81.45,-12.91 -0.136,342.582 81.446,12.898 -0.19,-46.09"
         style="fill:#ffffff;fill-opacity:1;fill-rule:nonzero;stroke:none"
         id="path40"
         inkscape:connector-curvature="0" /><path
         d="m 1324.05,864.699 -0.12,-71.98 -60.1,-9.52 0.11,71.981 z m -78.64,-12.449 -0.12,-71.988 -60.1,-9.524 0.12,71.981 z m 26.18,-92.59 81.44,12.899 0.14,-342.571 -81.44,-12.898 0.28,23.66 c -10.05,-16.559 -27.48,-33.711 -55,-38.078 -38.2,-6.043 -60.38,14.027 -60.44,65.269 l -0.13,273.481 81.45,12.898 0.42,-260.761 c -0.02,-14.387 5.53,-20.418 16.21,-18.731 7.3,1.152 12.95,5.5 16.93,13.043 l 0.14,271.789"
         style="fill:#ffffff;fill-opacity:1;fill-rule:nonzero;stroke:none"
         id="path42"
         inkscape:connector-curvature="0" /><path
         d="m 1588.92,740.832 0.13,-273.48 -81.45,-12.903 -0.42,260.77 c 0.02,14.39 -5.53,20.422 -16.2,18.73 -7.3,-1.148 -12.96,-5.508 -16.94,-13.039 l -0.14,-271.801 -81.44,-12.898 -0.13,342.57 81.45,12.899 -0.29,-23.649 c 10.04,16.571 27.47,33.719 55,38.078 38.19,6.051 60.37,-14.039 60.43,-65.277"
         style="fill:#ffffff;fill-opacity:1;fill-rule:nonzero;stroke:none"
         id="path44"
         inkscape:connector-curvature="0" /><path
         d="m 1636.21,474.82 -0.16,84.61 82.57,13.082 0.16,-84.614 z m -4.89,459.86 91,14.41 -1.71,-200.07 -4.7,-141.231 -79.19,-12.551 -4.86,139.731 -0.54,199.711"
         style="fill:#ffffff;fill-opacity:1;fill-rule:nonzero;stroke:none"
         id="path46"
         inkscape:connector-curvature="0" /><path
         d="m 765.195,1829.61 137.551,-423.37 423.374,137.55 -137.55,423.37 -423.375,-137.55"
         style="fill:#ffffff;fill-opacity:1;fill-rule:nonzero;stroke:none"
         id="path48"
         inkscape:connector-curvature="0" /><path
         d="m 1389.79,1536.45 -306.62,156.23 156.23,306.63 -55.49,28.27 -156.23,-306.62 -306.625,156.23 -28.27,-55.49 306.621,-156.24 -156.23,-306.61 55.488,-28.27 156.226,306.61 306.62,-156.23 28.28,55.49"
         style="fill:#1c6535;fill-opacity:1;fill-rule:nonzero;stroke:none"
         id="path50"
         inkscape:connector-curvature="0" /></g></g></svg>