<?xml version="1.0" encoding="UTF-8" standalone="no"?>
<svg
   xmlns:dc="http://purl.org/dc/elements/1.1/"
   xmlns:cc="http://creativecommons.org/ns#"
   xmlns:rdf="http://www.w3.org/1999/02/22-rdf-syntax-ns#"
   xmlns:svg="http://www.w3.org/2000/svg"
   xmlns="http://www.w3.org/2000/svg"
   xmlns:sodipodi="http://sodipodi.sourceforge.net/DTD/sodipodi-0.dtd"
   xmlns:inkscape="http://www.inkscape.org/namespaces/inkscape"
   id="svg27"
   class="nicermediapages-SVG"
   viewBox="-2 -2 219.01183 91.20006"
   height="180"
   width="430"
   version="1.0"
   sodipodi:docname="one_lion_white.svg"
   inkscape:version="0.92.5 (2060ec1f9f, 2020-04-08)">
  <sodipodi:namedview
     pagecolor="#ffffff"
     bordercolor="#666666"
     borderopacity="1"
     objecttolerance="10"
     gridtolerance="10"
     guidetolerance="10"
     inkscape:pageopacity="0"
     inkscape:pageshadow="2"
     inkscape:window-width="1848"
     inkscape:window-height="1016"
     id="namedview13"
     showgrid="false"
     inkscape:zoom="1.5733333"
     inkscape:cx="213.14472"
     inkscape:cy="132.1889"
     inkscape:window-x="1752"
     inkscape:window-y="27"
     inkscape:window-maximized="1"
     inkscape:current-layer="svg27" />
  <metadata
     id="metadata33">
    <rdf:RDF>
      <cc:Work
         rdf:about="">
        <dc:format>image/svg+xml</dc:format>
        <dc:type
           rdf:resource="http://purl.org/dc/dcmitype/StillImage" />
        <dc:title></dc:title>
      </cc:Work>
    </rdf:RDF>
  </metadata>
  <defs
     id="defs31" />
  <path
     d="m 44.038014,11.814134 c -0.544962,-0.299969 -0.82256,-1.8574021 -0.68376,-3.0269286 0,0 2.606474,-1.2858815 5.490517,-1.004235 -1.385921,3.0269456 -4.080145,4.4210126 -4.806757,4.0311636 z M 195.20282,61.76765 c -0.55315,-5.890584 -5.10679,-22.109018 -9.75637,-28.287418 8.09484,-0.861323 16.07768,-18.892256 -0.69408,-27.1300995 -19.30643,-9.4869424 -47.57366,9.1889725 -65.56364,14.2182165 -4.36382,1.222607 -12.61592,5.163948 -18.36366,-3.163675 C 95.059004,9.0974484 106.52981,1.9373026 105.07469,-0.09966948 104.26217,-1.2426771 89.984859,3.7763321 89.578695,13.110216 c -0.381673,8.762397 8.08678,15.548998 16.596095,15.493884 7.53986,-0.0346 21.26396,-4.157685 36.32924,-10.764691 19.13318,-8.3807082 31.9736,-10.1931919 39.10727,-5.888526 6.05993,3.669858 6.05993,7.358109 5.07195,10.193193 -4.29228,12.287341 -21.97221,-0.598039 -44.87328,8.617437 -34.4576,13.881444 -51.00255,4.439358 -59.50363,0.714388 C 81.62257,23.585068 76.409635,9.9567319 71.743696,7.5013239 c 0,0 2.059474,-1.0062611 2.475849,-5.319063 -3.151439,-0.4266105 -10.156457,2.0206629 -10.156457,2.0206629 0,0 -5.210886,-1.4410127 -8.509276,-1.4410127 -13.169096,0 -26.060578,6.0252943 -26.327973,7.1948208 -0.27772,1.1328041 2.190102,11.4627271 2.190102,11.4627271 2.457467,-5.735413 6.45799,-0.99603 6.874389,0.861375 -14.953015,2.735038 -17.030836,-4.441425 -19.212739,-11.907723 -5.913018,20.388402 13.705872,16.655268 19.325001,16.075583 -0.806244,3.731135 -3.696413,4.88231 -5.73956,1.430841 0.120526,4.312801 1.089949,6.741697 2.735056,8.045935 1.645118,1.29611 6.588632,-2.155376 7.956166,-3.306561 -0.406186,1.151185 -0.830739,4.739421 -1.236906,7.466288 C 40.194625,39.505549 26.480607,37.22158 23.182192,37.648153 16.334372,25.885371 -0.94752337,30.471681 0.01383119,42.385528 10.437666,37.782854 14.550452,41.381306 14.411666,46.971833 18.255033,51.856127 37.318761,63.343356 45.26877,67.058136 42.262262,68.499138 32.385449,74.969397 28.531879,78.692327 5.485998,77.10642 7.6923983,85.442189 7.6923983,87.462862 H 45.821921 c 3.290232,0 29.212007,-6.749833 37.723315,-10.201327 0,0 0.665412,-2.012516 0.942998,-3.153496 31.426626,-0.27951 44.032196,-19.943426 56.501416,-20.531267 -0.39205,4.167901 -1.36961,15.638791 -1.08386,23.250021 -22.90107,0.996025 -19.07203,10.636069 -19.07203,10.636069 h 30.87353 c 0,0 5.48843,-17.530855 14.11205,-27.434202 5.92123,5.906887 22.78663,15.657162 29.78155,17.37778 -15.91232,1.575692 -12.62204,10.056422 -12.62204,10.056422 h 26.06041 l 0.69212,-21.255844 c 0,0 -14.41627,-4.439368 -14.52856,-4.439368"
     style="fill:none;fill-opacity:1;fill-rule:nonzero;stroke:#ffffff;stroke-width:3.95370507;stroke-miterlimit:4;stroke-dasharray:none;stroke-opacity:1"
     id="path4714"
     inkscape:connector-curvature="0" />
  <path
     d="m 31.184842,-142.54761 c 1.895254,-0.006 4.146037,-0.25027 6.382077,-0.74464 0,0 -0.03562,2.74087 -0.03562,2.85867 -0.03376,0.009 -3.48553,0.79305 -7.454856,0.79305 -5.229349,0 -8.937836,-1.25581 -10.896218,-3.83264 -1.884753,-2.47792 -2.061434,-6.41782 -1.369395,-9.98958 0,0 1.003398,10.95931 13.374169,10.91514"
     style="fill:#ffffff;fill-opacity:1;fill-rule:nonzero;stroke:none;stroke-width:0.84723592"
     id="path4718"
     inkscape:connector-curvature="0" />
</svg>
