<?xml version="1.0" encoding="UTF-8" standalone="no"?>
<!-- Created with Inkscape (http://www.inkscape.org/) -->

<svg
   width="700"
   height="572"
   viewBox="0 0 185.20833 151.34167"
   version="1.1"
   id="svg5"
   xmlns="http://www.w3.org/2000/svg"
   xmlns:svg="http://www.w3.org/2000/svg">
  <defs
     id="defs2" />
  <g
     id="layer1">
    <path
       style="fill:#000000;stroke-width:0.0846667"
       id="path115"
       d="" />
    <path
       style="fill:#000000;stroke-width:0.0846667"
       id="path95"
       d="" />
    <path
       style="fill:#ff0000;stroke-width:0.0846667"
       id="path21"
       d="" />
    <path
       style="fill:#ffffff;stroke-width:0.0756147"
       d="m 140.27793,151.08227 c -0.0563,-0.0618 -0.11461,-0.3505 -0.13239,-0.65531 -0.0175,-0.29969 -0.067,-1.19138 -0.1099,-1.98156 -0.20894,-3.84262 -0.6921,-7.66233 -1.28169,-10.13236 -0.59803,-2.50542 -1.41538,-4.06391 -2.29547,-4.37686 -0.18379,-0.0654 -1.02105,-0.16286 -2.0157,-0.23477 -5.76768,-0.41691 -11.61406,-1.27542 -15.74577,-2.3122 -7.17883,-1.8014 -11.38766,-4.37252 -12.49705,-7.63428 -0.21909,-0.64416 -0.44755,-2.13621 -0.56697,-3.70284 -0.14599,-1.91524 -0.0186,-1.6429 -1.08088,-2.3099 -1.2582,-0.78997 -2.74437,-1.85682 -4.08236,-2.93054 -2.052365,-1.64702 -3.513642,-3.02639 -6.036434,-5.69807 -0.833634,-0.88283 -1.62506,-1.65425 -1.765552,-1.72091 -0.330415,-0.1568 -0.683006,-0.22561 -0.842466,-0.16441 -0.102,0.0391 -0.02402,0.15528 0.399326,0.59499 0.415419,0.43145 0.606557,0.71334 0.908805,1.34032 1.26136,2.61647 2.145408,6.17722 2.478092,9.98114 0.133025,1.52107 0.152611,4.54747 0.03769,5.82233 -0.180796,2.00535 -0.639959,4.30188 -1.325367,6.62895 -0.644532,2.1883 -1.494438,4.1462 -2.099326,4.83617 -0.254851,0.2907 -0.327923,0.33077 -0.603173,0.33077 -0.295218,0 -0.352501,-0.0401 -0.998381,-0.69944 -0.376856,-0.38468 -2.994384,-3.31144 -5.816723,-6.50391 -2.822338,-3.19245 -5.146675,-5.78933 -5.16518,-5.77082 -0.01849,0.0185 -0.09641,0.63996 -0.173115,1.38101 -0.241258,2.33074 -0.586445,4.26034 -1.087796,6.0809 -0.328576,1.19316 -2.099529,6.37991 -2.340501,6.85485 -0.59618,1.17502 -1.651897,2.09026 -2.811238,2.43718 -0.168758,0.0505 -0.380464,0.14793 -0.47046,0.21652 -0.09367,0.0714 -0.434022,0.7389 -0.796124,1.56139 l -0.632501,1.43668 -0.39043,0.0229 c -0.214742,0.0126 -0.390439,-0.009 -0.390439,-0.0485 0,-0.0392 -0.138447,-0.23666 -0.307651,-0.43873 -0.641771,-0.76641 -1.455158,-2.73903 -2.82625,-6.85417 -1.086537,-3.26109 -2.639622,-8.36833 -4.201317,-13.81578 -0.256333,-0.89414 -0.474702,-1.63442 -0.485249,-1.64508 -0.01054,-0.0106 -0.114932,0.22752 -0.231935,0.5293 -0.96179,2.48045 -4.968102,9.1232 -8.054919,13.35564 -0.860837,1.18031 -1.231629,1.55783 -2.495086,2.5404 -0.682246,0.53056 -0.876858,0.64514 -1.095825,0.64514 -0.218762,0 -0.292629,-0.0434 -0.414195,-0.24328 -0.230327,-0.37875 -0.246965,-0.73098 -0.118888,-2.51665 0.197087,-2.74787 0.303193,-9.09397 0.202838,-12.13204 -0.11544,-3.49501 -0.293566,-5.65064 -0.461413,-5.584 -0.03072,0.0122 -0.433566,0.58364 -0.895158,1.26984 -1.594283,2.37009 -2.653715,3.55644 -6.441123,7.21285 -3.360843,3.24458 -3.593608,3.44882 -3.9304,3.44882 -0.177447,0 -1.105265,-0.61556 -1.632856,-1.0833 -0.363512,-0.32228 -0.43704,-0.55802 -0.522955,-1.67663 -0.02554,-0.33271 -0.110573,-0.97922 -0.188932,-1.43668 -0.07832,-0.45747 -0.21477,-1.34216 -0.303132,-1.96598 -0.08833,-0.62382 -0.261423,-1.5672 -0.384589,-2.09641 -0.402121,-1.72776 -0.471996,-2.36296 -0.472246,-4.29304 -3.75e-4,-2.79505 0.328218,-4.69186 1.417899,-8.18529 0.121407,-0.38922 0.07359,-0.45117 -0.152566,-0.19787 -0.231184,0.25889 -1.889368,1.6488 -2.752749,2.3074 -2.398409,1.82952 -4.690835,3.24056 -7.759345,4.77606 -3.033044,1.51776 -5.930483,2.50954 -7.331484,2.50954 h -0.58322 l 0.04376,-0.5482 c 0.02402,-0.30152 0.110778,-0.73536 0.1927,-0.96409 0.761954,-2.1275 2.116882,-6.05958 2.15232,-6.24622 l 0.04457,-0.23486 -0.619748,-0.0482 c -0.340864,-0.0265 -1.002551,-0.0484 -1.470422,-0.0487 l -0.850664,-4.5e-4 v -0.67219 c 0,-1.67761 0.624464,-3.65396 2.117069,-6.70025 1.197324,-2.44365 2.510411,-4.642491 5.328258,-8.922538 0.794025,-1.206051 1.516772,-2.311915 1.606099,-2.457471 l 0.162415,-0.264657 -2.735458,-0.0063 C 21.185394,91.040498 18.842606,90.914099 13.686268,90.484685 10.016489,90.179071 9.1120875,90.074642 7.1232929,89.726865 5.2278521,89.395423 4.8577217,89.263414 4.0643041,88.63585 3.6300858,88.292393 3.6295231,88.291418 3.6295231,87.879106 c 0,-0.401559 0.011878,-0.424796 0.434781,-0.849561 0.3385868,-0.340085 0.9116085,-0.717047 2.5898062,-1.70369 1.1852588,-0.696842 2.1996168,-1.295596 2.2541307,-1.330568 0.068143,-0.0437 -0.8727235,-0.68792 -3.0086007,-2.060062 -4.1766946,-2.683232 -5.74839175,-3.825664 -5.74839175,-4.178399 0,-0.09335 -0.0425108,-0.214806 -0.09451528,-0.269906 -0.07564436,-0.08016 -0.07564436,-0.107124 0,-0.134844 0.0519776,-0.01906 0.09451528,-0.108704 0.09451528,-0.199207 0,-0.327918 1.04080225,-0.797667 4.38564995,-1.979379 3.7381894,-1.320681 3.5484711,-1.232944 5.5198685,-2.552763 3.096401,-2.072999 7.900175,-3.867878 12.275322,-4.586545 0.755212,-0.124051 1.458177,-0.236253 1.56215,-0.249338 0.103964,-0.01308 -0.134222,-0.06832 -0.529305,-0.122754 -4.73407,-0.652199 -8.376065,-2.18042 -11.72026,-4.917955 C 8.9881182,60.569504 6.4038498,57.231808 5.3170803,54.571783 5.0483509,53.914027 4.9918542,53.689876 4.9912826,53.279103 L 4.990586,52.782159 6.5217817,52.461056 c 1.8837145,-0.395029 4.3844263,-0.98958 4.4619373,-1.060837 0.03153,-0.02902 -0.118281,-0.305951 -0.332979,-0.61541 -1.1472572,-1.653574 -4.0667101,-6.083375 -4.6664709,-7.08062 -0.7967487,-1.32479 -0.8446002,-1.520598 -0.4207416,-1.721733 0.3998613,-0.189745 0.9402764,-0.254492 3.760177,-0.4505 1.4058865,-0.09772 2.5681755,-0.189975 2.5828575,-0.205005 0.01465,-0.01503 -0.259227,-0.826953 -0.608682,-1.804272 -0.349456,-0.97732 -0.635556,-1.854347 -0.635789,-1.948949 -7.5e-4,-0.309692 0.268078,-0.35087 2.268028,-0.347421 2.450431,0.0042 5.497658,0.242718 11.454067,0.896455 1.662675,0.182484 3.031348,0.323491 3.041484,0.313348 0.01018,-0.01015 -0.375721,-0.66301 -0.857469,-1.450821 -3.160015,-5.167598 -6.193649,-10.307917 -7.610377,-12.895348 -1.345729,-2.457765 -1.448908,-2.735806 -1.056048,-2.845674 0.396485,-0.110876 3.927952,-0.05433 5.085088,0.08142 2.495353,0.292755 4.734676,0.757388 6.276009,1.302198 1.518067,0.53659 4.294511,1.90041 6.276009,3.08285 0.519856,0.310216 0.956923,0.552902 0.971275,0.539305 0.01438,-0.0136 -0.0326,-0.631133 -0.104339,-1.372298 -0.241616,-2.496193 -0.08868,-5.786513 0.422841,-9.098077 0.565617,-3.661709 1.430643,-7.5185769 2.011943,-8.9706494 0.161791,-0.4041485 0.221709,-0.4811862 0.374257,-0.4811862 0.125407,0 1.310576,0.9005798 3.8294,2.9098738 l 3.647783,2.9098728 0.09652,-0.32007 C 46.921646,11.38616 47.30669,9.2036343 47.445324,8.1047788 47.642955,6.5382591 47.782965,4.8781 47.82886,3.5570478 47.85324,2.8560184 47.90817,2.052769 47.951043,1.7720495 c 0.07386,-0.4838066 0.08851,-0.5103991 0.280607,-0.5103991 0.292728,0 1.207247,0.5642245 2.165502,1.3360301 0.457474,0.3684582 1.529311,1.232083 2.38186,1.9191659 1.034899,0.8340376 1.813018,1.3956767 2.341135,1.6898274 3.191397,1.7775231 5.656751,4.2914972 7.718673,7.8708972 0.859113,1.491389 1.912597,3.878892 2.460987,5.577351 0.217886,0.674802 0.333693,0.830284 0.333693,0.448008 0,-0.330906 0.28467,-1.847118 0.528197,-2.813265 0.351251,-1.393487 0.796481,-2.583751 1.512378,-4.043087 1.090244,-2.222418 2.19308,-3.7483153 4.044144,-5.5955301 1.182472,-1.1800107 2.309689,-2.1170999 4.274478,-3.5534978 1.735355,-1.2686645 2.448252,-1.87784 3.091417,-2.6416088 0.636386,-0.75570945 1.362777,-1.32851121 1.684761,-1.32851121 0.12338,0 0.293799,-0.03717921 0.378704,-0.08261946 0.111645,-0.05974751 0.177242,-0.05974751 0.236998,0 0.04546,0.04544025 0.15237,0.08285166 0.237624,0.08313745 0.343615,0.001161 0.684202,0.76145027 1.291562,2.88317002 0.523662,1.8293551 0.663216,2.2613332 1.030925,3.1912341 0.22337,0.5648488 0.338632,1.029311 0.478525,1.9281743 0.428234,2.7515825 0.437397,2.8696175 0.484508,6.2430125 l 0.04528,3.244169 0.944385,-1.089151 c 1.15568,-1.332827 3.228416,-3.457081 4.348632,-4.456722 2.645537,-2.3607702 5.379749,-4.171306 7.466035,-4.9438323 0.987772,-0.3657637 2.485947,-0.7245524 3.025467,-0.7245524 0.40118,0 0.44483,0.016531 0.51229,0.1939588 0.10553,0.2775464 0.0833,2.5715645 -0.0699,7.2162799 -0.0734,2.224962 -0.12964,4.052063 -0.12499,4.060225 0.004,0.0081 2.0831,-1.550965 4.61875,-3.464725 2.53563,-1.91376 4.83555,-3.629981 5.11093,-3.813823 0.77726,-0.518908 1.08649,-0.6344691 1.70284,-0.6363652 0.50838,-0.00161 0.5427,0.00903 0.58581,0.1807992 0.12788,0.509511 0.21147,2.248405 0.16816,3.498308 -0.26788,7.732135 -2.51457,13.888575 -7.37527,20.209869 -1.04997,1.365493 -0.98272,1.251987 -0.63785,1.07648 0.96421,-0.490677 2.77652,-0.96631 4.11044,-1.078764 1.00636,-0.08484 3.26124,-0.593593 7.37242,-1.663383 3.27885,-0.853201 4.72689,-1.412779 6.4213,-2.481422 1.96807,-1.241245 4.12411,-1.958423 5.10135,-1.696897 0.17556,0.04699 0.1792,0.06386 0.13434,0.62279 -0.0685,0.853208 -1.25199,5.29129 -1.968,7.379817 -1.85895,5.422285 -4.90917,9.765607 -8.58535,12.224967 -1.025,0.685721 -1.78111,1.062489 -3.93918,1.962873 -0.97732,0.407754 -1.7259,0.74213 -1.66352,0.743058 0.0624,8.93e-4 0.52174,-0.04643 1.0208,-0.105239 2.58687,-0.30484 6.25968,-0.338146 8.73348,-0.0792 3.2579,0.341027 6.12279,1.025057 8.92253,2.13037 2.73828,1.081059 5.129,2.436334 7.71269,4.372243 0.60302,0.451838 1.45368,1.051982 1.89035,1.333652 0.43667,0.281671 0.83649,0.548718 0.88848,0.59344 0.052,0.04473 0.0945,0.25015 0.0945,0.45663 0,0.363158 -0.0241,0.404745 -0.74474,1.28325 l -0.74473,0.907929 0.0357,0.55598 c 0.0218,0.340146 -0.002,0.670074 -0.0597,0.849884 -0.16388,0.504586 -0.70804,1.261732 -1.40278,1.951797 -1.38803,1.378692 -2.62628,2.249858 -4.58076,3.222792 -0.74415,0.370434 -1.55685,0.811948 -1.80599,0.981139 -0.55241,0.375136 -1.43419,1.189003 -1.43419,1.323729 0,0.183111 1.42294,1.207343 4.95692,3.567979 0.62613,0.418235 1.35372,0.948209 1.61689,1.17772 0.45839,0.399779 0.50423,0.42095 1.09223,0.504376 11.11125,1.576453 25.45966,4.367156 40.46266,7.869825 5.72298,1.336111 5.47063,1.25022 5.77898,1.966957 0.32607,0.757984 0.44286,1.537451 0.50925,3.398774 0.11808,3.310281 0.0326,9.248977 -0.16974,11.795887 -0.82529,10.38692 -3.06127,22.94884 -5.00008,28.09085 -0.68533,1.8176 -1.29804,2.77416 -1.92733,3.00902 -1.83119,0.68337 -7.39738,1.34558 -15.03387,1.78858 -1.64176,0.0952 -2.5572,0.1792 -2.76137,0.25327 -2.71605,0.9852 -8.11545,5.53671 -16.26955,13.71467 -1.90382,1.9094 -3.24753,3.20053 -3.33083,3.20053 -0.0768,0 -0.17195,0.0312 -0.21146,0.0693 -0.0438,0.0423 -0.11098,0.0264 -0.17245,-0.0411 z m 26.71636,-42.52615 6.81842,-9.862199 -2.8736,-0.357172 c -1.58047,-0.196444 -2.89521,-0.343803 -2.92162,-0.327477 -0.0264,0.01634 -2.17281,3.280448 -4.76976,7.253598 -4.35785,6.66723 -4.73773,7.22406 -4.92965,7.22583 l -0.20794,0.002 -0.007,-1.4934 c -0.0151,-3.24811 -0.18437,-14.224136 -0.21992,-14.257573 -0.0527,-0.04957 -5.89129,-0.765519 -5.92665,-0.72675 -0.0398,0.04367 0.895,21.452503 0.93862,21.495513 0.0405,0.0399 7.10741,0.94528 7.21183,0.92395 0.0379,-0.008 3.13708,-4.45203 6.88719,-9.87625 z m -20.64985,-2.47385 c 1.74011,-5.64558 3.16823,-10.296391 3.17363,-10.335125 0.009,-0.06439 -5.9539,-0.863123 -6.50436,-0.871233 -0.22957,-0.0036 -0.40814,0.229961 -4.94452,6.461538 -3.85999,5.30241 -4.73735,6.46505 -4.8787,6.46505 -0.12817,0 -0.18238,-0.0533 -0.2114,-0.20793 -0.0214,-0.11437 -0.30337,-3.34157 -0.62645,-7.17156 l -0.58742,-6.963605 -3.43599,-0.429262 c -1.88981,-0.236105 -3.4421,-0.420072 -3.44955,-0.408828 -0.007,0.01125 -1.43806,4.642051 -3.17915,10.290675 -2.15535,6.9926 -3.1386,10.28695 -3.08092,10.32258 0.0984,0.0608 5.38151,0.72478 5.42457,0.68172 0.0159,-0.0159 0.76446,-2.42726 1.66352,-5.35867 2.1201,-6.91245 1.90422,-6.27499 2.12496,-6.27499 0.10058,0 0.18311,0.0255 0.1834,0.0567 0,0.0312 0.10213,2.67676 0.22632,5.87905 0.12419,3.20229 0.22604,5.92699 0.22632,6.05493 l 7.6e-4,0.23259 2.31279,0.28745 c 1.96223,0.2439 2.32812,0.27167 2.41392,0.18329 0.0556,-0.0572 1.78947,-2.55408 3.85301,-5.54843 3.07288,-4.45897 3.7855,-5.44859 3.9377,-5.46819 0.16114,-0.0207 0.18583,0.006 0.18583,0.20139 0,0.12391 -0.77962,2.75473 -1.73248,5.84626 -0.95286,3.09152 -1.72697,5.62639 -1.72023,5.63304 0.009,0.009 4.98872,0.65459 5.38306,0.69774 0.0428,0.004 1.50151,-4.6106 3.2416,-10.25619 z m -67.246144,-2.34229 c -0.302712,-1.79641 -0.397067,-2.74113 -0.436291,-4.36851 -0.05885,-2.441467 0.181716,-3.581331 0.865891,-4.102724 0.253146,-0.192916 0.322307,-0.207223 0.996024,-0.206018 0.685907,8.93e-4 0.752514,0.01599 1.266235,0.281501 1.218847,0.62985 3.203722,2.38857 4.523783,4.008352 0.29103,0.357128 0.539906,0.638566 0.553035,0.62542 0.02786,-0.02786 -0.317662,-2.152973 -0.700635,-4.30851 -0.324512,-1.826505 -0.358806,-2.778634 -0.111412,-3.093143 0.133936,-0.170276 0.214732,-0.199239 0.555758,-0.199239 0.507549,0 0.544317,0.02715 2.605587,1.921878 0.889192,0.81738 1.630043,1.472834 1.646315,1.456562 0.01625,-0.01625 -0.13892,-0.638467 -0.344866,-1.38265 -0.205954,-0.744182 -0.461922,-1.69949 -0.568816,-2.122912 -0.206767,-0.819023 -0.255226,-1.672126 -0.103615,-1.823737 0.134498,-0.134498 0.520214,-0.109555 0.782888,0.05064 0.127533,0.07779 1.107892,1.287876 2.189751,2.702937 2.40335,3.14354 3.033441,3.9341 3.180514,3.990534 0.130266,0.05001 0.788274,-0.56569 0.788274,-0.737564 0,-0.16857 -0.594081,-0.936178 -2.11474,-2.732435 -1.684522,-1.989806 -2.091931,-2.492802 -3.062296,-3.780731 -0.98261,-1.304167 -1.0973,-1.555125 -1.098238,-2.403181 -7.68e-4,-0.40503 0.04126,-0.764563 0.106911,-0.921713 0.231908,-0.555027 1.05971,-1.249782 1.489142,-1.249782 0.09137,0 0.509551,0.199206 0.929284,0.442686 1.57703,0.914801 2.553487,1.383884 2.659693,1.277691 0.07145,-0.07146 -0.311,-1.136949 -0.920978,-2.565863 -0.681988,-1.597602 -0.74362,-1.887101 -0.490216,-2.302671 0.171768,-0.281688 0.550955,-0.583587 0.93408,-0.743663 0.328182,-0.13712 1.276364,-0.154927 1.515613,-0.02845 0.435192,0.23005 2.180239,1.836392 4.085189,3.760461 1.20772,1.219861 2.18429,2.14624 2.29062,2.172931 0.2211,0.05549 0.79345,-0.148537 1.05717,-0.376856 l 0.18687,-0.161777 -0.21983,-0.340266 c -0.12091,-0.187146 -0.79443,-0.940685 -1.49671,-1.674525 -1.18026,-1.233298 -1.7142,-1.745172 -4.339282,-4.159987 -1.058344,-0.973584 -1.285438,-1.259574 -1.285438,-1.61885 0,-0.379404 0.291147,-0.444319 1.717076,-0.382837 0.635949,0.02743 1.15627,0.02489 1.15627,-0.0056 0,-0.03052 -0.727803,-0.788056 -1.617344,-1.683418 -0.980851,-0.987278 -1.687282,-1.761831 -1.795069,-1.968189 -0.168043,-0.3217 -0.176644,-0.40628 -0.157505,-1.550101 0.01116,-0.66541 0.05555,-1.319308 0.09879,-1.453108 0.22637,-0.700892 1.49893,-1.119533 4.655082,-1.5314 1.81858,-0.237316 2.01806,-0.276786 1.9506,-0.385933 -0.0692,-0.111949 -1.20768,-0.441768 -3.134558,-0.908074 -1.923816,-0.465566 -2.750814,-0.747759 -2.875793,-0.981284 -0.10458,-0.195399 -0.09042,-0.852391 0.02135,-0.991625 0.05198,-0.06475 0.298675,-0.263194 0.548203,-0.44098 0.24952,-0.177785 0.56294,-0.42592 0.696474,-0.55141 l 0.242777,-0.228163 -0.819622,-0.852589 c -0.952798,-0.991137 -1.140427,-1.316961 -1.140427,-1.980303 0,-0.414169 0.02617,-0.494767 0.239196,-0.73742 0.321091,-0.365718 0.946841,-0.669051 1.849511,-0.896558 1.747139,-0.44034 2.454949,-0.494185 5.475979,-0.41657 1.03702,0.02664 1.19975,0.01416 1.38343,-0.106131 0.33096,-0.216768 0.39733,-0.442773 0.2462,-0.838484 -0.0706,-0.185095 -0.1735,-0.373863 -0.22848,-0.419484 -0.0742,-0.06162 -0.93353,0.08151 -3.34195,0.556672 -3.719387,0.7338 -4.171718,0.799813 -5.480313,0.799813 -1.10323,0 -1.168167,-0.0322 -1.109768,-0.550347 0.02447,-0.217479 0.177457,-0.550425 0.470291,-1.023839 1.09404,-1.768641 2.681171,-3.306201 4.83128,-4.680361 0.42273,-0.270175 0.70055,-0.471636 0.61738,-0.447691 -0.33985,0.09783 -2.884679,0.429482 -4.120997,0.53706 -0.727786,0.06333 -1.910215,0.115336 -2.627604,0.115573 l -1.304363,4.3e-4 v -0.185188 c 0,-0.246434 0.129552,-0.337023 2.423802,-1.694842 1.062773,-0.628985 2.007007,-1.2132 2.098299,-1.298257 0.215885,-0.201126 0.209321,-0.31252 -0.03563,-0.603584 -0.248117,-0.294881 -0.323842,-0.284777 -1.443719,0.192635 -1.047939,0.446742 -2.172041,1.042284 -3.136163,1.661514 -0.891605,0.572657 -1.19379,0.672371 -1.888584,0.62319 -0.649301,-0.04596 -1.226825,-0.322967 -1.721907,-0.825934 -0.640253,-0.650433 -0.682157,-1.163565 -0.162694,-1.992061 0.168267,-0.26837 1.213053,-1.59604 2.321758,-2.950377 1.108696,-1.354336 2.003408,-2.474316 1.988252,-2.488843 -0.0292,-0.02799 -2.557408,1.778623 -4.234901,3.026185 -0.549909,0.408976 -1.11992,0.804815 -1.26669,0.879642 -0.36463,0.185898 -1.080304,0.17799 -1.509306,-0.01667 -0.4647,-0.210867 -1.427786,-1.162439 -1.522854,-1.50464 -0.170991,-0.615557 -0.108528,-0.887499 1.243568,-5.414067 0.51999,-1.740819 0.929631,-3.18093 0.910304,-3.200247 -0.05841,-0.05844 -1.392606,0.991316 -2.093804,1.647474 -0.699358,0.65443 -1.409352,1.476252 -1.951749,2.259158 -0.463843,0.669522 -0.802599,0.853926 -1.658362,0.902719 -0.539407,0.03076 -0.767733,0.0076 -1.189707,-0.120552 -0.729821,-0.221677 -1.4102,-0.676847 -1.623586,-1.086174 -0.222494,-0.426792 -0.269212,-1.505454 -0.117842,-2.721166 0.103598,-0.832101 0.09897,-1.27145 -0.0134,-1.27145 -0.155656,0 -1.737846,1.260464 -2.871091,2.287271 -0.889568,0.806014 -2.152293,1.266619 -3.472363,1.266619 -1.430903,0 -2.056652,-0.521194 -2.587359,-2.155019 -0.09456,-0.291116 -0.185253,-0.552973 -0.201534,-0.581906 -0.01625,-0.02894 -0.251859,0.166388 -0.523491,0.434042 -0.750827,0.739817 -1.388668,1.168663 -1.738222,1.168663 -0.249216,0 -0.34073,-0.05418 -0.670931,-0.397232 -0.30957,-0.321619 -0.428475,-0.526721 -0.62466,-1.077509 -0.449123,-1.26089 -0.845529,-2.61276 -1.004561,-3.425933 -0.215501,-1.101855 -0.343355,-1.428724 -0.613505,-1.568423 -0.214653,-0.111 -0.223513,-0.108271 -0.31216,0.09613 -0.217564,0.501634 -0.03733,2.555349 0.439747,5.011904 0.318134,1.638042 0.329003,2.021585 0.06609,2.333995 -0.408739,0.485748 -1.552746,0.7235 -3.255718,0.67661 -1.393393,-0.03837 -1.461151,-0.069 -2.901511,-1.311806 l -1.018564,-0.878864 -0.09247,0.640512 c -0.165425,1.145915 -0.827095,2.668866 -1.697979,3.908195 -0.496198,0.706123 -1.581923,1.803861 -2.351289,2.377295 -0.794481,0.592161 -1.51387,0.883659 -2.296856,0.930699 -0.76449,0.04593 -1.038347,-0.0639 -1.883474,-0.755375 -0.607357,-0.496971 -3.766302,-2.777928 -4.21079,-3.040495 L 44.814542,44.641 l 0.12723,0.181746 c 0.07002,0.09996 0.917727,1.076508 1.883885,2.170106 1.087261,1.230685 1.850295,2.162436 2.002397,2.445181 0.224762,0.417815 0.24575,0.514428 0.24575,1.131568 0,0.894432 -0.214966,1.359819 -0.861016,1.864033 -0.249384,0.194635 -0.492116,0.209911 -1.25549,0.07901 -0.473247,-0.08116 -0.545292,-0.07723 -0.658356,0.03583 -0.11887,0.118869 -0.114003,0.158498 0.07627,0.621924 0.257316,0.626557 0.261897,0.993818 0.01661,1.331455 -0.575978,0.792899 -1.386972,2.05926 -1.602867,2.502889 -0.673824,1.384547 -1.524952,1.64712 -4.000622,1.234183 -0.662321,-0.110473 -1.280783,-0.219322 -1.374352,-0.241887 -0.09358,-0.02257 -0.170133,-0.0091 -0.170133,0.02982 0,0.03896 0.560965,0.663637 1.246587,1.388164 1.002319,1.059191 1.246793,1.359137 1.247641,1.530706 l 8.93e-4,0.213381 -0.43479,-0.05076 c -0.239123,-0.02792 -1.773445,-0.403704 -3.409596,-0.835078 -1.636142,-0.431374 -3.086648,-0.805297 -3.223334,-0.83094 -0.283992,-0.05328 -0.671708,0.112218 -0.792748,0.338385 -0.08529,0.159437 0.0334,0.210663 1.96253,0.846939 1.182784,0.390107 2.097876,0.753464 3.402657,1.351095 2.067511,0.946992 2.117202,0.991793 2.117202,1.908708 0,1.052443 -0.352563,1.621246 -1.460892,2.356866 -1.384363,0.918838 -3.591241,1.527179 -6.505772,1.793359 l -1.04793,0.09571 0.669859,0.176336 c 1.878794,0.49458 3.713076,1.22244 5.357962,2.126088 2.405392,1.321445 3.258807,2.395341 2.907833,3.659081 -0.04296,0.154664 -0.166426,0.386178 -0.274382,0.514476 -0.367416,0.436647 -1.680252,1.215139 -2.425514,1.438277 -0.176742,0.05292 -0.321359,0.119207 -0.321359,0.147298 0,0.02809 0.484882,0.397529 1.077508,0.820986 1.410182,1.007611 1.509118,1.097805 1.47945,1.348633 -0.02367,0.199721 -0.04483,0.206535 -2.09075,0.673682 -1.136791,0.259555 -2.087793,0.492818 -2.113335,0.518369 -0.02554,0.02554 0.06189,0.154813 0.19438,0.287267 l 0.24082,0.240818 1.191975,0.05357 c 1.981597,0.08905 3.968061,0.284893 4.159038,0.410028 0.135696,0.08891 0.170946,0.182337 0.170946,0.453045 0,0.37697 -0.150405,0.715429 -0.813887,1.831456 -0.229371,0.385824 -0.403782,0.713379 -0.387591,0.727897 0.01617,0.01452 0.505827,0.137543 1.088056,0.273362 1.15693,0.269899 1.620558,0.415291 2.307841,0.723724 0.600806,0.269626 0.611443,0.459238 0.05171,0.921924 -0.354518,0.29306 -3.869026,2.467103 -7.796344,4.822738 -1.617129,0.969972 -1.830388,1.164013 -1.697694,1.544683 0.111395,0.319537 0.400442,0.556929 0.613131,0.503549 0.0984,-0.02465 0.90842,-0.565789 1.800032,-1.202425 3.024105,-2.15929 4.49574,-3.109926 6.217949,-4.016606 0.632002,-0.332735 0.695133,-0.350036 1.277042,-0.350036 h 0.612184 l -0.04206,0.46376 c -0.03519,0.387919 -0.166195,0.718688 -0.801197,2.022693 -0.835723,1.716182 -0.893408,1.875366 -0.75013,2.069916 0.0911,0.123701 0.150396,0.106813 0.854031,-0.243295 0.415883,-0.206928 1.232522,-0.720453 1.814752,-1.14115 1.377066,-0.99503 1.400983,-1.006765 1.949293,-0.957048 0.543649,0.04929 1.038132,0.331664 1.391017,0.794327 0.319635,0.419072 0.401683,0.737886 0.402192,1.56292 3.75e-4,0.601038 -0.0643,0.926086 -0.56961,2.864129 -0.313518,1.20239 -0.560205,2.195511 -0.548202,2.206943 0.01197,0.01143 0.627678,-0.657535 1.36818,-1.486588 1.300387,-1.45591 2.237564,-2.318712 2.753304,-2.534803 0.367736,-0.154067 0.793354,-0.126881 1.087662,0.06948 0.400808,0.267417 0.872018,1.036257 1.091958,1.781654 0.106402,0.360602 0.248966,0.757713 0.316804,0.882477 0.536021,0.985771 0.493278,0.765501 0.44799,2.308737 -0.0226,0.770751 -0.01518,1.443353 0.01652,1.494661 0.110626,0.178992 1.061397,-0.572121 2.825179,-2.231913 0.550087,-0.517651 0.605842,-0.550687 0.929738,-0.550687 0.255753,0 0.529984,0.0902 1.063951,0.349965 0.863516,0.420073 1.460704,0.936831 1.719887,1.488213 0.313687,0.667359 1.183294,3.802316 1.183294,4.265806 0,0.0946 0.02554,0.17147 0.05671,0.17078 0.03117,-7.6e-4 0.26087,-0.39612 0.510399,-0.87875 0.931944,-1.802518 1.877667,-3.072416 2.903796,-3.899173 0.85137,-0.685954 1.250107,-0.847665 2.094171,-0.849326 0.641593,-8.93e-4 0.725864,0.01741 1.25115,0.277009 1.044116,0.516025 1.766363,1.419195 2.874165,3.59413 l 0.510666,1.00258 0.224603,-0.73793 c 0.123531,-0.40585 0.364424,-1.197274 0.535324,-1.758713 0.391672,-1.28676 0.594876,-1.692927 0.863167,-1.725257 0.190103,-0.02286 0.198596,-0.008 0.199257,0.340267 0.0027,1.195691 1.241952,4.873333 2.378546,7.056083 l 0.216556,0.41589 0.140876,-0.3196 c 0.137901,-0.31285 0.137705,-0.33841 -0.0091,-1.20984 z"
       id="path537" />
    <path
       style="fill:#000000;stroke-width:0.0846667"
       id="path391"
       d="" />
    <path
       style="fill:#000000;stroke-width:0.0846667"
       id="path297"
       d="" />
    <path
       style="fill:#000000;stroke-width:0.0846667"
       id="path277"
       d="" />
    <path
       style="fill:#000000;stroke-width:0.0846667"
       id="path257"
       d="" />
  </g>
</svg>
