<?xml version="1.0" encoding="UTF-8" standalone="no"?>
<!-- Created with Inkscape (http://www.inkscape.org/) -->

<svg
   xmlns:dc="http://purl.org/dc/elements/1.1/"
   xmlns:cc="http://creativecommons.org/ns#"
   xmlns:rdf="http://www.w3.org/1999/02/22-rdf-syntax-ns#"
   xmlns:svg="http://www.w3.org/2000/svg"
   xmlns="http://www.w3.org/2000/svg"
   xmlns:sodipodi="http://sodipodi.sourceforge.net/DTD/sodipodi-0.dtd"
   xmlns:inkscape="http://www.inkscape.org/namespaces/inkscape"
   width="400"
   height="400"
   viewBox="0 0 105.83333 105.83334"
   version="1.1"
   id="svg8"
   inkscape:version="0.92.5 (2060ec1f9f, 2020-04-08)"
   sodipodi:docname="lion.svg">
  <defs
     id="defs2" />
  <sodipodi:namedview
     id="base"
     pagecolor="#ffffff"
     bordercolor="#666666"
     borderopacity="1.0"
     inkscape:pageopacity="0.0"
     inkscape:pageshadow="2"
     inkscape:zoom="0.98994949"
     inkscape:cx="-243.76585"
     inkscape:cy="211.83565"
     inkscape:document-units="mm"
     inkscape:current-layer="layer1"
     showgrid="false"
     units="px"
     inkscape:window-width="1848"
     inkscape:window-height="1016"
     inkscape:window-x="1752"
     inkscape:window-y="27"
     inkscape:window-maximized="1" />
  <metadata
     id="metadata5">
    <rdf:RDF>
      <cc:Work
         rdf:about="">
        <dc:format>image/svg+xml</dc:format>
        <dc:type
           rdf:resource="http://purl.org/dc/dcmitype/StillImage" />
        <dc:title></dc:title>
      </cc:Work>
    </rdf:RDF>
  </metadata>
  <g
     inkscape:label="Ebene 1"
     inkscape:groupmode="layer"
     id="layer1"
     transform="translate(0,-191.16665)">
    <path
       style="fill:none;stroke:#ffffff;stroke-width:2.64583333;stroke-miterlimit:4;stroke-dasharray:none;stroke-opacity:1"
       d="m 65.535953,296.57463 c -0.227965,-0.12758 -0.371295,-0.71728 -0.25154,-1.03495 0.05343,-0.14181 0.294549,-0.59523 0.535776,-1.0076 0.334103,-0.57118 0.488251,-0.74922 0.647066,-0.74741 0.237793,0.003 1.294304,0.34161 1.455786,0.46698 0.05899,0.0457 0.215995,0.11231 0.349022,0.14791 0.133017,0.0357 0.478858,0.12879 0.768518,0.20706 0.403133,0.10893 0.543392,0.11522 0.598017,0.0269 0.04758,-0.077 0.109846,-0.031 0.186794,0.13787 0.09889,0.21709 0.08576,0.29506 -0.09202,0.54476 -0.391577,0.54992 -1.060098,1.05595 -1.537481,1.16379 -0.616521,0.13928 -2.462824,0.20505 -2.6599,0.0947 z m 7.498236,-1.55883 c -0.24252,-0.29662 -0.698732,-1.33161 -0.698237,-1.58409 2.83e-4,-0.15306 0.04424,-0.43558 0.09767,-0.62784 l 0.09707,-0.34958 0.829385,-0.0673 c 0.907758,-0.0736 1.095481,-0.13595 1.860747,-0.61759 0.738024,-0.4645 0.818274,-0.39864 0.773538,0.63489 -0.03384,0.78248 -0.06343,0.88696 -0.394304,1.39395 -0.42194,0.64652 -0.739479,0.89199 -1.48625,1.14892 -0.637834,0.21946 -0.940575,0.2387 -1.079622,0.0686 z m -4.423517,-1.10385 c -0.372477,-0.13307 -0.851365,-0.2942 -1.064209,-0.35806 -0.212844,-0.0638 -0.551543,-0.19657 -0.75266,-0.29487 -0.327376,-0.16001 -0.383112,-0.16344 -0.532109,-0.0327 -0.25858,0.2269 -2.494399,0.18565 -2.858189,-0.0527 -0.448373,-0.29382 -1.1346,-1.92369 -1.280749,-3.04195 -0.04,-0.30652 0.243843,-1.22717 0.500484,-1.62295 0.06929,-0.10695 0.107079,-0.34447 0.08384,-0.52782 -0.06162,-0.48701 0.419374,-1.90855 1.141469,-3.37346 0.06121,-0.12422 0.260812,-0.35709 0.443515,-0.51751 0.317529,-0.2788 0.364639,-0.29012 1.067673,-0.25637 0.791629,0.038 1.305072,0.23224 2.167255,0.81995 0.516241,0.35191 0.612542,0.34404 1.283527,-0.10495 0.674277,-0.45118 1.885705,-1.72243 2.290211,-2.40332 0.511372,-0.86078 0.738711,-1.70708 0.811265,-3.01999 0.06798,-1.22959 -0.124321,-2.86177 -0.45195,-3.8366 -0.411728,-1.22512 -1.481744,-2.8845 -1.711628,-2.65441 -0.0405,0.0405 -0.05778,0.87987 -0.03859,1.86526 l 0.03495,1.79163 -0.22849,-0.0722 c -0.125664,-0.0397 -0.28962,-0.16392 -0.364346,-0.276 -0.355769,-0.5337 -2.273878,-2.29452 -3.103668,-2.84916 -0.929595,-0.62136 -1.161398,-0.7144 -4.258308,-1.70925 -2.542438,-0.81673 -4.321489,-2.31339 -5.418162,-4.55813 -0.484554,-0.99183 -0.495443,-1.04262 -0.484676,-2.26147 0.0091,-1.01035 0.06262,-1.2853 0.498292,-2.54985 0.197713,-0.57392 0.263065,-0.88888 0.197945,-0.954 -0.139178,-0.13919 -1.405797,0.27061 -1.761486,0.5699 -0.270418,0.22754 -0.929989,1.05075 -1.265527,1.57949 -0.503584,0.79358 -0.88102,3.07433 -0.748882,4.52533 0.258853,2.84258 -0.156512,5.1557 -1.353192,7.5358 -0.363153,0.72227 -1.575954,2.3541 -1.749617,2.3541 -0.176905,0 -0.335861,-0.32884 -0.4049,-0.83761 -0.08374,-0.61704 -0.125725,-0.6853 -0.321559,-0.52277 -0.125815,0.10442 -0.718337,1.05409 -0.818587,1.312 -0.106331,0.27357 -1.324587,1.92882 -1.830343,2.4869 -0.318842,0.35184 -0.621259,0.71392 -0.672026,0.80465 -0.07464,0.13337 -0.130805,0.14434 -0.293438,0.0573 -0.251519,-0.13462 -0.269024,-0.19187 -0.551836,-1.805 -0.127603,-0.72786 -0.257943,-1.34931 -0.28963,-1.38099 -0.116926,-0.11693 -0.71868,0.3078 -1.605822,1.13341 -1.863231,1.73398 -3.5218,2.82091 -5.772709,3.78311 l -0.507908,0.21713 v 0.46705 c 0,0.25688 -0.04596,0.68152 -0.10221,0.94364 -0.09869,0.46018 -0.124633,0.48831 -0.753953,0.81799 -0.814426,0.42663 -1.981238,0.82267 -2.658183,0.90223 -0.44701,0.0525 -0.568906,0.0278 -0.90407,-0.18382 -0.213056,-0.13451 -0.427132,-0.21583 -0.475707,-0.18073 -0.04859,0.0351 -0.255539,0.27189 -0.459909,0.52619 -0.610915,0.76016 -1.950118,1.27659 -2.600618,1.00288 -0.428869,-0.18046 -1.561753,-1.35334 -1.708578,-1.7689 -0.07263,-0.20546 -0.221137,-0.56948 -0.330094,-0.80893 -0.108967,-0.23944 -0.223954,-0.58704 -0.255539,-0.77243 -0.04858,-0.28524 -0.146442,-0.39074 -0.636501,-0.68618 -0.525372,-0.31672 -0.598361,-0.40212 -0.786811,-0.92062 -0.256509,-0.70578 -0.465505,-2.30868 -0.377527,-2.89539 0.05121,-0.34166 0.157128,-0.52692 0.487131,-0.85225 0.231914,-0.22864 0.599198,-0.49576 0.816183,-0.59361 0.665208,-0.29996 0.52408,-0.3779 -0.62345,-0.34426 -0.267217,0.008 -0.604623,-0.0309 -0.749781,-0.0861 -0.241561,-0.0918 -0.263843,-0.14359 -0.262985,-0.61066 7.38e-4,-0.33191 0.0803,-0.67942 0.228005,-0.99404 0.263692,-0.56178 1.130288,-1.41813 1.658398,-1.63879 0.540422,-0.2258 1.311132,-0.28888 1.875493,-0.15349 0.686823,0.16477 0.650329,0.36177 -0.134542,0.72618 -0.590028,0.27394 -0.635592,0.31989 -0.911445,0.91909 -0.593613,1.28944 -0.720357,1.86548 -0.434576,1.97515 0.224127,0.086 0.312438,-10e-4 0.425243,-0.42018 0.177057,-0.65754 0.556917,-1.41651 0.861294,-1.72088 0.162582,-0.1626 0.628047,-0.43402 1.034361,-0.60316 0.701105,-0.29188 0.764114,-0.30158 1.236235,-0.19052 0.900687,0.21187 1.408493,0.5748 1.988288,1.42102 0.118483,0.17293 0.288651,0.31426 0.378154,0.31407 0.329174,-7.5e-4 1.303566,-0.70916 2.820825,-2.05087 0.965231,-0.85355 1.679508,-1.86045 2.155407,-3.03839 l 0.308467,-0.76354 -0.01273,-2.08004 c -0.0071,-1.14403 -0.0406,-2.88546 -0.07464,-3.86987 -0.0596,-1.72387 -0.05303,-1.81831 0.178258,-2.56378 0.466677,-1.50389 0.908758,-2.68038 1.111895,-2.95901 0.113078,-0.15509 0.30267,-0.42348 0.421323,-0.59641 0.368124,-0.53653 1.157207,-1.44737 1.822939,-2.10424 0.674268,-0.66528 1.949825,-1.45756 2.951894,-1.83348 0.475575,-0.17841 2.87138,-0.88114 3.958477,-1.1611 0.389749,-0.1004 2.353624,-0.67375 4.885689,-1.42647 2.191142,-0.65137 4.055424,-1.26931 4.194633,-1.39037 0.135472,-0.11782 -0.319983,-0.35572 -1.458685,-0.76192 -1.805636,-0.6441 -2.396441,-0.7153 -5.299719,-0.63863 -4.045627,0.10683 -5.720701,-0.11245 -7.868329,-1.03002 -0.682147,-0.29144 -0.934424,-0.35997 -1.017998,-0.27652 -0.179662,0.17944 -0.08505,2.67501 0.133381,3.51927 0.10419,0.40263 0.1,0.48773 -0.0301,0.61789 -0.220844,0.22085 -0.403203,0.1026 -0.653834,-0.42399 -0.366951,-0.77099 -0.764185,-1.29007 -1.734133,-2.26606 -0.984291,-0.99042 -1.354111,-1.2584 -2.283999,-1.65509 -0.692035,-0.29522 -2.237001,-0.4748 -2.360836,-0.27442 -0.07434,0.12029 -0.04677,1.30804 0.08656,3.72823 0.101634,1.84487 0.02232,2.00727 -0.484353,0.99166 -0.165906,-0.33257 -0.568149,-0.95907 -0.893879,-1.39223 -0.492353,-0.65475 -0.763933,-0.9031 -1.610479,-1.47272 -1.210185,-0.81432 -2.47548,-1.42007 -3.153465,-1.50971 -0.748458,-0.099 -0.777215,-0.0295 -0.631764,1.52585 0.150856,1.61325 0.248762,4.06589 0.170451,4.26998 -0.05384,0.14024 -0.09333,0.14131 -0.405294,0.0109 -0.190127,-0.0795 -0.702651,-0.38094 -1.138964,-0.67001 -1.257316,-0.83301 -1.959158,-1.17673 -3.357066,-1.64406 -1.294901,-0.43289 -1.6286,-0.4993 -2.965409,-0.59011 l -0.691873,-0.047 -0.03374,0.87903 c -0.03283,0.85458 -0.04242,0.88627 -0.345265,1.13905 -1.057673,0.88279 -3.271533,1.88473 -3.680655,1.66578 -0.180369,-0.0966 -0.245297,-0.0445 -0.647713,0.51946 -0.245974,0.34472 -0.529654,0.67086 -0.630389,0.72477 -0.368386,0.19716 -1.31091,0.11351 -3.237727,-0.28733 -0.592694,-0.1233 -0.870718,-0.37676 -1.1064507,-1.00871 l -0.183157,-0.49098 -0.8092245,-7.4e-4 c -0.748064,-7.3e-4 -0.838466,-0.0227 -1.1962055,-0.29099 -0.5167561,-0.38757 -0.5857647,-0.48349 -0.8352944,-1.16096 -0.1687437,-0.45818 -0.2215203,-0.84551 -0.2504692,-1.83845 l -0.036666,-1.25797 0.4402932,-0.41963 c 0.4859083,-0.4631 0.5121804,-0.58138 0.2840239,-1.27893 -0.1630267,-0.49843 -0.1180479,-1.54189 0.066463,-1.54189 0.049393,0 0.089796,-0.0445 0.089796,-0.099 0,-0.13161 0.6622377,-1.20009 0.9686753,-1.56288 0.177097,-0.20967 0.3970012,-0.32357 0.8100425,-0.41958 0.7581547,-0.17625 1.3766564,-0.0887 2.1607194,0.30576 l 0.646754,0.32541 0.7786,-0.4704 c 1.302869,-0.78713 2.008732,-1.22625 3.081527,-1.91706 0.564573,-0.36353 1.474613,-0.94755 2.022318,-1.29779 3.516739,-2.24892 4.658491,-2.9921 5.392546,-3.51005 0.93909,-0.66264 0.952857,-0.66568 3.574627,-0.79008 1.605711,-0.0762 1.495421,-0.20129 0.951554,1.07938 -0.183652,0.43244 -0.362093,0.89853 -0.396536,1.03575 -0.03444,0.13722 -0.111109,0.37114 -0.170391,0.51982 -0.05929,0.14867 -0.119967,0.37915 -0.134875,0.51218 -0.05687,0.50715 -0.250722,1.58452 -0.299317,1.66315 -0.07323,0.11854 -0.06252,1.72845 0.01505,2.24535 0.08283,0.55259 0.301832,0.64723 0.744711,0.32186 0.610047,-0.44817 1.193367,-0.71992 1.91222,-0.89081 0.399082,-0.0948 0.986816,-0.24932 1.306082,-0.34321 0.964867,-0.28375 1.775889,-0.48977 2.304453,-0.58535 0.888637,-0.16072 3.008872,-0.4611 3.790572,-0.53705 0.266044,-0.0259 0.614339,-0.0865 0.773962,-0.13464 0.159633,-0.0482 0.951353,-0.11025 1.759375,-0.13786 0.808022,-0.0276 1.874645,-0.10157 2.37029,-0.16438 0.495636,-0.0628 1.075299,-0.12338 1.288143,-0.1346 0.834588,-0.044 2.931369,-0.36319 3.907044,-0.59471 0.564856,-0.13402 1.269699,-0.2989 1.566308,-0.36637 0.29661,-0.0675 0.688439,-0.18919 0.870718,-0.2705 0.182289,-0.0813 0.679712,-0.268 1.1054,-0.41488 1.281153,-0.44206 3.043002,-1.34221 3.757087,-1.91954 0.363659,-0.29403 1.002968,-0.73172 1.420675,-0.97265 l 0.759468,-0.43806 0.804497,0.14419 c 1.174045,0.21043 2.97758,0.46426 3.368268,0.47406 0.186239,0.005 0.373426,0.0629 0.415981,0.12943 0.04252,0.0665 0.173158,0.1223 0.290236,0.12399 0.240772,0.003 0.952736,0.38052 2.804361,1.48523 0.703096,0.41948 1.691962,1.00322 2.197456,1.29719 0.505504,0.29396 1.223841,0.71651 1.596318,0.93898 0.372477,0.22248 1.090814,0.61502 1.596318,0.87231 0.505504,0.25731 1.292021,0.69389 1.747839,0.97019 0.86993,0.52733 1.851201,1.01563 2.881926,1.43409 0.776548,0.31527 1.614943,0.79193 2.481096,1.4106 0.372466,0.26604 0.831022,0.56803 1.019007,0.6711 0.447132,0.24516 1.856161,1.63265 2.467773,2.43007 0.265267,0.34587 0.61236,0.91184 0.771306,1.2577 0.285903,0.62213 0.288994,0.64696 0.288751,2.32192 -2.02e-4,1.65419 -0.0061,1.70516 -0.266176,2.22021 -0.16445,0.326 -0.231499,0.56157 -0.175703,0.61737 0.119412,0.11941 2.671526,-0.0945 3.894994,-0.32655 2.184951,-0.4143 4.391538,-1.86315 5.4451,-3.57524 0.14734,-0.23945 0.36384,-0.5442 0.4811,-0.67723 0.744327,-0.84442 1.36568,-3.32121 1.126359,-4.48982 -0.25653,-1.25269 -1.308577,-3.5792 -2.475783,-5.47506 -0.311215,-0.5055 -0.695792,-1.15854 -0.854607,-1.4512 -0.442647,-0.81568 -2.224789,-3.4603 -2.770776,-4.11171 -0.26759,-0.31927 -0.667288,-0.8417 -0.888213,-1.16096 -0.220924,-0.31926 -0.432596,-0.60225 -0.470363,-0.62885 -0.03778,-0.0267 -0.407072,-0.57081 -0.820668,-1.20934 -0.413597,-0.63852 -0.979292,-1.50924 -1.257093,-1.93492 -0.277802,-0.42568 -0.705257,-1.08705 -0.949909,-1.46969 -0.24464,-0.38264 -0.529422,-0.741 -0.632854,-0.79634 -0.103422,-0.0554 -0.362729,-0.41894 -0.57624,-0.80797 -0.21351,-0.38902 -0.642359,-1.0692 -0.953009,-1.51151 -0.310649,-0.44231 -0.62748,-0.89759 -0.704065,-1.01173 -0.07656,-0.11415 -0.214813,-0.29462 -0.307154,-0.40103 -0.09232,-0.10643 -0.330326,-0.49825 -0.528867,-0.87072 -0.198531,-0.37248 -0.4349,-0.78606 -0.525251,-0.9191 -0.306266,-0.45094 -1.320799,-2.55833 -1.76986,-3.67636 -1.217093,-3.03021 -1.462512,-5.86504 -0.77473,-8.94904 0.539099,-2.41733 1.98239,-4.98417 3.856035,-6.85781 0.669975,-0.66997 2.380634,-1.98242 2.754373,-2.1132 0.268984,-0.0941 2.073024,-1.49563 2.477742,-1.92489 0.219561,-0.23289 0.560533,-0.66207 0.757721,-0.95374 0.398445,-0.58938 1.116611,-2.04147 1.116611,-2.25773 0,-0.13161 0.270247,-0.42665 0.316761,-0.34582 0.284448,0.49438 0.36085,0.71946 0.362769,1.06874 10e-4,0.23123 0.04323,0.59458 0.09313,0.80742 0.05,0.21284 0.120714,0.87819 0.157208,1.47857 0.03646,0.60037 0.1002,1.11251 0.141603,1.13808 0.08909,0.055 1.378424,-0.61148 2.014005,-1.04108 0.245157,-0.1657 0.775993,-0.63713 1.179631,-1.04763 0.86999,-0.88476 1.50336,-2.06071 1.915977,-3.55727 0.23655,-0.85798 0.27835,-0.93728 0.494093,-0.93728 0.240994,0 0.277963,0.0662 0.675631,1.20933 0.06475,0.18624 0.242278,0.67592 0.394426,1.0882 0.266226,0.72134 0.277175,0.81973 0.290781,2.61215 0.01899,2.50648 -0.139078,3.47514 -0.935615,5.73243 -0.558079,1.58154 -1.178603,2.58571 -2.548694,4.1244 -0.792325,0.88983 -0.970584,1.04864 -1.692356,1.50774 -0.782851,0.49792 -1.217235,0.71674 -1.890058,0.95207 -1.689963,0.59108 -3.173727,1.37809 -4.084414,2.16641 -0.862516,0.74662 -1.653993,2.16057 -2.168962,3.87478 -0.248236,0.82633 -0.276246,1.0607 -0.277478,2.32192 -0.002,2.12191 0.226328,2.70508 1.619964,4.13591 0.220267,0.22614 0.429687,0.41117 0.465373,0.41117 0.03566,0 0.118048,-0.27012 0.182996,-0.60027 0.389739,-1.98102 1.822353,-4.12539 3.462084,-5.18214 0.685419,-0.44174 1.590045,-0.77846 2.927005,-1.0895 1.941239,-0.45162 3.089406,-1.34645 3.871159,-3.01702 0.278105,-0.5943 0.573876,-1.71091 0.577492,-2.18018 0.002,-0.25723 0.330265,-0.30486 0.463252,-0.0673 0.04636,0.0827 0.204652,0.22423 0.351861,0.31442 0.361356,0.22137 0.892172,1.51964 1.091016,2.66839 0.19948,1.15243 0.123189,3.07111 -0.165865,4.17108 -0.218702,0.83227 -0.730751,1.98423 -1.163307,2.61712 -0.772468,1.13024 -2.142753,2.36661 -3.2358,2.9196 -0.825254,0.41752 -2.031247,1.3479 -2.448894,1.88924 -0.721974,0.93581 -0.983392,1.84187 -0.984867,3.41349 -7.47e-4,0.91305 0.169824,1.63645 0.611724,2.59255 0.425899,0.92147 1.393625,2.28928 1.61966,2.28928 0.03717,0 0.09858,-0.25033 0.136634,-0.55629 0.139885,-1.12551 0.799194,-2.82771 1.347798,-3.47969 0.134997,-0.16043 0.610804,-0.55714 1.057309,-0.88156 1.562433,-1.13517 2.119006,-1.84006 2.381142,-3.01566 0.06525,-0.29266 0.148956,-0.66271 0.185996,-0.82234 0.03707,-0.15963 0.126734,-0.29024 0.199309,-0.29024 0.206025,0 0.844728,0.9891 1.155751,1.78981 0.515979,1.32831 0.615017,2.63734 0.299226,3.95461 -0.301215,1.25653 -0.853637,2.22425 -1.884534,3.30136 -0.483817,0.5055 -0.993139,1.11556 -1.131813,1.35568 -0.390062,0.6754 -0.594259,1.4915 -0.523614,2.09264 0.06767,0.57574 0.386314,1.50543 0.641864,1.87273 0.827608,1.18951 1.462341,3.18176 1.751244,5.49672 0.230237,1.84486 -0.234369,4.2257 -1.22567,6.28077 -0.237035,0.49143 -0.43099,0.92292 -0.43099,0.95885 0,0.036 -0.232813,0.37397 -0.517362,0.75118 -1.39483,1.84903 -3.841584,3.63976 -5.626039,4.11757 -0.266054,0.0712 -0.527261,0.16149 -0.580472,0.20052 -0.177571,0.13031 -1.726557,0.46897 -3.047517,0.6663 -3.287472,0.49109 -4.974959,0.83012 -5.562916,1.11763 -0.989119,0.48369 -1.442675,1.00488 -1.917644,2.20361 -0.471575,1.19019 -0.319164,2.65713 0.381062,3.66756 0.54414,0.78519 1.46017,1.42709 2.310555,1.61908 0.293427,0.0663 1.225912,0.0996 2.37028,0.0848 1.70982,-0.0222 1.957118,-0.004 2.639769,0.19251 2.824714,0.81374 4.970889,3.06962 5.575562,5.86053 0.339972,1.56914 0.199713,3.30396 -0.380961,4.7121 -0.52918,1.28328 -1.307799,2.26988 -2.519045,3.19192 l -0.753064,0.57327 -0.134572,-0.40371 c -0.07404,-0.22204 -0.17538,-0.41713 -0.225258,-0.43356 -0.0499,-0.0165 -0.346942,0.45977 -0.660127,1.05817 -1.185478,2.26513 -2.724201,4.32903 -3.227493,4.32903 -0.139199,0 -0.314811,-0.69116 -0.314811,-1.23904 0,-0.27003 -0.03778,-0.51436 -0.08404,-0.54291 -0.04626,-0.0286 -0.112048,-0.22705 -0.146269,-0.44108 -0.04848,-0.30299 -0.104796,-0.38913 -0.25457,-0.38913 -0.105796,0 -0.192349,0.0435 -0.192349,0.0968 0,0.0532 -0.06566,0.0968 -0.145957,0.0968 -0.219298,0 -0.646723,0.41071 -1.761991,1.69307 -0.555331,0.63853 -1.385948,1.54165 -1.845827,2.00695 l -0.836133,0.84599 0.128482,0.31498 c 0.336306,0.82441 0.38987,1.02607 0.39383,1.48254 0.005,0.63985 -0.226005,1.4042 -0.501928,1.65684 -0.120685,0.11052 -0.567715,0.38495 -0.993392,0.60986 l -0.773973,0.40894 -0.844981,-0.0581 c -0.840042,-0.0578 -0.845334,-0.0567 -0.905394,0.18261 -0.03323,0.13239 -0.09454,0.24071 -0.136168,0.24071 -0.04162,0 -0.14627,0.17624 -0.23246,0.39166 -0.08616,0.21542 -0.408688,0.65077 -0.716671,0.96746 l -0.559947,0.57581 -0.575734,-0.008 c -0.351528,-0.005 -0.839456,-0.10191 -1.252952,-0.24964 z m -7.504186,-0.95876 c -0.225015,-0.23952 -0.261994,-0.24625 -1.010169,-0.18392 -0.688318,0.0574 -0.803608,0.0428 -1.014139,-0.12766 -0.490989,-0.39757 -0.172259,-1.71668 0.608269,-2.51739 0.377598,-0.38734 0.531251,-0.48249 1.257629,-0.77867 0.312962,-0.12762 0.616673,-0.14334 0.683388,-0.0354 0.02545,0.0412 0.01495,0.22625 -0.02333,0.41118 -0.08899,0.42929 0.0305,1.24269 0.289114,1.96911 0.152835,0.42925 0.178229,0.61902 0.103553,0.77398 -0.05444,0.11289 -0.124926,0.325 -0.156683,0.47133 -0.07566,0.34847 -0.419011,0.35659 -0.73763,0.0174 z M 33.55174,289.20085 c -0.0598,-0.0721 -0.16836,-0.30067 -0.241157,-0.50792 -0.0902,-0.25682 -0.182571,-0.36776 -0.290033,-0.34839 -0.195764,0.0353 -0.203885,-0.0687 -0.01647,-0.21126 0.07767,-0.0591 0.18539,-0.38774 0.239439,-0.73038 0.05404,-0.34263 0.153795,-0.67534 0.221642,-0.73935 0.06788,-0.064 0.488817,-0.22969 0.935494,-0.36817 0.446667,-0.13848 1.081865,-0.40263 1.411554,-0.587 0.748145,-0.41838 0.82382,-0.36257 0.82382,0.60751 0,1.25457 -0.590219,2.14349 -1.856251,2.79566 -0.470878,0.24256 -1.064946,0.28576 -1.227993,0.0893 z m -8.732724,-0.1838 c -0.414273,-0.3518 -0.598229,-1.00142 -0.547109,-1.93212 0.0505,-0.91905 0.3337,-1.62366 0.897505,-2.23289 0.18741,-0.2025 0.34074,-0.41231 0.34074,-0.46626 0,-0.0539 0.09757,-0.0841 0.216894,-0.0672 0.162815,0.0232 0.317781,0.22989 0.621633,0.82908 0.222611,0.43899 0.375335,0.79883 0.339396,0.79964 -0.03596,0.001 -3e-5,0.0427 0.0798,0.0932 0.0798,0.0505 0.145118,0.12909 0.145118,0.17474 0,0.0457 0.07616,0.15918 0.1693,0.2523 0.09313,0.0931 0.169309,0.20804 0.169309,0.25538 0,0.0474 0.08818,0.16824 0.196006,0.26867 0.195076,0.18174 0.191945,0.18657 -0.653036,1.01203 -1.381555,1.34959 -1.505037,1.41293 -1.975542,1.0134 z m 35.302401,-1.9766 c -0.672409,-0.10932 -0.382658,-1.5969 0.48704,-2.50045 0.577381,-0.59987 1.375131,-0.9436 2.216435,-0.955 0.836385,-0.0113 1.042694,0.1149 0.733418,0.44881 -0.173653,0.18747 -0.776235,1.44385 -1.17764,2.45538 -0.06586,0.16582 -0.214733,0.34808 -0.330942,0.40503 -0.236237,0.11575 -1.517906,0.21294 -1.928311,0.14623 z m -38.752011,-4.1131 c -0.306841,-0.30685 0.07717,-1.92155 0.58823,-2.47341 0.436828,-0.4717 1.782364,-1.09638 1.911502,-0.88744 0.03616,0.0585 0.09444,0.47941 0.129442,0.93535 0.03636,0.47324 0.165653,1.1221 0.301226,1.51194 0.15637,0.44965 0.202813,0.70438 0.135956,0.7457 -0.09384,0.058 -2.300615,0.28623 -2.751928,0.28464 -0.109079,0 -0.25057,-0.0529 -0.314428,-0.11678 z M 9.8704903,258.18016 c -0.4662817,-0.0976 -1.1047828,-0.40507 -1.2804355,-0.61672 -0.1752082,-0.21112 0.057069,-0.64426 0.7583058,-1.41376 l 0.5714417,-0.62711 0.5392007,0.18327 c 0.296549,0.10081 0.53919,0.21404 0.53919,0.25162 0,0.0376 0.129472,0.0532 0.287711,0.0349 0.158249,-0.0184 0.38681,0.003 0.507928,0.0487 0.122068,0.0455 0.31967,0.0447 0.443405,-0.002 0.156007,-0.0588 0.203339,-0.0519 0.157199,0.0227 -0.04394,0.0711 5e-5,0.0859 0.131441,0.0442 0.108604,-0.0344 0.222945,-0.0214 0.254075,0.0289 0.03111,0.0504 0.143118,0.069 0.248843,0.0413 0.121684,-0.0318 0.214117,0.007 0.251904,0.10528 0.03283,0.0855 0.09868,0.13145 0.146289,0.102 0.04768,-0.0294 0.08666,-0.007 0.08666,0.0489 0,0.0564 -0.0599,0.10246 -0.133027,0.10246 -0.07313,0 -0.157279,0.11973 -0.186925,0.26605 -0.06475,0.31986 -0.861082,0.94435 -1.526593,1.19722 -0.573755,0.21801 -1.281548,0.28971 -1.7965667,0.18197 z m 6.8476967,-1.22983 c -0.185894,-0.15116 -0.220803,-0.29897 -0.270589,-1.146 l -0.05717,-0.97247 0.617451,-0.17747 c 0.657702,-0.18904 1.610065,-0.70153 2.038682,-1.09705 0.364759,-0.3366 0.562068,-0.23253 0.562068,0.29646 0,1.25312 -1.062057,2.88273 -1.999117,3.06745 -0.204147,0.0402 -0.440182,0.10229 -0.524534,0.1379 -0.08808,0.0372 -0.244156,-0.009 -0.366791,-0.10882 z M 3.0862084,252.74434 c -0.2211163,-0.22112 -0.1375424,-0.97666 0.1778546,-1.60781 0.4976252,-0.99585 1.6896591,-1.84945 2.4350061,-1.74368 0.2035914,0.0289 0.2199345,0.0791 0.2199345,0.67491 0,0.35403 -0.022222,0.62999 -0.049393,0.61325 -0.027171,-0.0168 -0.020808,0.36839 0.014242,0.85587 0.038484,0.53505 0.026161,0.93237 -0.031009,1.00251 -0.1758748,0.21572 -2.5778715,0.39367 -2.7665845,0.20495 z m 1.1490753,-5.53418 c -0.1941977,-0.234 -0.08616,-1.01316 0.2423784,-1.74869 0.1542087,-0.34522 0.3156495,-0.62883 0.3587495,-0.63026 0.04313,-0.001 0.2782968,-0.15526 0.522655,-0.34184 0.5272306,-0.40257 1.2222656,-0.62822 1.934987,-0.62822 0.6637427,0 0.7423167,0.1637 0.3267906,0.68078 -0.4005668,0.49846 -0.8463244,1.45072 -0.9796043,2.0927 -0.058483,0.28189 -0.1370575,0.53147 -0.1745314,0.55463 -0.037474,0.0231 -0.5254832,0.0727 -1.0844707,0.11019 -0.8751521,0.0586 -1.0344819,0.0463 -1.1469541,-0.0893 z m 23.1534223,-4.27672 c -0.06,-0.32008 -0.03687,-0.83304 0.09636,-2.1351 0.06182,-0.60427 0.39783,-1.88878 0.592553,-2.26533 0.07778,-0.15045 0.141451,-0.34847 0.141451,-0.44003 0,-0.0916 0.0603,-0.23523 0.134007,-0.31924 0.153744,-0.17526 0.736711,-1.53869 0.736711,-1.72303 0,-0.17197 -0.161037,-0.1534 -0.230076,0.0265 -0.04131,0.10768 -0.104896,0.12485 -0.228035,0.0616 -0.103068,-0.0529 -0.669227,-0.0482 -1.428443,0.0119 -0.691732,0.0547 -1.464502,0.10326 -1.717244,0.10771 -0.252752,0.004 -0.459545,0.0407 -0.459545,0.0807 0,0.0399 -0.06788,0.0725 -0.150835,0.0725 -0.08545,0 -0.122199,-0.0464 -0.08475,-0.10695 0.04727,-0.0765 -0.205682,-0.0935 -0.888647,-0.0598 -0.525109,0.026 -1.052936,0.0101 -1.172963,-0.0358 -0.294388,-0.11192 -0.285054,-0.47043 0.03545,-1.36388 0.305003,-0.85012 1.375504,-2.98072 1.497643,-2.98072 0.04778,0 0.08687,-0.0786 0.08687,-0.17469 0,-0.0961 0.108835,-0.32223 0.241863,-0.50253 0.133027,-0.18031 0.241863,-0.36155 0.241863,-0.40277 0,-0.09 0.820679,-1.36949 0.994251,-1.55005 0.06727,-0.07 0.295124,-0.36667 0.506352,-0.65933 0.355436,-0.49245 1.578227,-1.78941 3.644979,-3.86602 0.49615,-0.49852 1.06038,-0.95953 1.377525,-1.12553 0.295437,-0.15462 0.55826,-0.33607 0.584047,-0.40321 0.02576,-0.0672 0.002,-0.54604 -0.05313,-1.06421 -0.249702,-2.3512 -0.273469,-2.73123 -0.217692,-3.48173 0.06868,-0.92407 0.172329,-0.99764 0.651308,-0.46229 0.444657,0.49701 1.981663,1.23887 3.118496,1.50522 0.837739,0.19627 1.034634,0.2107 1.654933,0.12134 1.068703,-0.15397 1.021785,-0.0436 0.940868,-2.21269 l -0.06929,-1.85722 0.225844,-0.0717 c 0.142572,-0.0453 0.23952,-0.0306 0.262943,0.0396 0.158421,0.47524 2.254213,1.82378 3.454327,2.22268 0.819093,0.27224 2.042429,0.4123 2.686192,0.30753 0.624229,-0.1016 1.239023,-0.26453 1.382767,-0.36647 0.228349,-0.16194 0.429748,-0.56942 0.429748,-0.86951 0,-0.25552 -0.06222,-0.35642 -0.314427,-0.51022 -0.352265,-0.21478 -1.230154,-0.26248 -1.680387,-0.0913 -0.263478,0.1002 -0.392859,0.083 -1.681548,-0.22353 -0.957594,-0.22777 -1.886351,-1.17368 -2.223192,-2.26425 -0.274358,-0.88828 -0.276035,-0.88352 0.312447,-0.88809 0.402527,-0.003 0.677207,0.0784 1.323657,0.39269 0.754842,0.36702 0.877627,0.3971 1.644691,0.40288 0.992705,0.007 1.570066,-0.21089 2.207587,-0.83497 0.450394,-0.44088 0.499817,-0.5557 0.239207,-0.5557 -0.09454,0 -0.274045,-0.0715 -0.3988,-0.15889 -0.309922,-0.21707 -1.421715,-0.28338 -2.254889,-0.13448 -0.765306,0.13677 -2.853723,0.30814 -3.656352,0.30003 -0.29266,-0.003 -0.771548,0.0371 -1.064208,0.089 -0.292661,0.0519 -0.880395,0.11644 -1.306082,0.14344 -0.425678,0.027 -1.231094,0.11405 -1.789809,0.19348 -0.569805,0.081 -1.728405,0.14517 -2.638749,0.14616 -1.889866,0.002 -2.313281,-0.10151 -3.375621,-0.82576 -1.313304,-0.89535 -2.024621,-2.27447 -2.04256,-3.96015 -0.0071,-0.6858 0.02626,-0.84219 0.290902,-1.35571 0.758104,-1.47107 1.917169,-2.1768 3.575122,-2.1768 0.698166,0 0.812618,0.0502 0.599724,0.26311 -0.07081,0.0708 -0.09495,0.43753 -0.0698,1.05938 0.03737,0.92204 0.05283,0.97762 0.508019,1.82178 0.687398,1.27479 1.368201,1.92087 2.282241,2.16589 0.658006,0.17637 3.217474,0.24891 4.268834,0.12098 1.443887,-0.1757 6.673204,-0.51561 6.932188,-0.45061 0.263388,0.0661 1.083208,-0.033 1.070835,-0.12948 -0.004,-0.0341 -4.1e-5,-0.0838 0.0101,-0.11046 0.18548,-0.50885 -0.05353,-1.48112 -0.514938,-2.09503 -0.513645,-0.68337 -1.630863,-1.2911 -2.373462,-1.2911 -0.229914,0 -0.28456,0.049 -0.334801,0.30017 -0.03303,0.1651 -0.03394,0.34233 -0.002,0.39385 0.03182,0.0515 0.02949,0.28334 -0.005,0.51514 -0.100806,0.67214 -0.669723,1.28614 -1.666519,1.79852 -0.744357,0.38262 -0.896666,0.4261 -1.471007,0.41993 -1.134449,-0.0122 -2.026187,-0.55342 -2.601508,-1.57898 -0.338901,-0.60409 -0.359416,-0.68992 -0.372658,-1.55839 -0.01202,-0.79024 -0.05242,-1.00048 -0.287741,-1.49958 -0.190895,-0.40481 -0.285549,-0.7794 -0.312781,-1.23782 -0.03475,-0.58413 -0.005,-0.72564 0.262813,-1.27055 0.39393,-0.80017 0.989634,-1.30988 3.300057,-2.82362 1.144803,-0.75004 1.358545,-0.94524 1.696184,-1.54899 0.38384,-0.68637 0.874839,-1.32478 1.556794,-2.0242 1.862433,-1.91011 4.204825,-2.85209 7.114194,-2.86093 l 1.127884,-0.003 0.412465,-0.48916 c 0.28764,-0.34112 0.600371,-0.57709 1.033391,-0.77972 0.556311,-0.26033 0.686045,-0.2845 1.246437,-0.23216 1.450099,0.13541 2.508025,1.24371 2.635173,2.76064 l 0.0597,0.71265 0.569179,0.17577 c 1.016644,0.31396 1.830979,0.41302 2.929955,0.35639 1.061158,-0.0546 1.592671,-0.18651 2.789382,-0.69189 0.679439,-0.28693 0.782548,-0.29949 0.857384,-0.10448 0.03374,0.088 -0.115815,0.34556 -0.379153,0.65304 -0.239196,0.27929 -0.566482,0.66174 -0.727317,0.84991 -0.377618,0.44181 -0.785871,1.16157 -0.73461,1.29515 0.02202,0.0573 0.560483,0.20511 1.19665,0.32849 1.223761,0.23734 1.828273,0.23087 2.78619,-0.0298 0.266045,-0.0724 0.738317,-0.16221 1.049492,-0.19959 0.514645,-0.0618 0.562695,-0.052 0.531796,0.10839 -0.01869,0.097 -0.752165,0.80622 -1.629973,1.57606 -1.422494,1.24753 -1.822959,1.65502 -1.834444,1.86665 -0.0071,0.13533 1.115743,0.79686 1.323617,0.77964 0.125391,-0.0104 0.209904,0.0309 0.196339,0.0959 -0.03505,0.16812 1.742072,0.74997 2.510832,0.82206 0.361891,0.0339 1.082461,0.079 1.601258,0.1002 0.518806,0.0212 0.943281,0.076 0.943281,0.12182 0,0.1751 -0.563745,0.50845 -2.403006,1.42096 -2.242799,1.1127 -2.435431,1.23732 -2.431158,1.57278 0.0103,0.80791 0.890889,2.27587 2.067226,3.44608 0.845648,0.84125 2.379967,1.90479 3.274856,2.27001 0.510635,0.2084 0.680096,0.39374 0.475586,0.52013 -0.04434,0.0275 -1.034836,0.1392 -2.200981,0.24837 -1.166156,0.10916 -2.381492,0.23077 -2.700748,0.27025 l -0.580482,0.0718 -0.02869,0.65792 c -0.03586,0.82251 0.214349,1.77513 0.7898,3.00658 0.526948,1.12763 1.057542,1.91372 1.880716,2.78632 0.607522,0.64401 0.631743,0.68724 0.456767,0.81517 -0.101634,0.0743 -0.230873,0.13521 -0.287215,0.13534 -0.219965,3.8e-4 -4.187361,0.38997 -4.543141,0.446 l -0.377355,0.0594 0.06091,1.3193 c 0.06121,1.32483 0.388901,3.19714 0.679591,3.88308 0.07889,0.18624 0.342962,0.69838 0.586745,1.13809 0.475242,0.85719 0.548543,1.17106 0.273943,1.17298 -0.268135,0.002 -2.480965,0.18711 -3.700553,0.30979 -0.611926,0.0615 -1.167005,0.15541 -1.233518,0.20857 -0.149795,0.11972 -0.158199,0.99238 -0.01707,1.77244 0.128503,0.71032 0.87889,2.15258 1.624126,3.12164 0.873596,1.13597 0.879879,1.15049 0.593926,1.3724 -0.30169,0.23414 -0.949999,0.54661 -1.644691,0.79269 -0.935999,0.33158 -2.98668,0.23 -4.728581,-0.23423 -0.455242,-0.12132 -0.835648,-0.16728 -1.050663,-0.12695 -0.415647,0.078 -1.50138,0.64573 -1.909028,0.99828 -0.611309,0.52868 -1.539905,1.13534 -2.230758,1.45735 -0.214238,0.0999 -0.581593,0.27435 -0.816335,0.38777 -0.234742,0.11342 -0.464556,0.20622 -0.510696,0.20622 -0.04616,0 -0.273893,0.0866 -0.50612,0.19235 -0.752215,0.34266 -2.777705,0.94822 -4.017476,1.20108 -1.290415,0.26319 -3.048204,0.47409 -5.321052,0.63844 -0.771559,0.0558 -1.511663,0.12037 -1.644691,0.1435 -0.133027,0.0231 -0.750427,0.0678 -1.372009,0.0992 -0.621582,0.0314 -1.274335,0.0984 -1.450554,0.14898 -0.176238,0.0505 -0.519836,0.0919 -0.763558,0.0919 -0.671551,0 -2.313554,0.264 -3.71823,0.5978 -0.691742,0.16438 -1.412554,0.32919 -1.601823,0.36624 -0.189258,0.0371 -0.489817,0.14005 -0.667894,0.2289 -0.178087,0.0888 -0.376911,0.16152 -0.441828,0.16152 -0.06495,0 -0.510373,0.17415 -0.989877,0.38698 -0.479515,0.21284 -0.918404,0.38699 -0.975302,0.38699 -0.05687,0 -0.132764,-0.15626 -0.168592,-0.34722 z M 45.121713,201.685 c 0.111109,-0.10351 0.347881,-0.22579 0.52616,-0.27173 0.303468,-0.0782 0.326023,-0.11249 0.353648,-0.53775 0.02596,-0.39982 0.003,-0.46449 -0.195217,-0.53969 -0.340245,-0.12936 -1.404949,-1.06296 -1.462291,-1.28224 -0.07444,-0.28473 -0.616875,-0.20907 -0.861556,0.1202 -0.55719,0.74979 -0.139371,2.73713 0.539634,2.56671 0.115553,-0.029 0.275044,-0.0116 0.354416,0.0385 0.231207,0.14617 0.527524,0.10879 0.745206,-0.094 z m -0.75968,-0.61312 c -0.330781,-0.31042 -0.603896,-0.97266 -0.52719,-1.27829 l 0.06363,-0.25342 0.359557,0.29013 c 0.666137,0.53749 1.085158,0.94673 1.085158,1.05981 0,0.0618 -0.01646,0.11238 -0.03657,0.11238 -0.0201,0 -0.18944,0.0638 -0.376285,0.14195 -0.319639,0.13355 -0.353244,0.12926 -0.5683,-0.0725 z m -21.103497,30.98621 c -0.02697,-0.0798 -0.134209,-0.40976 -0.238369,-0.73318 -0.302932,-0.94065 -1.706638,-3.33017 -1.956279,-3.33017 -0.0503,0 -0.751327,0.71834 -1.557814,1.59632 -0.806487,0.87797 -1.523784,1.5963 -1.593994,1.5963 -0.173885,0 -0.07757,-0.93308 0.169744,-1.64468 0.261135,-0.75134 0.333881,-2.45111 0.142835,-3.33775 -0.197703,-0.91752 -0.536675,-1.7904 -0.723055,-1.86192 -0.104543,-0.0401 -0.262236,0.0773 -0.496423,0.36946 -0.554523,0.69191 -2.25998,2.41155 -2.391664,2.41155 -0.06656,0 -0.14136,-0.0329 -0.166208,-0.0731 -0.06283,-0.10167 0.113452,-1.04755 0.292913,-1.57159 0.197844,-0.57773 0.192874,-2.1838 -0.0091,-2.94542 -0.08384,-0.31633 -0.26154,-0.73986 -0.394779,-0.9412 -0.13324,-0.20134 -0.24249,-0.42143 -0.242793,-0.48908 -0.001,-0.28453 -0.206652,-0.83316 -0.329598,-0.88034 -0.07313,-0.028 -0.306771,0.035 -0.519312,0.1402 -0.213884,0.10583 -0.694883,0.21706 -1.077219,0.24912 -0.680369,0.0571 -0.699136,0.0523 -1.244427,-0.31304 -0.304498,-0.20403 -0.699035,-0.50431 -0.876748,-0.66729 -0.4813437,-0.44146 -1.176469,-1.55953 -1.176469,-1.89227 0,-0.31459 -0.1502391,-0.42777 -0.6772172,-0.51013 -0.5988957,-0.0936 -1.4072614,-0.44993 -1.8176967,-0.80125 -0.2545296,-0.21786 -0.5274225,-0.60435 -0.7519932,-1.06499 -0.3113971,-0.63877 -0.3541537,-0.81588 -0.3667797,-1.51963 -0.018383,-1.02559 0.05515,-1.26495 0.4627775,-1.50545 0.183299,-0.10814 0.4071424,-0.33948 0.4974333,-0.5141 0.1410171,-0.27269 0.1477846,-0.38145 0.047979,-0.77082 -0.1028765,-0.4014 -0.086867,-0.57918 0.139512,-1.5517 0.1406332,-0.60409 0.3503053,-1.31253 0.465939,-1.5743 0.1815414,-0.41099 0.2828624,-0.50973 0.7423369,-0.72345 0.7731646,-0.35963 1.6555387,-0.34861 2.5637811,0.032 0.372477,0.1561 0.745953,0.34113 0.829961,0.41117 0.222925,0.18591 0.302923,0.16276 0.70245,-0.20318 0.536029,-0.49099 1.378747,-0.88884 2.159013,-1.0193 0.832446,-0.13917 1.095157,-0.0411 1.60362,0.59857 0.898192,1.13001 1.123733,1.9598 0.795477,2.92666 -0.08232,0.24238 -0.127603,0.47632 -0.100704,0.51987 0.02687,0.0435 0.453414,0.32591 0.947776,0.62749 0.494373,0.30158 1.181832,0.74404 1.527703,0.98327 2.084984,1.4421 4.711935,3.04673 4.987848,3.04673 0.03778,0 0.139058,0.0802 0.225106,0.17825 0.18234,0.20773 1.35093,0.93015 3.59097,2.21994 1.906433,1.09771 1.970047,1.13376 2.926581,1.6584 0.412385,0.22617 0.756862,0.46171 0.765519,0.52342 0.0091,0.0617 0.02293,0.32986 0.03182,0.59591 0.02384,0.71942 0.162441,1.9936 0.250116,2.29929 0.06565,0.22878 0.03879,0.29153 -0.182915,0.42696 -0.703672,0.42997 -1.035018,0.68672 -1.660185,1.28636 -0.37383,0.35859 -0.679692,0.70294 -0.679692,0.76523 0,0.0623 -0.435354,0.55044 -0.967463,1.08478 -0.5321,0.53434 -0.967464,1.00264 -0.967464,1.04066 0,0.038 -0.119724,0.14091 -0.266044,0.22865 -0.14633,0.0878 -0.527271,0.51439 -0.846537,0.9481 -0.319265,0.43369 -0.713307,0.94815 -0.875647,1.14321 -0.268691,0.32284 -1.010906,1.51463 -1.010906,1.62322 0,0.0527 -0.407648,0.64328 -0.493414,0.71474 -0.03192,0.0266 -0.08131,0.11367 -0.109674,0.1935 -0.04586,0.12899 -0.05707,0.12899 -0.100604,0 z M 7.5392804,221.53091 c -0.5748861,-0.20601 -0.8946769,-0.45474 -0.8946769,-0.69588 0,-0.2045 0.4783327,-0.87741 1.0312395,-1.45073 0.230914,-0.23945 0.4198795,-0.48824 0.4199098,-0.55288 7.07e-5,-0.15828 0.3383358,-0.33044 0.5156147,-0.26242 0.078382,0.0301 0.1697336,0.1279 0.2029045,0.21734 0.2309946,0.62279 0.8161433,1.3254 1.43414,1.72201 0.25959,0.1666 0.3628,0.30129 0.3628,0.47348 0,0.15219 -0.05475,0.24066 -0.148977,0.24066 -0.08192,0 -0.322488,0.0885 -0.5345637,0.19671 -0.5725027,0.29207 -1.7335268,0.34637 -2.3883909,0.11171 z m -4.9007489,-5.07555 c -0.1601378,-0.12 -0.1763294,-0.21722 -0.1222902,-0.73429 0.07919,-0.75741 0.3428307,-1.28247 0.9698268,-1.93132 0.5401799,-0.559 0.9337872,-0.81433 1.0962179,-0.71108 0.056665,0.0361 0.1214821,0.45889 0.144017,0.9397 0.037777,0.80502 0.07313,0.93387 0.4475354,1.62794 0.2236112,0.41454 0.4065566,0.76332 0.4065566,0.77507 0,0.0118 -0.2067934,0.0221 -0.4595453,0.023 -0.2527519,7.4e-4 -0.873142,0.0349 -1.3786358,0.0754 -0.7334685,0.0589 -0.9563726,0.0459 -1.1036824,-0.0644 z m 0.8859701,-5.08325 c -0.2920439,-0.0336 -0.4510101,-0.24984 -0.404193,-0.54986 0.1596228,-1.0229 0.4711107,-1.74246 0.9165351,-2.11727 0.4888476,-0.41134 1.0514916,-0.65843 1.5348141,-0.67404 l 0.4441012,-0.0143 -0.010101,0.48373 c -0.00505,0.26605 -0.08323,0.765 -0.1729355,1.10877 -0.089695,0.34377 -0.1692589,0.85641 -0.1767032,1.13923 -0.011414,0.43587 -0.044039,0.52085 -0.2140558,0.55788 -0.2700242,0.0588 -1.5862271,0.10405 -1.9178055,0.0659 z m 6.7480914,-4.85141 c -0.212844,-0.1005 -0.5352807,-0.33657 -0.7165397,-0.5246 -0.2989727,-0.31012 -0.3211137,-0.3714 -0.2385807,-0.66024 0.10626,-0.37185 0.4206977,-0.54732 1.4297664,-0.79792 0.94302,-0.2342 1.796153,-0.13948 2.488531,0.27628 0.602098,0.36155 0.900566,0.77898 0.664814,0.92979 -0.0798,0.0511 -0.322245,0.0935 -0.538725,0.0943 -0.554897,0.002 -1.29073,0.23999 -1.791274,0.57916 -0.494969,0.33538 -0.761489,0.35657 -1.297992,0.1032 z"
       id="path826"
       inkscape:connector-curvature="0"
       sodipodi:nodetypes="ccccccccccccccccccccccccccccccccccccccccccccccsccccscccscccccccccccscccccccccccccccccccccccccccccccccccccccccscccccccccccscccccccsccccccccscccccccccsscccccccccccccccccccccccccccccccccccccccccccccccccccccccccccccccccccscccccsccccccccscccccccccccscccccccsccccccscccccsccccccscscccccccccccccccccssccssscsccccccccscccccccccccccccccccccccccssccccccsccccscsccccccccccccccccccccccccscccccccccsscccccccccsccccccscccccccccscccccccccscsccccssccccsscsccccccccccccccccssccccccccscccsccccccscccccccccscccscccccccccccccccccccccccscccsccccsscccccccccccccccccsccccsccccccsscsccscscccscscccccccccccccccsscccccscsccccsccccccccccssccccccccscccccccccsccccccccscscccscccccscccccssccccccccsccccccccccccccccccccccccc" />
  </g>
</svg>
