<?xml version="1.0" encoding="UTF-8" standalone="no"?>
<!-- Created with Inkscape (http://www.inkscape.org/) -->

<svg
   version="1.1"
   id="svg2"
   xml:space="preserve"
   width="1090"
   height="195"
   viewBox="0 0 1090 195"
   sodipodi:docname="logo.svg"
   inkscape:version="1.1.2 (0a00cf5339, 2022-02-04)"
   xmlns:inkscape="http://www.inkscape.org/namespaces/inkscape"
   xmlns:sodipodi="http://sodipodi.sourceforge.net/DTD/sodipodi-0.dtd"
   xmlns="http://www.w3.org/2000/svg"
   xmlns:svg="http://www.w3.org/2000/svg"><defs
     id="defs6" /><sodipodi:namedview
     id="namedview4"
     pagecolor="#ffffff"
     bordercolor="#666666"
     borderopacity="1.0"
     inkscape:pageshadow="2"
     inkscape:pageopacity="0.0"
     inkscape:pagecheckerboard="0"
     showgrid="false"
     inkscape:zoom="2.1623853"
     inkscape:cx="545"
     inkscape:cy="132.03012"
     inkscape:window-width="3362"
     inkscape:window-height="1376"
     inkscape:window-x="78"
     inkscape:window-y="27"
     inkscape:window-maximized="1"
     inkscape:current-layer="text20"
     units="px" /><g
     id="g8"
     inkscape:groupmode="layer"
     inkscape:label="ink_ext_XXXXXX"
     transform="matrix(1.3333333,0,0,-1.3333333,0,301.8)"><g
       id="g10"
       transform="scale(0.1)"><g
         id="g14"
         transform="scale(10)"><g
           aria-label="Hessen
Grüne"
           transform="matrix(1,0,0,-1,519.401,77.2199)"
           id="text20"
           style="font-weight:bold;font-size:109px;font-family:'Capitolium 2';-inkscape-font-specification:Capitolium2-Bold;fill:#194d3b"><g
             id="g5300"
             transform="translate(-40.79398,-40.459762)"
             style="fill:#ffffff"><path
               d="m 4238.78,1744.82 18.55,-14.61 c -2,-3.32 -5.76,-5.76 -9.69,-5.26 -6.14,0.55 -11.01,6.42 -10.79,12.57 0,2.54 0.77,5.03 1.93,7.3 m -1.66,12.23 c -2.93,-3.82 -5.97,-7.75 -7.41,-12.45 -2.27,-6.58 -1.33,-14.28 2.99,-19.87 4.65,-6.37 13.34,-9.91 21.08,-7.58 7.64,3.32 11.52,9.02 14.34,15.49 l -30.94,24.36 z m 9.25,-179.05 c 11.29,0.94 17.82,-1.05 25.96,-10.69 -5.48,-5.64 -12.12,-10.24 -19.6,-13.06 -13.56,-5.15 -29.83,-4.82 -47.88,5.7 -0.88,0.5 -2.21,1.22 -3.87,1.83 -1.66,0.61 -3.6,1.27 -6.14,0.72 -1.28,-0.28 -2.83,-1.05 -3.82,-2.38 -1,-1.33 -1.39,-2.94 -1.44,-4.43 0,-2.99 0.88,-6.03 2.88,-10.35 1.77,-3.98 5.42,-11.73 13.67,-17.88 8.25,-6.14 20.98,-10.57 40.13,-9.08 2.04,0.17 4.26,0.67 7.14,1.05 2.93,0.34 6.25,0.45 9.3,0 3.04,-0.55 5.7,-1.66 7.8,-3.81 2.1,-2.16 3.87,-5.48 4.59,-11.07 0.61,-5.1 -0.55,-7.98 -2.71,-10.3 -2.16,-2.32 -5.75,-4.04 -10.29,-5.09 -9.03,-2.05 -21.2,-1.22 -29.23,-0.22 -26.07,3.26 -45.72,13.39 -70.79,34.92 l -7.75,6.64 4.87,-64.04 c -40.07,-2.76 -70.02,15.23 -89.11,28.84 l -7.36,5.32 5.75,-74.67 c -57.18,-40.52 -114.63,-106.38 -135.05,-187.2 l -1.44,-5.75 91.88,7.58 c -2.99,-7.03 -7.47,-17.21 -12.12,-32.16 -5.98,-19.26 -11.4,-44.28 -11.35,-74.28 v -7.42 l 6.37,3.77 c 64.59,38.08 129.9,37.03 197.1,41.68 66.42,4.54 134.94,15 203.47,75.61 31.99,-13.29 73.78,-17.61 109.98,6.03 l 4.04,2.6 -3.1,3.65 c -24.36,28.67 -41.24,53.36 -43.51,83.03 l 81.42,8.47 -3.65,5.75 c -17.16,26.57 -29.34,64.21 -24.91,97.7 l 79.26,6.75 -6.08,6.42 c -21.37,22.14 -45.56,60.05 -45.12,96.48 l 97.03,9.13 -22.97,6.09 c -9.74,2.6 -27.67,13.23 -44.22,28.78 -15.55,14.78 -29.67,33.98 -35.7,54.63 l 78.87,39.96 -18.15,-0.16 c -25.57,-0.28 -59.56,5.7 -85.19,25.07 l 59.62,52.47 -18.49,-5.53 c -17.77,-5.31 -50.37,-7.97 -73.89,-0.61 l 39.41,48.76 -16.94,-8.19 c -16.39,-7.86 -56.68,-19.43 -90.06,-3.54 2.88,22.14 -9.3,39.35 -25.4,45.16 -4.21,1.55 -8.75,2.27 -13.29,2.22 -12.84,-0.22 -25.85,-7.25 -33.98,-21.76 -54.96,5.27 -102.9,-15.6 -131.51,-58.66 -2.99,-4.49 -4.82,-8.25 -6.87,-11.3 -2.05,-3.09 -4.32,-5.64 -8.85,-8.52 l -43.12,-30 c -7.92,-5.53 -14.78,-14.17 -17.05,-24.85 -2.16,-10.13 0.33,-21.92 9.41,-33.16 -3.87,-17.54 -0.89,-31.66 6.42,-41.29 7.58,-10.02 19.37,-15.06 31.11,-15.39 11.73,-0.33 23.69,3.99 31.88,13.12 7.36,8.2 11.01,20.37 9.19,35.32 21.14,0.27 37.03,-10.25 46.27,-25.24 6.2,-10.08 9.24,-22.09 8.58,-33.88 -4.43,2.99 -9.47,4.82 -15.17,5.81 -8.19,1.39 -17.65,1.11 -29.22,0.11 l -101.9,-8.46 c -29.84,-2.5 -47.93,10.79 -58.45,27.45 -10.52,16.6 -12.51,37.3 -9.52,46.16 l 1.77,5.26 -5.54,0.33 c -2.43,0.11 -4.81,0.11 -7.14,0 -16.16,-0.77 -28.78,-7.47 -37.08,-17.38 -9.52,-11.29 -13.45,-26.46 -12.12,-41.4 1.33,-14.94 7.97,-29.83 19.98,-40.57 12.01,-10.74 29.45,-17.16 51.53,-15.39 l 160.52,13.06 m -243.16,-909.129 -1.33,-5.422 h -8.08 c -9.96,-1.61 -15.55,-5.039 -21.53,-10.739 -9.41,-22.859 -2.32,-46.82 10.13,-63.32 3.32,-3.32 6.98,-4.43 11.4,-4.648 l -1.16,-5.922 c 0.11,-17.488 7.81,-28.231 17.99,-35.981 10.24,-7.75 23.14,-12.07 32.82,-15.16 8.97,3.371 20.21,10.731 26.96,22.852 l 9.85,-4.531 c 16.61,-1.782 34.82,1.21 56.4,27.011 1.28,6.36 1.22,13.168 -0.5,20.141 44.28,20.316 78.93,48.93 114.19,79.379 l 5.7,-55.129 6.2,5.527 c 24.19,21.699 40.63,53.36 48.93,82.141 l 3.88,-41.121 6.36,6.25 c 25.02,24.742 40.13,68.359 40.52,105.722 0.16,19.707 -4.54,40.68 -3.1,60.391 2.71,38.738 32.16,68.578 72.51,67.469 -19.93,-17.16 -27.68,-39.852 -26.35,-61.942 1.72,-25.179 15.28,-49.648 35.98,-65.968 28.67,-22.7 52.91,-24.911 75.55,-30.34 22.64,-5.481 44.23,-13.832 71.74,-49.699 l 8.41,-10.961 -3.49,58.39 c 62.99,-50.359 48.54,-151.101 -23.25,-184.812 -8.24,11.351 -18.09,18.101 -28.17,20.422 -4.15,0.949 -8.3,1.168 -12.29,0.781 l -1.88,-1.551 c -18.76,-15.172 -30.39,-34.211 -32.05,-54.851 l 2.49,-6.372 -2.76,-2.648 -1.33,-4.051 c -7.03,-21.308 -2.1,-48.211 10.02,-63.258 l 2.38,-2.929 c 12.12,-5.543 27.06,-5.481 40.79,3.539 16.61,-11.352 41.13,-17.711 64.21,-12.571 l 2.49,0.559 c 6.81,6.75 11.51,16.16 12.4,27.672 29.05,1.277 50.53,11.398 59.11,23.25 3.54,14.34 2.93,29.34 -6.97,41.121 27.28,25.02 51.58,57.457 73.17,90.719 l 5.81,-61.43 6.2,5.199 c 10.13,8.52 22.08,26.008 32.88,46.879 6.86,13.34 12.95,27.672 17.54,42.289 l 2.72,-28.117 5.7,3.32 c 26.95,15.778 45.22,48.868 47.27,84.239 2.1,35.371 -12.51,73.34 -51.48,97.531 -21.81,13.617 -40.63,16 -56.68,15.551 -16.05,-0.442 -29.22,-3.262 -40.68,-0.774 -23.14,4.934 -42.95,21.09 -44.28,55.071 -0.28,7.75 2.1,20.429 9.35,31.613 7.25,11.066 18.99,21.027 38.25,24.297 48.87,8.582 93.32,12.672 124.1,27.23 75.6,35.981 113.46,120.441 84.74,207.011 -5.09,15.17 -12.51,24.41 -17.6,33.87 -5.1,9.47 -8.42,19.15 -6.26,37.25 1.5,12.24 5.92,19.38 12.29,26.57 6.36,7.14 14.83,14.12 23.25,24.69 6.08,7.64 14.17,22.03 16.55,40.9 2.38,18.88 -1.22,42.12 -18.38,66.26 l -6.81,9.52 -0.88,-11.68 c -2.05,-26.73 -16.83,-41.18 -34.43,-51.81 -5.81,-3.54 -16.33,-12.84 -24.08,-28.39 -5.98,-11.96 -10.02,-27.57 -8.36,-46.44 -5.75,7.53 -11.34,14.78 -16.88,22.69 -9.02,12.84 -16.38,25.57 -17.99,34.09 -0.44,2.33 -1.6,6.7 -2.21,13.23 -0.61,6.48 -0.56,14.78 1.55,23.81 4.2,17.98 16.38,39.3 49.81,55.35 54.91,26.9 87.79,108.48 42.9,174.4 l -6.75,9.91 -0.94,-11.95 c -2.55,-31.94 -23.86,-61.44 -58.68,-68.8 -11.95,-2.66 -25.73,-5.43 -38.74,-12.95 -36.42,-20.76 -54.74,-61.67 -48.54,-103.95 -12.4,16.88 -20.37,29.44 -25.19,38.08 -6.25,11.07 -7.41,15.5 -7.41,15.5 -19.65,69.68 15.44,124.31 70.51,143.91 106.88,38.08 138.16,157.91 97.92,235.96 l -5.48,10.68 -2.44,-11.74 c -6.97,-33.81 -34.26,-73.5 -76.27,-86.01 l -6.75,76.22 -6.42,-19.43 c -13.12,-39.69 -31.66,-51.2 -54.36,-65.09 -22.69,-13.9 -49.37,-29.78 -74.28,-75.56 -33.76,-61.6 -37.8,-142.97 11.57,-212.98 l 188.19,-266.79 c 27.4,-38.75 29.72,-78.05 20.26,-111.26 -9.47,-32.88 -31.16,-59.33 -51.26,-71.4 -37.8,-22.749 -66.97,-21.589 -103.78,-27.229 19.98,44.829 9.52,100.179 -44.28,130.789 -53.8,30.61 -92.1,52.03 -218.08,123.32 -25.9,-5.15 -51.97,-0.99 -73.95,7.31 -68.96,-59.06 -138.93,-69.85 -204.57,-74.34 -67.69,-4.65 -131.01,-3.71 -193.39,-40.51 l -19.1,-11.24 v 22.14 c 0,30.89 5.53,56.9 11.73,76.83 2.38,7.63 4.82,14.22 7.14,20.03 l -59.33,-4.87 -154.98,-99.57 c -11.57,10.79 -24.41,14.5 -35.92,13.12 l -2,-1.55 c -26.18,-20.54 -30.16,-42.4 -28.39,-57.02 l 0.5,-4.2 h -0.34 c 0.34,-0.67 0.72,-1.33 1.11,-1.99 -3.21,-1.89 -6.03,-3.99 -8.52,-6.26 l -0.5,-2.1 c -5.04,-21.31 -8.08,-40.85 4.93,-62.77 l 2.15,-3.65 c 0.94,-0.67 2,-1.28 3.05,-1.829 7.97,-4.152 17.6,-5.48 27.67,-3.043 0.83,-4.097 2.05,-7.918 3.66,-11.347 l 2.43,-1.661 c 21.7,-14.558 40.19,-17.66 57.29,-14.171 l 3.54,0.722 c 5.54,4.649 10.08,10.957 12.84,18.867 0.34,-0.109 0.61,-0.269 0.94,-0.378 l 3.33,0.16 c 21.8,1 39.57,11.74 53.41,30.11 l 1.99,2.66 c 0.94,6.97 0.33,14.45 -2.16,21.92 42.84,-3.16 85.24,-20.54 114.63,-44.28 l 7.75,-6.309 -7.86,90.159 c 17.88,0.17 36.59,-6.8 52.42,-17.43 17.1,-11.51 30.83,-27.23 36.81,-41.51 l 10.01,-24.031 -6.25,85.961 c 6.86,-0.77 18.93,-3.71 31.72,-10.68 15.99,-8.75 33.21,-23.58 44.83,-47.88 l 10.13,-21.86 -7.09,81.47 c 45.89,-23.96 78.05,-23.46 114.03,-22.14 35.59,1.11 75.88,2.11 140.59,-19.7 -92.33,-28.84 -193.07,-58.402 -193.07,-58.402 h -0.16 -0.17 c -50.37,-19.039 -85.02,-60.437 -94.09,-117.34 -3.1,-18.148 -0.94,-33.976 0.99,-49.257 1.94,-15.219 3.71,-29.832 0.5,-46.219 -9.41,-49.203 -44.28,-80.922 -75.77,-92.051 -6.15,18.488 -20.04,28.461 -34.6,30.277 -32.43,-14.168 -35.98,-28.277 -40.51,-42.339 z M 3792.16,1684.16 c -10.9,-0.22 -21.64,-4.43 -29.55,-13.23 l -2.72,-2.99 19.54,-19.43 2.71,1.77 c 8.92,5.81 18.33,12.95 37.14,14.01 3.33,0.16 6.92,0.16 10.85,0 -8.35,13.17 -23.24,20.26 -37.97,19.98 m -39.46,-177.23 1.66,-6.2 c 5.53,-20.48 15.5,-36.09 37.36,-44.12 12.12,-1.33 22.75,2.44 31.49,11.35 15.17,-25.02 18.6,-60.17 9.86,-87.68 l -6.09,-19.15 44.83,50.71 c 16.61,-24.86 14.56,-63.38 7.31,-87.29 l -5.43,-17.99 49.15,54.13 c 12.46,-13.78 23.25,-34.7 27.68,-54.41 27.34,51.98 68.3,94.65 109.48,124.76 l -3.43,44.23 c -81.58,46.99 -154.87,89.66 -206.46,120 7.75,11.01 10.36,22.58 8.53,32.98 -1.88,10.58 -10.35,20.15 -18.27,26.68 -18.21,4.21 -47.76,-2.54 -58.56,-17.32 l -8.08,4.04 c -14.78,8.52 -29.56,6.75 -41.68,0 -8.91,-15.11 -17.49,-29.56 -11.9,-55.35 0.11,-0.22 -0.33,-4.76 -0.22,-4.98 -4.04,-2.72 -9.3,-5.37 -10.74,-9.41 -4.59,-14.45 -4.26,-26.29 -1.27,-34.59 2.99,-8.31 8.03,-15.84 14.72,-24.58 9.36,-6.42 19.65,-7.58 30.06,-5.48 z m -34.87,128.69 c -25.24,-2.05 -43.78,-23.14 -41.24,-44.28 l 0.5,-3.88 33.98,1.5 c -3.26,18.93 0.89,34.2 6.76,46.93 m -19.6,-73.34 c -7.19,-1.71 -14,-6.03 -19.37,-12.01 -7.42,-8.19 -12.23,-19.54 -11.07,-31.44 l 0.39,-3.98 41.51,1.77 c -3.82,4.98 -7.42,10.52 -9.8,17.21 -2.82,7.86 -3.87,17.16 -1.77,28.45 m 51.26,-73.78 -26.52,-32.54 2.66,-2.71 c 8.53,-8.75 20.65,-11.08 31.55,-9.69 8.25,1.16 15.94,4.54 21.37,9.74 -14.34,7.64 -23.42,20.31 -29.06,35.2 m -19.43,-350.37 c -8.41,-0.22 -16.83,-3.59 -23.69,-8.8 -11.46,-8.63 -19.54,-22.8 -16.61,-37.58 l 0.72,-3.6 31.5,1.55 c 0.44,13.56 5.75,30.22 20.92,46.05 -4.1,1.72 -8.41,2.5 -12.73,2.38 m -17.66,-78.1 c -10.24,-0.94 -19.7,-6.14 -26.73,-13.5 -8.41,-8.91 -13.62,-20.87 -11.74,-32.44 l 0.61,-3.76 39.91,2.27 c -6.14,16.44 -5.04,32.27 -2.05,47.49 m 186.7,-53.74 c -11.68,-12.96 -26.01,-21.761 -42.56,-25.128 l 2.49,-30.5 3.76,-0.114 c 12.79,-0.386 24.46,8.633 31.55,20.481 6.14,10.351 8.86,23.351 4.76,35.261 m -130.85,-34.269 -20.59,-26.012 2.49,-2.66 c 18.49,-19.539 55.3,-10.238 65.15,15.832 -14.67,-0.832 -30.39,2.938 -47.1,12.789 m 240.44,-254.058 c -22.86,0.218 -45.72,-18.383 -44.28,-45 l 0.22,-4.153 29.17,1.16 0.55,1.719 c 4.21,13.231 10.63,27.672 33.21,41.293 -5.98,3.367 -12.51,4.981 -19.04,5.039 m -49.65,-77.551 c -9.91,-1.109 -18.98,-6.918 -25.46,-14.781 -7.47,-8.969 -11.95,-20.59 -9.63,-31.598 l 0.78,-3.601 44.16,2.992 c -7.52,12.777 -12.01,28.231 -9.85,46.988 m 542.38,-58.168 c -21.14,0.61 -43.39,-17.832 -44.22,-44.281 l -0.12,-4.539 31.28,1.379 c 3.93,16.441 13.39,31.5 26.9,44.121 -4.37,2.149 -9.02,3.258 -13.78,3.367 m -516.48,-16.109 c -8.36,-7.848 -12.95,-19.09 -13.84,-30.27 -1.1,-13.668 3.16,-27.679 13.73,-35.699 l 3.21,-2.441 26.96,31.832 c 0.27,-0.11 0.61,-0.223 0.88,-0.332 -3.76,1.992 -7.52,4.261 -11.07,6.972 -9.07,6.86 -16.6,16.61 -19.87,29.938 m 149.01,-7.738 c -14.89,-14.403 -29.34,-19.821 -42.46,-20.93 l 2.71,-35.922 4.38,0.5 c 25.35,2.82 43.5,29.891 35.37,56.352 m 348.65,-57.243 c -21.26,-2.707 -38.75,-22.578 -36.48,-44.277 l 0.44,-4.043 41.63,2.711 c -6.04,13.731 -8.19,30.231 -5.54,45.832 m 201.14,-29.051 c -10.35,-8.859 -25.51,-15.5 -44.83,-17.879 l 3.1,-35.089 4.1,0.218 c 14.11,0.77 25.62,10.239 32.27,21.809 5.53,9.633 7.91,20.973 5.09,30.992 m -132.57,-38.25 -18.7,-24.461 3.48,-2.551 c 13.12,-9.679 29.01,-10.07 41.74,-5.25 11.23,4.262 20.42,12.5 23.24,22.852 -18.43,-1.711 -36.08,2.051 -49.76,9.41"
               style="fill:#ffffff;fill-opacity:1;fill-rule:evenodd;stroke:none"
               id="path12"
               transform="matrix(0.1,0,0,-0.1,-519.401,77.2199)" /><path
               d="m 75.755,-70.087 v -1.635 c -4.687,0.436 -8.393,0.436 -12.208,0.436 -3.815,0 -7.63,-0.218 -11.881,-0.436 v 1.635 c 2.071,0.218 3.815,0.981 4.687,1.744 1.962,1.744 2.289,3.488 2.289,11.881 v 16.677 H 21.909 v -13.407 c 0,-9.374 0.109,-12.426 1.962,-14.497 1.635,-1.853 4.033,-2.398 5.341,-2.398 v -1.635 c -4.687,0.436 -8.393,0.436 -12.208,0.436 -3.815,0 -7.63,-0.218 -11.881,-0.436 v 1.635 c 2.071,0.218 3.815,0.981 4.687,1.744 1.962,1.744 2.289,3.488 2.289,11.881 v 38.15 c 0,9.374 -0.109,12.426 -1.962,14.497 -1.635,1.853 -4.033,2.398 -5.341,2.398 v 1.635 c 4.687,-0.436 8.393,-0.436 12.208,-0.436 3.815,0 7.63,0.218 11.881,0.436 V -1.417 C 26.814,-1.635 25.07,-2.398 24.198,-3.161 22.236,-4.905 21.909,-6.649 21.909,-15.042 v -19.62 h 36.733 v 16.35 c 0,9.374 -0.109,12.426 -1.962,14.497 -1.635,1.853 -4.033,2.398 -5.341,2.398 v 1.635 c 4.687,-0.436 8.393,-0.436 12.208,-0.436 3.815,0 7.63,0.218 11.881,0.436 v -1.635 c -2.071,-0.218 -3.815,-0.981 -4.687,-1.744 -1.962,-1.744 -2.289,-3.488 -2.289,-11.881 v -38.15 c 0,-9.374 0.109,-12.426 1.962,-14.497 1.635,-1.853 4.033,-2.398 5.341,-2.398 z"
               id="path5067"
               style="fill:#ffffff" /><path
               d="m 129.492,-28.122 v -1.744 c 0,-4.687 -0.545,-9.156 -3.27,-13.516 -2.289,-3.706 -7.412,-7.303 -15.369,-7.303 -19.728998,0 -23.434998,18.53 -23.434998,27.141 0,14.061 6.649,24.416 23.216998,24.416 7.085,0 14.279,-2.616 17.767,-6.867 l -0.872,-1.417 c -3.706,1.962 -7.63,2.725 -11.99,2.725 -5.45,0 -15.586998,-1.308 -18.093998,-15.696 -0.436,-2.398 -0.545,-4.905 -0.545,-7.521 v -0.218 z m -10.028,-3.706 H 97.010002 c 0,-3.924 0.654,-15.151 11.226998,-15.151 11.009,0 11.227,10.028 11.227,14.279 z"
               id="path5069"
               style="fill:#ffffff" /><path
               d="m 172.983,-13.952 c 0,-7.739 -5.341,-10.9 -10.028,-13.625 l -6.976,-4.142 c -2.507,-1.526 -5.995,-3.488 -5.995,-7.848 0,-1.744 0.218,-7.63 8.938,-7.63 5.232,0 7.848,2.507 8.502,3.379 0.654,0.981 1.962,2.616 2.071,5.559 h 1.853 c -0.218,-1.635 -0.109,-2.616 -0.218,-5.559 0,-0.109 0.109,-4.578 0.327,-5.777 0,0 -5.777,-1.09 -12.535,-1.09 -3.379,0 -7.303,0.436 -9.919,1.744 -6.213,3.052 -6.867,8.72 -6.867,11.881 0,6.54 4.033,9.919 7.957,12.317 l 7.412,4.578 c 4.142,2.616 7.085,4.469 7.085,8.938 0,8.284 -8.066,8.175 -9.81,8.175 -4.142,0 -7.303,-0.654 -9.919,-3.815 -0.545,-0.654 -2.18,-2.834 -2.398,-6.431 h -1.853 c 0.327,3.052 0.545,4.687 0.545,9.81 v 2.18 c 1.199,0.436 5.777,2.071 12.971,2.071 7.739,0 18.857,-2.289 18.857,-14.715 z"
               id="path5071"
               style="fill:#ffffff" /><path
               d="m 217.891,-13.952 c 0,-7.739 -5.341,-10.9 -10.028,-13.625 l -6.976,-4.142 c -2.507,-1.526 -5.995,-3.488 -5.995,-7.848 0,-1.744 0.218,-7.63 8.938,-7.63 5.232,0 7.848,2.507 8.502,3.379 0.654,0.981 1.962,2.616 2.071,5.559 h 1.853 c -0.218,-1.635 -0.109,-2.616 -0.218,-5.559 0,-0.109 0.109,-4.578 0.327,-5.777 0,0 -5.777,-1.09 -12.535,-1.09 -3.379,0 -7.303,0.436 -9.919,1.744 -6.213,3.052 -6.867,8.72 -6.867,11.881 0,6.54 4.033,9.919 7.957,12.317 l 7.412,4.578 c 4.142,2.616 7.085,4.469 7.085,8.938 0,8.284 -8.066,8.175 -9.81,8.175 -4.142,0 -7.303,-0.654 -9.919,-3.815 -0.545,-0.654 -2.18,-2.834 -2.398,-6.431 h -1.853 c 0.327,3.052 0.545,4.687 0.545,9.81 v 2.18 c 1.199,0.436 5.777,2.071 12.971,2.071 7.739,0 18.857,-2.289 18.857,-14.715 z"
               id="path5073"
               style="fill:#ffffff" /><path
               d="m 271.95501,-28.122 v -1.744 c 0,-4.687 -0.545,-9.156 -3.27,-13.516 -2.289,-3.706 -7.412,-7.303 -15.369,-7.303 -19.729,0 -23.435,18.53 -23.435,27.141 0,14.061 6.649,24.416 23.217,24.416 7.085,0 14.279,-2.616 17.767,-6.867 l -0.872,-1.417 c -3.706,1.962 -7.63,2.725 -11.99,2.725 -5.45,0 -15.587,-1.308 -18.094,-15.696 -0.436,-2.398 -0.545,-4.905 -0.545,-7.521 v -0.218 z m -10.028,-3.706 h -22.454 c 0,-3.924 0.654,-15.151 11.227,-15.151 11.009,0 11.227,10.028 11.227,14.279 z"
               id="path5075"
               style="fill:#ffffff" /><path
               d="m 338.66299,0.218 v -1.526 c -1.635,-0.109 -3.597,-0.763 -4.687,-1.744 -1.962,-1.853 -2.289,-3.379 -2.289,-11.99 v -15.151 c 0,-2.943 -0.218,-7.303 -0.654,-9.047 -1.526,-6.976 -6.649,-11.445 -16.132,-11.445 -9.156,0 -15.151,5.232 -16.132,6.213 v -5.886 l -0.436,-0.327 c -1.199,0.545 -3.27,0.981 -5.341,1.308 -4.469,0.872 -9.047,1.09 -10.464,0.981 v 1.853 c 1.199,0.109 4.36,0.109 5.886,2.289 1.09,1.635 1.199,4.251 1.199,11.118 v 14.824 c 0,9.374 -0.109,12.426 -1.962,14.497 -1.635,1.853 -3.924,2.398 -5.341,2.507 v 1.526 c 4.687,-0.436 8.175,-0.436 11.99,-0.436 3.815,0 7.412,0.218 11.663,0.436 v -1.526 c -1.635,-0.109 -3.597,-0.763 -4.687,-1.744 -1.962,-1.853 -2.289,-3.379 -2.289,-11.99 v -27.904 c 2.398,-1.308 5.559,-2.616 10.791,-2.616 8.72,0 11.445,5.123 12.099,10.791 0.436,4.033 0.436,8.066 0.436,11.99 0,3.052 0,7.085 -0.109,9.047 -0.218,4.469 0,8.066 -2.289,10.355 -1.09,1.09 -2.725,1.744 -4.905,2.071 v 1.526 c 4.687,-0.436 8.066,-0.436 11.881,-0.436 3.815,0 7.521,0.218 11.772,0.436 z"
               id="path5077"
               style="fill:#ffffff" /><path
               d="m -412.88002,-29.19325 v -1.635 c -4.687,0.436 -7.957,0.436 -11.772,0.436 -3.815,0 -7.957,-0.218 -12.208,-0.436 v 1.635 c 2.071,0.218 3.815,0.981 4.687,1.744 1.962,1.744 2.289,3.488 2.289,11.881 v 11.336 c -2.616,0.218 -4.687,0.436 -7.194,0.436 -16.786,0 -30.847,-6.54 -30.847,-31.61 0,-26.16 13.734,-32.155 28.558,-32.155 3.924,0 11.445,0.109 14.933,3.488 1.526,1.417 2.943,3.706 2.834,6.213 h 1.853 c -0.109,-1.417 -0.218,-3.815 -0.218,-6.649 0,-3.815 0.218,-6.54 0.218,-6.54 0,0 -7.085,-1.199 -16.895,-1.199 -6.54,0 -13.08,0.545 -17.985,2.289 -14.388,5.014 -23.98,17.004 -23.98,35.861 0,9.483 2.398,17.004 6.758,22.454 7.848,9.919 19.729,12.317 31.828,12.317 5.777,0 14.824,-0.763 19.838,-2.398 v -10.573 c 0,-9.374 0.109,-12.426 1.962,-14.497 1.635,-1.853 4.033,-2.398 5.341,-2.398 z"
               id="path5079"
               style="fill:#ffffff" /><path
               d="m -368.40909,-46.63325 v -0.872 c -1.09,-0.981 -3.379,-2.616 -7.957,-2.616 -7.63,0 -11.881,5.014 -13.08,6.54 v -6.758 l -0.436,-0.327 c -1.199,0.545 -3.379,0.981 -5.341,1.308 -4.469,0.872 -9.047,1.09 -10.464,0.981 v 1.853 c 1.199,0.109 4.36,0.109 5.886,2.289 1.09,1.635 1.199,4.251 1.199,11.118 v 14.824 c 0,9.374 -0.109,12.426 -1.962,14.497 -1.635,1.853 -3.924,2.398 -5.341,2.507 v 1.526 c 4.687,-0.436 9.156,-0.436 12.971,-0.436 3.815,0 8.829,0.218 13.08,0.436 v -1.744 c -1.635,0 -6.322,-0.218 -8.066,-2.834 -1.09,-1.635 -1.308,-4.033 -1.308,-10.9 v -26.705 c 1.744,-1.308 3.924,-2.18 6.758,-2.18 5.995,0 8.502,3.488 9.265,4.687 h 0.872 z"
               id="path5081"
               style="fill:#ffffff" /><path
               d="m -335.60179,-66.79825 c 0,-3.27 -1.962,-5.232 -5.232,-5.232 -3.488,0 -5.559,1.744 -5.559,5.341 0,3.27 2.071,5.232 5.341,5.232 3.379,0 5.45,-1.962 5.45,-5.341 z m 18.094,0 c 0,-3.27 -2.071,-5.232 -5.341,-5.232 -3.488,0 -5.45,1.744 -5.45,5.341 0,3.27 1.962,5.232 5.232,5.232 3.379,0 5.559,-1.962 5.559,-5.341 z m 14.606,65.509 v -1.853 c -1.199,-0.109 -4.36,-0.109 -5.886,-2.289 -1.09,-1.526 -1.09,-4.251 -1.09,-11.118 v -13.516 c 0,-8.284 0,-16.459 0.327,-20.274 l -0.327,-0.327 c -1.308,0.545 -3.27,0.981 -5.341,1.308 -4.469,0.872 -9.592,1.09 -11.009,0.981 v 1.853 c 1.199,0.109 4.36,0.109 5.886,2.289 1.09,1.635 1.09,4.251 1.09,11.118 v 26.269 c -2.398,1.635 -6.54,2.943 -10.791,2.943 -10.028,0 -11.445,-6.976 -11.881,-9.919 -0.654,-5.232 -0.545,-10.682 -0.545,-16.241 0,-8.175 0.109,-16.459 0.545,-20.274 l -0.436,-0.327 c -1.199,0.545 -3.379,0.981 -5.341,1.308 -4.469,0.872 -9.81,1.09 -11.118,0.981 v 1.853 c 1.199,0.109 4.36,0.109 5.777,2.289 1.09,1.635 1.199,4.251 1.199,11.118 v 9.592 c 0,5.45 -0.218,11.336 1.199,15.369 0.872,2.725 3.379,9.265 15.369,9.265 9.265,0 15.042,-5.123 16.241,-6.322 v 5.995 l 0.436,0.218 c 1.199,-0.545 3.161,-0.981 5.123,-1.308 4.469,-0.763 9.265,-1.09 10.573,-0.981 z"
               id="path5083"
               style="fill:#ffffff" /><path
               d="m -234.3421,0.23675 v -1.526 c -1.635,-0.109 -3.597,-0.763 -4.687,-1.744 -1.962,-1.853 -2.289,-3.379 -2.289,-11.99 v -15.151 c 0,-2.943 -0.218,-7.303 -0.654,-9.047 -1.526,-6.976 -6.649,-11.445 -16.132,-11.445 -9.156,0 -15.151,5.232 -16.132,6.213 v -5.886 l -0.436,-0.327 c -1.199,0.545 -3.27,0.981 -5.341,1.308 -4.469,0.872 -9.047,1.09 -10.464,0.981 v 1.853 c 1.199,0.109 4.36,0.109 5.886,2.289 1.09,1.635 1.199,4.251 1.199,11.118 v 14.824 c 0,9.374 -0.109,12.426 -1.962,14.497 -1.635,1.853 -3.924,2.398 -5.341,2.507 v 1.526 c 4.687,-0.436 8.175,-0.436 11.99,-0.436 3.815,0 7.412,0.218 11.663,0.436 v -1.526 c -1.635,-0.109 -3.597,-0.763 -4.687,-1.744 -1.962,-1.853 -2.289,-3.379 -2.289,-11.99 v -27.904 c 2.398,-1.308 5.559,-2.616 10.791,-2.616 8.72,0 11.445,5.123 12.099,10.791 0.436,4.033 0.436,8.066 0.436,11.99 0,3.052 0,7.085 -0.109,9.047 -0.218,4.469 0,8.066 -2.289,10.355 -1.09,1.09 -2.725,1.744 -4.905,2.071 v 1.526 c 4.687,-0.436 8.066,-0.436 11.881,-0.436 3.815,0 7.521,0.218 11.772,0.436 z"
               id="path5085"
               style="fill:#ffffff" /><path
               d="m -180.71557,-28.10325 v -1.744 c 0,-4.687 -0.545,-9.156 -3.27,-13.516 -2.289,-3.706 -7.412,-7.303 -15.369,-7.303 -19.729,0 -23.435,18.53 -23.435,27.141 0,14.061 6.649,24.416 23.217,24.416 7.085,0 14.279,-2.616 17.767,-6.867 l -0.872,-1.417 c -3.706,1.962 -7.63,2.725 -11.99,2.725 -5.45,0 -15.587,-1.308 -18.094,-15.696 -0.436,-2.398 -0.545,-4.905 -0.545,-7.521 v -0.218 z m -10.028,-3.706 h -22.454 c 0,-3.924 0.654,-15.151 11.227,-15.151 11.009,0 11.227,10.028 11.227,14.279 z"
               id="path5087"
               style="fill:#ffffff" /></g></g></g></g></g></svg>
