<?xml version="1.0" encoding="UTF-8" standalone="no"?>
<!-- Created with Inkscape (http://www.inkscape.org/) -->

<svg
   xmlns:dc="http://purl.org/dc/elements/1.1/"
   xmlns:cc="http://creativecommons.org/ns#"
   xmlns:rdf="http://www.w3.org/1999/02/22-rdf-syntax-ns#"
   xmlns:svg="http://www.w3.org/2000/svg"
   xmlns="http://www.w3.org/2000/svg"
   xmlns:sodipodi="http://sodipodi.sourceforge.net/DTD/sodipodi-0.dtd"
   xmlns:inkscape="http://www.inkscape.org/namespaces/inkscape"
   version="1.1"
   id="svg2"
   xml:space="preserve"
   width="300"
   height="300"
   viewBox="0 0 300 300"
   sodipodi:docname="5stimmen.svg"
   inkscape:version="0.92.5 (2060ec1f9f, 2020-04-08)"><metadata
     id="metadata8"><rdf:RDF><cc:Work
         rdf:about=""><dc:format>image/svg+xml</dc:format><dc:type
           rdf:resource="http://purl.org/dc/dcmitype/StillImage" /><dc:title></dc:title></cc:Work></rdf:RDF></metadata><defs
     id="defs6" /><sodipodi:namedview
     pagecolor="#ffffff"
     bordercolor="#666666"
     borderopacity="1"
     objecttolerance="10"
     gridtolerance="10"
     guidetolerance="10"
     inkscape:pageopacity="0"
     inkscape:pageshadow="2"
     inkscape:window-width="1848"
     inkscape:window-height="1016"
     id="namedview4"
     showgrid="false"
     inkscape:zoom="0.71044391"
     inkscape:cx="-41.406277"
     inkscape:cy="166.09334"
     inkscape:window-x="1752"
     inkscape:window-y="27"
     inkscape:window-maximized="1"
     inkscape:current-layer="g12" /><g
     id="g10"
     inkscape:groupmode="layer"
     inkscape:label="ink_ext_XXXXXX"
     transform="matrix(1.3333333,0,0,-1.3333333,0,299.99999)"><g
       id="g12"
       transform="scale(0.1)"><g
         id="g1477"
         transform="matrix(0.99218601,0,0,0.99218995,0,-221.95198)"><path
           inkscape:connector-curvature="0"
           id="path14"
           style="fill:#ff3560;fill-opacity:1;fill-rule:nonzero;stroke:none"
           d="m 1133.86,223.699 c 626.21,0 1133.86,507.641 1133.86,1133.851 0,626.22 -507.65,1133.86 -1133.86,1133.86 C 507.648,2491.41 0,1983.77 0,1357.55 0,731.34 507.648,223.699 1133.86,223.699" /><path
           inkscape:connector-curvature="0"
           id="path16"
           style="fill:#ffffff;fill-opacity:1;fill-rule:nonzero;stroke:none"
           d="M 645.195,2143.3 782.746,1719.93 1206.12,1857.48 1068.57,2280.86 645.195,2143.3" /><path
           inkscape:connector-curvature="0"
           id="path18"
           style="fill:#205d33;fill-opacity:1;fill-rule:nonzero;stroke:none"
           d="M 1269.79,1850.14 963.164,2006.38 1119.4,2313 l -55.49,28.27 -156.23,-306.63 -306.621,156.24 -28.274,-55.49 306.621,-156.23 -156.23,-306.62 55.488,-28.28 156.231,306.63 306.615,-156.24 28.28,55.49" /><g
           transform="scale(10)"
           id="g20"><g
             id="text24"
             style="font-style:oblique;font-variant:normal;font-size:47.00000763px;font-family:BereitBold;-inkscape-font-specification:BereitBold-Oblique;writing-mode:lr-tb;fill:#ffffff;fill-opacity:1;fill-rule:nonzero;stroke:none"
             transform="matrix(0.95882,0.284015,0.284015,-0.95882,36.8594,95.2789)"
             aria-label="5 Stimmen"><path
               inkscape:connector-curvature="0"
               id="path835"
               d="M 22.043004,-37.600006 H 6.157001 l -4.0420007,19.458003 7.1910012,1.175 0.2820001,-0.987 c 0.329,-1.175 0.7990004,-1.786 1.8800004,-1.786 1.081,0 1.551,0.658 1.316,2.115 l -1.598,9.9170017 c -0.235,1.5510003 -0.893,2.1620004 -1.8800005,2.1620004 -1.2220002,0 -1.6450003,-0.7990001 -1.4100002,-2.1620004 L 8.4600014,-11.186002 H 0.89300014 l -0.51700008,3.3370007 c -0.84600014,5.4520009 2.53800044,8.31900138 8.31900134,8.31900138 5.7340006,0 9.2120016,-2.72600048 10.1050016,-8.31900138 l 1.692,-10.6690017 c 0.752,-4.606001 -1.551,-7.097001 -5.405001,-7.097001 -2.303,0 -4.089,0.893 -5.2640004,2.303 l 1.5980004,-7.473001 h 9.588001 z" /><path
               inkscape:connector-curvature="0"
               id="path837"
               d="m 29.702946,-7.8960013 c -0.94,5.4990009 2.303001,8.36600138 8.460002,8.36600138 5.452001,0 9.071001,-2.49100038 10.011001,-7.89600128 l 0.893,-5.1700008 c 0.752001,-4.465001 -1.222,-7.332001 -5.076,-8.789001 -3.666001,-1.363001 -4.136001,-1.880001 -3.760001,-4.089001 l 0.658,-3.995001 c 0.235,-1.551 0.94,-2.162 1.974,-2.162 1.128001,0 1.551001,0.799 1.316001,2.162 l -0.705,4.230001 h 7.567001 l 0.752,-4.465001 c 0.893,-5.405001 -2.585001,-8.366001 -8.319001,-8.366001 -5.217001,0 -9.259002,2.397 -10.199002,7.896001 l -0.893,5.264001 c -0.752,4.371001 0.799,6.627001 5.123001,8.319001 3.76,1.410001 4.183,1.739001 3.713,4.559001 l -0.658,3.9010007 c -0.282,1.5510002 -0.94,2.1620003 -1.974,2.1620003 -1.128,0 -1.504,-0.7990001 -1.269,-2.1620003 l 0.705,-4.2300007 h -7.567002 z" /><path
               inkscape:connector-curvature="0"
               id="path839"
               d="m 64.576953,-23.124004 0.799,-4.841001 h -3.337001 l 1.081,-6.815001 h -6.768001 l -1.081,6.815001 h -1.974 l -0.752,4.841001 h 1.974 l -2.585,16.2150029 c -0.799,5.1230008 1.692,7.37900118 6.345001,7.37900118 1.175,0 2.397,-0.23500004 3.243,-0.5640001 l 0.752,-4.84100078 c -0.423,0.094 -0.799,0.141 -1.175,0.141 -2.491,0 -2.444,-1.7390003 -1.88,-5.3110012 l 2.068,-13.019002 z" /><path
               inkscape:connector-curvature="0"
               id="path841"
               d="m 74.727762,-29.986005 0.94,-5.875001 h -5.969001 l -0.94,5.875001 z M 70.356761,0 74.774762,-27.965005 H 67.959761 L 63.54176,0 Z" /><path
               inkscape:connector-curvature="0"
               id="path843"
               d="m 98.791764,-28.435005 c -2.726,0 -4.559,1.645001 -5.452001,3.102001 -0.376,-2.115 -1.833,-3.102001 -4.136,-3.102001 -2.303001,0 -3.948001,1.175001 -4.982001,2.397001 l 0.329,-1.927001 H 77.735761 L 73.31776,0 h 6.815001 l 3.525001,-22.184004 c 0.423,-0.564 0.94,-0.846 1.551,-0.846 0.893,0 1.269,0.564 1.081,1.739001 L 82.952762,0 h 6.815001 l 3.525,-22.278004 c 0.423,-0.47 0.893001,-0.752 1.504001,-0.752 0.893,0 1.269,0.564 1.081,1.739001 L 92.540763,0 h 6.815001 l 3.524996,-22.325004 c 0.65801,-4.183 -0.893,-6.110001 -4.088996,-6.110001 z" /><path
               inkscape:connector-curvature="0"
               id="path845"
               d="m 127.64977,-28.435005 c -2.726,0 -4.559,1.645001 -5.452,3.102001 -0.376,-2.115 -1.833,-3.102001 -4.136,-3.102001 -2.303,0 -3.948,1.175001 -4.982,2.397001 l 0.329,-1.927001 h -6.815 L 102.17577,0 h 6.815 l 3.525,-22.184004 c 0.423,-0.564 0.94,-0.846 1.551,-0.846 0.893,0 1.269,0.564 1.081,1.739001 L 111.81077,0 h 6.815 l 3.525,-22.278004 c 0.423,-0.47 0.893,-0.752 1.504,-0.752 0.893,0 1.269,0.564 1.081,1.739001 L 121.39877,0 h 6.815 l 3.525,-22.325004 c 0.658,-4.183 -0.893,-6.110001 -4.089,-6.110001 z" /><path
               inkscape:connector-curvature="0"
               id="path847"
               d="m 143.25378,-28.435005 c -4.794,0 -8.225,2.068001 -9.118,7.473002 l -2.115,13.0660017 c -0.987,6.110001 2.256,8.36600138 7.05,8.36600138 4.794,0 8.413,-2.06800038 9.212,-7.42600118 l 0.376,-2.4910004 h -6.768 l -0.564,3.3840005 c -0.188,1.1280002 -0.658,1.6450003 -1.551,1.6450003 -0.987,0 -1.41,-0.6110001 -1.222,-1.9270003 l 0.893,-5.593001 h 9.635 l 1.222,-8.131001 c 0.94,-6.110001 -2.256,-8.366002 -7.05,-8.366002 z m -2.256,6.533001 c 0.188,-1.128 0.752,-1.645 1.551,-1.645 0.987,0 1.41,0.611 1.222,1.927 l -1.034,6.815002 h -2.867 z" /><path
               inkscape:connector-curvature="0"
               id="path849"
               d="m 165.67277,-28.435005 c -2.303,0 -3.948,1.175001 -4.982,2.397001 l 0.329,-1.927001 h -6.815 L 149.78677,0 h 6.815 l 3.525,-22.184004 c 0.423,-0.564 0.94,-0.846 1.551,-0.846 0.893,0 1.269,0.564 1.081,1.739001 L 159.42177,0 h 6.815 l 3.525,-22.325004 c 0.658,-4.183 -0.893,-6.110001 -4.089,-6.110001 z" /></g><g
             id="text28"
             style="font-style:oblique;font-variant:normal;font-size:65.00000763px;font-family:BereitBold;-inkscape-font-specification:BereitBold-Oblique;writing-mode:lr-tb;fill:#ffffff;fill-opacity:1;fill-rule:nonzero;stroke:none"
             transform="matrix(0.95882,0.284015,0.284015,-0.95882,79.3809,44.2551)"
             aria-label="Grün!"><path
               inkscape:connector-curvature="0"
               id="path852"
               d="m 19.370002,-52.650006 c -8.190001,0 -12.9350012,3.965 -14.1050014,11.440001 L 0.58500007,-11.440001 C -0.71500008,-3.3150004 3.9000005,0.65000008 11.830001,0.65000008 c 8.125001,0 12.870002,-3.96500048 14.040002,-11.44000108 l 2.99,-18.850002 H 16.185002 l -1.3,8.32 h 2.21 l -1.69,10.660002 c -0.325,2.145 -1.235,2.9900001 -2.665001,2.9900001 -1.56,0 -2.08,-1.1050001 -1.755,-2.9900001 l 4.810001,-30.680004 c 0.325,-2.145 1.235,-2.99 2.665,-2.99 1.56,0 2.08,1.04 1.755,2.99 l -0.975,6.370001 h 10.465001 l 0.975001,-5.525001 c 1.43,-8.190001 -3.380001,-12.155001 -11.310002,-12.155001 z" /><path
               inkscape:connector-curvature="0"
               id="path854"
               d="M 43.550006,-38.675005 H 34.125005 L 28.015005,0 h 9.425001 l 3.705,-23.660003 c 0.845,-5.2 3.38,-7.085001 8.580001,-6.435001 l 1.495,-8.905001 c -3.705,-0.455 -6.630001,1.560001 -8.515001,5.525001 z" /><path
               inkscape:connector-curvature="0"
               id="path856"
               d="m 58.694294,-49.595006 -1.3,8.125001 h 6.955001 l 1.3,-8.125001 z m 9.100001,0 -1.3,8.125001 h 6.955001 l 1.3,-8.125001 z m -5.72,41.6000051 c -0.585,0.7800001 -1.3,1.1700001 -2.145,1.1700001 -1.235001,0 -1.755001,-0.7800001 -1.495001,-2.4050003 l 4.615001,-29.4450039 h -9.425001 l -4.875001,30.8750041 c -0.91,5.7850007 1.235,8.45000098 5.655001,8.45000098 3.185,0 5.460001,-1.62500019 6.890001,-3.31500038 L 60.839295,0 h 9.425001 l 6.11,-38.675005 h -9.425001 z" /><path
               inkscape:connector-curvature="0"
               id="path858"
               d="m 96.133542,-39.325005 c -3.185,0 -5.460001,1.625001 -6.890001,3.315001 l 0.455,-2.665001 H 80.27354 L 74.163539,0 h 9.425001 l 4.875001,-30.680004 c 0.585,-0.78 1.3,-1.17 2.145,-1.17 1.235,0 1.755,0.78 1.495,2.405001 L 87.488541,0 h 9.425001 l 4.874998,-30.875004 c 0.91,-5.785 -1.235,-8.450001 -5.654998,-8.450001 z" /><path
               inkscape:connector-curvature="0"
               id="path860"
               d="m 105.88277,-29.445003 -1.95,15.860001 h 9.165 l 3.055,-15.860001 3.77,-22.555003 h -10.53 z M 111.27777,0 l 1.495,-9.5550011 h -9.555 L 101.72277,0 Z" /></g></g></g></g></g></svg>