<?xml version="1.0" encoding="UTF-8" standalone="no"?>
<!-- Created with Inkscape (http://www.inkscape.org/) -->

<svg
   version="1.1"
   id="svg1"
   width="940"
   height="441"
   viewBox="0 0 939.99996 441"
   sodipodi:docname="claim.svg"
   inkscape:version="1.3.2 (1:1.3.2+202311252150+091e20ef0f)"
   xmlns:inkscape="http://www.inkscape.org/namespaces/inkscape"
   xmlns:sodipodi="http://sodipodi.sourceforge.net/DTD/sodipodi-0.dtd"
   xmlns="http://www.w3.org/2000/svg"
   xmlns:svg="http://www.w3.org/2000/svg">
  <defs
     id="defs1" />
  <sodipodi:namedview
     id="namedview1"
     pagecolor="#ffffff"
     bordercolor="#666666"
     borderopacity="1.0"
     inkscape:showpageshadow="2"
     inkscape:pageopacity="0.0"
     inkscape:pagecheckerboard="0"
     inkscape:deskcolor="#d1d1d1"
     inkscape:zoom="1.4925"
     inkscape:cx="533.33333"
     inkscape:cy="400"
     inkscape:window-width="3366"
     inkscape:window-height="1376"
     inkscape:window-x="74"
     inkscape:window-y="27"
     inkscape:window-maximized="1"
     inkscape:current-layer="g2">
    <inkscape:page
       x="0"
       y="0"
       inkscape:label="1"
       id="page1"
       width="939.99994"
       height="441"
       margin="0"
       bleed="0" />
  </sodipodi:namedview>
  <g
     id="g1"
     inkscape:groupmode="layer"
     inkscape:label="1">
    <g
       id="g2"
       transform="translate(-63.623998,-179.48802)">
      <path
         id="path1"
         d="M 47.718,134.617 H 752.283 V 465.384 H 47.718 Z"
         style="fill:#7dcc32;fill-opacity:1;fill-rule:nonzero;stroke:none"
         transform="matrix(1.3333333,0,0,-1.3333333,0,800)" />
      <path
         style="font-style:oblique;font-weight:700;font-size:159.051px;font-family:BereitBold;fill:#1a5241"
         d="m 47.397196,-128.83131 c -20.040425,0 -31.651148,9.70211 -34.514065,27.99298 L 1.431459,-27.992975 c -3.1810199,19.8813743 8.1116007,29.5834849 27.515822,29.5834849 19.881374,0 31.492097,-9.7021106 34.355015,-27.9929749 l 7.316346,-46.124789 H 39.603698 l -3.18102,20.358528 h 5.407734 l -4.135326,26.084363 c -0.795255,5.248683 -3.021969,7.316346 -6.521091,7.316346 -3.817224,0 -5.089632,-2.703867 -4.294377,-7.316346 l 11.769774,-75.072067 c 0.795255,-5.24869 3.021969,-7.31635 6.521091,-7.31635 3.817223,0 5.089631,2.54482 4.294376,7.31635 l -2.385765,15.586995 H 72.686305 L 75.07207,-99.08877 c 3.499121,-20.04043 -8.270652,-29.74254 -27.674874,-29.74254 z m 92.249534,1.59051 H 89.704722 L 69.346195,0 h 50.101065 l 3.65817,-23.062394 H 98.770629 l 4.771531,-29.742536 h 17.33656 l 3.34007,-21.789987 h -17.17751 l 4.61248,-29.424433 h 24.3348 z m 39.76271,73.958717 -2.06767,-73.958717 H 148.7126 L 128.35407,0 h 24.49385 L 163.34529,-66.483316 164.14054,0 h 13.83744 L 199.29081,-65.847112 189.11155,0 h 24.3348 l 20.04043,-127.2408 H 204.8576 Z M 294.88041,-127.2408 H 244.9384 L 224.57987,0 h 50.10106 l 3.65817,-23.062394 h -24.3348 l 4.77153,-29.742536 h 17.33656 l 3.34007,-21.789987 h -17.17751 l 4.61248,-29.424433 h 24.3348 z M 309.35402,0 329.71254,-127.2408 H 303.94628 L 283.58776,0 Z m 62.82513,-62.34799 -7.63445,-64.89281 H 340.8461 L 320.64662,0 h 24.33481 L 355.31974,-64.733755 362.31799,0 h 23.53954 l 20.19948,-127.2408 h -23.6986 z m 27.99292,35.627423 c -3.18102,18.6089663 7.79349,28.3110769 28.62918,28.3110769 18.44991,0 30.69684,-8.4297027 33.87786,-26.7205669 l 3.02197,-17.49561 c 2.54481,-15.109844 -4.13533,-24.811955 -17.17751,-29.742536 -12.40598,-4.612479 -13.99649,-6.362039 -12.72408,-13.837436 l 2.22671,-13.519335 c 0.79526,-5.248686 3.18102,-7.316346 6.68014,-7.316346 3.81723,0 5.24869,2.70387 4.45343,7.316346 l -2.38576,14.31459 h 25.60721 l 2.54481,-15.109846 c 3.02197,-18.29086 -8.7478,-28.31108 -28.15202,-28.31108 -17.65466,0 -31.33305,8.1116 -34.51407,26.72057 l -3.02197,17.813713 c -2.54481,14.791742 2.70387,22.42619 17.33656,28.152026 12.72408,4.77153 14.15554,5.884887 12.56503,15.427946 l -2.22671,13.201233 c -0.95431,5.248683 -3.18102,7.316346 -6.68015,7.316346 -3.81722,0 -5.08963,-2.703867 -4.29437,-7.316346 l 2.38576,-14.31459 H 402.71688 Z M 535.34946,-127.2408 H 504.33452 L 463.61746,0 h 26.56152 l 4.93058,-19.24517 H 510.2194 L 508.94699,0 h 27.19772 z m -19.72232,28.470132 -3.97628,59.16697 h -11.29262 z m 79.52548,45.488585 -2.06767,-73.958717 H 564.45577 L 544.09725,0 H 568.5911 L 579.08847,-66.483316 579.88372,0 h 13.83744 L 615.03399,-65.847112 604.85473,0 h 24.3348 l 20.04043,-127.2408 h -28.62918 z"
         id="text1"
         transform="matrix(1.3333333,0,0,1.3333333,105.17533,382.17013)"
         aria-label="GEMEINSAM" />
      <path
         style="font-style:oblique;font-weight:700;font-size:125.842px;font-family:BereitBold;fill:#1a5241"
         d="M 18.8763,0 34.984077,-100.6736 H 14.597672 L -1.510104,0 Z m 11.451738,-21.141456 c -2.51684,14.7235139 6.166259,22.399876 22.651561,22.399876 14.597672,0 24.287507,-6.6696261 26.804347,-21.141456 l 2.390998,-13.842621 c 2.013472,-11.95499 -3.271892,-19.631352 -13.590937,-23.532454 -9.815676,-3.649418 -11.074096,-5.03368 -10.06736,-10.948255 l 1.761788,-10.69657 c 0.62921,-4.152786 2.51684,-5.788732 5.285364,-5.788732 3.020208,0 4.152786,2.139314 3.523576,5.788732 l -1.88763,11.32578 h 20.260563 l 2.013472,-11.95499 c 2.390998,-14.47183 -6.92131,-22.399874 -22.274035,-22.399874 -13.968462,0 -24.790874,6.41794 -27.307714,21.141454 l -2.390998,14.094304 c -2.013472,11.703307 2.139314,17.743723 13.716778,22.274035 10.06736,3.77526 11.199938,4.656154 9.941518,12.206674 l -1.761788,10.444887 c -0.755052,4.152786 -2.51684,5.788732 -5.285364,5.788732 -3.020208,0 -4.026944,-2.139314 -3.397734,-5.788732 l 1.88763,-11.325781 H 32.34151 Z M 97.024517,-100.6736 94.130151,-82.426512 H 105.9593 L 92.871731,0 h 20.386409 l 13.08756,-82.426512 h 11.82915 l 2.89437,-18.247088 z m 67.954873,0 h -6.16626 l -13.96846,11.829146 -2.89437,18.498774 h 18.49878 l 2.89436,-18.498774 h -4.65615 z m -4.90773,79.532144 c -2.51684,14.7235139 6.16626,22.399876 22.65156,22.399876 14.59768,0 24.28751,-6.6696261 26.80435,-21.141456 l 2.391,-13.842621 c 2.01347,-11.95499 -3.27189,-19.631352 -13.59094,-23.532454 -9.81568,-3.649418 -11.0741,-5.03368 -10.06736,-10.948255 l 1.76179,-10.69657 c 0.62921,-4.152786 2.51684,-5.788732 5.28536,-5.788732 3.02021,0 4.15279,2.139314 3.52358,5.788732 l -1.88763,11.32578 h 20.26056 l 2.01347,-11.95499 c 2.391,-14.47183 -6.92131,-22.399874 -22.27403,-22.399874 -13.96846,0 -24.79088,6.41794 -27.30772,21.141454 l -2.39099,14.094304 c -2.01348,11.703307 2.13931,17.743723 13.71677,22.274035 10.06736,3.77526 11.19994,4.656154 9.94152,12.206674 l -1.76179,10.444887 c -0.75505,4.152786 -2.51684,5.788732 -5.28536,5.788732 -3.02021,0 -4.02694,-2.139314 -3.39773,-5.788732 l 1.88763,-11.325781 H 162.08513 Z M 276.97919,-42.157071 275.34324,-100.6736 H 252.69168 L 236.58391,0 h 19.37966 L 264.26915,-52.601957 264.89836,0 h 10.94825 L 292.70944,-52.098589 284.65555,0 h 19.25383 l 15.85609,-100.6736 h -22.65156 z m 73.9954,-62.165949 2.51684,-15.73025 h -13.46509 l -2.51684,15.73025 z m 17.61788,0 2.51684,-15.73025 h -13.46509 l -2.51684,15.73025 z M 336.88029,1.25842 c 15.98193,0 25.04256,-7.6763621 27.43356,-22.148192 l 9.3123,-57.509796 c 2.51684,-15.856092 -6.54378,-23.532452 -21.8965,-23.532452 -15.8561,0 -25.04256,7.67636 -27.30772,22.14819 l -9.06062,57.635637 c -2.51684,15.7302509 6.41794,23.406613 21.51898,23.406613 z m 2.01347,-16.107776 c -3.02021,0 -4.02694,-2.265156 -3.39773,-5.914574 l 9.31231,-59.145742 c 0.62921,-4.152786 2.39099,-5.914574 5.15952,-5.914574 3.02021,0 4.02694,2.265156 3.39773,5.914574 l -9.31231,59.145742 c -0.62921,4.152786 -2.39099,5.914574 -5.15952,5.914574 z m 69.21333,-87.082664 c -15.85609,0 -25.04256,7.67636 -27.30772,22.14819 l -9.06062,57.635637 c -2.51684,15.7302509 6.41794,23.406613 21.77067,23.406613 15.73025,0 24.91671,-7.6763621 27.18187,-22.148192 l 5.78873,-36.494181 h -24.53919 l -2.51684,16.107776 h 4.27863 l -3.27189,20.638089 c -0.62921,4.152786 -2.391,5.788732 -5.15953,5.788732 -3.0202,0 -4.02694,-2.139314 -3.39773,-5.788732 l 9.31231,-59.397426 c 0.62921,-4.152786 2.391,-5.788732 5.15952,-5.788732 3.02021,0 4.02694,2.013472 3.39773,5.788732 l -1.88763,12.332516 h 20.26057 l 1.88763,-10.69657 c 2.76852,-15.856092 -6.54379,-23.532452 -21.89651,-23.532452 z m 53.73476,1.25842 H 441.58128 L 425.47351,0 h 39.64023 l 2.89436,-18.24709 H 448.75428 Z M 492.42162,0 508.5294,-100.6736 H 488.14299 L 472.03521,0 Z m 11.32591,-20.889772 c -2.26515,14.4718299 6.92131,22.148192 22.39988,22.148192 15.35272,0 24.41335,-7.6763621 26.80435,-22.148192 l 2.89436,-17.869565 h -20.26056 l -2.89437,18.121249 c -0.62921,4.152786 -2.391,5.788732 -5.15952,5.788732 -3.02021,0 -4.02694,-2.139314 -3.39773,-5.788732 l 9.3123,-59.397426 c 0.62921,-4.152786 2.391,-5.788732 5.15953,-5.788732 3.02021,0 4.15278,2.139314 3.52357,5.788732 l -2.64268,16.862829 h 20.26056 l 2.64269,-16.611145 c 2.26515,-14.47183 -7.04716,-22.14819 -22.39988,-22.14819 -15.47857,0 -24.66503,7.67636 -26.93019,22.14819 z m 92.36826,-37.626759 h -8.6831 l 6.79547,-42.157069 H 573.84175 L 557.73398,0 h 20.3864 l 6.79547,-42.282913 h 8.6831 L 586.80348,0 h 20.3864 l 16.10778,-100.6736 H 602.91125 Z M 633.99447,0 636.88884,-18.498774 H 618.39006 L 615.4957,0 Z"
         id="text2"
         transform="matrix(1.3333333,0,0,1.3333333,104.22027,583.51813)"
         aria-label="IST‘S MÖGLICH." />
    </g>
  </g>
</svg>
