<?xml version="1.0" encoding="UTF-8" standalone="no"?>
<!-- Created with Inkscape (http://www.inkscape.org/) -->

<svg
   xmlns:dc="http://purl.org/dc/elements/1.1/"
   xmlns:cc="http://creativecommons.org/ns#"
   xmlns:rdf="http://www.w3.org/1999/02/22-rdf-syntax-ns#"
   xmlns:svg="http://www.w3.org/2000/svg"
   xmlns="http://www.w3.org/2000/svg"
   xmlns:sodipodi="http://sodipodi.sourceforge.net/DTD/sodipodi-0.dtd"
   xmlns:inkscape="http://www.inkscape.org/namespaces/inkscape"
   version="1.1"
   id="svg2"
   xml:space="preserve"
   width="700.22668"
   height="699.32001"
   viewBox="0 0 700.22668 699.32001"
   sodipodi:docname="logo.svg"
   inkscape:version="0.92.5 (2060ec1f9f, 2020-04-08)"><metadata
     id="metadata8"><rdf:RDF><cc:Work
         rdf:about=""><dc:format>image/svg+xml</dc:format><dc:type
           rdf:resource="http://purl.org/dc/dcmitype/StillImage" /><dc:title></dc:title></cc:Work></rdf:RDF></metadata><defs
     id="defs6"><clipPath
       clipPathUnits="userSpaceOnUse"
       id="clipPath26"><path
         d="m 2121.35,3008.16 c 0,-41.21 34.48,-74.57 76.9,-74.57 42.49,0 76.95,33.36 76.95,74.57 0,4.02 -1.76,7.59 -2.37,11.36 -9.57,15.38 -36.21,27.34 -62.9,27.4 -22.27,0.15 -40.22,-8.73 -45.65,-14.54 -3.42,-3.26 -9.02,-3.26 -12.35,0 -0.39,0.23 -0.45,0.36 -0.51,0.5 -6.48,6.09 -0.6,14.97 -0.6,14.97 8.28,12.08 39.58,19.42 58.77,17.44 19.67,-2.25 39.53,-9.17 60.71,-33.88 -10.1,29.8 -38.03,51.44 -72.05,51.44 -42.42,0 -76.9,-33.49 -76.9,-74.69"
         id="path24"
         inkscape:connector-curvature="0" /></clipPath></defs><sodipodi:namedview
     pagecolor="#ffffff"
     bordercolor="#666666"
     borderopacity="1"
     objecttolerance="10"
     gridtolerance="10"
     guidetolerance="10"
     inkscape:pageopacity="0"
     inkscape:pageshadow="2"
     inkscape:window-width="1848"
     inkscape:window-height="1016"
     id="namedview4"
     showgrid="false"
     inkscape:zoom="0.33747068"
     inkscape:cx="350.11334"
     inkscape:cy="349.66"
     inkscape:window-x="1752"
     inkscape:window-y="27"
     inkscape:window-maximized="1"
     inkscape:current-layer="g10" /><g
     id="g10"
     inkscape:groupmode="layer"
     inkscape:label="ink_ext_XXXXXX"
     transform="matrix(1.3333333,0,0,-1.3333333,0,699.32)"><g
       id="g12"
       transform="scale(0.1)"><path
         d="m 3834.45,2858.58 c -34.46,20.27 -163.06,71.49 -303.85,72.52 133.1,-63.34 244.96,-178.42 242.88,-293.43 0,0 1.11,-26.45 -13.98,-10.04 -25.62,27.8 -81.07,71.24 -178.77,104.79 102.24,-103.8 225.12,-288.28 210.69,-398.62 0,0 -5.59,-26.5 -19.87,-7.41 -28.05,37.69 -80.34,116.17 -231.21,211.23 115.04,-158.24 167.55,-375.61 78.99,-506.01 0,0 -17.19,-28.75 -21.71,-1.39 -7.98,47.29 -36.82,132.23 -122.05,235.1 31.86,-117.29 26.95,-388.18 -61.56,-476.27 0,0 -19.55,-16.61 -19.14,5.45 0.93,41.22 6.53,121.93 -42.04,261.17 13.13,-181.94 -71.54,-350.68 -156.6,-402.13 0,0 -47.3,-29.05 -35.44,-2.45 8.26,18.44 22.86,69.56 28.08,132.32 -86.65,-138.17 -212.22,-229.42 -327.11,-236.03 0,0 -35.51,-3.05 -11.38,19.58 10.1,9.47 49.7,48.61 88.98,108.69 -95.13,-83.36 -224.5,-164 -311.68,-158.66 0,0 -25.64,3.52 -8.13,17.49 23.11,18.59 63.5,48.24 112.29,108.74 -90.77,-84.49 -227.67,-117.53 -337.96,-55.87 0,0 -22.92,11.87 0.98,16.77 14.72,3.05 93.73,14.48 162.62,75.66 -138.22,-66.8 -288.98,-73.22 -364.78,-35.44 0,0 -50.09,24.37 -20.48,28.01 16,2.1 50.97,10.9 92.84,27.57 -0.8,0.06 -2.01,0.59 -2.92,0.78 -148.92,-8.25 -276.4,3.11 -322.58,48.19 0,0 -30.87,29.55 -3.71,23.05 18.93,-4.53 80.56,-29.95 171.6,-9.35 14.73,3.31 28.69,7.83 42.27,12.69 -0.25,0.25 -0.55,0.47 -0.89,0.68 -140.72,15.93 -211.71,44.97 -251.88,84.45 0,0 -27.99,27.15 -1.53,19.32 18.42,-5.37 44.63,-4.48 85.87,-7.68 l 30.68,-2.21 c -70.13,45.14 -240.46,177.28 -350.43,452.87 -36.44,91.27 -194.75,123.28 -265.82,259.55 -1.6,-0.13 -3.06,-0.61 -4.61,-0.61 -49.45,0 -89.49,50.19 -89.49,111.98 0,61.89 40.04,112.07 89.49,112.07 18.04,0 34.68,-6.82 48.73,-18.31 128.03,23.97 230.87,101.08 289.01,206.68 35.4,67.98 71.42,131.26 110.4,189.41 -148.36,162.99 -253.73,203.4 -302.03,224.99 -22.17,9.83 3.42,20.33 3.42,20.33 91.1,29.51 253.56,-22.58 377.07,-85.55 -61.4,203.78 -26.62,411.41 49.19,501.51 0,0 47.34,57.22 44.08,18.24 -4.21,-50.38 12.47,-250.31 123.49,-395.71 0.33,0.13 0.61,0.3 0.91,0.42 -33.81,132.71 -14.22,284.3 75.23,351.23 0,0 18.99,15.99 15.58,-4.09 -8.03,-45.16 -6.9,-142.77 67.35,-280.49 7.6,133.24 55.52,324.48 139.03,384.86 0,0 22.03,13.44 18.06,-8.25 -8.81,-46.98 -32.54,-145.34 14.98,-338.62 77.59,223.16 228.51,356.38 356.46,399.9 0,0 78.27,20.08 50.02,-11.43 -37.03,-41.35 -134.69,-207 -131.3,-403.45 0.53,-0.07 0.91,-0.15 1.4,-0.21 31.37,120.82 142.08,218.42 270.32,205.25 0,0 23.31,-1.73 5.52,-14.23 -15.21,-10.69 -125.5,-77.97 -127.6,-222.93 166.9,162.36 377.89,240.5 532.02,201.66 0,0 43.28,-9.64 5.73,-27.55 -25.65,-12.19 -175.01,-87.85 -281.99,-233.52 107.93,63.58 238.21,90.2 325.41,41.21 0,0 22.39,-11.01 2.02,-15.45 -40.64,-8.78 -117.27,-39.88 -205.47,-128.27 150.95,42.55 342.5,64.5 436.13,11.91 0,0 25.76,-17.13 -0.85,-23.15 -44.06,-10.02 -126.35,-24.62 -250.67,-94.41 107.36,1.54 217.03,-13.93 270.66,-58.08 0,0 18.36,-17.74 -4.35,-18.84 -38.03,-1.81 -109.72,-2.65 -224.48,-43.22 169.11,-47.29 301.96,-147.38 342.54,-235.23 0,0 29.9,-62.77 -2.68,-43.73 m 1417.17,93.23 c -2.1,13.6 -36.57,25.74 -59.55,44.58 -78.33,64.81 -358.26,338 -909.12,320.24 -69.75,-2.19 -133.35,-8.69 -191.25,-18.44 117.38,37.72 178.12,60.28 213.43,74.27 42.7,16.82 323.87,112.36 475.16,602.17 12.9,41.82 49.4,142.73 40.23,150.43 -11.16,9.39 -105.68,-7.35 -201.24,-65.01 -95.86,-57.79 -417.88,-108.21 -456.17,-114.3 -22.47,-3.55 -117.05,10.55 -258.24,-62.98 159.14,162.04 328,392.45 373.48,716.02 21.64,155.14 12.41,218.34 5.71,217.92 -9.43,-0.61 -14.75,-0.74 -26.42,-4.12 -35.44,-10.46 -71.42,-40.1 -188.54,-117.84 -117.21,-77.7 -241.42,-163.75 -241.42,-163.75 0,0 42.53,422.46 29.33,432.29 -12.96,9.53 -254.87,7.26 -626.08,-402.7 0,0 42.17,351.16 -27.46,483.6 0,0 -19.31,95.9 -34.42,145.99 -7.6,25.12 -27.36,51.56 -30.65,49.26 -3.92,-2.61 -36.69,-8.04 -89.51,-68.08 -81.9,-92.95 -462.49,-206.85 -525.52,-695.2 -47.68,197.11 -148.91,460.7 -398.75,594.14 -141.02,137.01 -203.79,177.94 -211.03,174.38 -6.37,-3.18 -3.65,-64.08 -25.11,-201.23 -24.04,-153.76 -45.69,-202.43 -45.69,-202.43 0,0 -261.72,228.32 -268.58,235.03 -12.26,12.06 -171.85,-489.32 -125.02,-739.59 0,0 -82.89,63.72 -233.65,140.47 -171.17,87.24 -459.149,102.28 -457.134,88.82 3.438,-22.61 243.034,-486.8 343.834,-649.86 0,0 -645.416,110.03 -634.146,70 3.691,-13.16 19.183,-38.28 44.672,-145.15 0,0 -253.348,5.53 -250.059,-15.32 3.609,-23.24 192.078,-332.01 206.512,-348.91 0,0 -195.985,-37.52 -237.391,-39.73 -27.988,-1.58 130.961,-436.86 566.645,-545.47 65.828,-16.48 129.578,-28.62 190.316,-37.04 -142.824,2.63 -300.797,-26.86 -482.328,-93.59 0,0 -105.133,-40.58 -160.668,-84.29 C 290.105,2632.58 13.6289,2586.49 0.00390625,2546.52 6.41406,2517.19 337.789,2292.32 337.789,2292.32 c 0,0 -194.051,-93.99 -207.441,-111.67 -9.168,-12.31 -16.551,-23.23 -14.114,-26.7 2.274,-3.33 15.411,-18.71 49.024,-39.46 77.629,-47.77 768.609,-119.43 811.094,-102.45 42.548,16.73 -375.305,-448.96 -381.778,-683.59 0,0 68.418,-4.92 107.086,-8.02 29.664,-2.35 -125.93,-293.54 -97.726,-292.34 187.726,7.81 499.116,187.94 557.596,229.48 58.34,41.25 138.2,102.72 159.57,122.76 21.65,20.01 -136.27,-259.7 -71.64,-505.74 0,0 20.54,-190.918 21.64,-229.559 1,-38.371 55.71,-38.492 55.22,-64.152 -0.55,-31.52 152.22,119.519 224.59,177.672 72.3,57.961 170.71,169.98 218.22,243.969 47.56,73.73 5.18,-578.34 -14.17,-703.731 -6.31,-40.609 3.1,-44.84 9.57,-58.269 1.97,-4.122 69.52,51.011 90.91,65.14 31.88,20.981 361.45,460.512 382.23,570.449 0,0 175.65,-765.75 235.28,-847.7184 12.93,-17.75 23.71,-37.58982 32.68,-23.74216 17.45,27.27346 43.72,98.87156 63.46,104.76156 25.4,7.551 99.61,16.789 138.66,125.91 39.09,109.192 109.31,215.879 142.27,499.282 0,0 373.61,-472.403 422.21,-516.391 19.2,-17.512 120.75,150.008 165.44,419.008 44.8,269.133 -51.59,630.661 -112.47,643.041 0,0 -25.39,39.69 45.39,14.58 40.26,-14.41 195.79,-282 554.42,-485.262 60.31,-34.129 188.7,-34.738 189.4,-32.469 28.84,79.821 -252.58,810.051 -252.58,810.051 0,0 6.98,8.38 63.66,-14.61 56.56,-23.1 593.94,-367.74 919.99,-206.15 66.08,32.68 69.88,39.6 69.88,39.6 37.33,159.21 -249.8,460.18 -426.07,596.8 0,0 463.06,18.69 534.05,140.5 0,0 85.39,30.43 129.45,90.81 7.66,10.61 -49.83,115.43 -116.68,161.39 -174.91,120.17 -212.72,165.5 -212.72,165.5 0,0 48.81,58.59 119.47,80.59 70.57,21.97 298.91,161.52 237.9,230.33 0,0 73.47,63.35 70.86,79.89"
         style="fill:#fee80e;fill-opacity:1;fill-rule:nonzero;stroke:none"
         id="path14"
         inkscape:connector-curvature="0" /><path
         d="m 2121.35,3008.15 c 0,-41.21 34.48,-74.57 76.91,-74.57 42.48,0 76.92,33.36 76.92,74.57 0,4.02 -1.74,7.6 -2.35,11.38 -9.57,15.37 -36.23,27.34 -62.9,27.4 -22.26,0.13 -40.22,-8.73 -45.65,-14.54 -3.4,-3.26 -9.02,-3.26 -12.35,0 -0.38,0.23 -0.45,0.36 -0.51,0.49 -6.47,6.08 -0.59,14.94 -0.59,14.94 8.25,12.1 39.55,19.44 58.76,17.49 19.67,-2.28 39.53,-9.2 60.73,-33.89 -10.12,29.78 -38.02,51.42 -72.06,51.42 -42.43,0 -76.91,-33.46 -76.91,-74.69"
         style="fill:#f7e219;fill-opacity:1;fill-rule:nonzero;stroke:none"
         id="path16"
         inkscape:connector-curvature="0" /><path
         d="m 2121.35,3008.16 c 0,-41.21 34.48,-74.57 76.9,-74.57 42.49,0 76.95,33.36 76.95,74.57 0,4.02 -1.76,7.59 -2.37,11.36 -9.57,15.38 -36.21,27.34 -62.9,27.4 -22.27,0.15 -40.22,-8.73 -45.65,-14.54 -3.42,-3.26 -9.02,-3.26 -12.35,0 -0.39,0.23 -0.45,0.36 -0.51,0.5 -6.48,6.09 -0.6,14.97 -0.6,14.97 8.28,12.08 39.58,19.42 58.77,17.44 19.67,-2.25 39.53,-9.17 60.71,-33.88 -10.1,29.8 -38.03,51.44 -72.05,51.44 -42.42,0 -76.9,-33.49 -76.9,-74.69"
         style="fill:#f7e219;fill-opacity:1;fill-rule:nonzero;stroke:none"
         id="path18"
         inkscape:connector-curvature="0" /><g
         id="g20"><g
           id="g22"
           clip-path="url(#clipPath26)" /></g></g></g></svg>