<?xml version="1.0" encoding="UTF-8" standalone="no"?>
<!-- Created with Inkscape (http://www.inkscape.org/) -->

<svg
        xmlns:dc="http://purl.org/dc/elements/1.1/"
        xmlns:cc="http://creativecommons.org/ns#"
        xmlns:rdf="http://www.w3.org/1999/02/22-rdf-syntax-ns#"
        xmlns:svg="http://www.w3.org/2000/svg"
        xmlns="http://www.w3.org/2000/svg"
        xmlns:sodipodi="http://sodipodi.sourceforge.net/DTD/sodipodi-0.dtd"
        xmlns:inkscape="http://www.inkscape.org/namespaces/inkscape"
        width="200"
        height="199"
        viewBox="0 0 200 199"
        id="svg2"
        version="1.1"
        inkscape:version="0.91 r13725"
        sodipodi:docname="vintage-logo.svg">
    <defs
            id="defs4" />
    <sodipodi:namedview
            id="base"
            pagecolor="#ffffff"
            bordercolor="#666666"
            borderopacity="1.0"
            inkscape:pageopacity="0.0"
            inkscape:pageshadow="2"
            inkscape:zoom="0.57421875"
            inkscape:cx="774.50099"
            inkscape:cy="363.04239"
            inkscape:document-units="px"
            inkscape:current-layer="layer1"
            showgrid="false"
            inkscape:window-width="1920"
            inkscape:window-height="1017"
            inkscape:window-x="1672"
            inkscape:window-y="-8"
            inkscape:window-maximized="1"
            units="px" />
    <metadata
            id="metadata7">
        <rdf:RDF>
            <cc:Work
                    rdf:about="">
                <dc:format>image/svg+xml</dc:format>
                <dc:type
                        rdf:resource="http://purl.org/dc/dcmitype/StillImage" />
                <dc:title></dc:title>
            </cc:Work>
        </rdf:RDF>
    </metadata>
    <g
            inkscape:label="Ebene 1"
            inkscape:groupmode="layer"
            id="layer1"
            transform="translate(0,-853.36216)">
        <g
                id="g4154"
                transform="matrix(1.7178612,0,0,1.7178612,-989.45786,232.01483)">
            <ellipse
                    ry="38.312923"
                    rx="39.020683"
                    cy="422.91684"
                    cx="635.07886"
                    id="path4152"
                    style="opacity:1;fill:#5a4832;fill-opacity:1;stroke:none;stroke-width:1;stroke-linecap:round;stroke-linejoin:miter;stroke-miterlimit:4;stroke-dasharray:none;stroke-dashoffset:0;stroke-opacity:1" />
            <path
                    sodipodi:nodetypes="sssscccssssssscsccccsssssssssscsssscssssssccsscssccccccccsssscccssssssscsscssssssscssssssssscsssscc"
                    inkscape:connector-curvature="0"
                    id="rect4149"
                    d="m 647.94531,361.69531 c -2.38653,0 -9.35589,3.43431 -11.11719,5.47852 -1.25391,1.45534 -2.5279,2.08398 -2.83203,1.39648 -2.00935,-4.54226 -2.7282,-4.84931 -6.1289,-2.62109 -1.83094,1.19968 -3.88582,3.77815 -4.56641,5.73047 l -1.23633,3.54883 -5.70117,-2.51954 c -6.496,-2.87349 -7.34696,-2.33766 -8.65234,5.46094 -0.71543,4.27414 -0.98712,4.5184 -3.83008,3.4375 -4.45811,-1.69497 -5.39844,-1.4571 -5.39844,1.36133 0,2.04789 -0.57266,2.37976 -3.03515,1.76172 -1.66914,-0.41893 -4.11373,-0.41891 -5.4336,0 -2.14573,0.68103 -2.29193,1.45084 -1.37305,7.26367 0.56522,3.57557 2.18454,8.06327 3.59766,9.97461 l 2.57031,3.47656 -3.39843,0 c -3.24635,0 -11.65007,4.67425 -11.66797,6.49024 -0.005,0.47664 1.16486,1.69037 2.59961,2.69531 l 2.60937,1.82617 -2.62305,0.83203 c -3.11071,0.9873 -6.3457,6.72762 -6.3457,11.26172 0,2.80711 0.3174,3.06169 2.41797,1.9375 3.48597,-1.86563 6.02551,-1.73645 4.08203,0.20703 -2.53197,2.53196 -1.68101,4.51069 2.31641,5.38867 2.09892,0.461 3.61838,1.20911 3.375,1.66211 -3.03902,5.65642 -6.00013,13.05651 -5.44531,13.61133 0.38772,0.38771 4.66564,0.70508 9.50586,0.70508 8.16815,0 8.74431,0.17596 8.02343,2.44727 -1.10956,3.49591 1.92073,13.43554 4.09571,13.43554 0.9871,0 2.95386,-0.62042 4.37109,-1.3789 3.22004,-1.7233 4.71087,0.21282 4.73828,6.15039 0.0171,3.71561 0.31194,4.05825 2.83203,3.29687 1.54688,-0.46735 3.34688,-1.34875 4,-1.95898 1.87734,-1.75405 2.84164,-1.31993 3.61328,1.63086 0.6969,2.66493 0.82419,2.63059 4.52149,-1.23828 2.09065,-2.18768 3.80037,-4.54465 3.80273,-5.24024 10e-4,-2.34659 2.09234,-1.27862 3.48828,1.78516 0.76378,1.67633 2.54533,3.66726 3.95899,4.42383 2.14151,1.1461 3.11165,0.83366 5.81445,-1.86914 2.07336,-2.07336 3.01348,-4.1191 2.60742,-5.67188 -0.81682,-3.12352 0.63823,-3.09933 3.4961,0.0586 1.94309,2.1471 2.44073,2.23509 3.63086,0.64649 1.20732,-1.61155 2.00233,-1.61661 6.3789,-0.043 2.75,0.98884 5.70313,1.82335 6.5625,1.85351 1.91052,0.0671 2.11405,-8.33239 0.31641,-13.06054 -0.85813,-2.25704 -0.8392,-3.02752 0.0586,-2.47266 0.71711,0.4432 4.09029,0.42354 7.4961,-0.0449 6.57012,-0.90363 8.26046,-3.5939 4.3164,-6.86719 -2.75321,-2.28495 -2.38613,-2.87506 3.45313,-5.57031 2.91399,-1.34502 5.4951,-2.57384 5.73633,-2.73047 0.56046,-0.36388 -2.03714,-3.62349 -6.19336,-7.77344 l -3.25391,-3.25 6.1543,-5.53125 6.15234,-5.5332 -3.83594,-2.42773 -3.83398,-2.42774 2.75,-3.9414 c 1.51289,-2.16741 3.31132,-4.32264 3.99609,-4.79102 0.68477,-0.46839 -0.27674,-1.54512 -2.13672,-2.39258 -3.13547,-1.42862 -3.25143,-1.74132 -1.58593,-4.2832 1.74305,-2.66023 1.59941,-2.78845 -4.85938,-4.33789 -3.66092,-0.87824 -8.05225,-1.24692 -9.75977,-0.81836 l -3.10546,0.7793 1.73242,-5.02735 c 1.05539,-3.0633 1.42259,-6.96499 0.93945,-9.98633 -0.87062,-5.44461 -1.22203,-5.72684 -4.125,-3.32422 -1.08538,0.89831 -3.59108,2.32368 -5.56641,3.16797 -3.45025,1.47471 -3.56702,1.41341 -3,-1.55273 0.97952,-5.12402 -0.56281,-6.18774 -5.79882,-4 -4.30405,1.79835 -4.60834,1.78404 -4.32618,-0.21875 0.29356,-2.08364 -1.25739,-10.2793 -1.94531,-10.2793 z m -5.79101,30.95703 c 0.65932,0.0758 1.85852,0.80868 3.07422,1.93555 1.62093,1.50248 4.9586,4.41992 7.41796,6.48242 2.45935,2.0625 4.49772,4.22527 4.5293,4.80664 0.0316,0.58137 1.21825,2.68762 2.63672,4.67969 1.41848,1.99206 2.21399,4.21129 1.76758,4.93359 -0.44641,0.72231 -0.0611,2.22496 0.85742,3.33789 1.31149,1.58903 1.33441,2.13587 0.10742,2.54883 -0.85937,0.28924 -1.5625,1.60417 -1.5625,2.92188 0,1.3177 0.70313,2.41376 1.5625,2.43555 0.85938,0.0218 0.0156,1.19295 -1.875,2.60351 -1.89063,1.41056 -3.44212,3.50265 -3.44922,4.64844 -0.007,1.14578 -1.44975,3.20898 -3.20508,4.58398 -1.75531,1.375 -4.28,3.48437 -5.61132,4.6875 -1.33133,1.20312 -3.1393,2.1875 -4.01758,2.1875 -0.87827,0 -2.7064,0.75883 -4.0625,1.6875 -4.13891,2.8344 -8.98602,3.5408 -9.79688,1.42774 -0.39385,-1.02635 -1.79367,-1.86524 -3.11132,-1.86524 -5.25049,0 -17.6836,-7.66658 -17.6836,-10.90429 0,-0.92615 -0.94127,-3.12103 -2.0918,-4.87696 -2.41008,-3.67826 -3.04414,-12.43486 -1.16601,-16.09375 0.70579,-1.375 1.15447,-3.13877 0.99805,-3.91992 -0.15641,-0.78115 0.56985,-1.74804 1.61328,-2.14844 1.04342,-0.4004 1.89648,-1.56071 1.89648,-2.57812 0,-3.72742 5.91665,-8.17419 17.5,-13.15235 1.03125,-0.4432 4.29385,-0.46033 7.25,-0.0371 2.95615,0.42324 5.63832,0.34232 5.96094,-0.17969 0.0806,-0.13051 0.24116,-0.17762 0.46094,-0.15235 z"
                    style="opacity:1;fill:#ffbe00;fill-opacity:1;stroke:none;stroke-width:1;stroke-linecap:round;stroke-linejoin:miter;stroke-miterlimit:4;stroke-dasharray:none;stroke-dashoffset:0;stroke-opacity:1" />
        </g>
    </g>
</svg>