<?xml version="1.0" encoding="UTF-8" standalone="no"?>
<!-- Created with Inkscape (http://www.inkscape.org/) -->

<svg
   width="74.374001mm"
   height="70mm"
   viewBox="0 0 74.374001 70"
   version="1.1"
   id="svg20273"
   inkscape:version="1.2 (dc2aedaf03, 2022-05-15)"
   sodipodi:docname="Claim-Vorlage.svg"
   xmlns:inkscape="http://www.inkscape.org/namespaces/inkscape"
   xmlns:sodipodi="http://sodipodi.sourceforge.net/DTD/sodipodi-0.dtd"
   xmlns="http://www.w3.org/2000/svg"
   xmlns:svg="http://www.w3.org/2000/svg">
  <sodipodi:namedview
     id="namedview20275"
     pagecolor="#505050"
     bordercolor="#eeeeee"
     borderopacity="1"
     inkscape:showpageshadow="0"
     inkscape:pageopacity="0"
     inkscape:pagecheckerboard="0"
     inkscape:deskcolor="#505050"
     inkscape:document-units="mm"
     showgrid="false"
     inkscape:zoom="0.5946522"
     inkscape:cx="-15.975725"
     inkscape:cy="-69.788693"
     inkscape:window-width="1920"
     inkscape:window-height="1043"
     inkscape:window-x="1920"
     inkscape:window-y="0"
     inkscape:window-maximized="1"
     inkscape:current-layer="layer1" />
  <defs
     id="defs20270" />
  <g
     inkscape:label="Layer 1"
     inkscape:groupmode="layer"
     id="layer1">
    <path
       id="path4256-6"
       style="fill:#008fcf;fill-opacity:1;stroke:none;stroke-width:7;stroke-linecap:round;stroke-opacity:0.977432;paint-order:stroke markers fill"
       d="M 9.2593519,-1.2005939e-4 V 23.333239 H 1.0542968e-5 V 46.666684 H 74.37447 V 23.333239 -1.2005939e-4 Z" />
    <g
       aria-label="SICHER"
       transform="matrix(1.8007457,0,0,1.8007457,2435.5156,1367.2135)"
       id="text4262-2"
       style="font-size:15.875px;font-family:'Helvetica Inserat';-inkscape-font-specification:'Helvetica Inserat';letter-spacing:0px;word-spacing:0px;white-space:pre;fill:#ffffff;stroke-width:0.146929">
      <path
         d="m -1342.6923,-746.36872 q -1.27,0 -1.9209,-0.71437 -0.6508,-0.73025 -0.6508,-2.07963 v -0.635 h 1.651 v 0.762 q 0,1.0795 0.9048,1.0795 0.4445,0 0.6668,-0.254 0.2381,-0.26987 0.2381,-0.85725 0,-0.6985 -0.3175,-1.22237 -0.3175,-0.53975 -1.1747,-1.28588 -1.0795,-0.9525 -1.5082,-1.7145 -0.4286,-0.77787 -0.4286,-1.74625 0,-1.31762 0.6668,-2.032 0.6667,-0.73025 1.9367,-0.73025 1.2541,0 1.8891,0.73025 0.6509,0.71438 0.6509,2.06375 v 0.46038 h -1.651 v -0.5715 q 0,-0.5715 -0.2222,-0.8255 -0.2223,-0.26988 -0.6509,-0.26988 -0.8731,0 -0.8731,1.06363 0,0.60325 0.3175,1.12712 0.3333,0.52388 1.1906,1.27 1.0954,0.9525 1.5081,1.73038 0.4128,0.77787 0.4128,1.82562 0,1.36525 -0.6827,2.0955 -0.6667,0.73025 -1.9526,0.73025 z"
         style="-inkscape-font-specification:'Bebas Neue'"
         id="path21119" />
      <path
         d="m -1339.0569,-757.63997 h 1.7462 v 11.1125 h -1.7462 z"
         style="-inkscape-font-specification:'Bebas Neue'"
         id="path21121" />
      <path
         d="m -1333.5483,-746.36872 q -1.2541,0 -1.9209,-0.71437 -0.6508,-0.71438 -0.6508,-2.01613 v -5.969 q 0,-1.30175 0.6508,-2.01612 0.6668,-0.71438 1.9209,-0.71438 1.2541,0 1.905,0.71438 0.6668,0.71437 0.6668,2.01612 v 1.17475 h -1.651 v -1.28587 q 0,-1.03188 -0.8732,-1.03188 -0.8731,0 -0.8731,1.03188 v 6.20712 q 0,1.016 0.8731,1.016 0.8732,0 0.8732,-1.016 v -1.69862 h 1.651 v 1.57162 q 0,1.30175 -0.6668,2.01613 -0.6509,0.71437 -1.905,0.71437 z"
         style="-inkscape-font-specification:'Bebas Neue'"
         id="path21123" />
      <path
         d="m -1329.9288,-757.63997 h 1.7462 v 4.52438 h 1.8733 v -4.52438 h 1.7462 v 11.1125 h -1.7462 v -5.00062 h -1.8733 v 5.00062 h -1.7462 z"
         style="-inkscape-font-specification:'Bebas Neue'"
         id="path21125" />
      <path
         d="m -1323.2613,-757.63997 h 4.7625 v 1.5875 h -3.0163 v 2.93688 h 2.3971 v 1.5875 h -2.3971 v 3.41312 h 3.0163 v 1.5875 h -4.7625 z"
         style="-inkscape-font-specification:'Bebas Neue'"
         id="path21127" />
      <path
         d="m -1317.4987,-757.63997 h 2.5876 q 1.3494,0 1.9685,0.635 0.6191,0.61913 0.6191,1.92088 v 0.68262 q 0,1.73038 -1.143,2.19075 v 0.0317 q 0.635,0.1905 0.889,0.77788 0.2699,0.58737 0.2699,1.57162 v 1.95263 q 0,0.47625 0.032,0.77787 0.032,0.28575 0.1587,0.5715 h -1.778 q -0.095,-0.26987 -0.127,-0.508 -0.032,-0.23812 -0.032,-0.85725 v -2.032 q 0,-0.762 -0.254,-1.06362 -0.2382,-0.30163 -0.8414,-0.30163 h -0.6033 v 4.7625 h -1.7462 z m 2.3812,4.7625 q 0.5239,0 0.7779,-0.26987 0.2699,-0.26988 0.2699,-0.90488 v -0.85725 q 0,-0.60325 -0.2223,-0.87312 -0.2063,-0.26988 -0.6667,-0.26988 h -0.7938 v 3.175 z"
         style="-inkscape-font-specification:'Bebas Neue'"
         id="path21129" />
    </g>
    <g
       aria-label="RADELN."
       transform="matrix(1.8007457,0,0,1.8007457,2424.624,1390.0434)"
       id="text4268-9"
       style="font-size:15.875px;font-family:'Helvetica Inserat';-inkscape-font-specification:'Helvetica Inserat';letter-spacing:0px;word-spacing:0px;white-space:pre;fill:#ffffff;stroke-width:0.146929">
      <path
         d="m -1344.9624,-757.63997 h 2.5876 q 1.3494,0 1.9685,0.635 0.6191,0.61913 0.6191,1.92088 v 0.68262 q 0,1.73038 -1.143,2.19075 v 0.0317 q 0.635,0.1905 0.889,0.77788 0.2699,0.58737 0.2699,1.57162 v 1.95263 q 0,0.47625 0.032,0.77787 0.032,0.28575 0.1587,0.5715 h -1.778 q -0.095,-0.26987 -0.127,-0.508 -0.032,-0.23812 -0.032,-0.85725 v -2.032 q 0,-0.762 -0.254,-1.06362 -0.2382,-0.30163 -0.8414,-0.30163 h -0.6033 v 4.7625 h -1.7462 z m 2.3812,4.7625 q 0.5239,0 0.7779,-0.26987 0.2699,-0.26988 0.2699,-0.90488 v -0.85725 q 0,-0.60325 -0.2223,-0.87312 -0.2063,-0.26988 -0.6667,-0.26988 h -0.7938 v 3.175 z"
         style="-inkscape-font-specification:'Bebas Neue'"
         id="path21090" />
      <path
         d="m -1337.2154,-757.63997 h 2.3654 l 1.8097,11.1125 h -1.7462 l -0.3175,-2.20662 v 0.0317 h -1.9844 l -0.3175,2.17487 h -1.6193 z m 1.905,7.4295 -0.7779,-5.49275 h -0.032 l -0.762,5.49275 z"
         style="-inkscape-font-specification:'Bebas Neue'"
         id="path21092" />
      <path
         d="m -1332.1989,-757.63997 h 2.667 q 1.3017,0 1.9526,0.6985 0.6509,0.6985 0.6509,2.04788 v 5.61975 q 0,1.34937 -0.6509,2.04787 -0.6509,0.6985 -1.9526,0.6985 h -2.667 z m 2.6352,9.525 q 0.4287,0 0.6509,-0.254 0.2381,-0.254 0.2381,-0.8255 v -5.7785 q 0,-0.5715 -0.2381,-0.8255 -0.2222,-0.254 -0.6509,-0.254 h -0.889 v 7.9375 z"
         style="-inkscape-font-specification:'Bebas Neue'"
         id="path21094" />
      <path
         d="m -1325.7537,-757.63997 h 4.7625 v 1.5875 h -3.0163 v 2.93688 h 2.3972 v 1.5875 h -2.3972 v 3.41312 h 3.0163 v 1.5875 h -4.7625 z"
         style="-inkscape-font-specification:'Bebas Neue'"
         id="path21096" />
      <path
         d="m -1319.9911,-757.63997 h 1.7463 v 9.525 h 2.8733 v 1.5875 h -4.6196 z"
         style="-inkscape-font-specification:'Bebas Neue'"
         id="path21098" />
      <path
         d="m -1314.5301,-757.63997 h 2.1908 l 1.6986,6.65163 h 0.032 v -6.65163 h 1.5558 v 11.1125 h -1.7939 l -2.0955,-8.11212 h -0.032 v 8.11212 h -1.5558 z"
         style="-inkscape-font-specification:'Bebas Neue'"
         id="path21100" />
      <path
         d="m -1307.7515,-748.21022 h 1.6828 v 1.68275 h -1.6828 z"
         style="-inkscape-font-specification:'Bebas Neue'"
         id="path21102" />
    </g>
    <path
       id="rect4270-1"
       style="fill:#e2ba00;stroke-width:7;stroke-linecap:round;stroke-opacity:0.977432;paint-order:stroke markers fill"
       d="M 4.8526133e-5,46.666515 H 65.602008 V 69.99988 H 4.8526133e-5 Z" />
    <g
       aria-label="JETZT!"
       transform="matrix(1.8007457,0,0,1.8007457,2429.1024,1412.5875)"
       id="text4276-2"
       style="font-size:15.875px;font-family:'Helvetica Inserat';-inkscape-font-specification:'Helvetica Inserat';letter-spacing:0px;word-spacing:0px;white-space:pre;fill:#ffffff;stroke-width:0.146929">
      <path
         d="m -1344.5497,-746.46397 q -0.4762,0 -0.8096,-0.0635 v -1.5875 q 0.254,0.0635 0.5715,0.0635 0.5239,0 0.7779,-0.254 0.254,-0.26987 0.254,-0.80962 v -8.52488 h 1.7462 v 8.47725 q 0,1.36525 -0.635,2.032 -0.6191,0.66675 -1.905,0.66675 z"
         style="-inkscape-font-specification:'Bebas Neue'"
         id="path21063" />
      <path
         d="m -1340.7555,-757.63997 h 4.7625 v 1.5875 h -3.0163 v 2.93688 h 2.3971 v 1.5875 h -2.3971 v 3.41312 h 3.0163 v 1.5875 h -4.7625 z"
         style="-inkscape-font-specification:'Bebas Neue'"
         id="path21065" />
      <path
         d="m -1333.6277,-756.05247 h -1.8256 v -1.5875 h 5.3975 v 1.5875 h -1.8256 v 9.525 h -1.7463 z"
         style="-inkscape-font-specification:'Bebas Neue'"
         id="path21067" />
      <path
         d="m -1329.5637,-748.08322 3.2385,-7.96925 h -3.0798 v -1.5875 h 4.953 v 1.55575 l -3.2385,7.96925 h 3.2385 v 1.5875 h -5.1117 z"
         style="-inkscape-font-specification:'Bebas Neue'"
         id="path21069" />
      <path
         d="m -1322.1025,-756.05247 h -1.8256 v -1.5875 h 5.3975 v 1.5875 h -1.8256 v 9.525 h -1.7463 z"
         style="-inkscape-font-specification:'Bebas Neue'"
         id="path21071" />
      <path
         d="m -1317.5464,-753.00447 v -4.6355 h 1.7463 v 4.6355 l -0.2223,3.54013 h -1.3017 z m 0.032,4.79425 h 1.6827 v 1.68275 h -1.6827 z"
         style="-inkscape-font-specification:'Bebas Neue'"
         id="path21073" />
    </g>
  </g>
</svg>
