<?xml version="1.0" encoding="utf-8"?>
<!-- Generator: Adobe Illustrator 16.0.0, SVG Export Plug-In . SVG Version: 6.00 Build 0)  -->
<!DOCTYPE svg PUBLIC "-//W3C//DTD SVG 1.1//EN" "http://www.w3.org/Graphics/SVG/1.1/DTD/svg11.dtd">
<svg version="1.1" id="Ebene_1" xmlns="http://www.w3.org/2000/svg" xmlns:xlink="http://www.w3.org/1999/xlink" x="0px" y="0px"
	 width="708.66px" height="708.66px" viewBox="0 0 708.66 708.66" enable-background="new 0 0 708.66 708.66" xml:space="preserve">
<g>
	<defs>
		<rect id="SVGID_1_" width="708.661" height="708.661"/>
	</defs>
	<clipPath id="SVGID_2_">
		<use xlink:href="#SVGID_1_"  overflow="visible"/>
	</clipPath>
	<path clip-path="url(#SVGID_2_)" fill="#FFFFFF" d="M354.331,708.661c195.69,0,354.325-158.639,354.325-354.326
		C708.656,158.641,550.021,0,354.331,0C158.638,0-0.003,158.641-0.003,354.335C-0.003,550.022,158.638,708.661,354.331,708.661"/>
</g>
<g>
	<path fill="#008FCF" d="M164.976,492.849c19.919,26.674,45.471,48.907,74.881,64.912
		C215.204,541.607,188.872,519.572,164.976,492.849"/>
	<path fill="#008FCF" d="M349.557,125.138c-126.956,0-230.239,103.284-230.239,230.238c0,5.979,0.302,11.886,0.75,17.751
		c3.564-19.643,8.017-38.547,10.072-43.541c5.591-13.567,13.373-28.234,23.678-42.174c1.48-4.264,3.054-8.505,4.823-12.688
		c10.437-24.673,25.375-46.833,44.403-65.858c19.026-19.028,41.187-33.969,65.859-44.403c25.546-10.806,52.683-16.286,80.653-16.286
		c27.97,0,55.105,5.479,80.652,16.286c24.675,10.434,46.83,25.375,65.858,44.403c19.027,19.025,33.966,41.185,44.402,65.858
		c10.808,25.546,16.286,52.683,16.286,80.652c0,27.971-5.479,55.106-16.286,80.652c-10.437,24.675-25.375,46.833-44.402,65.86
		c-19.028,19.028-41.184,33.968-65.858,44.403c-25.547,10.806-52.683,16.285-80.652,16.285c-3.488,0-6.959-0.086-10.42-0.256
		c-0.688,0.195-1.402,0.327-2.165,0.315c-34.086-0.469-13.049,15.1-11.325,21.737c7.861,0.815,15.837,1.242,23.91,1.242
		c126.953,0,230.239-103.284,230.239-230.24C579.796,228.422,476.51,125.138,349.557,125.138"/>
	<path fill="#008FCF" d="M548.697,355.376c0-109.806-89.335-199.14-199.141-199.14c-78.36,0-146.267,45.509-178.75,111.469
		c8.209-8.167,17.496-15.681,27.987-22.045c5.372-7.361,11.292-14.347,17.754-20.924l-0.934-0.934l3.146-3.146l0.952,0.954
		c10.658-10.354,22.365-19.315,35.008-26.789l-0.672-1.167l3.851-2.224l0.681,1.178c5.947-3.326,12.067-6.369,18.396-9.043
		c7.309-3.093,14.775-5.643,22.354-7.761l-0.354-1.322l4.298-1.151l0.34,1.275c14.206-3.603,28.83-5.469,43.719-5.643v-1.375h4.45
		v1.375c14.894,0.173,29.523,2.04,43.731,5.646l0.313-1.161l4.297,1.151l-0.322,1.208c7.57,2.117,15.034,4.667,22.338,7.757
		c6.347,2.683,12.484,5.736,18.447,9.073l0.566-0.981l3.854,2.226l-0.561,0.967c12.66,7.492,24.383,16.473,35.053,26.851
		l0.723-0.722l3.145,3.146l-0.709,0.708c10.439,10.637,19.484,22.332,27.034,34.97l0.678-0.392l2.222,3.854l-0.687,0.397
		c3.49,6.178,6.679,12.541,9.468,19.132c3.002,7.101,5.491,14.351,7.576,21.703l0.593-0.159l1.152,4.297l-0.538,0.145
		c3.674,14.267,5.595,28.957,5.803,43.917h0.477v4.448h-0.452c-0.138,14.982-2.003,29.697-5.611,43.99l0.204,0.056l-1.153,4.296
		l-0.237-0.063c-2.13,7.641-4.697,15.168-7.813,22.537c-2.693,6.365-5.758,12.519-9.105,18.5l0.098,0.056l-2.223,3.854l-0.088-0.051
		c-7.539,12.731-16.584,24.517-27.042,35.232l0.032,0.034l-1.363,1.36c-0.092,0.095-0.176,0.192-0.27,0.284
		c-0.093,0.093-0.192,0.18-0.282,0.271l-1.23,1.229l-0.029-0.028c-16.78,16.409-36.177,29.372-57.729,38.488
		c-22.989,9.726-47.412,14.656-72.581,14.656c-0.659,0-1.31-0.042-1.968-0.049h-0.714v-0.018c-0.068,0-0.134-0.006-0.201-0.006
		c0.709,4.56,0.424,9.029-0.729,12.651c1.207,0.024,2.399,0.094,3.612,0.094C459.362,554.519,548.697,465.184,548.697,355.376"/>
	<path fill="#008FCF" d="M351.781,310.476V168.963c-0.745-0.008-1.482-0.054-2.225-0.054c-0.744,0-1.481,0.046-2.226,0.054v136.968
		C348.871,307.482,350.352,308.996,351.781,310.476"/>
	<path fill="#008FCF" d="M351.781,168.963v-1.375h-4.45v1.375c0.744-0.008,1.481-0.054,2.226-0.054
		C350.299,168.91,351.036,168.956,351.781,168.963"/>
	<path fill="#008FCF" d="M335.787,294.685l-32.175-120.079c-1.438,0.366-2.856,0.798-4.284,1.196l30.334,113.215
		C331.771,290.93,333.807,292.818,335.787,294.685"/>
	<path fill="#008FCF" d="M303.271,173.331l-4.297,1.151l0.354,1.322c1.427-0.4,2.847-0.833,4.284-1.196L303.271,173.331
		L303.271,173.331z"/>
	<path fill="#008FCF" d="M277.284,225.003l-18.704-32.395c-1.294,0.726-2.583,1.459-3.858,2.212l17.421,30.176
		C273.833,224.963,275.562,224.988,277.284,225.003"/>
	<path fill="#008FCF" d="M257.898,191.431l-3.85,2.224l0.673,1.167c1.275-0.754,2.563-1.488,3.857-2.212L257.898,191.431
		L257.898,191.431z"/>
	<path fill="#008FCF" d="M229.795,231.692l-10.083-10.083c-0.665,0.645-1.354,1.258-2.009,1.916
		c-0.396,0.395-0.765,0.812-1.155,1.211l8.536,8.537C226.64,232.727,228.201,232.189,229.795,231.692"/>
	<path fill="#008FCF" d="M219.712,221.609l-0.952-0.952l-3.145,3.145l0.933,0.935c0.391-0.401,0.76-0.817,1.155-1.212
		C218.358,222.867,219.047,222.255,219.712,221.609"/>
	<path fill="#008FCF" d="M351.324,483.031l-4.449-1.981v60.729c0.241,0.003,0.477,0.013,0.716,0.018h3.733V483.031L351.324,483.031z
		"/>
	<path fill="#008FCF" d="M346.875,541.797h0.714c-0.237-0.005-0.475-0.015-0.714-0.018V541.797L346.875,541.797z"/>
	<path fill="#008FCF" d="M395.384,536.056l4.299-1.152l-14.365-53.61c-1.211,1.023-2.492,1.983-3.852,2.825L395.384,536.056
		L395.384,536.056z"/>
	<path fill="#008FCF" d="M440.757,517.957l3.851-2.225l-46.017-79.706c-0.376,2.35-0.742,4.685-1.097,6.998L440.757,517.957
		L440.757,517.957z"/>
	<path fill="#008FCF" d="M402.854,411.69l77.013,77.011c0.415-0.408,0.847-0.79,1.257-1.201l0.555-0.555
		c0.456-0.456,0.881-0.933,1.331-1.395l-79.104-79.105C403.55,408.171,403.201,409.915,402.854,411.69"/>
	<path fill="#008FCF" d="M483.042,485.585l-0.032-0.034c-0.45,0.462-0.875,0.939-1.331,1.395L483.042,485.585L483.042,485.585z"/>
	<path fill="#008FCF" d="M479.896,488.729l1.228-1.229c-0.41,0.411-0.842,0.793-1.257,1.199L479.896,488.729L479.896,488.729z"/>
	<path fill="#008FCF" d="M407.386,391.042l102.666,59.276c0.754-1.275,1.486-2.565,2.213-3.858l-103.704-59.875
		C408.167,388.016,407.775,389.511,407.386,391.042"/>
	<path fill="#008FCF" d="M510.14,450.369l2.223-3.854l-0.098-0.056c-0.727,1.293-1.459,2.582-2.213,3.858L510.14,450.369
		L510.14,450.369z"/>
	<path fill="#008FCF" d="M412.707,374.215l116.476,31.208c0.396-1.43,0.824-2.851,1.187-4.285l-115.631-30.983
		C414.058,371.275,413.381,372.64,412.707,374.215"/>
	<path fill="#008FCF" d="M529.423,405.486l1.15-4.296l-0.204-0.056c-0.364,1.438-0.79,2.86-1.187,4.288L529.423,405.486
		L529.423,405.486z"/>
	<path fill="#008FCF" d="M414.712,357.145H535.98c0.006-0.588,0.042-1.178,0.042-1.769c0-0.897-0.053-1.786-0.066-2.68h-125.67
		C412.068,354.067,413.573,355.552,414.712,357.145"/>
	<path fill="#008FCF" d="M535.98,357.145h0.45v-4.448h-0.471c0.01,0.894,0.063,1.783,0.063,2.68
		C536.022,355.967,535.986,356.557,535.98,357.145"/>
	<path fill="#008FCF" d="M395.207,344.938l134.946-36.158c-0.371-1.436-0.803-2.855-1.207-4.283l-141.433,37.897
		C389.892,343.095,392.516,343.941,395.207,344.938"/>
	<path fill="#008FCF" d="M530.691,308.635l-1.152-4.297l-0.593,0.159c0.404,1.426,0.836,2.847,1.207,4.282L530.691,308.635
		L530.691,308.635z"/>
	<path fill="#008FCF" d="M377.648,339.903c0,0,0.601,0.118,1.605,0.344l132.648-76.585c-0.73-1.293-1.453-2.587-2.213-3.859
		l-134.13,77.438C376.924,338.947,377.648,339.903,377.648,339.903"/>
	<path fill="#008FCF" d="M512.593,263.265l-2.226-3.854l-0.678,0.39c0.76,1.273,1.484,2.568,2.213,3.861L512.593,263.265
		L512.593,263.265z"/>
	<path fill="#008FCF" d="M373.176,334.313l109.479-109.48c-0.424-0.43-0.82-0.881-1.246-1.308c-0.624-0.625-1.279-1.208-1.912-1.824
		L370.313,330.885C371.399,332.166,372.323,333.281,373.176,334.313"/>
	<path fill="#008FCF" d="M482.655,224.833l0.709-0.708l-3.145-3.147l-0.723,0.724c0.633,0.615,1.288,1.197,1.912,1.822
		C481.839,223.953,482.235,224.401,482.655,224.833"/>
	<path fill="#008FCF" d="M367.681,327.812l76.764-132.961c-1.275-0.753-2.566-1.487-3.859-2.211L364.583,324.28
		C365.678,325.517,366.715,326.698,367.681,327.812"/>
	<path fill="#008FCF" d="M445.002,193.882l-3.851-2.224l-0.566,0.981c1.297,0.725,2.584,1.459,3.859,2.211L445.002,193.882
		L445.002,193.882z"/>
	<path fill="#008FCF" d="M361.064,320.367L399.8,175.808c-1.43-0.399-2.85-0.833-4.287-1.198l-38.015,141.881
		C358.741,317.828,359.927,319.119,361.064,320.367"/>
	<path fill="#008FCF" d="M400.122,174.6l-4.297-1.151l-0.313,1.161c1.438,0.365,2.857,0.799,4.287,1.198L400.122,174.6
		L400.122,174.6z"/>
	<path fill-rule="evenodd" clip-rule="evenodd" fill="#E3BB00" d="M259.535,239.678c4.535,2.038,21.808,9.576,30.817,21.323
		c12.147,15.838,11.115,32.64,13.593,34.93c4.408,4.035,61.198,47.057,61.198,47.057c-11.167-25.054-49.627-34.168-53.052-71.936
		c-2.393-2.863-12.718-22.078-24.91-33.785C285.972,236.155,264.371,237.882,259.535,239.678"/>
	<path fill-rule="evenodd" clip-rule="evenodd" fill="#E3BB00" d="M268.025,262.057c5.161,2.441,10.228,5.583,15.107,9.666
		c7.13,5.96,11.729,17.029,14.027,23.833l0.751,0.377c0,0-1.22-20.221-14.545-35.329h-0.047c-2.534-2.908-5.489-5.583-8.961-7.929
		c-7.507-5.019-15.717-8.632-24.115-10.933h-0.047c-13.698,3.331-26.883,8.586-39.223,15.577c0.095,0,0.143-0.045,0.234-0.045
		c0.376-0.048,0.705-0.096,1.08-0.142c1.597-0.281,3.144-0.518,4.691-0.658c1.174-0.186,2.299-0.326,3.472-0.423
		c0.704-0.094,1.407-0.185,2.112-0.234c1.924-0.187,3.799-0.328,5.677-0.422c2.156-0.14,4.269-0.187,6.38-0.187
		c1.454,0,2.908,0.047,4.363,0.095h0.142c1.031,0.045,2.064,0.092,3.049,0.186c0.234,0,0.423,0.047,0.657,0.047
		c0.47,0.049,0.891,0.095,1.36,0.141c1.079,0.095,2.111,0.234,3.145,0.375c0.375,0.049,0.702,0.097,1.078,0.141
		c0.938,0.141,1.876,0.331,2.816,0.471c0.937,0.188,1.923,0.374,2.859,0.61c0.846,0.185,1.736,0.422,2.581,0.657
		c1.033,0.281,2.019,0.563,3.05,0.889c0.705,0.188,1.407,0.423,2.065,0.705c0.798,0.28,1.547,0.562,2.345,0.844
		c0.142,0.049,0.328,0.141,0.47,0.189c0.093,0.046,0.14,0.046,0.234,0.092c0.046,0,0.094,0.049,0.141,0.095
		c0.797,0.282,1.595,0.657,2.394,1.031c0.14,0.048,0.327,0.096,0.468,0.189C267.885,262.012,267.978,262.012,268.025,262.057"/>
	<path fill-rule="evenodd" clip-rule="evenodd" fill="#E3BB00" d="M180.618,279.605c16.938-4.552,33.078-7.977,49.313-5.773
		c0.562,0.048,1.126,0.142,1.688,0.236c16.887,2.721,35.044,8.914,48.041,14.03c-7.271-11.309-15.482-18.676-24.865-23.365
		c-0.188-0.095-0.374-0.19-0.611-0.282c-1.171-0.563-2.392-1.127-3.657-1.598c-0.377-0.141-0.703-0.281-1.08-0.422
		c-0.376-0.14-0.749-0.28-1.126-0.421c-0.235-0.095-0.516-0.188-0.751-0.235c-0.188-0.047-0.376-0.14-0.563-0.187
		c-0.282-0.094-0.61-0.187-0.893-0.281c-0.328-0.094-0.609-0.187-0.938-0.282c-0.328-0.141-0.704-0.235-1.077-0.327
		c-0.705-0.235-1.41-0.376-2.113-0.563c-0.14,0-0.279-0.049-0.422-0.095c-0.891-0.235-1.735-0.423-2.627-0.611
		c-1.078-0.187-2.157-0.373-3.284-0.562c-0.984-0.142-2.018-0.282-3.049-0.423c-0.799-0.093-1.598-0.187-2.44-0.282
		c-1.267-0.141-2.535-0.234-3.847-0.328c-0.421,0-0.797-0.047-1.175-0.093h-0.187c-0.468,0-0.892,0-1.361-0.047h-0.515
		c-3.613-0.187-7.367-0.187-11.262-0.094h-1.498c-9.809,5.536-18.907,12.199-27.495,19.892
		C182.074,278.197,181.369,278.807,180.618,279.605"/>
	<path fill-rule="evenodd" clip-rule="evenodd" fill="#E3BB00" d="M319.523,331.253l-26.271,3.931c0,0,10.314,4.567,15.439,5.576
		c5.125,1.009,7.813-0.733,10.293-0.094c2.482,0.638,11.944,5.272,11.944,5.272s-8.38-7.364-8.69-8.661
		c-0.312-1.299-0.34-2.572-0.34-2.572l1.636-4.233L319.523,331.253L319.523,331.253z"/>
	<path fill-rule="evenodd" clip-rule="evenodd" fill="#E3BB00" d="M384.82,356.546l-3.862,0.65
		c-3.859,0.656-9.817,4.373-9.989,6.335c-0.17,1.958,9.78,10.731,10.868,12.8c1.087,2.071,1.541,14.542-8.053,24.44
		c-13.247,13.667-39.311,7.776-56.279,18.686c19.861,2.037,40.345-6.829,60.191-3.663c7.783,1.242,7.307,9.952,7.307,9.952
		s4.33-10.92,5.535-21.548c1.203-10.621,1.227-17.396,1.227-17.396l11.079-20.497L384.82,356.546L384.82,356.546z"/>
	<path fill-rule="evenodd" clip-rule="evenodd" fill="#E3BB00" d="M198.509,408.164c-13.855,50.631,16.594,80.267,67.921,104.71
		c11.072,5.258,19.377,10.65,25.758,16.983c6.335,6.24,18.344,13.466,21.77,22.521l8.865,0.892c9.43-1.032,7.548,0,11.215-6.569
		c-0.749-8.725-3.284-16.09-6.428-22.566c-6.286-13.042-15.2-22.474-18.25-32.09c-4.88-15.388-2.205-26.46,4.316-30.401
		c6.566-3.941,39.035,8.442,39.035,8.442l-0.048,10.041c23.646,0.283,33.826-9.477,33.028-33.122c0,0-10.46,16.563-19.472,16.654
		c-9.005,0.048-28.569-18.016-35.044-21.395c-6.476-3.378-25.054-6.848-27.869-10.18c-2.815-3.378-5.584-10.229-5.584-10.229
		c-15.575-4.785-19.845,1.362-28.853,13.982c-26.883-29.041-14.919-50.53,7.601-77.977c-44.666-37.345-86.046,2.958-91.817,38.661
		l31.201-18.767C215.854,377.755,201.309,397.938,198.509,408.164"/>
	<path fill-rule="evenodd" clip-rule="evenodd" fill="#E3BB00" d="M140.506,451.273c1.596-16.377,6.615-33.594,13.418-49.263
		c9.056-20.83,21.254-38.939,32.841-48.934c17.642-15.201,34.484-19.893,43.588-21.349c-12.998,0.188-25.618,3.237-39.036,8.962
		c8.446-9.852,29.84-17.828,50.483-16.75l0.235-0.328c-6.945-1.08-15.953-1.783-27.26-1.455
		c-29.935,0.845-42.694,12.621-44.195,14.075c0.845-0.985,6.989-7.976,17.64-13.559c11.543-6.052,41.193-13.09,41.193-13.09
		s-21.911-0.797-40.864,3.237c-2.769,0.563-5.63,1.408-8.539,2.487c-15.952,5.677-32.043,16.843-33.452,17.782
		c1.361-1.267,15.717-14.637,39.082-24.914c13.277-5.864,29.417-10.743,47.715-11.822c15.389-0.892,26.554,0.281,34.671,2.393
		c0.424-0.188,0.657-0.282,0.657-0.282c-18.017-6.427-40.959-9.243-64.653-8.211c-12.665,0.517-25.569,2.112-38.047,4.88
		c-21.208,25.805-33.64,57.565-35.47,91.534C129.341,409.047,132.765,430.959,140.506,451.273"/>
	<path fill-rule="evenodd" clip-rule="evenodd" fill="#E3BB00" d="M168.572,495.343c6.122,10.061,9.436,13.068,19.347,22.675
		c36.065,34.961,82.039,61.622,124.172,63.92c-3.049-6.568-32.831-35.025-37.803-40.749c-2.018-2.3-4.74-4.88-8.07-7.789h-0.048
		c-25.809-16.837-54.126-24.536-72.989-59.134c-9.6-17.607-6.682-51.575-6.072-53.122c-12.058,8.303-14.679,14.248-19.228,25.319
		C161.359,462.228,165.17,483.822,168.572,495.343"/>
	<path fill="#1D1D1B" d="M121.09,144.489l14.604,14.034l3.127-3.253c2.979-3.102,3.575-6.169-0.229-9.824l-4.689-4.504
		c-3.396-3.263-6.124-3.414-8.959-0.461L121.09,144.489L121.09,144.489z M170.57,174.575c-1.655-0.722-2.694-1.138-6.565-4.858
		l-7.475-7.179c-4.417-4.242-7.645-4.145-11.28-0.363l-2.763,2.875l19.364,18.602l-7.996,8.323l-47.557-45.692l12.065-12.558
		c8.287-8.624,15.451-8.872,22.785-1.821l3.735,3.589c4.892,4.7,6.413,9.507,4.413,14.714c5.563-2.659,10.473-0.562,15.431,4.205
		l7.336,7.049c2.311,2.219,4.083,3.775,6.649,4.641L170.57,174.575L170.57,174.575z"/>
	<path fill="#1D1D1B" d="M179.723,139.144l9.007-6.522l-24.07-23.744L179.723,139.144L179.723,139.144z M213.319,140.635
		l-9.432,6.831l-8.635-8.521l-11.469,8.31l5.403,10.859l-8.582,6.216l-29.175-60.299l13.683-9.907L213.319,140.635L213.319,140.635z
		"/>
	<path fill="#1D1D1B" d="M203.29,82.545l20.497,42.413l5.856-2.833c3.308-1.597,4.553-4.083,2.502-8.323l-14.922-30.876
		c-2.049-4.241-4.771-4.808-8.075-3.211L203.29,82.545L203.29,82.545z M188.801,79.084l16.437-7.942
		c10.387-5.023,17.989-2.313,22.58,7.186l14.513,30.026c4.59,9.503,1.991,17.142-8.397,22.164l-16.435,7.942L188.801,79.084
		L188.801,79.084z"/>
	<polygon fill="#1D1D1B" points="256.244,80.947 271.444,76.476 274.104,85.514 258.908,89.984 264.36,108.517 283.481,102.889 
		286.143,111.93 255.948,120.813 237.328,57.54 267.521,48.657 270.18,57.696 251.061,63.322 256.244,80.947 	"/>
	<polygon fill="#1D1D1B" points="296.907,61.776 302.87,109.162 292.562,110.458 284.333,45.034 298.699,43.226 315.386,80.908 
		310.462,41.747 320.663,40.462 328.894,105.888 317.129,107.365 296.907,61.776 	"/>
	<polygon fill="#1D1D1B" points="335.225,39.805 370.885,40.698 370.648,50.114 358.588,49.813 357.175,106.317 345.64,106.029 
		347.051,49.523 334.991,49.223 335.225,39.805 	"/>
	<path fill="#1D1D1B" d="M400.116,43.825c11.082,1.773,15.828,8.638,14.159,19.057l-0.325,2.045l-10.775-1.723l0.435-2.697
		c0.743-4.65-1.046-6.75-4.67-7.33c-3.627-0.579-5.981,0.857-6.725,5.507c-2.146,13.396,19.724,19.468,16.746,38.073
		c-1.667,10.419-8.421,15.444-19.609,13.654c-11.187-1.79-16.033-8.67-14.366-19.088l0.64-4l10.772,1.723l-0.744,4.65
		c-0.746,4.652,1.268,6.689,4.893,7.271c3.624,0.579,6.168-0.73,6.918-5.382c2.14-13.396-19.726-19.468-16.749-38.072
		C382.384,47.095,389.031,42.053,400.116,43.825"/>
	<path fill="#1D1D1B" d="M451.983,100.521l-2.632,8.354c-3.172,10.062-10.587,14.047-21.394,10.641
		c-10.807-3.407-14.595-10.922-11.423-20.985l10.312-32.704c3.169-10.062,10.584-14.046,21.391-10.641
		c10.805,3.406,14.593,10.922,11.421,20.985l-1.926,6.11l-10.405-3.28l2.125-6.738c1.415-4.493-0.246-6.893-3.748-7.996
		c-3.504-1.104-6.241-0.092-7.656,4.401l-10.704,33.961c-1.421,4.494,0.272,6.805,3.772,7.908c3.506,1.103,6.217,0.18,7.63-4.312
		l2.833-8.986L451.983,100.521L451.983,100.521z"/>
	<polygon fill="#1D1D1B" points="460.968,131.589 450.683,126.355 480.592,67.589 490.875,72.822 478.058,98.009 489.745,103.955 
		502.563,78.77 513.037,84.097 483.126,142.866 472.655,137.537 485.473,112.35 473.785,106.403 460.968,131.589 	"/>
	<polygon fill="#1D1D1B" points="521.692,123.479 534.401,132.936 528.776,140.495 516.068,131.037 504.54,146.532 520.531,158.431 
		514.906,165.991 489.655,147.203 529.028,94.291 554.276,113.08 548.652,120.638 532.66,108.738 521.692,123.479 	"/>
	<polygon fill="#1D1D1B" points="565.637,123.549 573.973,131.531 528.364,179.151 520.031,171.17 565.637,123.549 	"/>
	<path fill="#1D1D1B" d="M585.978,158.614l-36.852,29.343l4.053,5.088c2.286,2.872,4.984,3.54,8.672,0.605l26.828-21.363
		c3.685-2.934,3.638-5.714,1.354-8.586L585.978,158.614L585.978,158.614z M586.159,143.718l11.374,14.279
		c7.188,9.026,6.223,17.037-2.032,23.61l-26.095,20.775c-8.254,6.572-16.28,5.721-23.468-3.305l-11.371-14.279L586.159,143.718
		L586.159,143.718z"/>
	<path fill="#1D1D1B" d="M255.11,596.382l-6.003,15.854l4.132,1.561c3.939,1.491,6.926,0.86,8.74-3.938l1.268-3.342
		c1.622-4.285,0.703-6.788-3.043-8.206L255.11,596.382L255.11,596.382z M245.865,620.799l-6.978,18.426l6.051,2.288
		c3.557,1.349,6.029,0.62,7.716-3.839l1.98-5.225c2.108-5.569,0.739-8.047-4.063-9.865L245.865,620.799L245.865,620.799z
		 M274.172,609.574l-0.812,2.141c-2.336,6.172-5.942,9.309-11.395,9.502c4.92,4.116,5.411,9.495,3.011,15.833l-1.851,4.887
		c-3.506,9.254-10.861,12.149-21.429,8.147l-16.621-6.291l22.712-59.98l15.947,6.039
		C274.688,593.996,277.675,600.319,274.172,609.574"/>
	<path fill="#1D1D1B" d="M287.358,642.375l10.692,2.051l0.765-32.873L287.358,642.375L287.358,642.375z M308.851,667.209
		l-11.201-2.151l0.276-11.794l-13.621-2.613l-4.109,11.058l-10.191-1.955l23.386-60.805l16.241,3.114L308.851,667.209
		L308.851,667.209z"/>
	<polygon fill="#1D1D1B" points="328.431,647.118 316.068,603.65 327.874,604.175 335.194,633.756 345.115,604.945 355.892,605.424 
		339.721,647.621 338.774,668.856 327.485,668.354 328.431,647.118 	"/>
	<polygon fill="#1D1D1B" points="372.937,630.58 388.357,628.886 389.355,637.992 373.935,639.686 375.984,658.354 395.387,656.222 
		396.384,665.328 365.749,668.694 358.754,604.947 389.39,601.582 390.389,610.69 370.987,612.82 372.937,630.58 	"/>
	<path fill="#1D1D1B" d="M407.828,606.481l5.251,18.986l4.257-1.18c4.061-1.122,6.095-3.394,4.728-8.341l-1.686-6.096
		c-1.219-4.412-3.441-5.889-7.303-4.822L407.828,606.481L407.828,606.481z M434.367,656.179c-1.036-1.425-1.698-2.287-3.092-7.322
		l-2.688-9.714c-1.589-5.738-4.353-7.258-9.302-5.887l-3.766,1.04l6.964,25.167l-10.895,3.01l-17.1-61.811l16.438-4.545
		c11.288-3.119,17.436,0.218,20.074,9.753l1.344,4.856c1.759,6.36,0.63,11.139-3.661,14.511c6.008,0.524,9.084,4.715,10.869,11.159
		l2.639,9.537c0.831,3.003,1.539,5.183,3.265,7.178L434.367,656.179L434.367,656.179z"/>
	<polygon fill="#1D1D1B" points="448.76,601.45 468.918,643.293 459.754,647.706 431.92,589.936 444.695,583.784 471.814,613.326 
		455.155,578.747 464.227,574.377 492.058,632.147 481.597,637.186 448.76,601.45 	"/>
</g>
<g>
</g>
<g>
</g>
<g>
</g>
<g>
</g>
<g>
</g>
<g>
</g>
</svg>
