<?xml version="1.0" encoding="utf-8"?>
<!-- Generator: Adobe Illustrator 16.0.0, SVG Export Plug-In . SVG Version: 6.00 Build 0)  -->
<!DOCTYPE svg PUBLIC "-//W3C//DTD SVG 1.1//EN" "http://www.w3.org/Graphics/SVG/1.1/DTD/svg11.dtd">
<svg version="1.1" id="Ebene_1" xmlns="http://www.w3.org/2000/svg" xmlns:xlink="http://www.w3.org/1999/xlink" x="0px" y="0px"
	 width="518px" height="595px" viewBox="0 0 518 595" enable-background="new 0 0 518 595" xml:space="preserve">
<g>
	<defs>
		<rect id="SVGID_1_" width="518" height="595"/>
	</defs>
	<clipPath id="SVGID_2_">
		<use xlink:href="#SVGID_1_"  overflow="visible"/>
	</clipPath>
	<path clip-path="url(#SVGID_2_)" fill="#008FCF" d="M119.98,400.477c14.705,19.693,33.569,36.107,55.282,47.925
		C157.063,436.474,137.622,420.206,119.98,400.477"/>
	<path clip-path="url(#SVGID_2_)" fill="#008FCF" d="M256.253,129C162.524,129,86.27,205.254,86.27,298.983
		c0,4.415,0.223,8.774,0.555,13.104c2.63-14.501,5.917-28.458,7.436-32.145c4.127-10.016,9.873-20.845,17.48-31.137
		c1.094-3.148,2.255-6.279,3.562-9.367c7.705-18.216,18.734-34.576,32.782-48.623c14.047-14.048,30.407-25.078,48.623-32.782
		c18.861-7.978,38.895-12.023,59.545-12.023c20.65,0,40.683,4.045,59.544,12.023c18.217,7.704,34.575,18.734,48.623,32.782
		c14.048,14.047,25.077,30.407,32.782,48.623c7.979,18.861,12.023,38.895,12.023,59.545s-4.045,40.684-12.023,59.545
		c-7.705,18.216-18.734,34.574-32.782,48.623c-14.048,14.048-30.406,25.077-48.623,32.781
		c-18.861,7.979-38.895,12.023-59.544,12.023c-2.574,0-5.138-0.063-7.692-0.189c-0.508,0.145-1.035,0.242-1.599,0.234
		c-25.165-0.347-9.634,11.147-8.361,16.048c5.804,0.602,11.692,0.917,17.652,0.917c93.729,0,169.983-76.254,169.983-169.983
		S349.982,129,256.253,129"/>
	<path clip-path="url(#SVGID_2_)" fill="#008FCF" d="M403.277,298.983c0-81.069-65.955-147.024-147.024-147.024
		c-57.852,0-107.986,33.599-131.969,82.297c6.061-6.03,12.918-11.577,20.664-16.276c3.965-5.434,8.336-10.592,13.107-15.448
		l-0.69-0.689l2.323-2.323l0.703,0.704c7.869-7.644,16.512-14.26,25.846-19.778l-0.497-0.861l2.844-1.642l0.502,0.87
		c4.39-2.456,8.909-4.702,13.58-6.677c5.397-2.283,10.91-4.166,16.504-5.73l-0.261-0.976l3.172-0.85l0.252,0.942
		c10.489-2.66,21.285-4.038,32.278-4.166v-1.015h3.284v1.015c10.996,0.128,21.797,1.506,32.288,4.169l0.229-0.858l3.173,0.85
		l-0.238,0.892c5.59,1.563,11.1,3.446,16.492,5.727c4.686,1.981,9.217,4.235,13.619,6.699l0.417-0.724l2.846,1.643l-0.413,0.714
		c9.347,5.531,18.002,12.162,25.879,19.824l0.533-0.533l2.321,2.322l-0.522,0.523c7.707,7.853,14.384,16.487,19.958,25.818
		l0.5-0.289l1.642,2.845l-0.508,0.293c2.578,4.561,4.931,9.259,6.989,14.125c2.217,5.242,4.055,10.595,5.594,16.023l0.438-0.117
		l0.851,3.172l-0.397,0.107c2.713,10.533,4.131,21.378,4.285,32.423h0.351v3.284h-0.333c-0.103,11.062-1.479,21.925-4.144,32.478
		l0.15,0.041l-0.851,3.172l-0.177-0.048c-1.571,5.642-3.467,11.199-5.768,16.64c-1.987,4.698-4.249,9.242-6.723,13.657l0.073,0.042
		l-1.642,2.845l-0.064-0.037c-5.565,9.399-12.244,18.101-19.965,26.012l0.024,0.024l-1.007,1.005
		c-0.067,0.068-0.131,0.142-0.199,0.21s-0.142,0.132-0.209,0.2l-0.907,0.906l-0.022-0.021
		c-12.389,12.115-26.709,21.686-42.62,28.416c-16.974,7.18-35.004,10.82-53.586,10.82c-0.486,0-0.967-0.031-1.452-0.036h-0.527
		v-0.014c-0.05,0-0.099-0.003-0.149-0.003c0.524,3.366,0.312,6.665-0.538,9.341c0.89,0.017,1.772,0.068,2.666,0.068
		C337.322,446.007,403.277,380.052,403.277,298.983"/>
	<path clip-path="url(#SVGID_2_)" fill="#008FCF" d="M257.896,265.833V161.356c-0.549-0.006-1.093-0.04-1.642-0.04
		c-0.55,0-1.094,0.034-1.642,0.04v101.122C255.747,263.623,256.84,264.74,257.896,265.833"/>
	<path clip-path="url(#SVGID_2_)" fill="#008FCF" d="M257.896,161.356v-1.015h-3.284v1.015c0.548-0.006,1.092-0.04,1.642-0.04
		C256.802,161.316,257.346,161.35,257.896,161.356"/>
	<path clip-path="url(#SVGID_2_)" fill="#008FCF" d="M246.088,254.175l-23.755-88.653c-1.06,0.269-2.109,0.589-3.163,0.883
		l22.396,83.585C243.122,251.403,244.625,252.797,246.088,254.175"/>
	<path clip-path="url(#SVGID_2_)" fill="#008FCF" d="M222.081,164.58l-3.172,0.85l0.261,0.976c1.054-0.295,2.103-0.614,3.163-0.883
		L222.081,164.58z"/>
	<path clip-path="url(#SVGID_2_)" fill="#008FCF" d="M202.896,202.73l-13.809-23.918c-0.956,0.535-1.907,1.077-2.849,1.633
		l12.862,22.279C200.348,202.7,201.624,202.719,202.896,202.73"/>
	<path clip-path="url(#SVGID_2_)" fill="#008FCF" d="M188.584,177.943l-2.844,1.642l0.497,0.861
		c0.942-0.557,1.893-1.099,2.849-1.633L188.584,177.943z"/>
	<path clip-path="url(#SVGID_2_)" fill="#008FCF" d="M167.835,207.668l-7.444-7.444c-0.491,0.476-0.999,0.929-1.483,1.414
		c-0.292,0.292-0.564,0.6-0.853,0.894l6.302,6.303C165.505,208.432,166.658,208.035,167.835,207.668"/>
	<path clip-path="url(#SVGID_2_)" fill="#008FCF" d="M160.391,200.224l-0.703-0.703l-2.322,2.322l0.689,0.69
		c0.289-0.295,0.561-0.603,0.853-0.895C159.392,201.153,159.9,200.701,160.391,200.224"/>
	<path clip-path="url(#SVGID_2_)" fill="#008FCF" d="M257.559,393.229l-3.284-1.464v44.836c0.176,0.002,0.351,0.011,0.527,0.013
		h2.757V393.229z"/>
	<path clip-path="url(#SVGID_2_)" fill="#008FCF" d="M254.274,436.614h0.527c-0.176-0.002-0.351-0.01-0.527-0.013V436.614z"/>
	<path clip-path="url(#SVGID_2_)" fill="#008FCF" d="M290.088,432.376l3.173-0.85l-10.605-39.58
		c-0.895,0.754-1.839,1.463-2.842,2.085L290.088,432.376z"/>
	<path clip-path="url(#SVGID_2_)" fill="#008FCF" d="M323.585,419.013l2.844-1.642l-33.974-58.845
		c-0.277,1.733-0.547,3.458-0.809,5.166L323.585,419.013z"/>
	<path clip-path="url(#SVGID_2_)" fill="#008FCF" d="M295.604,340.558l56.856,56.856c0.306-0.3,0.624-0.583,0.928-0.886l0.41-0.41
		c0.336-0.337,0.649-0.689,0.981-1.029l-58.402-58.403C296.116,337.96,295.858,339.248,295.604,340.558"/>
	<path clip-path="url(#SVGID_2_)" fill="#008FCF" d="M354.804,395.113l-0.023-0.024c-0.332,0.34-0.646,0.693-0.981,1.029
		L354.804,395.113z"/>
	<path clip-path="url(#SVGID_2_)" fill="#008FCF" d="M352.481,397.436l0.907-0.907c-0.304,0.303-0.622,0.586-0.929,0.885
		L352.481,397.436z"/>
	<path clip-path="url(#SVGID_2_)" fill="#008FCF" d="M298.948,325.315l75.797,43.762c0.558-0.941,1.099-1.894,1.634-2.85
		l-76.563-44.203C299.524,323.079,299.235,324.183,298.948,325.315"/>
	<path clip-path="url(#SVGID_2_)" fill="#008FCF" d="M374.81,369.114l1.642-2.845l-0.072-0.042c-0.535,0.955-1.076,1.907-1.634,2.85
		L374.81,369.114z"/>
	<path clip-path="url(#SVGID_2_)" fill="#008FCF" d="M302.877,312.891l85.991,23.041c0.294-1.056,0.609-2.104,0.877-3.165
		l-85.368-22.874C303.874,310.721,303.374,311.729,302.877,312.891"/>
	<path clip-path="url(#SVGID_2_)" fill="#008FCF" d="M389.046,335.979l0.85-3.172l-0.15-0.041c-0.269,1.062-0.583,2.111-0.877,3.165
		L389.046,335.979z"/>
	<path clip-path="url(#SVGID_2_)" fill="#008FCF" d="M304.357,300.288h89.531c0.004-0.436,0.031-0.869,0.031-1.305
		c0-0.663-0.039-1.319-0.049-1.979H301.09C302.406,298.015,303.518,299.112,304.357,300.288"/>
	<path clip-path="url(#SVGID_2_)" fill="#008FCF" d="M393.888,300.288h0.333v-3.284h-0.349c0.009,0.66,0.048,1.316,0.048,1.979
		C393.92,299.419,393.893,299.853,393.888,300.288"/>
	<path clip-path="url(#SVGID_2_)" fill="#008FCF" d="M289.956,291.276l99.63-26.696c-0.272-1.059-0.593-2.108-0.892-3.161
		l-104.418,27.979C286.032,289.915,287.971,290.54,289.956,291.276"/>
	<path clip-path="url(#SVGID_2_)" fill="#008FCF" d="M389.983,264.474l-0.851-3.172l-0.438,0.117
		c0.298,1.053,0.617,2.102,0.891,3.161L389.983,264.474z"/>
	<path clip-path="url(#SVGID_2_)" fill="#008FCF" d="M276.994,287.559c0,0,0.442,0.088,1.185,0.254l97.933-56.541
		c-0.539-0.954-1.073-1.91-1.634-2.849l-99.026,57.172C276.459,286.853,276.994,287.559,276.994,287.559"/>
	<path clip-path="url(#SVGID_2_)" fill="#008FCF" d="M376.62,230.978l-1.643-2.844l-0.5,0.288c0.562,0.94,1.096,1.896,1.633,2.85
		L376.62,230.978z"/>
	<path clip-path="url(#SVGID_2_)" fill="#008FCF" d="M273.691,283.432l80.828-80.828c-0.313-0.318-0.605-0.651-0.921-0.966
		c-0.461-0.461-0.945-0.892-1.411-1.346l-80.61,80.609C272.38,281.846,273.063,282.67,273.691,283.432"/>
	<path clip-path="url(#SVGID_2_)" fill="#008FCF" d="M354.52,202.604l0.523-0.523l-2.323-2.322l-0.533,0.533
		c0.467,0.454,0.951,0.885,1.412,1.346C353.915,201.954,354.208,202.285,354.52,202.604"/>
	<path clip-path="url(#SVGID_2_)" fill="#008FCF" d="M269.634,278.632l56.675-98.164c-0.942-0.557-1.895-1.098-2.85-1.633
		l-56.112,97.19C268.156,276.938,268.922,277.81,269.634,278.632"/>
	<path clip-path="url(#SVGID_2_)" fill="#008FCF" d="M326.721,179.753l-2.844-1.642l-0.418,0.724
		c0.956,0.534,1.907,1.076,2.849,1.633L326.721,179.753z"/>
	<path clip-path="url(#SVGID_2_)" fill="#008FCF" d="M264.75,273.136l28.597-106.727c-1.054-0.295-2.103-0.615-3.163-0.884
		l-28.067,104.749C263.035,271.261,263.91,272.214,264.75,273.136"/>
	<path clip-path="url(#SVGID_2_)" fill="#008FCF" d="M293.586,165.517l-3.172-0.85l-0.23,0.858c1.061,0.269,2.108,0.589,3.163,0.884
		L293.586,165.517z"/>
	<path clip-path="url(#SVGID_2_)" fill-rule="evenodd" clip-rule="evenodd" fill="#E2BA00" d="M189.791,213.564
		c3.349,1.505,16.101,7.07,22.754,15.743c8.967,11.692,8.205,24.098,10.034,25.788c3.256,2.979,45.182,34.742,45.182,34.742
		c-8.244-18.497-36.639-25.226-39.167-53.11c-1.767-2.113-9.39-16.299-18.391-24.942
		C209.31,210.963,193.363,212.238,189.791,213.564"/>
	<path clip-path="url(#SVGID_2_)" fill-rule="evenodd" clip-rule="evenodd" fill="#E2BA00" d="M196.06,230.086
		c3.81,1.801,7.551,4.122,11.153,7.135c5.265,4.4,8.66,12.574,10.357,17.597l0.554,0.277c0,0-0.9-14.929-10.738-26.083h-0.034
		c-1.871-2.147-4.053-4.122-6.616-5.854c-5.542-3.706-11.604-6.373-17.804-8.07h-0.035c-10.114,2.459-19.847,6.338-28.957,11.5
		c0.069,0,0.104-0.035,0.173-0.035c0.277-0.035,0.52-0.069,0.797-0.104c1.178-0.208,2.321-0.381,3.464-0.485
		c0.866-0.138,1.697-0.242,2.563-0.312c0.519-0.069,1.039-0.138,1.559-0.173c1.42-0.138,2.805-0.242,4.191-0.312
		c1.593-0.103,3.152-0.138,4.711-0.138c1.073,0,2.147,0.035,3.221,0.069h0.104c0.762,0.035,1.524,0.069,2.251,0.139
		c0.174,0,0.312,0.034,0.485,0.034c0.347,0.035,0.658,0.07,1.005,0.104c0.796,0.07,1.559,0.173,2.321,0.277
		c0.277,0.035,0.519,0.07,0.796,0.104c0.693,0.104,1.386,0.243,2.079,0.347c0.692,0.138,1.42,0.277,2.112,0.45
		c0.624,0.138,1.282,0.312,1.905,0.485c0.763,0.208,1.49,0.416,2.252,0.658c0.52,0.139,1.039,0.312,1.524,0.52
		c0.589,0.207,1.143,0.415,1.732,0.623c0.104,0.035,0.242,0.104,0.346,0.139c0.07,0.034,0.104,0.034,0.173,0.069
		c0.035,0,0.07,0.035,0.104,0.069c0.589,0.208,1.178,0.485,1.767,0.762c0.104,0.035,0.242,0.07,0.346,0.139
		C195.956,230.053,196.025,230.053,196.06,230.086"/>
	<path clip-path="url(#SVGID_2_)" fill-rule="evenodd" clip-rule="evenodd" fill="#E2BA00" d="M131.529,243.042
		c12.504-3.36,24.42-5.888,36.405-4.261c0.415,0.035,0.831,0.104,1.247,0.174c12.469,2.009,25.874,6.581,35.469,10.357
		c-5.369-8.348-11.431-13.787-18.358-17.25c-0.139-0.069-0.277-0.139-0.451-0.208c-0.866-0.416-1.766-0.831-2.701-1.178
		c-0.277-0.104-0.52-0.208-0.797-0.312c-0.277-0.103-0.554-0.207-0.831-0.311c-0.174-0.07-0.381-0.139-0.555-0.174
		c-0.138-0.034-0.277-0.103-0.415-0.138c-0.208-0.069-0.451-0.139-0.658-0.208c-0.243-0.069-0.451-0.138-0.693-0.208
		c-0.243-0.104-0.52-0.173-0.797-0.242c-0.519-0.173-1.039-0.277-1.559-0.416c-0.103,0-0.207-0.035-0.311-0.069
		c-0.658-0.173-1.282-0.312-1.94-0.451c-0.797-0.138-1.593-0.276-2.425-0.415c-0.727-0.104-1.489-0.208-2.251-0.312
		c-0.589-0.069-1.178-0.138-1.801-0.208c-0.936-0.104-1.871-0.173-2.841-0.242c-0.311,0-0.588-0.035-0.866-0.069h-0.138
		c-0.347,0-0.658,0-1.005-0.035h-0.381c-2.667-0.139-5.438-0.139-8.313-0.069h-1.108c-7.24,4.087-13.959,9.006-20.298,14.686
		C132.604,242.002,132.083,242.452,131.529,243.042"/>
	<path clip-path="url(#SVGID_2_)" fill-rule="evenodd" clip-rule="evenodd" fill="#E2BA00" d="M234.08,281.173l-19.394,2.902
		c0,0,7.615,3.372,11.399,4.117c3.784,0.745,5.768-0.541,7.599-0.069c1.832,0.471,8.818,3.892,8.818,3.892s-6.186-5.437-6.415-6.394
		c-0.23-0.959-0.252-1.899-0.252-1.899l1.207-3.126L234.08,281.173z"/>
	<path clip-path="url(#SVGID_2_)" fill-rule="evenodd" clip-rule="evenodd" fill="#E2BA00" d="M282.289,299.845l-2.852,0.481
		c-2.851,0.483-7.248,3.228-7.375,4.677c-0.126,1.446,7.22,7.923,8.022,9.45c0.804,1.529,1.14,10.737-5.944,18.044
		c-9.779,10.09-29.022,5.741-41.551,13.796c14.664,1.504,29.787-5.042,44.438-2.705c5.747,0.917,5.396,7.347,5.396,7.347
		s3.197-8.062,4.085-15.906c0.89-7.844,0.906-12.846,0.906-12.846l8.18-15.132L282.289,299.845z"/>
	<path clip-path="url(#SVGID_2_)" fill-rule="evenodd" clip-rule="evenodd" fill="#E2BA00" d="M144.738,337.955
		c-10.23,37.38,12.25,59.26,50.144,77.306c8.175,3.881,14.306,7.863,19.017,12.539c4.676,4.607,13.543,9.941,16.072,16.626
		l6.545,0.659c6.962-0.762,5.572,0,8.28-4.85c-0.554-6.442-2.425-11.88-4.746-16.661c-4.641-9.629-11.222-16.591-13.474-23.692
		c-3.602-11.36-1.628-19.535,3.187-22.444c4.849-2.91,28.819,6.233,28.819,6.233l-0.035,7.413
		c17.458,0.208,24.975-6.997,24.385-24.454c0,0-7.724,12.228-14.375,12.296c-6.649,0.035-21.094-13.301-25.874-15.795
		c-4.78-2.494-18.497-5.057-20.575-7.516c-2.078-2.494-4.122-7.552-4.122-7.552c-11.5-3.533-14.652,1.005-21.302,10.322
		c-19.848-21.44-11.015-37.306,5.611-57.568c-32.976-27.572-63.526,2.183-67.787,28.542l23.035-13.855
		C157.543,315.504,146.804,330.406,144.738,337.955"/>
	<path clip-path="url(#SVGID_2_)" fill-rule="evenodd" clip-rule="evenodd" fill="#E2BA00" d="M101.914,369.782
		c1.178-12.09,4.884-24.802,9.907-36.37c6.685-15.379,15.691-28.749,24.246-36.127c13.024-11.223,25.459-14.687,32.179-15.761
		c-9.595,0.139-18.913,2.39-28.819,6.616c6.235-7.274,22.03-13.162,37.271-12.366l0.173-0.242
		c-5.127-0.797-11.777-1.316-20.125-1.074c-22.099,0.624-31.52,9.318-32.629,10.391c0.624-0.727,5.161-5.888,13.024-10.01
		c8.521-4.468,30.412-9.664,30.412-9.664s-16.176-0.589-30.169,2.39c-2.044,0.416-4.157,1.039-6.305,1.836
		c-11.777,4.191-23.657,12.435-24.697,13.128c1.005-0.935,11.604-10.807,28.854-18.393c9.802-4.33,21.718-7.932,35.227-8.729
		c11.361-0.658,19.605,0.208,25.597,1.767c0.312-0.139,0.485-0.208,0.485-0.208c-13.301-4.745-30.239-6.824-47.731-6.062
		c-9.352,0.381-18.878,1.559-28.091,3.603c-15.657,19.051-24.836,42.5-26.187,67.578C93.67,338.607,96.199,354.784,101.914,369.782"
		/>
	<path clip-path="url(#SVGID_2_)" fill-rule="evenodd" clip-rule="evenodd" fill="#E2BA00" d="M122.635,402.318
		c4.52,7.427,6.967,9.647,14.284,16.739c26.626,25.812,60.569,45.495,91.674,47.192c-2.251-4.85-24.238-25.859-27.909-30.085
		c-1.49-1.697-3.499-3.603-5.958-5.75h-0.035c-19.055-12.43-39.961-18.115-53.888-43.658c-7.087-12.999-4.933-38.077-4.483-39.22
		c-8.902,6.131-10.836,10.52-14.196,18.693C117.31,377.869,120.123,393.813,122.635,402.318"/>
	<path clip-path="url(#SVGID_2_)" d="M124.111,165.499c-1.224-0.533-1.991-0.84-4.849-3.587l-5.518-5.3
		c-3.26-3.132-5.644-3.06-8.328-0.268l-2.039,2.123l14.296,13.733l-5.904,6.145l-35.11-33.734l8.908-9.271
		c6.117-6.367,11.405-6.55,16.822-1.345l2.758,2.65c3.612,3.47,4.735,7.019,3.259,10.864c4.106-1.963,7.73-0.415,11.391,3.104
		l5.416,5.204c1.706,1.638,3.014,2.787,4.908,3.426L124.111,165.499z M87.579,143.287l10.783,10.361l2.308-2.402
		c2.199-2.29,2.639-4.554-0.17-7.253l-3.462-3.325c-2.508-2.409-4.522-2.52-6.615-0.341L87.579,143.287z"/>
	<path clip-path="url(#SVGID_2_)" d="M155.671,140.442l-6.964,5.043l-6.374-6.291l-8.468,6.134l3.99,8.017l-6.336,4.589
		l-21.539-44.517l10.1-7.315L155.671,140.442z M130.867,139.341l6.65-4.816l-17.771-17.531L130.867,139.341z"/>
	<path clip-path="url(#SVGID_2_)" d="M137.57,95l12.134-5.864c7.669-3.708,13.282-1.708,16.671,5.306l10.714,22.168
		c3.39,7.015,1.471,12.655-6.199,16.362l-12.133,5.865L137.57,95z M148.267,97.555l15.133,31.312l4.323-2.09
		c2.442-1.18,3.361-3.015,1.848-6.146l-11.017-22.795c-1.513-3.131-3.522-3.55-5.962-2.371L148.267,97.555z"/>
	<polygon clip-path="url(#SVGID_2_)" points="187.363,96.375 198.584,93.073 200.547,99.747 189.329,103.047 193.354,116.729 
		207.471,112.574 209.436,119.249 187.144,125.807 173.397,79.093 195.688,72.535 197.651,79.208 183.535,83.362 	"/>
	<polygon clip-path="url(#SVGID_2_)" points="217.383,82.221 221.785,117.205 214.175,118.162 208.1,69.86 218.706,68.525 
		231.026,96.346 227.39,67.434 234.922,66.485 240.998,114.788 232.313,115.879 	"/>
	<polygon clip-path="url(#SVGID_2_)" points="245.672,66 272,66.659 271.825,73.611 262.921,73.388 261.879,115.105 
		253.362,114.892 254.404,73.175 245.5,72.953 	"/>
	<path clip-path="url(#SVGID_2_)" d="M293.582,68.968c8.182,1.309,11.685,6.377,10.453,14.069l-0.241,1.51l-7.954-1.272l0.319-1.992
		c0.55-3.433-0.771-4.983-3.447-5.411c-2.677-0.428-4.415,0.633-4.964,4.066c-1.584,9.89,14.562,14.373,12.362,28.109
		c-1.23,7.692-6.217,11.402-14.476,10.081c-8.26-1.322-11.838-6.401-10.607-14.093l0.473-2.953l7.952,1.272l-0.549,3.433
		c-0.55,3.435,0.936,4.939,3.611,5.368c2.677,0.428,4.556-0.539,5.108-3.973c1.58-9.89-14.563-14.373-12.365-28.108
		C280.489,71.382,285.397,67.659,293.582,68.968"/>
	<path clip-path="url(#SVGID_2_)" d="M331.875,110.826l-1.944,6.168c-2.342,7.429-7.816,10.371-15.795,7.856
		c-7.979-2.514-10.774-8.063-8.434-15.492l7.613-24.145c2.341-7.429,7.814-10.37,15.793-7.856
		c7.977,2.515,10.774,8.064,8.433,15.493l-1.422,4.511l-7.682-2.422l1.568-4.975c1.045-3.317-0.182-5.089-2.769-5.903
		c-2.585-0.815-4.607-0.068-5.651,3.249l-7.903,25.073c-1.048,3.317,0.201,5.023,2.786,5.838c2.587,0.814,4.589,0.133,5.633-3.183
		l2.092-6.634L331.875,110.826z"/>
	<polygon clip-path="url(#SVGID_2_)" points="338.507,133.763 330.914,129.899 352.995,86.512 360.588,90.376 351.124,108.971 
		359.753,113.361 369.217,94.767 376.948,98.7 354.867,142.089 347.136,138.154 356.599,119.559 347.971,115.168 	"/>
	<polygon clip-path="url(#SVGID_2_)" points="383.34,127.775 392.723,134.757 388.569,140.338 379.188,133.355 370.676,144.795 
		382.481,153.58 378.33,159.161 359.688,145.29 388.755,106.226 407.396,120.098 403.243,125.678 391.437,116.892 	"/>
	
		<rect x="397.764" y="124.012" transform="matrix(-0.7222 -0.6916 0.6916 -0.7222 589.777 533.5537)" clip-path="url(#SVGID_2_)" width="8.52" height="48.681"/>
	<path clip-path="url(#SVGID_2_)" d="M430.935,142.718l8.396,10.542c5.307,6.664,4.595,12.578-1.5,17.431l-19.265,15.338
		c-6.095,4.853-12.02,4.224-17.326-2.44l-8.396-10.542L430.935,142.718z M430.801,153.715l-27.208,21.664l2.992,3.756
		c1.688,2.12,3.681,2.613,6.403,0.447l19.806-15.772c2.722-2.166,2.688-4.218,1-6.339L430.801,153.715z"/>
	<path clip-path="url(#SVGID_2_)" d="M200.598,486.654l-0.599,1.581c-1.724,4.555-4.387,6.873-8.413,7.014
		c3.633,3.039,3.995,7.01,2.223,11.69l-1.366,3.606c-2.588,6.832-8.019,8.971-15.821,6.017l-12.271-4.646l16.768-44.283
		l11.774,4.458C200.979,475.152,203.185,479.821,200.598,486.654 M179.699,494.942l-5.151,13.603l4.468,1.69
		c2.625,0.995,4.451,0.456,5.696-2.834l1.462-3.858c1.557-4.112,0.546-5.941-3-7.283L179.699,494.942z M186.526,476.914
		l-4.433,11.704l3.051,1.153c2.908,1.102,5.113,0.635,6.453-2.908l0.935-2.468c1.198-3.163,0.519-5.012-2.247-6.059L186.526,476.914
		z"/>
	<path clip-path="url(#SVGID_2_)" d="M226.2,529.204l-8.268-1.587l0.203-8.707l-10.056-1.93l-3.033,8.164l-7.524-1.444
		l17.264-44.893l11.992,2.301L226.2,529.204z M210.333,510.87l7.895,1.515l0.564-24.27L210.333,510.87z"/>
	<polygon clip-path="url(#SVGID_2_)" points="240.656,514.373 231.53,482.281 240.245,482.668 245.65,504.507 252.975,483.236 
		260.931,483.59 248.991,514.744 248.293,530.421 239.958,530.05 	"/>
	<polygon clip-path="url(#SVGID_2_)" points="273.515,502.161 284.899,500.911 285.637,507.634 274.252,508.884 275.765,522.667 
		290.09,521.093 290.826,527.817 268.209,530.302 263.045,483.238 285.662,480.753 286.4,487.478 272.076,489.05 	"/>
	<path clip-path="url(#SVGID_2_)" d="M318.868,521.062c-0.764-1.052-1.254-1.689-2.282-5.405l-1.984-7.171
		c-1.172-4.237-3.213-5.358-6.868-4.347l-2.778,0.768l5.14,18.58l-8.042,2.223l-12.625-45.635l12.137-3.355
		c8.334-2.304,12.872,0.16,14.82,7.201l0.991,3.586c1.299,4.694,0.465,8.224-2.702,10.713c4.436,0.388,6.707,3.479,8.024,8.238
		l1.947,7.04c0.613,2.218,1.138,3.827,2.411,5.3L318.868,521.062z M299.274,484.37l3.877,14.018l3.144-0.87
		c2.997-0.828,4.5-2.507,3.49-6.158l-1.245-4.499c-0.9-3.26-2.541-4.35-5.392-3.563L299.274,484.37z"/>
	<polygon clip-path="url(#SVGID_2_)" points="329.494,480.656 344.376,511.548 337.61,514.807 317.063,472.155 326.494,467.613 
		346.515,489.424 334.216,463.895 340.913,460.668 361.461,503.32 353.738,507.039 	"/>
</g>
</svg>
