<?xml version="1.0" encoding="UTF-8" standalone="no"?>
<!-- Generator: Adobe Illustrator 25.2.3, SVG Export Plug-In . SVG Version: 6.00 Build 0)  -->

<svg
   xmlns:ns="&amp;ns_sfw;"
   xmlns:dc="http://purl.org/dc/elements/1.1/"
   xmlns:cc="http://creativecommons.org/ns#"
   xmlns:rdf="http://www.w3.org/1999/02/22-rdf-syntax-ns#"
   xmlns:svg="http://www.w3.org/2000/svg"
   xmlns="http://www.w3.org/2000/svg"
   xmlns:sodipodi="http://sodipodi.sourceforge.net/DTD/sodipodi-0.dtd"
   xmlns:inkscape="http://www.inkscape.org/namespaces/inkscape"
   version="1.1"
   x="0px"
   y="0px"
   viewBox="0 0 387 67.1"
   xml:space="preserve"
   id="svg79"
   sodipodi:docname="claim.svg"
   inkscape:version="0.92.5 (2060ec1f9f, 2020-04-08)"
   width="387"
   height="67.099998"><defs
   id="defs83" /><sodipodi:namedview
   pagecolor="#ffffff"
   bordercolor="#666666"
   borderopacity="1"
   objecttolerance="10"
   gridtolerance="10"
   guidetolerance="10"
   inkscape:pageopacity="0"
   inkscape:pageshadow="2"
   inkscape:window-width="1848"
   inkscape:window-height="1016"
   id="namedview81"
   showgrid="false"
   inkscape:zoom="2.0202931"
   inkscape:cx="235.00177"
   inkscape:cy="65.086195"
   inkscape:window-x="1752"
   inkscape:window-y="27"
   inkscape:window-maximized="1"
   inkscape:current-layer="Ebene_1" />
<style
   type="text/css"
   id="style2">
	.st0{fill:#FFE100;}
	.st1{fill:#145F32;}
	.st2{display:none;}
	.st3{display:inline;}
	.st4{fill:none;stroke:#E5007E;stroke-width:0.25;}
	.st5{display:inline;fill:#E5007E;}
	.st6{font-family:'BereitBold-Oblique';}
	.st7{font-size:43.935px;}
	.st8{display:inline;fill:#1D1D1B;}
	.st9{display:inline;fill:#9EC764;}
</style>
<metadata
   id="metadata4">
	<ns:sfw>
		<ns:slices />
		<ns:sliceSourceBounds
   bottomLeftOrigin="true"
   height="16383"
   width="485"
   x="19"
   y="-8613" />
	</ns:sfw>
<rdf:RDF><cc:Work
     rdf:about=""><dc:format>image/svg+xml</dc:format><dc:type
       rdf:resource="http://purl.org/dc/dcmitype/StillImage" /><dc:title></dc:title></cc:Work></rdf:RDF></metadata>
<g
   id="Ebene_1"
   transform="translate(0,1.5258789e-6)">
	<path
   style="fill:#b73a8d;fill-opacity:1"
   d="m 11.7,1.8 h 375 L 376.6,65.6 H 1.6 Z"
   id="polygon6"
   inkscape:connector-curvature="0"
   sodipodi:nodetypes="ccccc" />
	<g
   id="g50"
   style="fill:#ffffff">
		
		
		
		
		
		
		
		
		
		
		
		
		
		
		
		
		
		
		
		
		
	<text
   xml:space="preserve"
   style="font-style:normal;font-variant:normal;font-weight:normal;font-stretch:normal;font-size:52.28453445px;line-height:1.25;font-family:sans-serif;-inkscape-font-specification:sans-serif;text-align:center;letter-spacing:0px;word-spacing:0px;text-anchor:middle;fill:#ffffff;fill-opacity:1;stroke:none;stroke-width:3.92134023"
   x="189.79276"
   y="54.291576"
   id="text892"><tspan
     sodipodi:role="line"
     id="tspan890"
     x="189.79276"
     y="54.291576"
     style="font-style:normal;font-variant:normal;font-weight:normal;font-stretch:normal;font-family:BereitBold;-inkscape-font-specification:BereitBold;fill:#ffffff;stroke-width:3.92134023">VON HIER AN GRÜN.</tspan></text>
</g>
</g>
<g
   id="Hilfslinien"
   class="st2"
   style="display:none"
   transform="translate(0,1.5258789e-6)">
	<g
   class="st3"
   id="g63"
   style="display:inline">
		<rect
   x="-18.9"
   y="44.200001"
   class="st4"
   width="484.70001"
   height="10.4"
   id="rect53"
   style="fill:none;stroke:#e5007e;stroke-width:0.25" />
		<rect
   x="-18.9"
   y="33.799999"
   class="st4"
   width="484.70001"
   height="10.4"
   id="rect55"
   style="fill:none;stroke:#e5007e;stroke-width:0.25" />
		<rect
   x="-18.9"
   y="23.299999"
   class="st4"
   width="484.70001"
   height="10.4"
   id="rect57"
   style="fill:none;stroke:#e5007e;stroke-width:0.25" />
		<rect
   x="-18.9"
   y="28.700001"
   class="st4"
   width="484.70001"
   height="5.0999999"
   id="rect59"
   style="fill:none;stroke:#e5007e;stroke-width:0.25" />
		<rect
   x="-18.9"
   y="31.4"
   class="st4"
   width="484.70001"
   height="2.4000001"
   id="rect61"
   style="fill:none;stroke:#e5007e;stroke-width:0.25" />
	</g>
</g>
<g
   id="Abstände"
   class="st2"
   style="display:none"
   transform="translate(0,1.5258789e-6)">
	<text
   transform="translate(5.1815,54.6733)"
   class="st5 st6 st7"
   id="text66"
   style="font-size:43.93500137px;font-family:BereitBold-Oblique;display:inline;fill:#e5007e">x</text>

	<polygon
   class="st8"
   points="-1,37.5 -4.6,44.4 -1.2,44.4 0.3,40.8 0.5,44.4 4,44.4 2.5,38 6.2,31.2 2.7,31.2 1.3,34.6 1,31.2 -2.4,31.2 "
   id="polygon68"
   style="display:inline;fill:#1d1d1b" />
	<polygon
   class="st9"
   points="-10.9,38.8 -13.9,44.4 -11.1,44.4 -9.8,41.5 -9.6,44.4 -6.8,44.4 -8,39.2 -5,33.7 -7.8,33.7 -9,36.4 -9.2,33.7 -12,33.7 "
   id="polygon70"
   style="display:inline;fill:#9ec764" />
	<polygon
   class="st9"
   points="28,7 25,12.5 27.8,12.5 29,9.6 29.2,12.5 32,12.5 30.9,7.4 33.8,1.8 31,1.8 29.9,4.6 29.6,1.8 26.8,1.8 "
   id="polygon72"
   style="display:inline;fill:#9ec764" />
	<polygon
   class="st9"
   points="28,60 25,65.6 27.8,65.6 29,62.7 29.2,65.6 32,65.6 30.9,60.4 33.8,54.9 31,54.9 29.9,57.6 29.6,54.9 26.8,54.9 "
   id="polygon74"
   style="display:inline;fill:#9ec764" />
	<text
   transform="translate(418.2047,54.5796)"
   class="st5 st6 st7"
   id="text76"
   style="font-size:43.93500137px;font-family:BereitBold-Oblique;display:inline;fill:#e5007e">x</text>

</g>
</svg>