<?xml version="1.0" encoding="UTF-8" standalone="no"?>
<svg
   xmlns:dc="http://purl.org/dc/elements/1.1/"
   xmlns:cc="http://creativecommons.org/ns#"
   xmlns:rdf="http://www.w3.org/1999/02/22-rdf-syntax-ns#"
   xmlns:svg="http://www.w3.org/2000/svg"
   xmlns="http://www.w3.org/2000/svg"
   xmlns:xlink="http://www.w3.org/1999/xlink"
   xmlns:sodipodi="http://sodipodi.sourceforge.net/DTD/sodipodi-0.dtd"
   xmlns:inkscape="http://www.inkscape.org/namespaces/inkscape"
   width="948"
   height="325"
   viewBox="0 0 710.99999 243.74999"
   version="1.2"
   id="svg974"
   sodipodi:docname="claim.svg"
   inkscape:version="0.92.4 (unknown)">
  <metadata
     id="metadata978">
    <rdf:RDF>
      <cc:Work
         rdf:about="">
        <dc:format>image/svg+xml</dc:format>
        <dc:type
           rdf:resource="http://purl.org/dc/dcmitype/StillImage" />
        <dc:title></dc:title>
      </cc:Work>
    </rdf:RDF>
  </metadata>
  <sodipodi:namedview
     pagecolor="#ffffff"
     bordercolor="#666666"
     borderopacity="1"
     objecttolerance="10"
     gridtolerance="10"
     guidetolerance="10"
     inkscape:pageopacity="0"
     inkscape:pageshadow="2"
     inkscape:window-width="1920"
     inkscape:window-height="995"
     id="namedview976"
     showgrid="false"
     units="px"
     inkscape:zoom="1.0319644"
     inkscape:cx="566.88"
     inkscape:cy="188.96"
     inkscape:window-x="0"
     inkscape:window-y="0"
     inkscape:window-maximized="1"
     inkscape:current-layer="svg974" />
  <defs
     id="defs923">
    <filter
       id="alpha"
       filterUnits="objectBoundingBox"
       x="0"
       y="0"
       width="1"
       height="1">
      <feColorMatrix
         type="matrix"
         in="SourceGraphic"
         values="0 0 0 0 1 0 0 0 0 1 0 0 0 0 1 0 0 0 1 0"
         id="feColorMatrix888" />
    </filter>
    <mask
       id="mask0">
      <g
         id="g893"
         style="filter:url(#alpha)">
        <rect
           x="0"
           y="0"
           width="850.32001"
           height="283.44"
           style="fill:#000000;fill-opacity:0.19999701;stroke:none"
           id="rect891" />
      </g>
    </mask>
    <clipPath
       id="clip2">
      <path
         d="M 0.0078125,0.3125 H 595.28125 V 140.62891 H 0.0078125 Z m 0,0"
         id="path896"
         inkscape:connector-curvature="0" />
    </clipPath>
    <clipPath
       id="clip1">
      <rect
         x="0"
         y="0"
         width="596"
         height="141"
         id="rect899" />
    </clipPath>
    <g
       id="surface6811"
       clip-path="url(#clip1)">
      <g
         clip-path="url(#clip2)"
         id="g904"
         style="clip-rule:nonzero">
        <path
           style="fill:#171714;fill-opacity:1;fill-rule:nonzero;stroke:none"
           d="M 0.0078125,140.62891 H 595.28125 L 539.92578,71.179688 595.28125,0.3125 H 0.0078125 Z m 0,0"
           id="path902"
           inkscape:connector-curvature="0" />
      </g>
    </g>
    <mask
       id="mask1">
      <g
         id="g909"
         style="filter:url(#alpha)">
        <rect
           x="0"
           y="0"
           width="850.32001"
           height="283.44"
           style="fill:#000000;fill-opacity:0.35000604;stroke:none"
           id="rect907" />
      </g>
    </mask>
    <clipPath
       id="clip4">
      <path
         d="M 0.0078125,0.3125 H 491.17578 V 48.800781 H 0.0078125 Z m 0,0"
         id="path912"
         inkscape:connector-curvature="0" />
    </clipPath>
    <clipPath
       id="clip3">
      <rect
         x="0"
         y="0"
         width="492"
         height="49"
         id="rect915" />
    </clipPath>
    <g
       id="surface6814"
       clip-path="url(#clip3)">
      <g
         clip-path="url(#clip4)"
         id="g920"
         style="clip-rule:nonzero">
        <path
           style="fill:#171714;fill-opacity:1;fill-rule:nonzero;stroke:none"
           d="M 491.17578,0.3125 H 0.0078125 V 48.800781 H 491.17578 Z m 0,0"
           id="path918"
           inkscape:connector-curvature="0" />
      </g>
    </g>
  </defs>
  <g
     id="surface6807"
     transform="translate(-64.703125,-24.878931)">
    <path
       style="fill:#e3007d;fill-opacity:1;fill-rule:nonzero;stroke:none"
       d="M 180.00781,268.62891 H 775.28125 L 719.92578,199.17969 775.28125,128.3125 H 180.00781 Z m 0,0"
       id="path925"
       inkscape:connector-curvature="0" />
    <use
       xlink:href="#surface6811"
       comp-op="multiply"
       transform="translate(180,128)"
       mask="url(#mask0)"
       id="use927"
       x="0"
       y="0"
       width="100%"
       height="100%" />
    <path
       style="fill:#e3007d;fill-opacity:1;fill-rule:nonzero;stroke:none"
       d="M 671.17578,128.3125 H 180.00781 v 48.48828 h 491.16797 z m 0,0"
       id="path929"
       inkscape:connector-curvature="0" />
    <use
       xlink:href="#surface6814"
       comp-op="multiply"
       transform="translate(180,128)"
       mask="url(#mask1)"
       id="use931"
       x="0"
       y="0"
       width="100%"
       height="100%" />
    <path
       style="fill:#e3007d;fill-opacity:1;fill-rule:nonzero;stroke:none"
       d="M 659.98047,165.82812 H 64.703125 L 120.05859,96.378906 64.703125,25.511719 H 659.98047 Z m 0,0"
       id="path933"
       inkscape:connector-curvature="0" />
    <path
       style="fill:#ffffff;fill-opacity:1;fill-rule:nonzero;stroke:none"
       d="m 335.05078,125.23828 h 9.55469 V 77.707031 l -14,8.351563 V 65.148438 l 25.11719,-14.78125 8.71484,0.117187 v 74.753905 h 9.61328 v 16.46094 h -39 z m 0,0"
       id="path935"
       inkscape:connector-curvature="0" />
    <path
       style="fill:#ffffff;fill-opacity:1;fill-rule:nonzero;stroke:none"
       d="m 409.26172,66.53125 c -5.94922,0 -11.11719,4.265625 -11.11719,9.191406 v 1.984375 h -18.6875 c 0.24219,-15.625 11.83594,-29.144531 29.80469,-29.144531 17.0625,0 30.22265,12.679688 30.22265,26.921875 0,7.691406 -3.42187,14.421875 -8.95312,18.324219 5.71094,3.246094 10.33594,10.816406 10.33594,19.832036 0,15.74218 -13.64063,29.14062 -31.48438,29.14062 -16.76562,0 -29.68359,-11.29688 -30.76562,-26.07812 -0.30078,-1.08204 -0.54297,-2.46485 -0.54297,-4.26563 h 18.86719 c 0.48046,8.35156 5.04687,12.25781 12.67968,12.25781 6.85157,0 12.4375,-4.92578 12.4375,-10.9375 0,-6.48828 -4.80468,-11.17578 -12.55859,-11.17578 h -8.41016 V 86.179688 h 8.53125 c 7.08985,0 11.17578,-4.027344 11.17578,-9.554688 0,-4.808594 -4.5664,-10.09375 -11.53515,-10.09375"
       id="path937"
       inkscape:connector-curvature="0" />
    <path
       style="fill:#ffffff;fill-opacity:1;fill-rule:nonzero;stroke:none"
       d="m 457.44922,122.29297 c 5.82812,0 10.57422,4.80469 10.57422,10.69531 0,5.88672 -4.7461,10.69531 -10.57422,10.69531 -6.00781,0 -10.69531,-4.80859 -10.69531,-10.69531 0,-5.89062 4.6875,-10.69531 10.69531,-10.69531"
       id="path939"
       inkscape:connector-curvature="0" />
    <path
       style="fill:#ffffff;fill-opacity:1;fill-rule:nonzero;stroke:none"
       d="m 529.3125,95.914062 c 0,-15.863281 -1.73828,-28.183593 -15.85938,-28.183593 -14.30468,0 -16.10546,12.320312 -16.10546,28.183593 0,16.222658 1.80078,28.179688 15.98437,28.179688 14.24219,0 15.98047,-11.95703 15.98047,-28.179688 m -51.43359,0.480469 c 0,-25.597656 9.2539,-46.871093 35.57421,-46.871093 25.95704,0 35.45313,20.910156 35.45313,46.390624 0,25.835938 -9.85938,46.628908 -35.57422,46.628908 -25.59766,0 -35.45312,-20.19141 -35.45312,-46.148439"
       id="path941"
       inkscape:connector-curvature="0" />
    <path
       style="fill:#ffffff;fill-opacity:1;fill-rule:nonzero;stroke:none"
       d="m 600.27734,87.441406 c 1.08203,-2.042968 1.98047,-4.507812 1.98047,-7.390625 0,-5.527343 -4.20312,-12.558593 -13.51953,-12.558593 -6.66797,0 -13.69922,4.566406 -13.69922,12.4375 0,7.511718 6.3086,12.4375 14.0586,12.4375 4.6289,0 8.65625,-1.679688 11.17968,-4.925782 m -31.1289,54.257814 18.44922,-32.38672 h -1.20313 c -15.62109,0 -29.20312,-13.160156 -29.20312,-28.902344 0,-17.488281 14.18359,-30.527344 31.54687,-30.527344 17.06641,0 31.36719,13.039063 31.36719,29.925782 0,7.992187 -3.54688,14.363281 -7.39063,21.273436 l -22.53515,40.61719 z m 0,0"
       id="path943"
       inkscape:connector-curvature="0" />
    <path
       style="fill:#ffffff;fill-opacity:1;fill-rule:nonzero;stroke:none"
       d="m 628.875,122.29297 c 5.82812,0 10.57812,4.80469 10.57812,10.69531 0,5.88672 -4.75,10.69531 -10.57812,10.69531 -6.00781,0 -10.69531,-4.80859 -10.69531,-10.69531 0,-5.89062 4.6875,-10.69531 10.69531,-10.69531"
       id="path945"
       inkscape:connector-curvature="0" />
    <path
       style="fill:#ffffff;fill-opacity:1;fill-rule:nonzero;stroke:none"
       d="m 229.97266,104.15625 h 12.57812 l -2.83984,-19.867188 z m 11.34375,14.94141 h 3.38671 l -1.44921,-10.07813 h -15.67188 l -4.92187,10.07813 h 4.1914 l -0.88672,5.03906 h -13.22656 l 0.89063,-5.03906 h 3.54687 l 19.63281,-39.37891 h 7.92969 l 5.71484,39.37891 h 4.08594 l -0.88672,5.03906 h -13.22656 z m 0,0"
       id="path947"
       inkscape:connector-curvature="0" />
    <path
       style="fill:#ffffff;fill-opacity:1;fill-rule:nonzero;stroke:none"
       d="m 264.16406,93.78125 h 8.8711 l -0.625,3.546875 h 0.0508 c 0.71093,-0.566406 1.44531,-1.097656 2.20703,-1.597656 0.75781,-0.496094 1.53906,-0.929688 2.33984,-1.300781 0.79688,-0.371094 1.61719,-0.667969 2.45313,-0.878907 0.83593,-0.214843 1.68359,-0.324219 2.54297,-0.324219 2.00781,0 3.66406,0.40625 4.97265,1.214844 1.3086,0.8125 2.20703,2.078125 2.69141,3.796875 0.79687,-0.664062 1.6289,-1.304687 2.48828,-1.921875 0.85937,-0.613281 1.73828,-1.144531 2.63281,-1.597656 0.89453,-0.449219 1.8125,-0.808594 2.75781,-1.082031 0.94532,-0.273438 1.90235,-0.410157 2.8711,-0.410157 1.5039,0 2.8164,0.222657 3.9375,0.671876 1.12109,0.453124 2.02344,1.132812 2.70312,2.050781 0.67969,0.921875 1.11328,2.097656 1.30078,3.53125 0.1836,1.437501 0.10547,3.132811 -0.23828,5.085941 l -2.5625,14.53125 h 3.8711 l -0.89063,5.03906 h -13.00781 l 0.88672,-5.03906 h 3.92578 l 2.44531,-13.85938 c 0.40625,-2.32422 0.17969,-4.08594 -0.68359,-5.289061 -0.85938,-1.199219 -2.3086,-1.800781 -4.33203,-1.800781 -1.19922,0 -2.48438,0.3125 -3.84766,0.9375 -1.36328,0.625 -2.57812,1.417972 -3.64453,2.375002 l -3.10938,17.63672 h 3.84375 l -0.88671,5.03906 h -12.98438 l 0.88672,-5.03906 h 3.92578 l 2.44531,-13.85938 c 0.40625,-2.32422 0.17969,-4.08594 -0.69531,-5.289061 -0.87109,-1.199219 -2.32031,-1.800781 -4.34375,-1.800781 -1.16797,0 -2.39453,0.304687 -3.68359,0.910156 -1.28907,0.605468 -2.54297,1.355466 -3.75782,2.253906 l -3.13671,17.78516 h 3.92578 l -0.89063,5.03906 H 258.8125 l 0.88672,-5.03906 h 3.87109 l 3.57422,-20.277348 h -3.86719 z m 0,0"
       id="path949"
       inkscape:connector-curvature="0" />
    <path
       style="fill:#ffffff;fill-opacity:1;fill-rule:nonzero;stroke:none"
       d="m 247.8125,241.63281 1.85547,-10.51562 c -1.125,1.82031 -2.41016,3.40625 -3.85547,4.75781 -1.44141,1.34766 -2.98047,2.46094 -4.61719,3.33594 -1.63672,0.8789 -3.33203,1.53515 -5.09375,1.97265 -1.75781,0.4375 -3.5039,0.65625 -5.24219,0.65625 -3.1289,0 -5.91796,-0.57031 -8.35937,-1.71093 -2.44531,-1.14454 -4.51953,-2.95704 -6.22656,-5.44922 -1.71094,-2.49219 -2.83203,-5.44141 -3.35938,-8.85547 -0.53125,-3.41406 -0.46875,-6.97656 0.1875,-10.69141 0.65625,-3.73437 1.84766,-7.26562 3.56641,-10.58203 1.71484,-3.32422 3.8125,-6.21484 6.28906,-8.68359 2.47656,-2.46875 5.25391,-4.40625 8.32422,-5.8125 3.07031,-1.40625 6.26172,-2.10938 9.55859,-2.10938 3.04688,0 5.58203,0.47266 7.60547,1.41797 2.02344,0.94531 3.69531,2.08984 5.01172,3.44141 1.31641,1.34765 2.33203,2.63281 3.04688,3.85547 h 3.08203 L 258.5,202.82031 h -6.82422 c -0.95703,-2.6289 -2.46875,-4.70703 -4.53516,-6.22656 -2.07031,-1.52344 -4.55859,-2.26172 -7.46484,-2.21484 -2.43359,0 -4.76562,0.5664 -6.99609,1.6914 -2.23047,1.13281 -4.24219,2.65625 -6.02735,4.57031 -1.78515,1.91407 -3.30078,4.11719 -4.54297,6.60547 -1.24218,2.49219 -2.10937,5.1211 -2.59765,7.88672 -0.53906,3.06641 -0.59766,5.91797 -0.17188,8.54688 0.42188,2.6289 1.17969,4.76172 2.26563,6.39843 1.08594,1.63672 2.54687,2.99219 4.375,4.06641 1.83203,1.07031 3.97656,1.60938 6.42969,1.60938 4.0625,0 7.58593,-1.07813 10.57031,-3.23438 2.98047,-2.15625 5.39453,-5.51953 7.23437,-10.08594 h -13.45703 l 1.05078,-5.94922 h 20.34375 l -4.4375,25.14844 z m 0,0"
       id="path951"
       inkscape:connector-curvature="0" />
    <path
       style="fill:#ffffff;fill-opacity:1;fill-rule:nonzero;stroke:none"
       d="M 289.90234,213.16406 H 283.875 l 0.39062,-2.21484 c -0.69921,0 -1.4414,0.14453 -2.21875,0.43359 -0.78125,0.28516 -1.54296,0.72266 -2.27734,1.3125 -0.74219,0.58985 -1.42969,1.33985 -2.06641,2.25 -0.63671,0.91016 -1.16796,1.98828 -1.60156,3.23438 l -3.05078,17.29297 h 5.58984 l -1.05078,5.95312 h -16.3125 l 1.04688,-5.95312 h 4.53906 l 4.25391,-23.9375 h -4.57032 l 1.04688,-5.94922 h 10.50781 l -0.87109,4.94922 c 0.50781,-0.73829 1.05859,-1.42579 1.64453,-2.0586 0.58984,-0.63672 1.21484,-1.1875 1.88281,-1.66406 0.66406,-0.46875 1.375,-0.83984 2.12891,-1.10547 0.75781,-0.26562 1.54687,-0.39844 2.37109,-0.39844 h 3.10938 c 0.97265,0 1.94531,0.0234 2.91015,0.0703 z m 0,0"
       id="path953"
       inkscape:connector-curvature="0" />
    <path
       style="fill:#ffffff;fill-opacity:1;fill-rule:nonzero;stroke:none"
       d="m 317.90625,194.37891 c 0.10547,-0.60157 0.32031,-1.17188 0.63672,-1.71485 0.3164,-0.53906 0.69531,-1.01562 1.13672,-1.41406 0.4414,-0.40625 0.93359,-0.73047 1.47265,-0.97266 0.53907,-0.23828 1.08594,-0.35937 1.63672,-0.35937 0.52735,0 1.01172,0.12109 1.44141,0.35937 0.43359,0.24219 0.80078,0.56641 1.10156,0.97266 0.29688,0.39844 0.50391,0.875 0.62109,1.41406 0.11719,0.54297 0.1211,1.11328 0.0156,1.71485 -0.10938,0.62109 -0.32031,1.21093 -0.62891,1.76171 -0.30859,0.55469 -0.6875,1.04688 -1.13281,1.47266 -0.44531,0.42578 -0.92578,0.76172 -1.44531,1 -0.51953,0.24219 -1.04297,0.36719 -1.57031,0.36719 -0.55079,0 -1.05469,-0.125 -1.50782,-0.36719 -0.45703,-0.23828 -0.83203,-0.57422 -1.125,-1 -0.29687,-0.42578 -0.5039,-0.91797 -0.6289,-1.47266 -0.125,-0.55078 -0.13282,-1.14062 -0.0234,-1.76171 m -14.56641,0 c 0.10547,-0.60157 0.31641,-1.17188 0.63672,-1.71485 0.31641,-0.53906 0.69531,-1.01562 1.13672,-1.41406 0.44141,-0.40625 0.93359,-0.73047 1.47266,-0.97266 0.53906,-0.23828 1.08593,-0.35937 1.63672,-0.35937 0.52734,0 1.01171,0.12109 1.45703,0.35937 0.44531,0.24219 0.80859,0.56641 1.09765,0.97266 0.28907,0.39844 0.49219,0.875 0.60938,1.41406 0.11328,0.54297 0.12109,1.11328 0.0156,1.71485 -0.10937,0.62109 -0.32031,1.21093 -0.6289,1.76171 -0.3086,0.55469 -0.67969,1.04688 -1.11719,1.47266 -0.43359,0.42578 -0.91797,0.76172 -1.44531,1 -0.53125,0.24219 -1.0586,0.36719 -1.58594,0.36719 -0.55078,0 -1.05469,-0.125 -1.50781,-0.36719 -0.45703,-0.23828 -0.83203,-0.57422 -1.125,-1 -0.29688,-0.42578 -0.50391,-0.91797 -0.62891,-1.47266 -0.125,-0.55078 -0.13281,-1.14062 -0.0234,-1.76171 m 14.5586,11.20703 H 328.5 l -5.26953,29.89062 h 3.64844 l -1.05079,5.94922 h -9.58593 l 0.58984,-3.32031 c -1.70312,1.24609 -3.48828,2.21094 -5.35547,2.90625 -1.86719,0.6914 -3.79297,1.03515 -5.78515,1.03515 -1.64844,0 -3.09766,-0.25781 -4.35157,-0.77734 -1.25,-0.51953 -2.25,-1.32812 -3,-2.42187 -0.75,-1.09375 -1.22656,-2.48438 -1.4375,-4.16797 -0.21484,-1.6836 -0.11328,-3.69141 0.29688,-6.01953 l 3.01953,-17.125 h -4.44141 l 1.04688,-5.94922 h 10.60156 l -3.9375,22.3125 c -0.48047,2.74609 -0.26562,4.82031 0.65234,6.22656 0.91407,1.40625 2.46094,2.10937 4.64063,2.10937 1.28906,0 2.69531,-0.2539 4.21094,-0.75781 1.51953,-0.50781 2.99218,-1.21094 4.41797,-2.11328 l 3.85156,-21.82812 h -4.41406 z m 0,0"
       id="path955"
       inkscape:connector-curvature="0" />
    <path
       style="fill:#ffffff;fill-opacity:1;fill-rule:nonzero;stroke:none"
       d="m 356.01562,235.47656 h 4.63282 l 2.88672,-16.36328 c 0.48046,-2.74609 0.20703,-4.82422 -0.82032,-6.24609 -1.03125,-1.41797 -2.74218,-2.125 -5.13281,-2.125 -1.375,0 -2.82422,0.35547 -4.34375,1.07031 -1.52344,0.71484 -3.00391,1.60156 -4.44141,2.66406 l -3.69921,21 h 4.63281 l -1.05078,5.94922 h -15.35938 l 1.05078,-5.94922 h 4.57032 l 4.21875,-23.9414 h -4.57032 l 1.05078,-5.94922 h 10.47266 l -0.74609,4.21875 h 0.0625 c 0.8164,-0.66797 1.67578,-1.30078 2.57422,-1.90235 0.90234,-0.59765 1.82421,-1.11718 2.76953,-1.55468 0.9414,-0.4375 1.90625,-0.78516 2.89453,-1.03907 0.98437,-0.2539 1.99609,-0.3789 3.03515,-0.3789 1.75391,0 3.29297,0.26562 4.6211,0.79687 1.32031,0.53125 2.38672,1.33594 3.1875,2.42188 0.80469,1.08203 1.32812,2.47265 1.5664,4.16797 0.24219,1.69531 0.16016,3.69531 -0.25,6 l -3.02343,17.16015 h 4.57031 l -1.05078,5.94922 h -15.35938 z m 0,0"
       id="path957"
       inkscape:connector-curvature="0" />
    <path
       style="fill:#ffffff;fill-opacity:1;fill-rule:nonzero;stroke:none"
       d="m 393.21094,205.58594 h 10.41015 l -1.05078,5.94922 h -1.52344 l 1.71094,22.86718 12.95313,-28.8164 h 4.94922 l 2.45312,28.74609 10.01953,-22.79687 h -1.90625 l 1.05078,-5.94922 h 10.41016 l -1.05078,5.94922 h -2.82422 l -14.38281,30.44531 h -5.45703 l -2.41407,-28.60938 -12.46875,28.60938 h -5.52343 l -3.58204,-30.44531 h -2.82421 z m 0,0"
       id="path959"
       inkscape:connector-curvature="0" />
    <path
       style="fill:#ffffff;fill-opacity:1;fill-rule:nonzero;stroke:none"
       d="m 465.73437,194.37891 c 0.10547,-0.60157 0.31641,-1.17188 0.63282,-1.71485 0.3164,-0.53906 0.69922,-1.01562 1.14062,-1.41406 0.44141,-0.40625 0.92969,-0.73047 1.46875,-0.97266 0.54297,-0.23828 1.08594,-0.35937 1.63672,-0.35937 0.52734,0 1.01172,0.12109 1.44531,0.35937 0.4336,0.24219 0.79688,0.56641 1.09766,0.97266 0.30078,0.39844 0.50781,0.875 0.62109,1.41406 0.11719,0.54297 0.1211,1.11328 0.0156,1.71485 -0.10938,0.62109 -0.32031,1.21093 -0.625,1.76171 -0.3125,0.55469 -0.69141,1.04688 -1.13281,1.47266 -0.44922,0.42578 -0.92969,0.76172 -1.44922,1 -0.51953,0.24219 -1.04297,0.36719 -1.57032,0.36719 -0.55078,0 -1.05468,-0.125 -1.50781,-0.36719 -0.45312,-0.23828 -0.82812,-0.57422 -1.125,-1 -0.29297,-0.42578 -0.5039,-0.91797 -0.6289,-1.47266 -0.125,-0.55078 -0.12891,-1.14062 -0.0195,-1.76171 m -14.5664,0 c 0.10156,-0.60157 0.3164,-1.17188 0.63281,-1.71485 0.32031,-0.53906 0.69922,-1.01562 1.13672,-1.41406 0.44141,-0.40625 0.93359,-0.73047 1.47266,-0.97266 0.54296,-0.23828 1.08593,-0.35937 1.63671,-0.35937 0.52735,0 1.01563,0.12109 1.45704,0.35937 0.44531,0.24219 0.8125,0.56641 1.10156,0.97266 0.28906,0.39844 0.48828,0.875 0.60547,1.41406 0.11718,0.54297 0.12109,1.11328 0.0156,1.71485 -0.10937,0.62109 -0.32031,1.21093 -0.6289,1.76171 -0.3086,0.55469 -0.67969,1.04688 -1.11719,1.47266 -0.4336,0.42578 -0.91406,0.76172 -1.44531,1 -0.53125,0.24219 -1.0586,0.36719 -1.58594,0.36719 -0.55078,0 -1.05469,-0.125 -1.50781,-0.36719 -0.45313,-0.23828 -0.82813,-0.57422 -1.125,-1 -0.29297,-0.42578 -0.50391,-0.91797 -0.62891,-1.47266 -0.125,-0.55078 -0.13281,-1.14062 -0.0195,-1.76171 m 2.28515,42.65234 c 0.78125,0 1.58204,-0.10156 2.40235,-0.3125 0.8164,-0.20703 1.60937,-0.48828 2.37109,-0.84375 0.76172,-0.35938 1.48047,-0.77344 2.15625,-1.24609 0.67188,-0.47266 1.25781,-0.96485 1.75,-1.47266 l 1.45703,-8.09375 h -6.85547 c -1.14062,0 -2.20703,0.13672 -3.19531,0.41406 -0.99219,0.27735 -1.8789,0.67969 -2.66015,1.21094 -0.78125,0.53125 -1.42969,1.1875 -1.94922,1.97266 -0.51953,0.78515 -0.86719,1.68359 -1.04688,2.69921 -0.16797,0.94532 -0.15625,1.76954 0.0391,2.47266 0.19141,0.70313 0.53907,1.29297 1.03907,1.76563 0.5,0.47265 1.125,0.82812 1.88672,1.07031 0.76171,0.24219 1.6289,0.36328 2.60546,0.36328 m 7.8086,1.07422 c -1.47266,1.26562 -3.03906,2.30469 -4.69141,3.11328 -1.65625,0.80469 -3.44531,1.21094 -5.37109,1.21094 -1.60938,0 -3.03516,-0.27735 -4.28125,-0.83203 -1.2461,-0.55469 -2.27344,-1.3086 -3.07813,-2.26563 -0.80078,-0.95703 -1.36328,-2.07031 -1.67578,-3.33594 -0.32031,-1.26953 -0.35156,-2.62109 -0.0976,-4.05078 0.26953,-1.51953 0.71093,-2.87109 1.33203,-4.04687 0.62109,-1.17578 1.35156,-2.19532 2.1914,-3.0625 0.83985,-0.86328 1.76953,-1.58985 2.79297,-2.17969 1.02735,-0.58594 2.07422,-1.05859 3.14063,-1.41797 1.0664,-0.35547 2.14062,-0.60937 3.21093,-0.75781 1.07422,-0.15235 2.08594,-0.22656 3.03907,-0.22656 1.52343,0 2.79687,0.0508 3.8125,0.15625 1.01953,0.10156 1.93359,0.24609 2.75,0.43359 l 0.55078,-2.94141 c 0.22265,-1.26953 0.24609,-2.37109 0.0742,-3.30468 -0.17188,-0.9336 -0.51563,-1.70704 -1.01953,-2.32032 -0.50782,-0.60937 -1.16016,-1.0625 -1.96485,-1.36328 -0.80469,-0.30078 -1.73437,-0.44922 -2.79297,-0.44922 -0.99609,0 -1.96093,0.0742 -2.89453,0.22657 -0.9375,0.14843 -1.82422,0.34375 -2.66015,0.58593 -0.83594,0.24219 -1.61719,0.51953 -2.33594,0.82813 -0.72266,0.3125 -1.34766,0.64062 -1.8711,0.98828 l -1.14843,-4.46484 c 0.8789,-0.55079 1.82422,-1.0625 2.83984,-1.53907 1.01563,-0.46875 2.0625,-0.875 3.14844,-1.21093 1.08594,-0.33204 2.17969,-0.59766 3.28515,-0.79297 1.10157,-0.19532 2.17188,-0.29297 3.20704,-0.29297 1.90625,0 3.57421,0.24609 5.01171,0.74219 1.4375,0.49609 2.58985,1.26171 3.46485,2.30078 0.875,1.03515 1.45703,2.35547 1.74609,3.96093 0.28906,1.60157 0.23438,3.51954 -0.16015,5.75782 l -3.1875,17.92187 h 3.64843 l -1.05078,5.94922 h -9.55078 z m 0,0"
       id="path961"
       inkscape:connector-curvature="0" />
    <path
       style="fill:#ffffff;fill-opacity:1;fill-rule:nonzero;stroke:none"
       d="m 486.82812,187.59766 h 10.41016 l -3.86719,21.93359 h 0.1875 c 0.70703,-0.64453 1.4961,-1.25 2.3711,-1.81641 0.87109,-0.5664 1.76562,-1.05468 2.6875,-1.47265 0.91797,-0.41407 1.85156,-0.73828 2.80468,-0.96875 0.94922,-0.23047 1.92188,-0.34375 2.91797,-0.34375 1.75391,0 3.29297,0.26562 4.61719,0.79687 1.32422,0.53125 2.39063,1.33594 3.19141,2.42188 0.80468,1.08203 1.32422,2.47265 1.5664,4.16797 0.23828,1.69531 0.15625,3.69531 -0.25,6 l -3.02343,17.16015 h 4.94921 l -1.04687,5.94922 h -15.61719 l 1.05078,-5.94922 h 4.50782 l 2.88281,-16.36328 c 0.48437,-2.74609 0.21094,-4.82812 -0.82031,-6.24609 -1.02735,-1.41797 -2.73829,-2.125 -5.12891,-2.125 -1.35547,0 -2.79297,0.35156 -4.3125,1.05468 -1.51953,0.70313 -2.98828,1.58594 -4.40234,2.64454 l -3.70704,21.03515 h 4.76172 l -1.05078,5.94922 h -15.61719 l 1.05079,-5.94922 h 4.95312 l 7.39063,-41.92969 h -4.50782 z m 0,0"
       id="path963"
       inkscape:connector-curvature="0" />
    <path
       style="fill:#ffffff;fill-opacity:1;fill-rule:nonzero;stroke:none"
       d="m 529.10156,187.59766 h 10.66406 l -8.4414,47.8789 h 4.94922 l -1.05078,5.94922 h -15.61329 l 1.05079,-5.94922 h 4.76171 l 7.39063,-41.92969 h -4.76172 z m 0,0"
       id="path965"
       inkscape:connector-curvature="0" />
    <path
       style="fill:#ffffff;fill-opacity:1;fill-rule:nonzero;stroke:none"
       d="m 560.05469,210.05078 c -1.375,0 -2.61328,0.21094 -3.71485,0.64063 -1.10156,0.42578 -2.08203,1.03515 -2.9414,1.83203 -0.85938,0.79297 -1.60938,1.76953 -2.2461,2.92187 -0.63672,1.15235 -1.1875,2.44531 -1.64843,3.875 h 17.03906 c 0.15234,-1.33594 0.17578,-2.57031 0.0664,-3.70312 -0.10546,-1.12891 -0.40625,-2.10938 -0.89453,-2.9375 -0.48828,-0.83203 -1.1875,-1.47657 -2.09765,-1.9375 -0.91407,-0.46485 -2.10157,-0.69141 -3.5625,-0.69141 m -11.75391,14.28516 c -0.17969,1.01562 -0.27344,1.9414 -0.28516,2.78515 -0.0117,0.84375 0.043,1.64453 0.16407,2.40235 0.375,2.30859 1.32031,4.04297 2.84375,5.20703 1.51562,1.16406 3.36718,1.74609 5.54687,1.74609 1.71485,0 3.42188,-0.25781 5.13281,-0.77734 1.71094,-0.51953 3.55469,-1.33203 5.52344,-2.4375 l 1.60547,4.39062 c -2.44141,1.61719 -4.82031,2.81641 -7.13672,3.60157 -2.32031,0.78125 -4.65234,1.17578 -7,1.17578 -2.22265,0 -4.20703,-0.40625 -5.96094,-1.21094 -1.75,-0.80859 -3.16796,-2.00781 -4.25,-3.60156 -1.08593,-1.58985 -1.80468,-3.57032 -2.15625,-5.94922 -0.35546,-2.3711 -0.2539,-5.14063 0.30469,-8.30078 0.44922,-2.5586 1.20313,-4.97657 2.25781,-7.2461 1.0586,-2.27343 2.38672,-4.25781 3.98829,-5.94922 1.59765,-1.69531 3.44921,-3.03906 5.55078,-4.03125 2.09765,-0.99218 4.42968,-1.48828 6.98828,-1.48828 2.47656,0 4.47265,0.41016 5.98828,1.22657 1.51562,0.82031 2.67969,1.90234 3.49219,3.2539 0.80468,1.34766 1.32812,2.88672 1.5625,4.61719 0.23437,1.73047 0.30078,3.49219 0.19531,5.29297 -0.0508,0.8789 -0.13672,1.76562 -0.26563,2.66406 -0.125,0.89844 -0.26562,1.77734 -0.41406,2.62891 z m 0,0"
       id="path967"
       inkscape:connector-curvature="0" />
    <path
       style="fill:#ffffff;fill-opacity:1;fill-rule:nonzero;stroke:none"
       d="m 597.76953,235.47656 h 4.63281 l 2.88672,-16.36328 c 0.48047,-2.74609 0.20703,-4.82422 -0.82031,-6.24609 -1.03125,-1.41797 -2.74219,-2.125 -5.13281,-2.125 -1.375,0 -2.82422,0.35547 -4.34375,1.07031 -1.52344,0.71484 -3.00391,1.60156 -4.44141,2.66406 l -3.69922,21 h 4.63281 l -1.05078,5.94922 h -15.35937 l 1.05078,-5.94922 h 4.57031 l 4.21875,-23.9414 h -4.57031 l 1.05078,-5.94922 h 10.47266 l -0.7461,4.21875 h 0.0625 c 0.81641,-0.66797 1.67578,-1.30078 2.57422,-1.90235 0.90235,-0.59765 1.82422,-1.11718 2.76953,-1.55468 0.94141,-0.4375 1.90625,-0.78516 2.89453,-1.03907 0.98438,-0.2539 1.9961,-0.3789 3.03516,-0.3789 1.75391,0 3.29297,0.26562 4.62109,0.79687 1.32422,0.53125 2.38672,1.33594 3.1875,2.42188 0.80469,1.08203 1.32422,2.47265 1.56641,4.16797 0.24219,1.69531 0.16016,3.69531 -0.25,6 l -3.02344,17.16015 h 4.57032 l -1.05079,5.94922 h -15.35937 z m 0,0"
       id="path969"
       inkscape:connector-curvature="0" />
    <path
       style="fill:#ffffff;fill-opacity:1;fill-rule:nonzero;stroke:none"
       d="m 631.57031,186.87109 h 8.25 l -8.42187,40.3711 h -5.64453 z m -8.88281,50.36719 c 0.10547,-0.59766 0.32031,-1.16797 0.63281,-1.71094 0.32031,-0.54297 0.69922,-1.01562 1.14063,-1.41797 0.4414,-0.40234 0.9375,-0.72656 1.48828,-0.96875 0.55078,-0.24218 1.11328,-0.36328 1.68359,-0.36328 0.55078,0 1.05078,0.1211 1.50391,0.36328 0.45703,0.24219 0.83203,0.56641 1.13281,0.96875 0.29688,0.40235 0.51172,0.875 0.63672,1.41797 0.12891,0.54297 0.14062,1.11328 0.0312,1.71094 -0.10547,0.625 -0.32422,1.21094 -0.64063,1.76563 -0.32031,0.55468 -0.70703,1.04296 -1.14843,1.46875 -0.44532,0.42968 -0.9375,0.76171 -1.48047,1.0039 -0.53906,0.24219 -1.08203,0.36328 -1.63281,0.36328 -0.57032,0 -1.08985,-0.12109 -1.55469,-0.36328 -0.46485,-0.24219 -0.84766,-0.57422 -1.14063,-1.0039 -0.29687,-0.42579 -0.5039,-0.91407 -0.6289,-1.46875 -0.125,-0.55469 -0.13282,-1.14063 -0.0234,-1.76563"
       id="path971"
       inkscape:connector-curvature="0" />
  </g>
</svg>
