<?xml version="1.0" encoding="UTF-8" standalone="no"?>
<svg
   xmlns:dc="http://purl.org/dc/elements/1.1/"
   xmlns:cc="http://creativecommons.org/ns#"
   xmlns:rdf="http://www.w3.org/1999/02/22-rdf-syntax-ns#"
   xmlns:svg="http://www.w3.org/2000/svg"
   xmlns="http://www.w3.org/2000/svg"
   xmlns:sodipodi="http://sodipodi.sourceforge.net/DTD/sodipodi-0.dtd"
   xmlns:inkscape="http://www.inkscape.org/namespaces/inkscape"
   id="Ebene_1"
   data-name="Ebene 1"
   width="608.65509"
   height="669.08978"
   viewBox="0 0 456.5 501.81"
   version="1.1"
   sodipodi:docname="pin.svg"
   inkscape:version="0.92.4 (unknown)">
  <metadata
     id="metadata45">
    <rdf:RDF>
      <cc:Work
         rdf:about="">
        <dc:format>image/svg+xml</dc:format>
        <dc:type
           rdf:resource="http://purl.org/dc/dcmitype/StillImage" />
        <dc:title>kw2020pin</dc:title>
      </cc:Work>
    </rdf:RDF>
  </metadata>
  <sodipodi:namedview
     pagecolor="#ffffff"
     bordercolor="#666666"
     borderopacity="1"
     objecttolerance="10"
     gridtolerance="10"
     guidetolerance="10"
     inkscape:pageopacity="0"
     inkscape:pageshadow="2"
     inkscape:window-width="1920"
     inkscape:window-height="995"
     id="namedview43"
     showgrid="false"
     inkscape:zoom="1.410872"
     inkscape:cx="317.08021"
     inkscape:cy="271.14048"
     inkscape:window-x="0"
     inkscape:window-y="0"
     inkscape:window-maximized="1"
     inkscape:current-layer="Ebene_1"
     units="px" />
  <defs
     id="defs4">
    <style
       id="style2">.cls-1{fill:#e6007e;}.cls-2{fill:#fff;}</style>
  </defs>
  <title
     id="title6">kw2020pin</title>
  <path
     style="fill:#e6007e;fill-opacity:1"
     inkscape:connector-curvature="0"
     class="cls-1"
     d="M 451.88,182.75 C 426.75,59.25 306.26,-20.5 182.75,4.63 59.24,29.76 -20.5,150.24 4.63,273.75 c 1.44,7.1 52.65,228.06 52.65,228.06 l 229,-52.87 C 402.58,418.47 476.14,302 451.88,182.75"
     id="path8" />
  <path
     class="cls-2"
     d="m 160.87,154.21 22.33,-5.21 2.2,9.46 -5.51,1.28 7.73,33.26 5.51,-1.27 2.18,9.42 -22.31,5.22 -2.19,-9.43 5.41,-1.25 -7.73,-33.28 -5.4,1.26 z"
     id="path14"
     inkscape:connector-curvature="0"
     style="fill:#ffffff" />
  <path
     class="cls-2"
     d="m 189.6,147.53 22.33,-5.18 2.2,9.46 -5.51,1.28 7.73,33.27 11.36,-2.63 c 1.2,-0.28 2,-2.1 1.73,-3.31 l -1.62,-7 11.18,-2.57 4.42,19.15 -41.71,9.69 -2.19,-9.43 5.41,-1.25 -7.73,-33.28 -5.4,1.27 z"
     id="path16"
     inkscape:connector-curvature="0"
     style="fill:#ffffff" />
  <path
     class="cls-2"
     d="m 158.49,229 27.59,-6.41 c 10.74,-2.49 18.6,3 20.4,10.71 1.62,7 -0.63,11.17 -5.46,15.05 2.58,0.67 5.08,2.66 6.87,6.31 l 3.5,7.09 4.3,-1 2.25,9.42 -15.14,3.53 -4.94,-11.91 c -2.2,-5.72 -5.25,-7.62 -10.82,-6.33 l -4.44,1 2.63,11.36 4.79,-1.12 2.19,9.43 -21.61,5 -2.19,-9.43 5.4,-1.25 -7.73,-33.27 -5.4,1.25 z m 19,5.55 2.93,12.63 6.85,-1.59 c 5.19,-1.21 8.08,-3.91 7.09,-8.21 -0.93,-4 -4.45,-5.71 -10,-4.42 z"
     id="path22"
     inkscape:connector-curvature="0"
     style="fill:#ffffff" />
  <path
     class="cls-2"
     d="m 157.44,303.52 41.5,-9.64 3.91,16.86 -11.21,2.61 -1.72,-7.4 -13.46,3.12 2.67,11.49 10.36,-2.4 2.19,9.43 -10.36,2.41 2.87,12.35 13.45,-3.12 -2.15,-9.23 11.22,-2.6 4.34,18.6 -41.5,9.64 -2.19,-9.43 5.41,-1.25 -7.77,-33.24 -5.4,1.26 z"
     id="path28"
     inkscape:connector-curvature="0"
     style="fill:#ffffff" />
  <path
     class="cls-2"
     d="m 204.92,292.49 27.59,-6.41 c 10.74,-2.49 18.61,3 20.4,10.71 1.63,7 -0.63,11.18 -5.46,15 2.59,0.67 5.08,2.67 6.87,6.31 l 3.5,7.1 4.3,-1 2.26,9.41 -15.14,3.52 -4.94,-11.91 c -2.2,-5.73 -5.26,-7.63 -10.83,-6.34 L 229,320 l 2.64,11.36 4.78,-1.11 2.19,9.43 -21.61,5 -2.19,-9.43 5.4,-1.26 -7.72,-33.27 -5.38,1.28 z m 19,5.56 2.93,12.63 6.85,-1.59 c 5.2,-1.21 8.09,-3.91 7.09,-8.21 -0.93,-4 -4.45,-5.72 -10,-4.42 z"
     id="path30"
     inkscape:connector-curvature="0"
     style="fill:#ffffff" />
  <path
     class="cls-2"
     d="m 127.7,384.68 41.49,-9.63 3.92,16.86 -11.22,2.6 -1.72,-7.4 -13.45,3.13 2.67,11.49 10.35,-2.41 2.19,9.43 -10.35,2.41 2.86,12.35 13.46,-3.12 -2.15,-9.26 11.25,-2.61 4.33,18.69 -41.49,9.63 -2.19,-9.42 5.4,-1.26 -7.73,-33.27 -5.4,1.25 z"
     id="path34"
     inkscape:connector-curvature="0"
     style="fill:#ffffff" />
  <path
     class="cls-2"
     d="m 185.09,416.39 5.34,-1.24 -7.73,-33.27 -5.33,1.24 -2.21,-9.53 25.44,-5.84 a 16.08,16.08 0 0 1 19.74,12.06 c 1.16,5 0.06,8.69 -2.72,11.44 a 11.44,11.44 0 0 1 7.89,8.68 c 2.19,9.43 -3.13,17.74 -12,19.81 l -26.19,6.08 z m 9,-37.16 2.71,11.7 8.2,-1.93 c 2.58,-0.59 4.06,-3.91 3.39,-6.8 -0.67,-2.89 -3.52,-5.49 -6.1,-4.89 z m 4.9,21.12 2.82,12.15 8.67,-2 c 2.69,-0.63 4.1,-4.07 3.36,-7.27 -0.79,-3.37 -3.56,-5.49 -6.18,-4.88 z"
     id="path36"
     inkscape:connector-curvature="0"
     style="fill:#ffffff" />
  <path
     class="cls-2"
     d="m 222.85,362.58 41.5,-9.63 3.92,16.86 -11.22,2.6 -1.72,-7.41 -13.45,3.12 2.67,11.49 10.35,-2.4 2.19,9.43 -10.36,2.4 2.87,12.35 13.46,-3.12 -2.15,-9.27 11.22,-2.6 4.33,18.68 -41.46,9.67 -2.19,-9.43 5.4,-1.25 -7.73,-33.28 -5.4,1.26 z"
     id="path38"
     inkscape:connector-curvature="0"
     style="fill:#ffffff" />
  <path
     class="cls-2"
     d="m 304.36,343.66 19.79,-4.6 2.19,9.47 -4.23,1 9.92,42.7 -11.39,2.64 -29.07,-28.2 5.51,23.74 4,-0.94 2.19,9.43 -20.86,4.84 -2.18,-9.43 5.4,-1.25 -7.73,-33.27 -5.3,1.21 -2.2,-9.47 16.83,-3.9 29.14,28.84 -5.65,-24.33 -4.16,1 z"
     id="path40"
     inkscape:connector-curvature="0"
     style="fill:#ffffff" />
  <path
     class="cls-2"
     d="m 86.5,171.48 22.33,-5.19 2.2,9.46 -4.72,1.1 -2.09,45.49 -14.86,3.45 -15.44,-30.72 -0.49,34.42 -14.73,3.42 -22.13,-39.91 -5.27,1.22 -2.19,-9.46 22.36,-5.19 2.2,9.46 -5.44,1.26 14.2,26.33 L 63,177 l 12.8,-3 17.78,35.36 1.18,-29.9 -6,1.41 z"
     id="path10"
     inkscape:connector-curvature="0"
     style="fill:#ffffff" />
  <path
     class="cls-2"
     d="m 113.4,165.23 41.49,-9.64 3.92,16.86 -11.22,2.61 -1.72,-7.4 -13.45,3.13 2.67,11.49 10.35,-2.41 2.19,9.43 -10.35,2.41 2.86,12.35 13.46,-3.13 -2.15,-9.25 11.22,-2.61 4.33,18.69 -41.49,9.63 -2.19,-9.39 5.4,-1.26 -7.72,-33.3 -5.4,1.25 z"
     id="path12"
     inkscape:connector-curvature="0"
     style="fill:#ffffff" />
  <path
     class="cls-2"
     d="m 102.86,241.93 22.33,-5.18 2.2,9.46 -4.71,1.1 -2.1,45.48 -14.86,3.46 -15.44,-30.72 -0.49,34.47 -14.73,3.42 -22.13,-39.92 -5.27,1.22 -2.19,-9.46 22.36,-5.19 2.2,9.46 -5.44,1.26 14.2,26.33 0.56,-39.62 12.8,-3 17.78,35.36 1.18,-29.9 -6,1.41 z"
     id="path18"
     inkscape:connector-curvature="0"
     style="fill:#ffffff" />
  <path
     class="cls-2"
     d="m 129.76,235.69 22.33,-5.19 2.19,9.47 -5.5,1.27 7.73,33.28 5.5,-1.28 2.19,9.43 -22.33,5.18 -2.19,-9.43 5.4,-1.25 -7.72,-33.27 -5.36,1.25 z"
     id="path20"
     inkscape:connector-curvature="0"
     style="fill:#ffffff" />
  <path
     class="cls-2"
     d="m 100,316.86 22.37,-5.19 2.2,9.46 -5.57,1.28 7.73,33.28 5.5,-1.28 2.19,9.42 -22.35,5.17 -2.19,-9.43 5.43,-1.26 -3.1,-13.31 -23.53,5.46 3.1,13.35 5.5,-1.28 2.19,9.47 -22.33,5.19 -2.14,-9.48 5.4,-1.25 -7.72,-33.28 -5.4,1.26 L 65,325 l 22.33,-5.18 2.2,9.46 -5.51,1.28 2.52,10.84 23.53,-5.47 -2.51,-10.83 -5.44,1.26 z"
     id="path24"
     inkscape:connector-curvature="0"
     style="fill:#ffffff" />
  <path
     class="cls-2"
     d="M 128.71,310.19 151,305 l 2.2,9.46 -5.51,1.28 7.77,33.26 5.51,-1.28 2.19,9.42 -22.34,5.19 -2.19,-9.43 5.41,-1.25 -7.73,-33.27 -5.4,1.25 z"
     id="path26"
     inkscape:connector-curvature="0"
     style="fill:#ffffff" />
  <path
     class="cls-2"
     d="m 81.39,395.43 22.33,-5.18 2.2,9.46 -5.51,1.29 7.73,33.27 11.35,-2.63 c 1.21,-0.28 2,-2.1 1.74,-3.31 l -1.62,-7 11.14,-2.59 4.45,19.16 -41.7,9.7 -2.19,-9.43 5.4,-1.26 -7.71,-33.27 -5.4,1.26 z"
     id="path32"
     inkscape:connector-curvature="0"
     style="fill:#ffffff" />
</svg>
