<?xml version="1.0" encoding="UTF-8" standalone="no"?>
<!-- Created with Inkscape (http://www.inkscape.org/) -->

<svg
   width="867"
   height="614"
   viewBox="0 0 229.39375 162.45417"
   version="1.1"
   id="svg5"
   sodipodi:docname="logo.svg"
   inkscape:version="1.1.2 (0a00cf5339, 2022-02-04)"
   xmlns:inkscape="http://www.inkscape.org/namespaces/inkscape"
   xmlns:sodipodi="http://sodipodi.sourceforge.net/DTD/sodipodi-0.dtd"
   xmlns="http://www.w3.org/2000/svg"
   xmlns:svg="http://www.w3.org/2000/svg">
  <sodipodi:namedview
     id="namedview16"
     pagecolor="#ffffff"
     bordercolor="#666666"
     borderopacity="1.0"
     inkscape:pageshadow="2"
     inkscape:pageopacity="0.0"
     inkscape:pagecheckerboard="0"
     showgrid="false"
     inkscape:zoom="1.28"
     inkscape:cx="544.92188"
     inkscape:cy="323.82813"
     inkscape:window-width="3362"
     inkscape:window-height="1376"
     inkscape:window-x="78"
     inkscape:window-y="27"
     inkscape:window-maximized="1"
     inkscape:current-layer="g14325" />
  <defs
     id="defs2">
    <style
       type="text/css"
       id="style4140"><![CDATA[
    .fil0 {fill:#47B5E7;fill-rule:nonzero}
    .fil2 {fill:#FEFEFE;fill-rule:nonzero}
    .fil1 {fill:#FFF225;fill-rule:nonzero}
   ]]></style>
    <style
       type="text/css"
       id="style4229"><![CDATA[
    .fil0 {fill:#FFF225;fill-rule:nonzero}
   ]]></style>
  </defs>
  <g
     id="layer1">
    <path
       style="fill:#000000;stroke-width:0.169333"
       id="path1553"
       d="" />
    <path
       style="fill:#000000;stroke-width:0.169333"
       id="path1497"
       d="" />
    <g
       id="g14325"
       transform="translate(205.66177,38.449861)">
      <g
         aria-label="RT"
         id="text3638-0"
         style="font-size:90.595px;letter-spacing:0px;word-spacing:-0.198437px;fill:#ffffff;stroke-width:2.26488">
        <path
           d="m -99.179237,47.367749 h 6.945027 v 42.776058 h -6.945027 v 12.120623 h 27.780108 V 90.143807 h -6.148782 V 75.54598 h 5.706423 c 7.166207,0 10.351187,3.18498 11.412847,10.793545 l 2.654151,15.924905 h 19.463769 l -0.08847,-12.120623 h -5.52948 L -46.1847,80.500394 c -1.150132,-4.954414 -3.627339,-8.095159 -6.59114,-9.643414 6.989262,-3.361923 10.926252,-7.829743 10.926252,-16.809619 0,-9.953064 -8.050923,-18.844468 -21.852505,-18.844468 h -35.477144 z m 30.434258,0 c 7.166206,0 10.970489,3.096509 10.970489,8.227867 0,5.52948 -4.290877,8.006687 -10.970489,8.006687 h -8.802932 V 47.367749 Z"
           style="-inkscape-font-specification:'Arvo Gruen'"
           id="path1328" />
        <path
           d="M -22.606996,102.26443 H 6.1020648 V 90.143807 H -0.97566965 V 46.925391 H 8.269621 v 8.670225 H 22.778977 V 35.202893 h -61.001224 v 20.392723 h 14.420884 v -8.670225 h 8.139394 v 43.218416 h -6.945027 z"
           style="-inkscape-font-specification:'Arvo Gruen'"
           id="path1330" />
      </g>
      <g
         aria-label="VOR"
         id="text3638"
         style="font-size:90.595px;line-height:1.25;letter-spacing:-6.39498px;word-spacing:-0.198437px;fill:#ffffff;stroke-width:2.26488">
        <path
           d="m -167.42857,-25.046401 h 7.74128 l -11.63403,38.042823 -11.67826,-38.042823 h 7.1662 v -12.164856 h -28.75329 v 12.164856 h 6.45843 l 17.38469,54.896678 h 18.13669 l 17.91551,-54.896678 h 5.97184 v -12.164856 h -28.70906 z"
           style="font-family:'Arvo Gruen';-inkscape-font-specification:'Arvo Gruen';fill:#ffffff"
           id="path1006" />
        <path
           d="m -110.21241,31.044645 c 18.18093,0 32.513343,-15.52678 32.513343,-34.7251351 0,-19.2868269 -14.332413,-34.7693709 -32.513343,-34.7693709 -18.13669,0 -32.42487,15.482544 -32.42487,34.7693709 0,19.1983551 14.28818,34.7251351 32.42487,34.7251351 z m 0,-13.890054 c -10.08577,0 -17.38469,-9.510706 -17.38469,-20.8350811 0,-11.4128469 7.29892,-20.9235529 17.38469,-20.9235529 10.13001,0 17.384685,9.510706 17.384685,20.9235529 0,11.3243751 -7.077734,20.8350811 -17.384685,20.8350811 z"
           style="font-family:'Arvo Gruen';-inkscape-font-specification:'Arvo Gruen';fill:#ffffff"
           id="path1003" />
        <path
           d="m -79.537758,-25.046401 h 6.945027 v 42.776058 h -6.945027 v 12.12062 h 27.780108 v -12.12062 h -6.148782 V 3.1318293 h 5.706424 c 7.166206,0 10.351187,3.1849805 11.412847,10.7935447 l 2.65415,15.924903 h 19.46377 l -0.08847,-12.12062 h -5.52948 l -2.256028,-9.6434135 c -1.150132,-4.9544142 -3.627339,-8.09515885 -6.59114,-9.6434133 6.989263,-3.3619238 10.926253,-7.8297437 10.926253,-16.8096192 0,-9.953064 -8.050923,-18.844468 -21.852505,-18.844468 h -35.477145 z m 30.434259,0 c 7.166206,0 10.970488,3.096509 10.970488,8.227866 0,5.52948 -4.290876,8.0066874 -10.970488,8.0066874 h -8.802933 V -25.046401 Z"
           style="font-family:'Arvo Gruen';-inkscape-font-specification:'Arvo Gruen';fill:#ffffff"
           id="path1000" />
      </g>
      <g
         id="Layer_x0020_1-4"
         transform="matrix(0.01154048,0,0,0.01154048,-252.26002,5.1569405)"
         style="clip-rule:evenodd;fill:#ffee00;fill-opacity:1;fill-rule:evenodd;image-rendering:optimizeQuality;shape-rendering:geometricPrecision;text-rendering:geometricPrecision">
        <metadata
           id="CorelCorpID_0Corel-Layer-0" />
        <path
           style="fill:#ffee00;fill-opacity:1;fill-rule:nonzero;stroke-width:1.35197"
           class="fil0"
           d="m 15112.614,4838.7976 c -4.056,-24.3355 -66.247,-47.319 -109.51,-82.4703 -143.309,-118.9735 -655.706,-623.2589 -1662.925,-590.8116 -127.085,4.0559 -243.355,16.2236 -350.161,33.7993 214.964,-68.9506 325.826,-110.8617 390.72,-136.5492 78.415,-31.0953 592.164,-206.8516 869.318,-1111.3207 22.984,-77.0624 90.582,-263.6345 74.358,-277.1542 -20.279,-17.5756 -193.331,13.5197 -367.736,120.3255 -175.756,106.8057 -763.864,200.0918 -834.166,210.9076 -40.56,6.7598 -213.612,-18.9276 -473.19,116.2695 290.673,-298.7857 600.275,-724.6568 682.745,-1320.8763 39.207,-286.618 22.984,-402.8876 10.816,-401.5356 -17.576,1.352 -27.039,1.352 -48.671,8.1118 -64.895,18.9276 -131.141,74.3585 -344.753,217.6675 -214.963,143.309 -442.094,301.4897 -442.094,301.4897 0,0 78.414,-778.7357 54.078,-797.6633 -24.335,-17.5757 -466.43,-13.5198 -1145.12,743.5844 0,0 77.063,-647.5944 -50.023,-892.30127 0,0 -35.151,-177.1083 -63.542,-269.0424 -13.521,-45.9671 -50.024,-94.63803 -55.432,-90.58212 -6.759,5.40789 -67.598,14.87169 -163.588,125.73342 -150.069,171.7004 -846.334,381.25597 -961.252,1283.02107 -87.878,-363.6804 -273.0976,-850.3902 -730.0644,-1096.44897 -240.651,-235.2431 -356.9205,-317.7134 -382.608,-321.76932 h -4.0559 c 0,0 0,0 0,0 -12.1677,5.40789 -6.7599,117.62152 -45.967,371.79222 -44.6151,283.91407 -83.8223,373.14417 -83.8223,373.14417 0,0 -478.598,-421.81517 -490.7657,-433.98287 -22.9835,-21.6316 -315.0094,903.11707 -228.4832,1364.13937 0,0 -151.4208,-117.6215 -427.2231,-259.5785 -313.6574,-160.8847 -839.5744,-189.2761 -836.8704,-163.5886 6.7598,41.9111 444.7986,897.7092 628.6668,1199.1989 0,0 -1180.2713,-202.7958 -1159.9917,-128.4373 6.7598,24.3355 35.1512,70.3025 81.1183,267.6904 0,0 -463.7263,-9.4638 -456.9665,28.3914 6.7599,43.2631 351.5127,612.4431 377.2002,643.5385 0,0 -358.2725,68.9505 -433.983,73.0065 -51.3749,2.7039 239.299,805.7751 1036.9623,1005.8669 120.3255,29.7434 236.5951,52.7269 347.4567,68.9506 -260.9305,-5.4079 -550.2524,50.0229 -882.8375,173.0523 0,0 -191.9799,74.3585 -293.3778,155.4768 -100.0459,79.7663 -596.2195,163.5886 -631.3708,236.595 v 5.4079 c 31.0953,64.8947 616.4991,466.4302 616.4991,466.4302 0,0 -355.5686,173.0524 -379.9041,205.4997 -16.2236,22.9836 -29.7433,43.2631 -25.6874,48.671 4.0559,6.7599 28.3914,35.1513 89.2301,73.0065 141.957,87.8782 1406.0506,220.3714 1484.4649,189.276 77.0624,-31.0953 -686.8016,828.7587 -698.9693,1261.3896 0,0 125.7333,9.4638 196.0359,14.8717 54.0788,4.0559 -229.8352,542.1406 -178.4603,539.4367 343.4008,-14.8717 912.5809,-346.1047 1019.3867,-423.1671 106.8057,-75.7104 252.8187,-189.2761 292.0258,-227.1313 39.2072,-36.5032 -248.7628,478.598 -131.1412,932.8605 0,0 37.8552,351.5126 39.2072,423.1671 1.3519,70.3026 101.3978,71.6545 101.3978,118.9735 -1.3519,58.1348 278.5062,-220.3714 410.9994,-327.1771 132.4933,-106.8058 312.3055,-313.6574 398.8317,-450.2066 86.5262,-136.5491 9.4638,1066.7057 -25.6875,1297.893 -10.8158,74.358 5.4079,82.47 17.5756,108.158 4.056,8.111 127.0854,-94.638 166.2926,-120.326 58.1348,-39.207 661.1141,-849.0381 698.9693,-1051.8339 0,0 321.7691,1412.8107 429.9267,1564.2307 16.224,21.632 29.743,45.967 43.263,51.375 h 9.464 c 2.704,-1.352 5.408,-4.056 8.112,-8.112 32.447,-50.022 79.766,-182.516 116.269,-193.331 45.967,-13.52 182.516,-31.096 254.171,-232.5398 71.654,-201.4434 200.092,-397.4793 260.93,-920.6923 0,0 684.099,872.0213 771.977,953.1403 35.151,32.447 220.371,-277.1545 302.841,-773.3281 82.471,-496.1736 -94.638,-1162.6957 -205.499,-1185.6792 0,0 -45.967,-73.0065 82.47,-27.0394 74.358,27.0394 358.273,520.5091 1013.979,895.0052 110.861,63.5427 344.753,63.5427 346.105,59.4868 52.726,-147.3649 -462.375,-1493.9287 -462.375,-1493.9287 0,0 12.168,-14.8717 116.27,27.0394 102.75,41.9111 1086.985,678.6898 1683.205,379.9041 120.325,-60.8388 128.437,-73.0065 128.437,-73.0065 68.95,-293.3779 -456.967,-849.0382 -780.088,-1100.505 0,0 847.686,-33.7993 977.476,-259.5785 0,0 156.828,-56.7828 236.595,-167.6445 13.52,-18.9276 -90.582,-212.2596 -213.612,-297.4338 -320.417,-221.7234 -389.368,-305.5456 -389.368,-305.5456 0,0 89.231,-108.1577 219.02,-148.7169 129.789,-40.5591 546.196,-297.4338 435.335,-424.5191 0,0 125.733,-109.5097 129.789,-144.661 v -2.7039 0 z m -2740.447,-16.2237 c -131.141,21.6316 -467.782,29.7434 -156.828,294.7298 0,0 56.782,4.056 -95.99,94.6381 -152.773,90.5821 340.697,143.309 398.831,209.5556 58.135,66.2466 -489.413,-5.4079 -478.598,158.1807 10.816,164.9405 -94.638,60.8387 269.043,448.8546 0,0 -219.02,-51.375 -243.355,-20.2796 -25.688,31.0953 478.598,448.8546 475.894,567.8281 0,0 -102.75,71.6545 -146.013,9.4638 -43.263,-62.1907 -348.809,-400.1836 -397.48,-409.6474 -37.855,-6.7599 -108.158,9.4638 -141.957,75.7104 0,0 133.845,310.9535 91.934,319.0653 -41.911,8.1118 -250.115,-137.9011 -250.115,-137.9011 0,0 -136.549,59.4868 -91.934,183.8681 44.615,124.3814 416.408,544.8446 394.776,570.5321 0,0 -31.095,68.9506 -79.766,64.8946 -47.319,-5.4078 -304.194,-470.4861 -367.736,-488.0617 -63.543,-17.5757 74.358,433.9829 74.358,433.9829 0,0 -231.187,-244.7069 -293.378,-294.7299 -62.191,-51.3749 -70.303,54.0789 -70.303,54.0789 l 67.599,516.4532 c 0,0 -721.953,-1076.1695 -544.845,206.8517 0,0 -16.224,73.0064 -40.559,70.3025 -24.336,-2.7039 -177.108,-424.5191 -159.533,-540.7887 17.576,-116.2695 -127.085,320.4173 -127.085,320.4173 0,0 -225.779,-899.0612 -694.9132,22.9835 0,0 -32.4473,-348.8087 -105.4538,-408.2954 -71.6545,-59.4868 -131.1412,-91.9341 -150.0688,-81.1183 -17.5757,10.8158 -183.8682,168.9964 -248.7628,185.2201 -64.8947,14.8717 51.3749,-208.2036 -44.6151,-271.7463 0,0 8.1118,-62.1907 -47.319,-151.4208 -55.4308,-89.2302 -109.5097,-56.7829 -432.6309,292.0258 0,0 135.1971,-329.881 133.8452,-444.7986 -1.352,-113.5657 -127.0854,-140.6051 -127.0854,-140.6051 0,0 -235.2431,178.4603 -302.8416,156.8287 -68.9506,-21.6315 112.2136,-240.6509 116.2695,-301.4897 1.352,-18.9276 -25.6874,-12.1677 -25.6874,-12.1677 0,0 -28.3914,-20.2796 -264.9865,117.6215 l -382.608,243.3549 c -28.3914,-17.5756 -66.2466,-13.5197 -54.0788,-105.4538 2.7039,-25.6874 715.193,-360.9764 684.0976,-396.1277 -31.0953,-35.1512 -269.0423,-93.286 -269.0423,-93.286 0,0 148.7169,-179.8122 104.1018,-200.0918 -44.6151,-18.9276 -369.0883,-45.9671 -369.0883,-45.9671 0,0 -56.7828,-89.2301 -44.615,-71.6545 10.8157,17.5757 317.7133,-48.6709 317.7133,-48.6709 l -205.4997,-160.8847 c 0,0 517.8052,-90.5821 60.8387,-366.3843 -168.9964,-101.3979 -346.1047,-171.7004 -536.7327,-205.4997 488.0617,24.3355 811.183,-98.6939 755.7521,-278.5062 0,0 -14.8716,-64.8946 -501.5815,-242.0029 0,0 13.5198,-58.1348 45.9671,-66.2466 32.4473,-8.1118 538.0847,177.1083 502.9335,147.3649 -36.5033,-29.7434 -221.7234,-235.2431 -187.9241,-233.8911 33.7993,1.352 270.3943,101.3979 350.1607,28.3914 75.7104,-70.3025 123.0294,-200.0918 173.0523,-228.4832 50.023,-28.3914 -132.4932,-196.0359 108.1578,-118.9735 0,0 162.2366,-90.5821 33.7993,-240.651 -128.4374,-150.0688 -534.0289,-630.0188 128.4373,-50.0229 158.1807,139.2531 554.3084,-283.9141 521.861,-513.7493 0,0 158.1807,159.5327 191.98,177.1083 33.7993,17.5757 255.5231,43.2631 305.5461,-33.7993 22.9826,-35.1512 -81.119,-362.3284 -13.52,-506.9894 0,0 28.3906,-2.7039 55.4306,28.3914 27.039,31.0954 29.743,371.7923 150.069,436.6869 0,0 135.197,-79.7663 158.18,-137.9011 22.984,-59.4868 -36.503,369.0883 367.736,183.8681 0,0 197.388,-175.7563 254.171,-179.8122 56.783,-5.4079 -41.911,208.2036 6.76,283.9141 50.023,75.7104 216.315,127.0853 269.042,32.4473 52.727,-94.638 305.547,-285.266 325.826,-277.1542 20.28,8.1118 -128.437,402.8876 -146.013,442.0947 -24.335,56.7828 -41.911,140.6051 -41.911,140.6051 0,0 18.928,110.8617 156.829,140.605 0,0 260.93,-152.7728 531.325,-350.1606 -28.392,33.7993 -56.783,70.3025 -86.527,108.1577 0,0 -350.16,360.9764 -351.512,412.3514 0,52.7269 120.325,168.9964 219.019,102.7498 98.694,-66.2466 335.289,-163.5886 356.921,-147.3649 20.279,17.5756 58.135,66.2466 9.464,94.638 -50.023,28.3914 -325.826,173.0524 -325.826,173.0524 0,0 315.01,21.6315 701.674,-56.7828 -417.76,168.9965 -562.421,427.223 -558.365,451.5585 12.168,82.4703 661.115,-85.1742 678.69,-44.615 93.286,210.9076 -205.5,81.1183 -336.641,102.7498 z"
           id="path4233" />
      </g>
    </g>
  </g>
</svg>
