<?xml version="1.0" encoding="UTF-8" standalone="no"?>
<!-- Created with Inkscape (http://www.inkscape.org/) -->

<svg
   xmlns:dc="http://purl.org/dc/elements/1.1/"
   xmlns:cc="http://creativecommons.org/ns#"
   xmlns:rdf="http://www.w3.org/1999/02/22-rdf-syntax-ns#"
   xmlns:svg="http://www.w3.org/2000/svg"
   xmlns="http://www.w3.org/2000/svg"
   xmlns:sodipodi="http://sodipodi.sourceforge.net/DTD/sodipodi-0.dtd"
   xmlns:inkscape="http://www.inkscape.org/namespaces/inkscape"
   width="400"
   height="400"
   viewBox="0 0 105.83333 105.83334"
   version="1.1"
   id="svg8"
   inkscape:version="0.92.5 (2060ec1f9f, 2020-04-08)"
   sodipodi:docname="blazon.svg">
  <defs
     id="defs2">
    <clipPath
       id="clipPath18"
       clipPathUnits="userSpaceOnUse">
      <path
         inkscape:connector-curvature="0"
         id="path20"
         d="m 15.331,15.331 280.541,0 0,261.097 -280.541,0 0,-261.097 z" />
    </clipPath>
    <clipPath
       id="clipPath30"
       clipPathUnits="userSpaceOnUse">
      <path
         inkscape:connector-curvature="0"
         id="path32"
         d="m 579.425,15.331 289.134,0 0,413.858 -289.134,0 0,-413.858 z" />
    </clipPath>
    <clipPath
       id="clipPath42"
       clipPathUnits="userSpaceOnUse">
      <path
         inkscape:connector-curvature="0"
         id="path44"
         d="m 295.96,434.25 283.44,0 0,187.695 -283.44,0 0,-187.695 z" />
    </clipPath>
    <clipPath
       id="clipPath124"
       clipPathUnits="userSpaceOnUse">
      <path
         inkscape:connector-curvature="0"
         id="path126"
         d="m 728.723,527.629 115.742,0 0,60.301 -115.742,0 0,-60.301 z" />
    </clipPath>
    <clipPath
       id="clipPath152"
       clipPathUnits="userSpaceOnUse">
      <path
         inkscape:connector-curvature="0"
         id="path154"
         d="m 728.723,527.629 115.742,0 0,60.3 -115.742,0 0,-60.3 z" />
    </clipPath>
    <clipPath
       id="clipPath168"
       clipPathUnits="userSpaceOnUse">
      <path
         inkscape:connector-curvature="0"
         id="path170"
         d="m 728.723,527.629 115.742,0 0,60.301 -115.742,0 0,-60.301 z" />
    </clipPath>
    <clipPath
       id="clipPath840"
       clipPathUnits="userSpaceOnUse">
      <path
         inkscape:connector-curvature="0"
         id="path842"
         d="m 728.723,527.629 115.742,0 0,60.3 -115.742,0 0,-60.3 z" />
    </clipPath>
    <clipPath
       id="clipPath856"
       clipPathUnits="userSpaceOnUse">
      <path
         inkscape:connector-curvature="0"
         id="path858"
         d="m 728.723,527.629 115.742,0 0,60.301 -115.742,0 0,-60.301 z" />
    </clipPath>
    <clipPath
       id="clipPath1574"
       clipPathUnits="userSpaceOnUse">
      <path
         inkscape:connector-curvature="0"
         id="path1576"
         d="m 0,0 883.89,0 0,637.276 L 0,637.276 0,0 Z" />
    </clipPath>
  </defs>
  <sodipodi:namedview
     id="base"
     pagecolor="#ffffff"
     bordercolor="#666666"
     borderopacity="1.0"
     inkscape:pageopacity="0.0"
     inkscape:pageshadow="2"
     inkscape:zoom="0.98994949"
     inkscape:cx="58.696594"
     inkscape:cy="281.46672"
     inkscape:document-units="mm"
     inkscape:current-layer="layer1"
     showgrid="false"
     units="px"
     inkscape:window-width="1848"
     inkscape:window-height="1016"
     inkscape:window-x="1752"
     inkscape:window-y="27"
     inkscape:window-maximized="1" />
  <metadata
     id="metadata5">
    <rdf:RDF>
      <cc:Work
         rdf:about="">
        <dc:format>image/svg+xml</dc:format>
        <dc:type
           rdf:resource="http://purl.org/dc/dcmitype/StillImage" />
        <dc:title />
      </cc:Work>
    </rdf:RDF>
  </metadata>
  <g
     inkscape:label="Ebene 1"
     inkscape:groupmode="layer"
     id="layer1"
     transform="translate(0,-191.16665)">
    <path
       style="fill:none;stroke:#ffffff;stroke-width:1.32291667;stroke-miterlimit:4;stroke-dasharray:none;stroke-opacity:1"
       d="m 60.364942,295.5326 c 0.141757,-0.36941 0.06549,-0.9033 -0.169485,-1.18644 -0.311858,-0.37576 -0.15499,-0.69315 0.580887,-1.17532 1.259329,-0.82515 1.66905,-2.04191 1.066618,-3.16757 -0.643493,-1.20239 -3.47517,-1.03226 -3.564725,0.21415 -0.03261,0.45419 -0.07909,1.05236 -0.103228,1.32931 -0.02601,0.29852 -0.605851,0.48241 -1.424115,0.45165 -0.759121,-0.0285 -1.595213,0.081 -1.857983,0.24338 -0.285258,0.17629 -0.477756,0.0307 -0.477756,-0.36138 0,-0.36117 0.284234,-0.76573 0.63163,-0.89904 0.368657,-0.14139 0.53903,-0.53415 0.409211,-0.94316 -0.15787,-0.49741 0.159031,-0.87264 1.092024,-1.29298 1.896066,-0.85423 2.302127,-1.71501 1.43404,-3.03989 -0.651057,-0.99362 -0.767504,-1.03003 -1.369499,-0.42803 -0.898957,0.89897 -1.607848,0.16617 -0.977909,-1.0109 0.527621,-0.98586 0.267987,-1.68733 -0.624539,-1.68733 -0.327228,0 -0.594958,-0.20901 -0.594958,-0.46449 0,-0.28853 0.437966,-0.37691 1.156095,-0.23328 0.860686,0.17214 1.283585,0.0272 1.655041,-0.56771 0.67524,-1.08125 1.317713,-1.00776 1.317713,0.15075 0,1.25597 0.740118,1.94055 2.097997,1.94055 1.588055,0 3.422067,-2.46908 3.163955,-4.25953 -0.2635,-1.82783 -1.650004,-5.37746 -2.251387,-5.76386 -0.274425,-0.17631 -0.393898,-0.59435 -0.26549,-0.92899 0.128399,-0.33462 0.04947,-0.60839 -0.175435,-0.60839 -0.224898,0 -0.505495,0.36935 -0.623548,0.82079 -0.249472,0.95398 -2.054692,1.75032 -3.566042,1.57309 -0.975553,-0.11438 -0.899618,-0.23013 1.082714,-1.65021 1.879026,-1.34606 2.1648,-1.74697 2.409786,-3.38065 0.20041,-1.33644 0.09154,-2.22713 -0.390296,-3.19299 -0.699989,-1.40317 -0.686645,-1.4334 1.080215,-2.44642 1.208431,-0.69286 1.970047,-4.49921 1.152861,-5.76171 -0.335378,-0.51814 -0.559282,-0.42293 -1.370435,0.58271 -1.107502,1.37304 -1.927129,1.16038 -1.941812,-0.50386 -0.01295,-1.46223 -1.676259,-5.46497 -2.923366,-7.03484 -0.544083,-0.6849 -2.132542,-1.80281 -3.52991,-2.48426 -1.421286,-0.6931 -3.058488,-1.88795 -3.715965,-2.71195 -1.588754,-1.99116 -2.583414,-1.9006 -4.474618,0.40736 -1.462479,1.78476 -1.579681,1.84519 -2.305228,1.18858 -1.057665,-0.95717 -1.861562,-0.51748 -2.451162,1.34066 -0.593138,1.86929 -1.520304,3.4352 -2.033966,3.4352 -0.202317,0 0.02551,-0.93105 0.506287,-2.069 0.812964,-1.92423 0.826373,-2.11679 0.191642,-2.75151 -0.870639,-0.87064 -1.659753,-0.29058 -2.869287,2.10914 -0.465489,0.92354 -0.926508,1.76669 -1.024484,1.87366 -0.334766,0.36547 -0.946356,-1.01841 -0.952689,-2.15569 -0.01014,-1.81336 -1.116202,-1.36211 -2.27719,0.92899 -1.184346,2.33719 -1.63769,2.64257 -1.240868,0.83584 0.407774,-1.85657 -0.03121,-2.1252 -1.869547,-1.14395 -1.092361,0.58307 -1.879018,1.40321 -2.333105,2.43243 -0.837696,1.89867 -1.492519,1.66464 -1.12415,-0.40175 l 0.270273,-1.51613 -1.412694,1.34188 c -1.88936,1.79465 -2.582022,1.76327 -2.279131,-0.10315 0.157461,-0.97031 0.07347,-1.44695 -0.255642,-1.45073 -0.269581,-0.003 -0.894119,-0.11392 -1.387863,-0.24642 -0.716624,-0.19222 -1.039002,0.0379 -1.598108,1.14106 -0.987425,1.94817 -1.824258,2.80688 -2.487376,2.55242 -0.480509,-0.18439 -0.4744,-0.40434 0.03879,-1.39675 0.783516,-1.51516 0.76964,-1.63179 -0.194129,-1.63179 -0.469512,0 -1.028601,-0.47175 -1.345651,-1.13543 -0.494008,-1.03412 -0.77086,-1.14637 -3.102371,-1.25793 l -2.559958,-0.1225 -0.3636442,1.36114 c -0.2969198,1.11138 -0.5442981,1.34009 -1.3481778,1.24636 -0.6321393,-0.0736 -1.2436237,0.22188 -1.7083967,0.82578 -0.7405526,0.96223 -0.7853908,0.88757 -0.8610162,-1.43355 -0.03288,-1.00934 0.1819898,-1.44328 0.867071,-1.75106 1.1367381,-0.51071 1.4993804,-1.57359 0.9116064,-2.67186 -0.5771376,-1.07838 -1.0906921,-1.07079 -1.3760268,0.0203 -0.3401007,1.30054 -1.6144649,0.82268 -2.0243454,-0.75908 -0.2044284,-0.78894 -0.6118963,-1.34126 -0.9894806,-1.34126 -0.35306072,0 -0.56359852,-0.23224 -0.46786278,-0.51609 0.0957373,-0.28388 0.66162978,-0.52462 1.25754038,-0.53501 0.5959105,-0.0109 1.2143235,-0.14965 1.3742524,-0.30965 0.5123015,-0.5123 1.7085184,-0.31117 1.9540007,0.32855 0.3738374,0.97419 2.222201,0.75174 2.9471766,-0.35472 0.7864113,-1.20021 0.4165798,-2.32691 -0.7665726,-2.33537 -0.4866482,-0.003 -1.1415694,-0.16892 -1.4553787,-0.36768 -0.4499934,-0.285 -0.3500458,-0.50586 0.4729798,-1.04511 0.5739478,-0.37607 1.1486822,-1.08582 1.2771887,-1.57724 l 0.2336474,-0.89347 0.9449139,0.85118 c 0.5197014,0.46815 1.2780715,0.969 1.6852665,1.11302 0.600728,0.21246 0.65639,0.41873 0.295136,1.09373 -1.0941014,2.04435 1.741123,3.59746 5.721979,3.13446 1.279301,-0.14872 3.162094,-0.36724 4.183984,-0.48542 1.021891,-0.11813 3.353957,-0.66828 5.182369,-1.22245 1.828413,-0.55417 3.714174,-1.00758 4.19058,-1.00758 0.476408,0 1.797569,-0.62676 2.935915,-1.39281 1.900448,-1.27891 2.123949,-1.33859 2.7328,-0.72975 0.963568,0.96357 3.762469,0.79213 4.926892,-0.3018 l 0.934136,-0.87757 0.915355,1.23808 c 0.663778,0.89782 1.256371,1.23808 2.156171,1.23808 1.279312,0 3.276194,-1.04327 3.276194,-1.71165 0,-0.55009 3.381375,-6.13316 3.714541,-6.13316 0.154974,0 0.497501,0.4735 0.761182,1.05222 0.383393,0.84146 0.352426,1.29778 -0.154615,2.27828 -0.573407,1.10885 -0.571553,1.25005 0.01941,1.47682 0.359391,0.13795 1.388396,0.15215 2.286673,0.0317 1.042984,-0.13982 1.74465,-0.0395 1.941526,0.27804 0.169563,0.2734 1.475832,1.38629 2.902817,2.47309 4.383418,3.33845 8.761367,9.33499 10.905069,14.93683 l 0.89426,2.33685 2.068467,-0.19876 c 1.681825,-0.16159 2.293804,-0.45094 3.273984,-1.54797 1.107634,-1.23965 1.182924,-1.51954 0.927208,-3.44722 -0.417816,-3.14965 -1.732763,-6.73979 -3.650609,-9.96706 -5.141398,-8.65177 -6.18589,-12.53979 -5.989609,-22.29579 0.06854,-3.40632 -0.03307,-6.81342 -0.225823,-7.57138 l -0.350423,-1.37812 1.034738,0.678 c 1.223021,0.80135 1.345416,0.65384 1.701487,-2.05064 0.18257,-1.38664 0.06398,-2.7422 -0.361208,-4.12884 -0.794493,-2.59106 -0.799535,-2.54147 0.169304,-1.66468 1.36376,1.2342 2.206879,4.95024 1.899956,8.37406 -0.218362,2.43591 -0.159203,2.99342 0.31765,2.99342 0.322298,0 0.817289,-0.27871 1.099988,-0.61934 1.137629,-1.37075 1.245777,-0.49774 0.166227,1.34189 -1.028832,1.7532 -1.16861,2.44288 -1.317946,6.50294 -0.136951,3.72333 -0.02729,4.91372 0.608482,6.60615 0.426539,1.13543 1.030679,2.06443 1.342532,2.06443 0.318384,0 0.905114,-0.99471 1.338106,-2.26856 0.822687,-2.42024 2.404345,-4.52925 2.404345,-3.20597 0,0.3827 -0.369697,1.63373 -0.821546,2.78008 -1.093476,2.77416 -1.23581,7.38112 -0.273425,8.84992 0.80741,1.23225 1.845035,1.39839 2.170286,0.34749 0.531028,-1.7158 2.684218,-5.69767 3.496401,-6.46588 0.61498,-0.58166 0.204299,0.90283 -0.960636,3.47246 -1.04255,2.29967 -1.536861,9.54538 -0.718468,10.53148 0.804849,0.96978 1.236239,0.72795 1.236239,-0.69302 0,-1.01688 0.423757,-1.71545 1.896674,-3.12676 1.043167,-0.99953 1.99606,-1.71794 2.117539,-1.59645 0.12147,0.1214 -0.359133,1.1247 -1.068018,2.2294 -1.109736,1.72939 -2.120424,5.0512 -2.120424,6.9692 0,1.06781 1.260137,1.09563 2.398737,0.0529 1.496849,-1.37074 4.207422,-2.88239 4.207422,-2.34642 0,0.23747 -1.114789,1.50246 -2.47731,2.81109 -1.36252,1.30863 -2.47731,2.588 -2.47731,2.84303 0,0.25502 -0.577081,1.12095 -1.282404,1.92427 -1.499661,1.70802 -1.349495,2.69701 0.409508,2.69701 0.870027,0 2.022509,-0.66368 4.03859,-2.32574 4.424375,-3.64742 6.406512,-4.15723 7.813629,-2.0097 0.573055,0.87459 0.570942,1.0937 -0.0216,2.23955 -0.361241,0.69856 -0.837825,1.27012 -1.059082,1.27012 -0.552336,0 -0.506676,-0.28261 0.226414,-1.40145 0.345778,-0.52773 0.511701,-1.26439 0.36871,-1.63701 -0.486597,-1.26805 -2.186325,-0.74071 -4.829024,1.4982 -3.282444,2.78091 -5.068684,3.84774 -7.025615,4.19604 -1.169645,0.20819 -1.688469,0.5614 -2.044806,1.39212 -0.6749,1.5734 -0.674282,1.57313 -1.375402,0.57214 -0.91861,-1.3115 -1.25721,-1.13024 -1.782003,0.95391 -0.545888,2.16791 -0.881993,2.30564 -1.610467,0.65991 -0.565858,-1.27837 -1.804287,-1.81281 -3.296453,-1.42261 -1.060409,0.27731 -1.15047,1.13137 -0.442667,4.19774 0.390928,1.69359 0.353431,2.53245 -0.21422,4.79228 -0.739882,2.94548 -0.508497,4.1 0.912063,4.55086 1.055458,0.33499 3.504419,-0.76657 5.038829,-2.2665 1.002855,-0.98032 1.48321,-1.18493 2.182609,-0.92969 0.493215,0.17999 1.965097,0.31561 3.270845,0.30139 1.305749,-0.014 2.37409,0.12516 2.37409,0.30967 0,0.18453 0.278696,0.33551 0.619328,0.33551 1.027252,0 0.698443,0.76365 -0.623058,1.44703 -0.939358,0.48576 -1.444296,0.5344 -2.070213,0.19942 -0.974611,-0.5216 -3.500694,-0.13857 -4.841881,0.7342 -1.250428,0.81368 -1.169443,1.21689 0.309663,1.54176 0.681261,0.14965 1.238655,0.36241 1.238655,0.47283 0,0.7083 -0.978409,1.76108 -2.048644,2.20439 -0.689939,0.28578 -1.254437,0.68287 -1.254437,0.88239 0,0.66246 1.060459,0.37592 2.47731,-0.66941 0.861056,-0.63527 1.951643,-1.03221 2.835939,-1.03221 h 1.436857 l -0.940999,1.00164 c -0.517551,0.55091 -0.829704,1.18173 -0.693671,1.40184 0.295807,0.47862 -0.889855,1.00812 -1.46352,0.65357 -0.500334,-0.30923 -3.239822,0.17692 -3.236862,0.57439 0.0012,0.16004 0.87262,0.56965 1.936501,0.9103 2.566695,0.82178 2.719116,1.49311 0.295238,1.30032 -2.56841,-0.20427 -3.049038,0.37329 -1.672243,2.00952 1.290394,1.53354 1.393206,2.69204 0.291249,3.28178 -1.234109,0.66047 -1.532824,0.53638 -2.449745,-1.01768 -0.831398,-1.40913 -2.119133,-1.96916 -2.119133,-0.92161 0,0.28791 0.464496,1.20704 1.032212,2.04251 1.054083,1.55122 1.340898,2.8015 0.642673,2.8015 -0.21425,0 -0.718805,-0.55738 -1.121236,-1.23865 -0.934961,-1.58277 -1.744802,-1.5794 -2.062397,0.009 -0.265279,1.32634 -0.968571,2.10872 -0.968571,1.07749 0,-0.91707 -1.170091,-1.91185 -2.248748,-1.91185 -0.72648,0 -1.009621,-0.29255 -1.198842,-1.23865 -0.350601,-1.75302 -0.986584,-1.53562 -1.509833,0.51609 -1.123147,4.40399 -1.423674,5.05521 -2.396533,5.1931 -1.147738,0.16266 -1.594554,1.0968 -0.915812,1.91463 0.405898,0.48908 0.222433,0.70741 -1.036446,1.2334 -1.945397,0.81284 -2.406814,0.80564 -2.085175,-0.0325 z m 3.959459,-4.69584 c 0,-0.22709 -0.185799,-0.41288 -0.412884,-0.41288 -0.227087,0 -0.412886,0.18579 -0.412886,0.41288 0,0.22708 0.185799,0.41288 0.412886,0.41288 0.227085,0 0.412884,-0.1858 0.412884,-0.41288 z m 0.488579,-1.741 c -0.296269,-0.29628 -0.488579,-0.32066 -0.488579,-0.062 0,0.23466 0.123858,0.55052 0.275259,0.70191 0.151385,0.15137 0.37125,0.17927 0.488578,0.062 0.117335,-0.11735 -0.0066,-0.43318 -0.275258,-0.7019 z m 0.750076,-0.73631 c 0,-0.22709 -0.196764,-0.41288 -0.437253,-0.41288 -0.240489,0 -0.322422,0.18579 -0.182074,0.41288 0.140352,0.22708 0.337112,0.41288 0.437253,0.41288 0.100138,0 0.182074,-0.1858 0.182074,-0.41288 z m 0.825771,-1.67591 c 0,-0.21368 -0.185799,-0.38852 -0.412886,-0.38852 -0.227086,0 -0.412885,0.28966 -0.412885,0.64369 0,0.35403 0.185799,0.52887 0.412885,0.38852 0.227087,-0.14029 0.412886,-0.43001 0.412886,-0.64369 z m -0.928797,-3.58838 c 0.09972,-0.29951 -0.178928,-0.51611 -0.663969,-0.51611 -0.902943,0 -1.446378,0.5392 -0.996676,0.9889 0.415433,0.41544 1.464329,0.11688 1.660645,-0.47279 z m 6.671548,-2.41943 c -0.432856,-0.52157 -0.421229,-0.70485 0.06418,-1.01201 0.326031,-0.20631 0.964376,-0.38385 1.418549,-0.39456 1.137766,-0.0268 2.501315,-1.07365 1.776644,-1.36398 -0.295893,-0.1186 -0.02704,-0.23022 0.597446,-0.24815 1.061882,-0.0304 1.697052,-0.85836 0.658555,-0.85836 -0.270436,0 -0.153367,-0.35748 0.270435,-0.82577 0.726458,-0.80273 0.721157,-0.82578 -0.189936,-0.82578 -0.901261,0 -0.911645,-0.039 -0.270435,-1.01769 0.962712,-1.46928 0.819924,-1.74739 -0.338424,-0.65919 -0.552878,0.5194 -1.621219,1.08264 -2.37409,1.25163 l -1.36885,0.30724 1.135433,0.46168 c 0.62449,0.25391 1.135435,0.61968 1.135435,0.81279 0,0.52018 -1.694658,1.91957 -2.993417,2.47187 -1.388854,0.59059 -1.483562,1.8177 -0.206442,2.67482 1.045932,0.70198 1.491823,0.19772 0.68491,-0.77454 z m -6.774965,0.66467 c 0.140353,-0.22709 -0.04546,-0.41288 -0.412884,-0.41288 -0.367435,0 -0.553232,0.18579 -0.412885,0.41288 0.140353,0.22708 0.326145,0.41289 0.412885,0.41289 0.08673,0 0.272537,-0.18581 0.412884,-0.41289 z m 0.206443,-2.47731 c 0,-0.22709 -0.185797,-0.41288 -0.412884,-0.41288 -0.227087,0 -0.412886,0.18579 -0.412886,0.41288 0,0.22708 0.185799,0.41289 0.412886,0.41289 0.227087,0 0.412884,-0.18581 0.412884,-0.41289 z m 0,-1.65154 c 0,-0.22708 -0.185797,-0.41288 -0.412884,-0.41288 -0.227087,0 -0.412886,0.1858 -0.412886,0.41288 0,0.22709 0.185799,0.41288 0.412886,0.41288 0.227087,0 0.412884,-0.18579 0.412884,-0.41288 z m -0.163432,-2.77838 c -0.419705,-0.4197 -0.766005,0.21218 -0.421647,0.76936 0.260131,0.42091 0.357385,0.42123 0.497238,0.002 0.09563,-0.28686 0.06161,-0.63383 -0.07559,-0.77103 z m 4.349765,-2.57539 c 1.092259,-0.90995 0.912397,-1.03084 -0.649931,-0.43685 -0.582503,0.22147 -1.059092,0.59308 -1.059092,0.82578 0,0.65023 0.63517,0.50568 1.709023,-0.38893 z m -0.06944,-1.64914 c 0.334054,-0.21127 0.511738,-0.47975 0.394854,-0.59663 -0.319907,-0.31991 -2.034437,0.20988 -2.034437,0.62865 0,0.47358 0.866878,0.45665 1.639583,-0.032 z m 0.18463,-1.91829 c 0.359206,-0.1378 0.653097,-0.39915 0.653097,-0.58068 0,-0.41483 -1.586007,-0.0217 -1.888784,0.46824 -0.260352,0.42126 0.298401,0.4721 1.235687,0.11252 z m -7.191717,-0.58811 c 0,-0.49429 -1.164592,-1.02451 -1.504248,-0.68485 -0.361569,0.36157 0.251715,1.1107 0.909287,1.1107 0.327229,0 0.594961,-0.19163 0.594961,-0.42585 z m 7.844814,-1.43214 c 0.311221,-0.375 0.344488,-0.61932 0.08433,-0.61932 -0.758453,0 -1.735863,0.48982 -1.735863,0.86993 0,0.59077 1.090611,0.42527 1.651539,-0.25061 z m -7.593802,-1.34189 c 0.567792,-0.74797 0.772876,-2.16764 0.313132,-2.16764 -0.47459,0 -2.17303,2.2123 -1.961364,2.55479 0.341055,0.55183 1.064425,0.38193 1.648232,-0.38715 z m 7.853412,-1.21988 c -0.340324,-0.34033 -1.498265,0.2048 -1.498265,0.70535 0,0.30536 0.264024,0.29907 0.861133,-0.0204 0.473622,-0.25348 0.760333,-0.56166 0.637132,-0.68486 z m 0.04145,-1.19721 c -0.1372,-0.13717 -0.493315,-0.15183 -0.791364,-0.0326 -0.329371,0.13186 -0.231538,0.22964 0.249453,0.24945 0.435247,0.0179 0.679109,-0.0796 0.541911,-0.21685 z m -0.09461,-0.9892 c 0.140353,-0.22709 -0.04546,-0.41288 -0.412884,-0.41288 -0.367436,0 -0.553234,0.18579 -0.412886,0.41288 0.140352,0.22708 0.326146,0.41289 0.412886,0.41289 0.08673,0 0.272537,-0.18581 0.412884,-0.41289 z m -5.986833,-0.41288 c 0,-0.22709 -0.278697,-0.41288 -0.619328,-0.41288 -0.34063,0 -0.619327,0.18579 -0.619327,0.41288 0,0.22708 0.278697,0.41288 0.619327,0.41288 0.340631,0 0.619328,-0.1858 0.619328,-0.41288 z m 5.618122,-1.06599 c -0.13784,-0.3592 -0.250616,-0.7308 -0.250616,-0.82577 0,-0.0949 -0.168404,-0.17267 -0.374231,-0.17267 -0.205828,0 -0.277059,0.3716 -0.158289,0.82577 0.118771,0.45417 0.39995,0.82578 0.624849,0.82578 0.224899,0 0.296125,-0.29391 0.158287,-0.65311 z m -5.618122,-0.17267 c 0,-0.22708 -0.289664,-0.41288 -0.643695,-0.41288 -0.354033,0 -0.528865,0.1858 -0.388517,0.41288 0.140352,0.22709 0.430011,0.41288 0.643696,0.41288 0.213684,0 0.388516,-0.18579 0.388516,-0.41288 z m -0.412885,-1.65153 c 0,-0.22711 -0.185799,-0.4129 -0.412884,-0.4129 -0.227087,0 -0.412886,0.18579 -0.412886,0.4129 0,0.22708 0.185799,0.41288 0.412886,0.41288 0.227085,0 0.412884,-0.1858 0.412884,-0.41288 z m 6.888206,-1.72897 c -0.1318,-0.32936 -0.229638,-0.23153 -0.249449,0.24946 -0.01791,0.43524 0.07965,0.6791 0.216856,0.5419 0.137201,-0.13716 0.151869,-0.4933 0.03258,-0.79136 z m -7.30109,0.30823 c 0,-0.43579 -0.792373,-0.61888 -1.028052,-0.23754 -0.142631,0.23078 0.0303,0.41962 0.384355,0.41962 0.354033,0 0.643697,-0.0819 0.643697,-0.18208 z m 9.083469,-0.23081 c 0,-0.22709 -0.196765,-0.41288 -0.437253,-0.41288 -0.240489,0 -0.322422,0.18579 -0.182074,0.41288 0.140352,0.22708 0.337112,0.41289 0.437253,0.41289 0.100138,0 0.182074,-0.18581 0.182074,-0.41289 z m 1.651541,-0.41288 c 0,-0.22709 -0.185799,-0.41288 -0.412886,-0.41288 -0.227087,0 -0.412884,0.18579 -0.412884,0.41288 0,0.22708 0.185797,0.41288 0.412884,0.41288 0.227087,0 0.412886,-0.1858 0.412886,-0.41288 z m 5.367505,0.23081 c 0,-0.10018 -0.185798,-0.29692 -0.412885,-0.43725 -0.227087,-0.14029 -0.412886,-0.0584 -0.412886,0.18206 0,0.24049 0.185799,0.43726 0.412886,0.43726 0.227087,0 0.412885,-0.0819 0.412885,-0.18207 z m -3.715965,-0.64369 c 0,-0.22711 -0.185798,-0.4129 -0.412885,-0.4129 -0.227087,0 -0.412886,0.18579 -0.412886,0.4129 0,0.22708 0.185799,0.41288 0.412886,0.41288 0.227087,0 0.412885,-0.1858 0.412885,-0.41288 z M 60.438489,254.1953 c -0.451034,-0.45103 -0.76032,0.26626 -0.436494,1.01231 0.307056,0.70742 0.329313,0.70678 0.500392,-0.014 0.09847,-0.41517 0.06972,-0.86419 -0.0639,-0.9978 z m 17.09823,0.72046 c 0,-0.22708 -0.185798,-0.41288 -0.412885,-0.41288 -0.227087,0 -0.412886,0.1858 -0.412886,0.41288 0,0.22709 0.185799,0.41288 0.412886,0.41288 0.227087,0 0.412885,-0.18579 0.412885,-0.41288 z m 1.471798,-2.38179 c -0.15293,-0.15293 -0.450895,-0.005 -0.662156,0.32931 -0.616879,0.97543 -0.454756,1.34368 0.271724,0.61722 0.367663,-0.36768 0.543361,-0.79362 0.390432,-0.94653 z m -18.812968,0.73024 c 0,-0.22709 -0.185799,-0.41288 -0.412886,-0.41288 -0.227087,0 -0.412885,0.18579 -0.412885,0.41288 0,0.2271 0.185798,0.4129 0.412885,0.4129 0.227087,0 0.412886,-0.1858 0.412886,-0.4129 z m -0.619328,-1.23865 c 0.140352,-0.22709 0.05841,-0.41288 -0.182074,-0.41288 -0.24049,0 -0.437253,0.18579 -0.437253,0.41288 0,0.2271 0.08193,0.41289 0.182072,0.41289 0.100138,0 0.296906,-0.18579 0.437255,-0.41289 z m 21.446832,-3.29337 -0.272206,-1.04192 -0.36772,0.96308 c -0.202242,0.5297 -0.246008,1.44802 -0.09725,2.04068 l 0.270455,1.0776 0.369467,-0.99876 c 0.203206,-0.54933 0.246975,-1.46763 0.09725,-2.04068 z m -22.066159,2.05471 c 0,-0.22709 -0.08193,-0.41288 -0.182075,-0.41288 -0.100137,0 -0.296905,0.18579 -0.437254,0.41288 -0.140353,0.2271 -0.05841,0.4129 0.182074,0.4129 0.24049,0 0.437255,-0.1858 0.437255,-0.4129 z m -0.602351,-0.85322 c 0.484162,-0.7834 -0.221975,-0.97671 -0.941055,-0.25763 -0.643664,0.64366 -0.644795,0.69797 -0.01451,0.69797 0.375891,0 0.805902,-0.19815 0.95559,-0.44034 z m -0.825771,-1.23866 c 0.484163,-0.78339 -0.221974,-0.97671 -0.941054,-0.25762 -0.643664,0.64366 -0.644795,0.69797 -0.01451,0.69797 0.375891,0 0.805902,-0.19816 0.955589,-0.44035 z m -0.899877,-1.41763 c 0.130708,-0.34063 0.08044,-0.61933 -0.111717,-0.61933 -0.192152,0 -0.580669,0.2787 -0.863367,0.61933 -0.41843,0.50417 -0.397658,0.61932 0.111717,0.61932 0.34414,0 0.732652,-0.27869 0.863367,-0.61932 z m -1.164547,-0.6468 c 0.484161,-0.78339 -0.221976,-0.97669 -0.941056,-0.25762 -0.643662,0.64366 -0.644793,0.69796 -0.01451,0.69796 0.37589,0 0.805902,-0.19815 0.95559,-0.44034 z M 7.3462645,246.03874 c 0,-0.34063 -0.1857975,-0.61934 -0.4128845,-0.61934 -0.227087,0 -0.4128845,0.27871 -0.4128845,0.61934 0,0.34062 0.1857975,0.61932 0.4128845,0.61932 0.227087,0 0.4128845,-0.2787 0.4128845,-0.61932 z m 9.7784035,-0.28386 c -0.131801,-0.32938 -0.22964,-0.23155 -0.249452,0.24945 -0.01793,0.43524 0.07966,0.6791 0.216856,0.5419 0.1372,-0.13717 0.151869,-0.49331 0.0326,-0.79135 z m 18.416669,-0.71133 c 0.909606,-1.53985 3.258455,-2.65433 4.855082,-2.30366 1.323754,0.29076 1.47307,-0.11937 0.828209,-2.27511 l -0.308775,-1.03221 -0.55242,1.15807 -0.552419,1.15805 -0.492204,-0.91969 -0.492205,-0.91968 -0.653338,1.20672 c -0.4493,0.82987 -0.658497,0.98108 -0.669864,0.48418 -0.01923,-0.84057 -0.842301,-0.99821 -0.842301,-0.16134 0,0.30869 -0.648491,1.37703 -1.441091,2.3741 -0.792599,0.99707 -1.442893,2.03929 -1.445098,2.31602 -0.0066,0.8138 1.015451,0.18584 1.766424,-1.08545 z m 18.669669,0.7862 c 0.412283,-0.45556 0.662115,-0.91578 0.555186,-1.02271 -0.273288,-0.27329 -2.002575,0.9888 -2.002575,1.46154 0,0.64028 0.648845,0.44356 1.447389,-0.43883 z M 11.888,245.67061 c 0,-0.72175 -2.0379639,-1.2686 -2.6070227,-0.69953 -0.2889488,0.28895 -0.1063176,0.54978 0.5758283,0.82245 1.4298564,0.57152 2.0311944,0.53513 2.0311944,-0.12297 z m 7.019045,0.16167 c 0,-0.22709 -0.185797,-0.41288 -0.412884,-0.41288 -0.227087,0 -0.412886,0.18579 -0.412886,0.41288 0,0.2271 0.185799,0.4129 0.412886,0.4129 0.227087,0 0.412884,-0.1858 0.412884,-0.4129 z m 1.65154,0 c 0,-0.22709 -0.185797,-0.41288 -0.412884,-0.41288 -0.227087,0 -0.412885,0.18579 -0.412885,0.41288 0,0.2271 0.185798,0.4129 0.412885,0.4129 0.227087,0 0.412884,-0.1858 0.412884,-0.4129 z m 33.443687,-1.97511 c 0,-0.3974 -0.35717,-0.30409 -1.238655,0.32358 -0.68126,0.4851 -1.238655,1.06565 -1.238655,1.29012 0,0.22444 0.557395,0.0788 1.238655,-0.32359 0.681261,-0.40243 1.238655,-0.98298 1.238655,-1.29011 z m -1.635945,-0.049 c 0.786228,-0.65911 1.298004,-1.33252 1.137276,-1.49648 -0.160725,-0.16395 -0.832574,0.1431 -1.493006,0.68229 -0.660429,0.5392 -1.550821,1.20168 -1.978644,1.47218 -0.750331,0.47443 -0.748085,0.49269 0.06351,0.51611 0.462754,0.014 1.484643,-0.51498 2.270867,-1.1741 z m -24.169369,-1.26315 c 2.69254,-1.22073 0.775087,-1.43389 -2.291065,-0.25472 -2.65875,1.0225 -2.660576,1.02433 -1.012014,1.01391 0.908347,-0.006 2.394733,-0.34739 3.303079,-0.75919 z m 50.920887,-2.16955 c 0.571078,-3.8477 0.232669,-4.47727 -0.535029,-0.99535 -0.247568,1.12286 -0.292789,1.1449 -0.847124,0.41289 -0.570446,-0.75329 -0.585938,-0.75269 -0.598729,0.0231 -0.01656,1.00365 0.885093,3.53883 1.25859,3.53883 0.154038,0 0.479066,-1.34079 0.722292,-2.97955 z m -68.881384,-0.0927 c 0,-0.10019 -0.185799,-0.29692 -0.4128865,-0.43726 -0.2270854,-0.14029 -0.4128845,-0.0584 -0.4128845,0.18207 0,0.24049 0.1857991,0.43725 0.4128845,0.43725 0.2270875,0 0.4128865,-0.0819 0.4128865,-0.18206 z m 64.372825,-6.52732 c -0.03538,-2.45092 -0.05847,-2.50794 -0.460099,-1.13543 l -0.42286,1.4451 -0.859899,-1.75477 c -0.821872,-1.67715 -1.522984,-2.27399 -1.522984,-1.29645 0,0.71713 2.550527,5.32209 2.947722,5.32209 0.195448,0 0.338603,-1.16124 0.31812,-2.58054 z M 70.665549,219.9238 c 0.376105,-2.27542 0.308837,-4.76401 -0.147874,-5.47072 -0.47737,-0.73867 -0.480544,-0.71812 -0.558229,3.61158 -0.06426,3.58189 0.274099,4.47278 0.706103,1.85914 z m -49.32478,67.01582 c -0.103821,-0.10377 -0.116976,-0.94161 -0.02923,-1.86175 0.119519,-1.25328 0.339782,-1.67299 0.877955,-1.67299 1.159331,0 2.221073,-1.46627 1.922669,-2.65519 -0.354473,-1.41234 -1.481564,-1.9495 -3.110361,-1.48236 -1.078902,0.30941 -1.460052,0.23053 -2.13188,-0.4413 -0.449951,-0.44996 -1.043716,-0.78946 -1.319478,-0.75446 -1.47511,0.18723 -1.643904,-0.10081 -0.501388,-0.85557 0.68126,-0.45003 1.574685,-1.05318 1.985386,-1.34032 0.623552,-0.43594 0.835388,-0.40288 1.284174,0.20048 0.738962,0.99348 1.273053,0.90769 2.274421,-0.36533 1.245419,-1.58329 1.111324,-2.59761 -0.382918,-2.89645 -1.274081,-0.25481 -1.57692,-0.7125 -0.792316,-1.19741 0.245487,-0.15168 0.334847,-0.72008 0.198577,-1.26301 -0.139853,-0.55725 -0.06453,-0.98717 0.172988,-0.98717 0.231413,0 0.420751,0.19769 0.420751,0.43929 0,0.24695 0.587537,0.38254 1.341877,0.30966 1.278812,-0.12359 1.347881,-0.0571 1.469651,1.41248 0.217635,2.62662 2.669287,3.67669 4.075889,1.74573 0.844356,-1.15911 3.353841,-2.20956 5.345356,-2.2375 1.862981,-0.0262 2.519956,-0.96504 1.841507,-2.63176 -1.083272,-2.66121 -1.036093,-3.04933 0.546962,-4.49959 1.321454,-1.21061 1.46558,-1.53259 1.22484,-2.73631 -0.289907,-1.44954 -0.35241,-1.45887 -2.901754,-0.43323 -1.114435,0.44837 -1.453637,0.42257 -2.374088,-0.18053 -1.03648,-0.67914 -1.505323,-2.33613 -0.661,-2.33613 0.227088,0 0.412885,0.27869 0.412885,0.61932 0,0.8467 1.092574,0.77777 2.413574,-0.15231 1.672783,-1.17772 2.750996,-1.3793 4.646934,-0.86877 1.620829,0.43645 1.790013,0.40007 2.600829,-0.55905 1.306723,-1.54575 2.235525,-1.81727 5.512188,-1.61141 2.441832,0.1534 2.993417,0.31471 2.993417,0.87537 0,0.81109 1.12398,2.52258 1.65664,2.52258 0.204133,0 0.09709,-0.77675 -0.237857,-1.72612 -0.413722,-1.17261 -0.474048,-1.86108 -0.188125,-2.14701 0.285918,-0.28591 0.420882,-0.14434 0.420882,0.44174 0,1.01604 1.445522,2.94649 1.881278,2.51237 0.165451,-0.16482 0.10251,-0.53862 -0.139853,-0.83067 -0.602722,-0.72623 -0.803404,-2.55832 -0.296319,-2.70518 0.227087,-0.0657 0.47049,0.24589 0.540891,0.69257 0.134017,0.8502 1.191806,1.9608 1.537919,1.61468 0.110484,-0.11049 -0.07157,-0.97306 -0.404545,-1.91683 -0.682561,-1.93456 -0.386074,-2.16923 0.947376,-0.74984 1.016801,1.08233 1.713651,3.13649 1.713651,5.05145 0,0.98687 -0.256481,1.39468 -1.135433,1.80534 -0.62449,0.29179 -1.414132,0.69852 -1.754763,0.90385 -0.34063,0.20533 -1.258296,0.66546 -2.039254,1.02251 -0.780964,0.35706 -2.075871,1.0949 -2.877578,1.63967 l -1.457645,0.99051 -0.514096,-0.92543 c -0.282752,-0.509 -0.544736,-0.83254 -0.582184,-0.71899 -0.03745,0.1136 -0.276282,1.58502 -0.530739,3.26995 -0.57311,3.79494 -1.49486,4.47306 -1.49486,1.09974 0,-3.3536 -0.680256,-2.82276 -1.019309,0.79542 -0.303409,3.23781 -0.0095,6.2214 0.653006,6.63091 0.213189,0.13171 -0.08168,0.79728 -0.655252,1.47893 -0.824436,0.97979 -1.042869,1.69185 -1.042869,3.39966 0,1.18816 -0.255154,2.50921 -0.567006,2.93569 -0.546032,0.74676 -0.577957,0.74094 -0.86305,-0.15731 -0.162825,-0.51302 -0.182829,-1.38385 -0.04446,-1.93517 0.46815,-1.86527 -0.518665,-1.01713 -1.198687,1.03023 -0.371325,1.11795 -0.921205,2.23687 -1.221954,2.48647 -0.83835,0.69577 -1.111318,-1.53134 -0.397175,-3.24054 0.322958,-0.77295 0.493382,-1.49918 0.378711,-1.61386 -0.114667,-0.1147 -0.865927,1.21445 -1.669464,2.95359 -0.803532,1.73914 -1.641143,3.16208 -1.861353,3.16208 -0.513928,0 -0.515757,-1.7072 -0.0033,-3.05514 0.614931,-1.61739 -0.278135,-1.76389 -1.794317,-0.29436 -1.52889,1.48186 -2.59807,1.75269 -1.920398,0.48644 0.235077,-0.43923 0.427411,-0.99663 0.427411,-1.23865 0,-0.4881 -1.350389,-0.60354 -1.80005,-0.15387 -0.157378,0.15738 -1.112711,0.33417 -2.122962,0.39286 -2.433751,0.14138 -3.508929,0.76013 -3.508929,2.01929 0,0.82902 -0.205557,1.01768 -1.108824,1.01768 -0.609852,0 -1.506178,0.37329 -1.991835,0.82954 -0.485656,0.45626 -0.967956,0.74461 -1.071779,0.64078 z m 6.961477,-5.90884 c 0.231294,-0.70231 -0.39776,-0.64928 -1.368249,0.11532 -0.776134,0.6115 -0.769864,0.62783 0.198409,0.51611 0.549929,-0.0635 1.076357,-0.3476 1.16984,-0.63148 z m -2.030301,-1.09713 c 0.215473,-1.11137 -1.133301,-2.31126 -2.577493,-2.293 l -1.277884,0.0161 1.341876,0.58324 c 1.026223,0.44604 1.341877,0.83882 1.341877,1.6698 0,1.20864 0.938208,1.22771 1.171624,0.0239 z m 5.622272,-5.60607 c 1.488554,-0.49127 1.987349,-1.24482 0.823973,-1.24482 -1.010532,0 -2.965143,1.14704 -3.670398,2.15392 -1.004585,1.43425 -0.757058,1.88154 0.369115,0.66703 0.557429,-0.60117 1.672218,-1.31042 2.47731,-1.57613 z m -6.793896,0.40671 c 0,-0.22708 -0.185798,-0.41288 -0.412885,-0.41288 -0.227087,0 -0.412884,0.1858 -0.412884,0.41288 0,0.22709 0.185797,0.41288 0.412884,0.41288 0.227087,0 0.412885,-0.18579 0.412885,-0.41288 z m 10.532731,-0.41962 c 0.14263,-0.23078 0.387899,-0.34016 0.545027,-0.24305 0.436161,0.26957 1.910432,-0.93774 1.565867,-1.28232 -0.166087,-0.16608 -0.43122,-0.0938 -0.589186,0.16057 -0.157971,0.25437 -0.737157,0.5277 -1.287089,0.60736 -0.549928,0.0797 -1.076357,0.3771 -1.169839,0.66096 -0.203081,0.61665 0.564781,0.69586 0.93522,0.0964 z m 3.470389,-4.61215 c 0.304708,-0.8741 0.32058,-1.45394 0.04727,-1.72725 -0.545442,-0.54543 -0.676864,-0.34083 -0.960115,1.49474 -0.291716,1.89041 0.283793,2.03701 0.912844,0.23251 z m 0.620529,-3.06365 c 0.713353,-0.27375 0.906625,-1.40094 0.240212,-1.40094 -0.227087,0 -0.412886,0.1858 -0.412886,0.4129 0,0.22708 -0.26773,0.41288 -0.594958,0.41288 -0.327228,0 -0.709791,0.18579 -0.850138,0.41288 -0.283768,0.45915 0.610396,0.54883 1.61777,0.16228 z m 0.45653,-3.08359 c 0.149575,-0.47129 0.151994,-0.97685 0.0053,-1.12347 -0.309441,-0.30945 -1.031858,0.70655 -1.04114,1.46426 -0.0103,0.83677 0.740406,0.58981 1.035767,-0.34079 z m 5.976957,-0.1997 c 0,-0.68128 -0.652539,-0.79639 -1.032213,-0.18206 -0.336711,0.5448 0.156984,1.31794 0.647858,1.01456 0.211393,-0.13061 0.384355,-0.50527 0.384355,-0.8325 z m 2.47731,-1.83361 c 0,-0.22709 -0.08193,-0.41288 -0.182074,-0.41288 -0.100138,0 -0.296905,0.18579 -0.437253,0.41288 -0.140352,0.22708 -0.05841,0.41289 0.182074,0.41289 0.240489,0 0.437253,-0.18581 0.437253,-0.41289 z m -7.811045,-1.23866 c 0.208511,0 0.379115,-0.27271 0.379115,-0.60602 0,-0.75126 -1.717561,-0.22813 -1.996279,0.60804 -0.122625,0.36787 0.0475,0.45484 0.528613,0.27021 0.390189,-0.14965 0.880036,-0.27223 1.088551,-0.27223 z m 15.431783,0.0286 c 0.130662,-0.21139 0.04872,-0.50105 -0.182074,-0.64369 -0.23079,-0.14264 -0.419618,0.0303 -0.419618,0.38435 0,0.72525 0.247756,0.83203 0.601692,0.25934 z m -11.336703,-2.50584 c 0,-0.22708 -0.185799,-0.41288 -0.412886,-0.41288 -0.227085,0 -0.412884,0.1858 -0.412884,0.41288 0,0.22709 0.185799,0.4129 0.412884,0.4129 0.227087,0 0.412886,-0.18581 0.412886,-0.4129 z m 3.303081,0 c 0,-0.22708 -0.278698,-0.41288 -0.619328,-0.41288 -0.340631,0 -0.619327,0.1858 -0.619327,0.41288 0,0.22709 0.278696,0.4129 0.619327,0.4129 0.34063,0 0.619328,-0.18581 0.619328,-0.4129 z m -2.064426,-0.41288 c 0,-0.22708 -0.185799,-0.41288 -0.412886,-0.41288 -0.227085,0 -0.412884,0.1858 -0.412884,0.41288 0,0.22709 0.185799,0.41288 0.412884,0.41288 0.227087,0 0.412886,-0.18579 0.412886,-0.41288 z M 19.730143,236.78513 c -1.5918,-0.49821 -3.508892,-1.56331 -4.103583,-2.27986 -0.864534,-1.0417 0.354789,-0.82098 2.130524,0.38566 0.950575,0.64593 2.096497,1.0322 3.062123,1.0322 1.979946,0 4.791056,-1.36343 6.156265,-2.98589 1.245882,-1.48065 4.058434,-6.90777 3.743233,-7.22298 -0.118255,-0.11829 -1.10562,0.57558 -2.194146,1.54186 -2.274885,2.01938 -4.372564,3.03443 -5.518971,2.67057 -1.29086,-0.4097 -0.910113,-1.02259 0.635268,-1.02259 1.659513,0 4.349661,-2.06933 4.349661,-3.34586 0,-1.02579 -0.25539,-0.98893 -1.726839,0.24921 -0.696264,0.58588 -1.74863,1.03222 -2.433691,1.03222 -1.338779,0 -1.626621,-0.63694 -0.455781,-1.00854 0.848847,-0.26941 2.747347,-2.64959 2.394686,-3.00225 -0.126449,-0.1264 -0.716329,0.0888 -1.310837,0.47832 -1.480802,0.97027 -1.688436,0.55926 -0.412814,-0.81717 0.580294,-0.62614 1.05508,-1.39001 1.05508,-1.69748 0,-0.7482 -1.011188,-0.7113 -1.65154,0.0602 -0.734066,0.88449 -1.517165,0.76488 -1.78863,-0.2732 -0.411419,-1.57326 0.419374,-2.48525 2.128364,-2.33637 l 1.518249,0.13218 0.127915,-2.01197 c 0.07035,-1.10657 -0.0055,-2.31427 -0.168342,-2.68375 -0.162941,-0.36948 -0.258809,-0.90403 -0.213038,-1.18789 0.04577,-0.28386 -0.110718,-0.51611 -0.347766,-0.51611 -0.237041,0 -0.430983,0.23797 -0.430983,0.52881 0,0.29085 -0.530587,0.72909 -1.179081,0.97386 -1.108535,0.41843 -1.217435,0.36044 -1.820098,-0.96919 -0.587825,-1.29688 -0.584203,-1.43219 0.04365,-1.63062 0.376565,-0.11907 1.100905,-0.41577 1.609644,-0.65946 0.728164,-0.34879 1.086494,-0.2969 1.684051,0.24389 0.41749,0.37782 1.063051,0.68694 1.434582,0.68694 0.884212,0 1.64683,-1.45981 1.312654,-2.51272 -0.144893,-0.4565 -0.03953,-1.09977 0.234125,-1.42949 0.40019,-0.48221 0.366467,-0.59952 -0.17233,-0.59952 -0.368436,0 -0.669883,0.1858 -0.669883,0.41288 0,0.22709 -0.371597,0.41288 -0.825771,0.41288 -0.964358,0 -1.122492,-1.1507 -0.206443,-1.50222 0.34063,-0.13077 0.619328,-0.71108 0.619328,-1.28969 0,-0.99304 0.04234,-1.01372 0.75506,-0.36871 0.415282,0.37583 0.981096,0.68331 1.257364,0.68331 0.345077,0 0.421953,0.42832 0.2456,1.36837 -0.310985,1.65768 0.457864,2.46888 2.155521,2.27422 1.004329,-0.11516 1.165956,-0.319 1.201692,-1.51552 0.02271,-0.76034 0.222059,-1.50353 0.443,-1.65153 0.220942,-0.14794 0.54078,-0.64069 0.710749,-1.09486 0.302137,-0.80733 0.32191,-0.80828 0.885649,-0.0424 0.317138,0.43085 0.491712,0.92075 0.387943,1.08866 -0.103774,0.16789 0.07966,0.52796 0.407621,0.80015 0.466679,0.3873 0.493129,0.66006 0.121688,1.25484 -0.357862,0.57303 -0.357031,1.01803 0.0034,1.80905 0.415634,0.91221 0.339087,1.21415 -0.586755,2.31445 -1.668313,1.98268 -1.350472,6.44249 0.538637,7.55793 0.725888,0.42861 0.09457,1.77213 -1.443776,3.07253 -0.899808,0.76064 -0.963539,0.92732 -0.355222,0.92901 0.974257,0.003 2.665282,-1.71499 2.999555,-3.04684 0.233126,-0.92884 0.337813,-0.98268 0.872053,-0.44844 0.815729,0.81574 1.934453,0.77038 4.88343,-0.19801 1.362522,-0.44742 3.313403,-1.05314 4.335294,-1.34605 1.372107,-0.3933 1.890897,-0.76337 1.983842,-1.41518 0.10262,-0.7196 -0.164295,-0.95084 -1.445098,-1.25189 -1.313378,-0.30872 -1.593278,-0.56258 -1.707081,-1.54823 -0.123655,-1.07099 -0.04803,-1.1495 0.825769,-0.85722 0.529043,0.17696 1.658638,0.29967 2.510213,0.27267 0.851576,-0.027 1.54832,0.13249 1.54832,0.35434 -2e-6,0.22188 -0.557397,0.40343 -1.238657,0.40343 -0.681261,0 -1.238655,0.21104 -1.238655,0.46899 0,0.58415 3.576027,0.16114 4.396858,-0.5201 0.839288,-0.69653 0.671165,-2.58356 -0.345308,-3.87579 -0.590644,-0.75089 -0.697776,-1.08513 -0.309664,-0.96613 0.326374,0.10003 0.965004,0.9565 1.419178,1.9032 0.95999,2.00103 1.317886,2.1395 1.857982,0.71896 0.562303,-1.47898 -0.170576,-3.25632 -1.22863,-2.97963 -0.440565,0.11517 -1.528778,-0.15059 -2.418251,-0.59066 -0.889475,-0.44008 -2.337231,-0.91092 -3.217242,-1.04631 -1.930621,-0.29703 -2.632233,-0.79321 -2.632233,-1.8615 0,-0.62691 0.18944,-0.74291 0.863723,-0.52891 0.689497,0.21885 0.832644,0.12032 0.709662,-0.48828 -0.09766,-0.48334 -0.493543,-0.74997 -1.081499,-0.72841 -1.390729,0.051 -0.845329,-0.77202 0.774854,-1.16925 0.779358,-0.19108 1.826148,-0.80346 2.326198,-1.36084 1.104083,-1.23068 2.522765,-1.29459 7.689171,-0.34636 3.104143,0.56973 3.710102,0.81442 4.0919,1.65238 0.329337,0.72281 0.317022,1.27146 -0.04644,2.06919 -0.60903,1.33667 -0.286771,1.73774 0.833941,1.03783 1.177336,-0.73525 1.429217,-0.29033 0.808073,1.42742 -0.590578,1.63321 -0.430796,2.16419 0.363315,1.20733 0.747036,-0.90011 1.835001,-0.82941 1.434639,0.0932 -0.604621,1.39338 -0.679482,3.3613 -0.184873,4.85997 0.564714,1.71112 0.06829,2.72365 -0.814078,1.66048 -1.066304,-1.28483 -1.556626,-0.7345 -1.451576,1.62919 0.08614,1.93802 0.287075,2.44012 1.38821,3.46874 0.813975,0.76036 1.2875,1.60449 1.2875,2.29516 v 1.09246 l -1.613452,-1.29661 c -0.887396,-0.71312 -1.749703,-1.69732 -1.916236,-2.1871 -0.281377,-0.82754 -0.315342,-0.80877 -0.480387,0.26555 -0.13667,0.88966 0.162185,1.53217 1.296908,2.78816 0.888157,0.98309 1.474512,2.0558 1.474512,2.69755 0,1.4617 -0.928211,1.08214 -1.428789,-0.58427 -0.570686,-1.89978 -1.253047,-1.36049 -1.266483,1.00096 -0.01217,2.13412 -0.451606,3.883 -0.975722,3.883 -0.171748,0 -0.577275,-0.88253 -0.901171,-1.9612 -0.323892,-1.07866 -0.774697,-1.86831 -1.001784,-1.75477 -0.227085,0.11361 -0.356653,0.37515 -0.287925,0.58132 0.191537,0.57462 0.167752,2.30677 -0.06197,4.51331 -0.223638,2.14806 -1.177576,3.57596 -2.388993,3.57596 -0.648284,0 -0.689151,-0.13998 -0.294036,-1.00715 0.358971,-0.78786 0.312092,-1.37403 -0.215295,-2.6921 -0.916101,-2.28957 -0.847446,-2.85399 0.575957,-4.73522 0.674945,-0.89203 1.22717,-1.77456 1.22717,-1.9612 0,-1.47769 -2.953379,2.09419 -5.352369,6.47326 -1.86238,3.39958 -3.21398,5.13127 -4.441482,5.69056 -0.901949,0.41096 -1.14015,0.34707 -1.815432,-0.48685 -0.427496,-0.52795 -0.777269,-1.3109 -0.777269,-1.73992 0,-1.10679 -0.520072,-0.96992 -1.80832,0.47591 -1.565862,1.75741 -2.996439,2.2403 -4.234244,1.42927 -1.172425,-0.76821 -1.386067,-2.51913 -0.253932,-2.08114 2.055342,0.79514 2.944374,0.72117 3.99826,-0.33272 0.582771,-0.58277 1.058658,-1.39318 1.057529,-1.80091 -0.0017,-0.60363 -0.174199,-0.5347 -0.92899,0.37109 -1.06872,1.28256 -1.634195,1.43957 -3.554231,0.98685 -1.105628,-0.26068 -1.628141,-0.15027 -2.563812,0.54142 -1.459503,1.07907 -1.772677,1.09704 -1.223142,0.0702 0.727903,-1.3601 0.484098,-1.37264 -1.111759,-0.0573 -1.658652,1.36719 -2.589679,1.61448 -2.589679,0.68787 0,-1.23318 2.437768,-5.93429 3.517738,-6.78379 1.074442,-0.84516 1.087109,-0.89308 0.236066,-0.89308 -0.657597,0 -1.310623,0.67523 -2.429769,2.51242 -2.740409,4.49864 -3.696301,5.62115 -5.519004,6.48099 -2.126103,1.00295 -4.693262,1.40166 -6.129829,0.95205 z m 27.109755,-2.29445 c 0.807538,-0.56562 1.605182,-2.28351 1.060276,-2.28351 -0.134422,0 -0.660665,0.39106 -1.169435,0.86903 -1.023146,0.9612 -1.811937,0.75201 -1.811937,-0.48051 0,-0.44077 -0.185799,-0.8014 -0.412886,-0.8014 -0.580779,0 -0.5158,2.20924 0.08258,2.80762 0.652135,0.65214 1.200202,0.62505 2.251404,-0.11126 z m -6.474788,-3.09315 c 0.334052,-0.21126 0.481416,-0.51007 0.327472,-0.66401 -0.377833,-0.37783 -1.55417,0.10268 -1.55417,0.63494 0,0.52439 0.427455,0.53453 1.226698,0.029 z m -5.087647,-1.22936 c 0.559611,-0.44018 1.982405,-1.11436 3.161761,-1.49813 2.387494,-0.77695 3.589382,-1.64275 3.589382,-2.58566 0,-0.49196 -0.200435,-0.44158 -0.92899,0.23352 -0.510946,0.47346 -1.690571,1.06283 -2.621391,1.30975 -1.859758,0.49331 -4.340657,2.01457 -4.606674,2.82477 -0.241361,0.73508 0.231601,0.63947 1.405912,-0.28425 z m 12.11708,-0.85035 c 0.923154,-0.49406 2.255728,-2.31509 2.670223,-3.64902 0.270477,-0.87043 0.218044,-0.92075 -0.538014,-0.51611 -0.460734,0.24658 -1.064934,0.44832 -1.342665,0.44832 -0.277736,0 0.311489,-0.43174 1.309378,-0.95944 0.99789,-0.52771 2.16412,-1.55835 2.591617,-2.29032 0.896576,-1.53515 0.56574,-2.31703 -0.398133,-0.94091 -1.173641,1.67561 -2.274327,2.45317 -4.13629,2.92201 -1.821649,0.4587 -5.158908,3.0081 -4.630031,3.53697 0.148436,0.14841 0.835329,-0.0225 1.526415,-0.37987 1.371564,-0.70927 3.77484,-0.87916 3.77484,-0.26686 0,0.2106 -0.464497,0.74829 -1.032214,1.19485 -1.49717,1.17767 -1.368647,1.7425 0.204874,0.90038 z M 33.943581,225.3504 c 0.359203,-0.1378 0.653095,-0.39077 0.653095,-0.56207 0,-0.41119 -2.012354,-0.0184 -2.301336,0.4491 -0.258105,0.41762 0.685746,0.48231 1.648241,0.11298 z m 20.215766,-2.14965 c 0.827474,-1.62721 1.186053,-2.96724 0.793994,-2.96724 -0.339366,0 -2.2001,3.6111 -2.193262,4.25644 0.0062,0.59797 0.821522,-0.15309 1.399268,-1.2892 z m -13.098703,0.10845 c 1.361731,-1.03864 1.779762,-1.83697 0.961898,-1.83697 -0.66147,0 -3.571897,2.86653 -2.923102,2.87902 0.319193,0.006 1.201734,-0.46277 1.961204,-1.04205 z m 3.69516,-0.80886 c 0.615008,-0.56997 1.008884,-1.14563 0.875278,-1.27923 -0.297045,-0.29704 -2.247605,1.08493 -2.539759,1.79944 -0.344779,0.84321 0.467126,0.58946 1.664481,-0.52021 z m 3.837675,-0.23479 c 1.321876,-1.78794 0.88314,-1.8642 -0.968331,-0.16832 -1.26484,1.15856 -1.415375,1.43942 -0.771464,1.43942 0.440012,0 1.222917,-0.57199 1.739795,-1.2711 z m -11.106607,-0.81769 c 0,-0.21368 -0.185799,-0.38852 -0.412886,-0.38852 -0.227087,0 -0.412884,0.28966 -0.412884,0.64369 0,0.35403 0.185797,0.52887 0.412884,0.38852 0.227087,-0.14029 0.412886,-0.43 0.412886,-0.64369 z m 19.812159,-2.68369 c 0.0033,-0.92172 -0.285708,-2.03651 -0.642631,-2.47731 -0.614248,-0.75861 -0.636329,-0.72695 -0.412884,0.59202 0.129834,0.76642 0.238911,2.15991 0.242388,3.09663 0.0047,1.25175 0.112403,1.53901 0.406564,1.08383 0.220133,-0.34063 0.403088,-1.37346 0.406563,-2.29517 z m -24.147453,1.88229 c 0.140352,-0.22709 -0.03449,-0.41288 -0.388517,-0.41288 -0.354031,0 -0.643695,0.18579 -0.643695,0.41288 0,0.22708 0.174834,0.41288 0.388519,0.41288 0.213684,0 0.503347,-0.1858 0.643693,-0.41288 z m -4.736707,-2.49874 c 0.4365,-0.81562 0.565165,-4.4088 0.14274,-3.98639 -0.142272,0.14232 -0.328272,0.85646 -0.41334,1.58709 -0.08506,0.73063 -0.433164,1.75344 -0.773542,2.27293 -0.34038,0.51948 -0.618872,1.03811 -0.618872,1.15253 0,0.46683 1.289977,-0.32914 1.663009,-1.02616 z m 3.609969,-0.31432 c 0.100575,-0.30172 -0.08818,-0.394 -0.4903,-0.23969 -0.359606,0.13795 -0.653829,0.43231 -0.653829,0.65402 0,0.54269 0.938397,0.20287 1.144129,-0.41433 z m 22.238772,-3.28618 c 1.926101,-1.5602 2.378283,-4.26673 0.991052,-5.93191 -0.906336,-1.08792 -1.092469,-0.53656 -0.360902,1.06905 0.696148,1.52788 -0.169957,4.16149 -1.629014,4.9534 -0.616251,0.33446 -0.841761,0.61144 -0.501131,0.61548 0.340631,0.005 1.015627,-0.31366 1.499995,-0.70602 z m -22.350689,-0.0941 c 0.140352,-0.22709 0.06938,-0.41288 -0.157707,-0.41288 -0.227087,0 -0.527714,0.18579 -0.668062,0.41288 -0.140352,0.22708 -0.06938,0.41288 0.157708,0.41288 0.227086,0 0.527714,-0.1858 0.668061,-0.41288 z m 21.61459,-10.96527 c 0.37177,-0.32836 -0.483034,-0.97178 -1.623923,-1.22236 -1.611536,-0.35396 -1.86442,-0.0841 -0.936637,0.99946 0.645722,0.75414 1.841223,0.85821 2.56056,0.2229 z m -5.099189,8.48375 c -0.681259,-0.18845 -2.308853,-0.55684 -3.616872,-0.81866 -3.917466,-0.78415 -5.752392,-3.06335 -4.861576,-6.03865 l 0.356211,-1.18973 0.03552,1.3081 c 0.01952,0.71945 0.156157,1.62257 0.30364,2.00691 0.340494,0.8873 5.740711,3.49758 7.235925,3.49758 1.5909,0 3.410236,0.87008 2.726544,1.30395 -0.603506,0.38298 -0.535744,0.38513 -2.179364,-0.0694 z m -1.181066,-3.17246 c -0.464982,-0.46499 -0.283193,-0.95218 0.355297,-0.95218 0.34063,0 0.619328,0.17483 0.619328,0.38852 0,0.52064 -0.644758,0.89352 -0.974625,0.56366 z m 10.264538,-8.86392 c -0.908349,-0.21827 -3.133869,-0.52475 -4.945607,-0.68107 -3.209803,-0.27696 -3.303461,-0.31591 -3.661308,-1.52287 -0.201988,-0.68127 -0.531189,-1.56129 -0.731566,-1.95561 -0.553758,-1.08974 -0.440582,-1.55391 0.378875,-1.55391 0.408757,0 0.966151,-0.22297 1.238655,-0.49546 0.385359,-0.38537 0.495462,-0.25096 0.495462,0.60479 0,1.31026 1.271761,2.13993 2.722209,1.77589 0.946693,-0.2376 1.179452,-0.78809 1.01535,-2.40133 -0.05225,-0.51364 0.222509,-0.72255 0.950259,-0.72255 0.563068,0 1.132139,-0.23225 1.264609,-0.5161 0.189044,-0.40511 0.294565,-0.39937 0.49059,0.0267 0.137357,0.29853 0.702232,0.71482 1.255273,0.92509 0.874211,0.33237 0.943931,0.49738 0.533877,1.26357 -0.516447,0.96501 0.167616,2.85457 1.024294,2.82936 0.690542,-0.0203 1.702904,-0.93148 2.049731,-1.84485 0.295109,-0.77716 0.344886,-0.78323 0.845699,-0.10315 0.292679,0.3974 0.836804,0.72255 1.209168,0.72255 0.372369,0 0.677032,0.16348 0.677032,0.36329 0,0.42848 -4.356069,3.78459 -4.833682,3.72409 -0.180059,-0.0228 -1.070574,-0.22006 -1.97892,-0.43833 z"
       id="path2451"
       inkscape:connector-curvature="0" />
  </g>
</svg>
