<?xml version="1.0" encoding="UTF-8" standalone="no"?>
<svg
   xmlns:dc="http://purl.org/dc/elements/1.1/"
   xmlns:cc="http://creativecommons.org/ns#"
   xmlns:rdf="http://www.w3.org/1999/02/22-rdf-syntax-ns#"
   xmlns:svg="http://www.w3.org/2000/svg"
   xmlns="http://www.w3.org/2000/svg"
   xmlns:sodipodi="http://sodipodi.sourceforge.net/DTD/sodipodi-0.dtd"
   xmlns:inkscape="http://www.inkscape.org/namespaces/inkscape"
   version="1.1"
   x="0px"
   y="0px"
   viewBox="0 0 91 71"
   enable-background="new 0 0 100 100"
   xml:space="preserve"
   id="svg50"
   sodipodi:docname="skyline.svg"
   width="91"
   height="71"
   inkscape:version="0.92.5 (2060ec1f9f, 2020-04-08)"><metadata
     id="metadata56"><rdf:RDF><cc:Work
         rdf:about=""><dc:format>image/svg+xml</dc:format><dc:type
           rdf:resource="http://purl.org/dc/dcmitype/StillImage" /><dc:title></dc:title></cc:Work></rdf:RDF></metadata><defs
     id="defs54" /><sodipodi:namedview
     pagecolor="#ffffff"
     bordercolor="#666666"
     borderopacity="1"
     objecttolerance="10"
     gridtolerance="10"
     guidetolerance="10"
     inkscape:pageopacity="0"
     inkscape:pageshadow="2"
     inkscape:window-width="1617"
     inkscape:window-height="599"
     id="namedview52"
     showgrid="false"
     inkscape:zoom="5.3400704"
     inkscape:cx="46.067214"
     inkscape:cy="45.134504"
     inkscape:window-x="1979"
     inkscape:window-y="249"
     inkscape:window-maximized="0"
     inkscape:current-layer="g3783" /><g
     id="g3783"
     transform="translate(-4.625,-20.375)"
     style="fill:#000000"><g
       id="g10"
       style="fill:#000000"><path
         id="path2"
         d="m 59,80.375 c -0.207,0 -0.375,-0.168 -0.375,-0.375 v -7 c 0,-0.207 0.168,-0.375 0.375,-0.375 0.207,0 0.375,0.168 0.375,0.375 v 7 c 0,0.207 -0.168,0.375 -0.375,0.375 z"
         inkscape:connector-curvature="0"
         style="fill:#000000" /><path
         id="path4"
         d="m 55,80.375 c -0.207,0 -0.375,-0.168 -0.375,-0.375 v -7 c 0,-0.207 0.168,-0.375 0.375,-0.375 0.207,0 0.375,0.168 0.375,0.375 v 7 c 0,0.207 -0.168,0.375 -0.375,0.375 z"
         inkscape:connector-curvature="0"
         style="fill:#000000" /><path
         id="path6"
         d="m 55,91.375 c -0.207,0 -0.375,-0.168 -0.375,-0.375 v -3 c 0,-0.207 0.168,-0.375 0.375,-0.375 0.207,0 0.375,0.168 0.375,0.375 v 3 c 0,0.207 -0.168,0.375 -0.375,0.375 z"
         inkscape:connector-curvature="0"
         style="fill:#000000" /><path
         id="path8"
         d="m 59,91.375 c -0.207,0 -0.375,-0.168 -0.375,-0.375 v -3 c 0,-0.207 0.168,-0.375 0.375,-0.375 0.207,0 0.375,0.168 0.375,0.375 v 3 c 0,0.207 -0.168,0.375 -0.375,0.375 z"
         inkscape:connector-curvature="0"
         style="fill:#000000" /></g><path
       style="color:#000000;font-style:normal;font-variant:normal;font-weight:normal;font-stretch:normal;font-size:medium;line-height:normal;font-family:sans-serif;font-variant-ligatures:normal;font-variant-position:normal;font-variant-caps:normal;font-variant-numeric:normal;font-variant-alternates:normal;font-feature-settings:normal;text-indent:0;text-align:start;text-decoration:none;text-decoration-line:none;text-decoration-style:solid;text-decoration-color:#000000;letter-spacing:normal;word-spacing:normal;text-transform:none;writing-mode:lr-tb;direction:ltr;text-orientation:mixed;dominant-baseline:auto;baseline-shift:baseline;text-anchor:start;white-space:normal;shape-padding:0;clip-rule:nonzero;display:inline;overflow:visible;visibility:visible;opacity:1;isolation:auto;mix-blend-mode:normal;color-interpolation:sRGB;color-interpolation-filters:linearRGB;solid-color:#000000;solid-opacity:1;vector-effect:none;fill-opacity:1;fill-rule:nonzero;stroke:none;stroke-width:1;stroke-linecap:butt;stroke-linejoin:miter;stroke-miterlimit:4;stroke-dasharray:none;stroke-dashoffset:0;stroke-opacity:1;color-rendering:auto;image-rendering:auto;shape-rendering:auto;text-rendering:auto;enable-background:accumulate"
       d="m 16,27.140625 c -0.349701,0 -0.699606,0.192461 -0.830078,0.580078 v 0.002 L 13.171875,33.71875 C 13.139343,33.813844 13.125,33.91022 13.125,34 v 1.125 H 13 c -0.477531,0 -0.875,0.397469 -0.875,0.875 v 3.125 H 12 c -0.477531,0 -0.875,0.397469 -0.875,0.875 v 40 c 0,0.477531 0.397469,0.875 0.875,0.875 0.477531,0 0.875,-0.397469 0.875,-0.875 V 40.875 H 13 c 0.477531,0 0.875,-0.397469 0.875,-0.875 V 36.875 H 14 c 0.477531,0 0.875,-0.397469 0.875,-0.875 v -1.857422 l 1.125,-3.375 1.125,3.375 V 36 c 0,0.477531 0.397469,0.875 0.875,0.875 h 0.125 V 40 c 0,0.477531 0.397469,0.875 0.875,0.875 h 0.125 V 78 c 0,0.477531 0.397469,0.875 0.875,0.875 0.477531,0 0.875,-0.397469 0.875,-0.875 V 40 c 0,-0.477531 -0.397469,-0.875 -0.875,-0.875 H 19.875 V 36 c 0,-0.477531 -0.397469,-0.875 -0.875,-0.875 H 18.875 V 34 c 0,-0.08978 -0.01434,-0.186156 -0.04687,-0.28125 l -1.998047,-5.996094 v -0.002 C 16.699606,27.333086 16.349701,27.140625 16,27.140625 Z"
       id="path12"
       inkscape:connector-curvature="0" /><path
       style="color:#000000;font-style:normal;font-variant:normal;font-weight:normal;font-stretch:normal;font-size:medium;line-height:normal;font-family:sans-serif;font-variant-ligatures:normal;font-variant-position:normal;font-variant-caps:normal;font-variant-numeric:normal;font-variant-alternates:normal;font-feature-settings:normal;text-indent:0;text-align:start;text-decoration:none;text-decoration-line:none;text-decoration-style:solid;text-decoration-color:#000000;letter-spacing:normal;word-spacing:normal;text-transform:none;writing-mode:lr-tb;direction:ltr;text-orientation:mixed;dominant-baseline:auto;baseline-shift:baseline;text-anchor:start;white-space:normal;shape-padding:0;clip-rule:nonzero;display:inline;overflow:visible;visibility:visible;opacity:1;isolation:auto;mix-blend-mode:normal;color-interpolation:sRGB;color-interpolation-filters:linearRGB;solid-color:#000000;solid-opacity:1;vector-effect:none;fill-opacity:1;fill-rule:nonzero;stroke:none;stroke-width:1;stroke-linecap:butt;stroke-linejoin:miter;stroke-miterlimit:4;stroke-dasharray:none;stroke-dashoffset:0;stroke-opacity:1;color-rendering:auto;image-rendering:auto;shape-rendering:auto;text-rendering:auto;enable-background:accumulate"
       d="m 65.199219,61.925781 c -0.477532,0 -0.875,0.397469 -0.875,0.875 v 0.923828 H 64 c -0.477531,0 -0.875,0.397469 -0.875,0.875 V 70 c 0,0.477531 0.397469,0.875 0.875,0.875 0.477531,0 0.875,-0.397469 0.875,-0.875 v -4.525391 h 0.324219 c 0.477531,0 0.875,-0.397468 0.875,-0.875 v -1.798828 c 0,-0.477531 -0.397469,-0.875 -0.875,-0.875 z"
       id="path14"
       inkscape:connector-curvature="0" /><path
       style="color:#000000;font-style:normal;font-variant:normal;font-weight:normal;font-stretch:normal;font-size:medium;line-height:normal;font-family:sans-serif;font-variant-ligatures:normal;font-variant-position:normal;font-variant-caps:normal;font-variant-numeric:normal;font-variant-alternates:normal;font-feature-settings:normal;text-indent:0;text-align:start;text-decoration:none;text-decoration-line:none;text-decoration-style:solid;text-decoration-color:#000000;letter-spacing:normal;word-spacing:normal;text-transform:none;writing-mode:lr-tb;direction:ltr;text-orientation:mixed;dominant-baseline:auto;baseline-shift:baseline;text-anchor:start;white-space:normal;shape-padding:0;clip-rule:nonzero;display:inline;overflow:visible;visibility:visible;opacity:1;isolation:auto;mix-blend-mode:normal;color-interpolation:sRGB;color-interpolation-filters:linearRGB;solid-color:#000000;solid-opacity:1;vector-effect:none;fill-opacity:1;fill-rule:nonzero;stroke:none;stroke-width:1;stroke-linecap:butt;stroke-linejoin:miter;stroke-miterlimit:4;stroke-dasharray:none;stroke-dashoffset:0;stroke-opacity:1;color-rendering:auto;image-rendering:auto;shape-rendering:auto;text-rendering:auto;enable-background:accumulate"
       d="m 68.800781,61.925781 c -0.477531,0 -0.875,0.397469 -0.875,0.875 v 1.798828 c 0,0.477532 0.397469,0.875 0.875,0.875 H 69.125 V 72 c 0,0.477531 0.397469,0.875 0.875,0.875 0.477531,0 0.875,-0.397469 0.875,-0.875 v -7.400391 c 0,-0.477531 -0.397469,-0.875 -0.875,-0.875 h -0.324219 v -0.923828 c 0,-0.477531 -0.397468,-0.875 -0.875,-0.875 z"
       id="path16"
       inkscape:connector-curvature="0" /><path
       style="color:#000000;font-style:normal;font-variant:normal;font-weight:normal;font-stretch:normal;font-size:medium;line-height:normal;font-family:sans-serif;font-variant-ligatures:normal;font-variant-position:normal;font-variant-caps:normal;font-variant-numeric:normal;font-variant-alternates:normal;font-feature-settings:normal;text-indent:0;text-align:start;text-decoration:none;text-decoration-line:none;text-decoration-style:solid;text-decoration-color:#000000;letter-spacing:normal;word-spacing:normal;text-transform:none;writing-mode:lr-tb;direction:ltr;text-orientation:mixed;dominant-baseline:auto;baseline-shift:baseline;text-anchor:start;white-space:normal;shape-padding:0;clip-rule:nonzero;display:inline;overflow:visible;visibility:visible;opacity:1;isolation:auto;mix-blend-mode:normal;color-interpolation:sRGB;color-interpolation-filters:linearRGB;solid-color:#000000;solid-opacity:1;vector-effect:none;fill-opacity:1;fill-rule:nonzero;stroke:none;stroke-width:1;stroke-linecap:butt;stroke-linejoin:miter;stroke-miterlimit:4;stroke-dasharray:none;stroke-dashoffset:0;stroke-opacity:1;color-rendering:auto;image-rendering:auto;shape-rendering:auto;text-rendering:auto;enable-background:accumulate"
       d="m 67,60.125 c -1.470337,0 -2.675781,1.205444 -2.675781,2.675781 0,0.477532 0.397468,0.875 0.875,0.875 0.477531,0 0.875,-0.397468 0.875,-0.875 0,-0.513238 0.412543,-0.925781 0.925781,-0.925781 0.513238,0 0.925781,0.412543 0.925781,0.925781 0,0.477532 0.397469,0.875 0.875,0.875 0.477532,0 0.875,-0.397468 0.875,-0.875 C 69.675781,61.330444 68.470337,60.125 67,60.125 Z"
       id="path18"
       inkscape:connector-curvature="0" /><path
       id="path20"
       d="M 70.8,62.8"
       stroke-miterlimit="10"
       inkscape:connector-curvature="0"
       style="fill:#000000;stroke:#000000;stroke-width:0.75;stroke-linecap:round;stroke-linejoin:round;stroke-miterlimit:10" /><path
       id="path22"
       d="M 67.2,62.8"
       stroke-miterlimit="10"
       inkscape:connector-curvature="0"
       style="fill:#000000;stroke:#000000;stroke-width:0.75;stroke-linecap:round;stroke-linejoin:round;stroke-miterlimit:10" /><path
       style="color:#000000;font-style:normal;font-variant:normal;font-weight:normal;font-stretch:normal;font-size:medium;line-height:normal;font-family:sans-serif;font-variant-ligatures:normal;font-variant-position:normal;font-variant-caps:normal;font-variant-numeric:normal;font-variant-alternates:normal;font-feature-settings:normal;text-indent:0;text-align:start;text-decoration:none;text-decoration-line:none;text-decoration-style:solid;text-decoration-color:#000000;letter-spacing:normal;word-spacing:normal;text-transform:none;writing-mode:lr-tb;direction:ltr;text-orientation:mixed;dominant-baseline:auto;baseline-shift:baseline;text-anchor:start;white-space:normal;shape-padding:0;clip-rule:nonzero;display:inline;overflow:visible;visibility:visible;opacity:1;isolation:auto;mix-blend-mode:normal;color-interpolation:sRGB;color-interpolation-filters:linearRGB;solid-color:#000000;solid-opacity:1;vector-effect:none;fill-opacity:1;fill-rule:nonzero;stroke:none;stroke-width:1;stroke-linecap:butt;stroke-linejoin:miter;stroke-miterlimit:4;stroke-dasharray:none;stroke-dashoffset:0;stroke-opacity:1;color-rendering:auto;image-rendering:auto;shape-rendering:auto;text-rendering:auto;enable-background:accumulate"
       d="m 67,57.125 c -0.477531,0 -0.875,0.397469 -0.875,0.875 v 3 c 0,0.477531 0.397469,0.875 0.875,0.875 0.477531,0 0.875,-0.397469 0.875,-0.875 v -3 c 0,-0.477531 -0.397469,-0.875 -0.875,-0.875 z"
       id="path24"
       inkscape:connector-curvature="0" /><path
       style="color:#000000;font-style:normal;font-variant:normal;font-weight:normal;font-stretch:normal;font-size:medium;line-height:normal;font-family:sans-serif;font-variant-ligatures:normal;font-variant-position:normal;font-variant-caps:normal;font-variant-numeric:normal;font-variant-alternates:normal;font-feature-settings:normal;text-indent:0;text-align:start;text-decoration:none;text-decoration-line:none;text-decoration-style:solid;text-decoration-color:#000000;letter-spacing:normal;word-spacing:normal;text-transform:none;writing-mode:lr-tb;direction:ltr;text-orientation:mixed;dominant-baseline:auto;baseline-shift:baseline;text-anchor:start;white-space:normal;shape-padding:0;clip-rule:nonzero;display:inline;overflow:visible;visibility:visible;opacity:1;isolation:auto;mix-blend-mode:normal;color-interpolation:sRGB;color-interpolation-filters:linearRGB;solid-color:#000000;solid-opacity:1;vector-effect:none;fill-opacity:1;fill-rule:nonzero;stroke:none;stroke-width:1;stroke-linecap:butt;stroke-linejoin:miter;stroke-miterlimit:4;stroke-dasharray:none;stroke-dashoffset:0;stroke-opacity:1;color-rendering:auto;image-rendering:auto;shape-rendering:auto;text-rendering:auto;enable-background:accumulate"
       d="m 66,58.125 c -0.477531,0 -0.875,0.397469 -0.875,0.875 0,0.477531 0.397469,0.875 0.875,0.875 h 2 c 0.477531,0 0.875,-0.397469 0.875,-0.875 0,-0.477531 -0.397469,-0.875 -0.875,-0.875 z"
       id="path26"
       inkscape:connector-curvature="0" /><path
       style="color:#000000;font-style:normal;font-variant:normal;font-weight:normal;font-stretch:normal;font-size:medium;line-height:normal;font-family:sans-serif;font-variant-ligatures:normal;font-variant-position:normal;font-variant-caps:normal;font-variant-numeric:normal;font-variant-alternates:normal;font-feature-settings:normal;text-indent:0;text-align:start;text-decoration:none;text-decoration-line:none;text-decoration-style:solid;text-decoration-color:#000000;letter-spacing:normal;word-spacing:normal;text-transform:none;writing-mode:lr-tb;direction:ltr;text-orientation:mixed;dominant-baseline:auto;baseline-shift:baseline;text-anchor:start;white-space:normal;shape-padding:0;clip-rule:nonzero;display:inline;overflow:visible;visibility:visible;opacity:1;isolation:auto;mix-blend-mode:normal;color-interpolation:sRGB;color-interpolation-filters:linearRGB;solid-color:#000000;solid-opacity:1;vector-effect:none;fill-opacity:1;fill-rule:nonzero;stroke:none;stroke-width:1;stroke-linecap:butt;stroke-linejoin:miter;stroke-miterlimit:4;stroke-dasharray:none;stroke-dashoffset:0;stroke-opacity:1;color-rendering:auto;image-rendering:auto;shape-rendering:auto;text-rendering:auto;enable-background:accumulate"
       d="m 62.980469,42.125 c -0.477532,0 -0.875,0.397469 -0.875,0.875 v 1.125 h -1.125 c -0.477532,0 -0.875,0.397469 -0.875,0.875 v 22 c 0,0.477531 0.397468,0.875 0.875,0.875 0.477531,0 0.875,-0.397469 0.875,-0.875 V 45.875 h 1.125 c 0.477531,0 0.875,-0.397469 0.875,-0.875 v -1.125 h 2.25 V 45 c 0,0.477531 0.397468,0.875 0.875,0.875 h 2.125 V 48 c 0,0.477531 0.397468,0.875 0.875,0.875 h 2.125 L 72.125,73 c 0,0.477531 0.397469,0.875 0.875,0.875 0.477531,0 0.875,-0.397469 0.875,-0.875 l -0.01953,-25 c 0,-0.477231 -0.399079,-0.875 -0.875,-0.875 h -2.125 V 45 c 0,-0.477531 -0.397469,-0.875 -0.875,-0.875 h -2.125 V 43 c 0,-0.477531 -0.397469,-0.875 -0.875,-0.875 z"
       id="path28"
       inkscape:connector-curvature="0" /><path
       style="color:#000000;font-style:normal;font-variant:normal;font-weight:normal;font-stretch:normal;font-size:medium;line-height:normal;font-family:sans-serif;font-variant-ligatures:normal;font-variant-position:normal;font-variant-caps:normal;font-variant-numeric:normal;font-variant-alternates:normal;font-feature-settings:normal;text-indent:0;text-align:start;text-decoration:none;text-decoration-line:none;text-decoration-style:solid;text-decoration-color:#000000;letter-spacing:normal;word-spacing:normal;text-transform:none;writing-mode:lr-tb;direction:ltr;text-orientation:mixed;dominant-baseline:auto;baseline-shift:baseline;text-anchor:start;white-space:normal;shape-padding:0;clip-rule:nonzero;display:inline;overflow:visible;visibility:visible;opacity:1;isolation:auto;mix-blend-mode:normal;color-interpolation:sRGB;color-interpolation-filters:linearRGB;solid-color:#000000;solid-opacity:1;vector-effect:none;fill-opacity:1;fill-rule:nonzero;stroke:none;stroke-width:1;stroke-linecap:butt;stroke-linejoin:miter;stroke-miterlimit:4;stroke-dasharray:none;stroke-dashoffset:0;stroke-opacity:1;color-rendering:auto;image-rendering:auto;shape-rendering:auto;text-rendering:auto;enable-background:accumulate"
       d="m 64.980469,38.125 c -0.477532,0 -0.875,0.397469 -0.875,0.875 v 4 c 0,0.477531 0.397468,0.875 0.875,0.875 0.477531,0 0.875,-0.397469 0.875,-0.875 v -4 c 0,-0.477531 -0.397469,-0.875 -0.875,-0.875 z"
       id="path30"
       inkscape:connector-curvature="0" /><path
       style="color:#000000;font-style:normal;font-variant:normal;font-weight:normal;font-stretch:normal;font-size:medium;line-height:normal;font-family:sans-serif;font-variant-ligatures:normal;font-variant-position:normal;font-variant-caps:normal;font-variant-numeric:normal;font-variant-alternates:normal;font-feature-settings:normal;text-indent:0;text-align:start;text-decoration:none;text-decoration-line:none;text-decoration-style:solid;text-decoration-color:#000000;letter-spacing:normal;word-spacing:normal;text-transform:none;writing-mode:lr-tb;direction:ltr;text-orientation:mixed;dominant-baseline:auto;baseline-shift:baseline;text-anchor:start;white-space:normal;shape-padding:0;clip-rule:nonzero;display:inline;overflow:visible;visibility:visible;opacity:1;isolation:auto;mix-blend-mode:normal;color-interpolation:sRGB;color-interpolation-filters:linearRGB;solid-color:#000000;solid-opacity:1;vector-effect:none;fill-opacity:1;fill-rule:nonzero;stroke:none;stroke-width:1;stroke-linecap:butt;stroke-linejoin:miter;stroke-miterlimit:4;stroke-dasharray:none;stroke-dashoffset:0;stroke-opacity:1;color-rendering:auto;image-rendering:auto;shape-rendering:auto;text-rendering:auto;enable-background:accumulate"
       d="m 38,20.125 c -0.477531,0 -0.875,0.397469 -0.875,0.875 v 5 c 0,0.477531 0.397469,0.875 0.875,0.875 0.477531,0 0.875,-0.397469 0.875,-0.875 v -5 c 0,-0.477531 -0.397469,-0.875 -0.875,-0.875 z"
       id="path32"
       inkscape:connector-curvature="0" /><path
       style="color:#000000;font-style:normal;font-variant:normal;font-weight:normal;font-stretch:normal;font-size:medium;line-height:normal;font-family:sans-serif;font-variant-ligatures:normal;font-variant-position:normal;font-variant-caps:normal;font-variant-numeric:normal;font-variant-alternates:normal;font-feature-settings:normal;text-indent:0;text-align:start;text-decoration:none;text-decoration-line:none;text-decoration-style:solid;text-decoration-color:#000000;letter-spacing:normal;word-spacing:normal;text-transform:none;writing-mode:lr-tb;direction:ltr;text-orientation:mixed;dominant-baseline:auto;baseline-shift:baseline;text-anchor:start;white-space:normal;shape-padding:0;clip-rule:nonzero;display:inline;overflow:visible;visibility:visible;opacity:1;isolation:auto;mix-blend-mode:normal;color-interpolation:sRGB;color-interpolation-filters:linearRGB;solid-color:#000000;solid-opacity:1;vector-effect:none;fill-opacity:1;fill-rule:nonzero;stroke:none;stroke-width:1;stroke-linecap:butt;stroke-linejoin:miter;stroke-miterlimit:4;stroke-dasharray:none;stroke-dashoffset:0;stroke-opacity:1;color-rendering:auto;image-rendering:auto;shape-rendering:auto;text-rendering:auto;enable-background:accumulate"
       d="m 80.998047,48.125 c -0.454504,0 -0.840585,0.358034 -0.873047,0.8125 l -0.185547,2.601562 c -0.07289,0.110801 -0.213742,0.166942 -0.230469,0.304688 v 0.002 l -0.542968,4.75 -0.78711,0.785156 v 0.002 C 78.217542,57.546482 78.125,57.77 78.125,58 v 1.294922 L 77.783203,58.609375 C 77.603212,58.247056 77.193122,58.055083 76.796875,58.150391 76.405974,58.243833 76.125,58.599046 76.125,59 v 7.125 H 76 c -0.477531,0 -0.875,0.397469 -0.875,0.875 v 7 c 0,0.477531 0.397469,0.875 0.875,0.875 0.477531,0 0.875,-0.397469 0.875,-0.875 V 67.875 H 77 c 0.477531,0 0.875,-0.397469 0.875,-0.875 v -4.294922 l 0.341797,0.685547 c 2.92e-4,5.88e-4 0.0017,-5.88e-4 0.002,0 v 0.002 c 0.179976,0.359324 0.586955,0.552054 0.984375,0.455078 C 79.593161,63.753603 79.875,63.400387 79.875,63 v -4.636719 l 0.748047,-0.746093 0.002,-0.0039 c 0.132493,-0.136984 0.220859,-0.316153 0.244141,-0.511719 L 81,55.957031 l 0.130859,1.142578 c 0.02227,0.197868 0.111707,0.378998 0.246094,0.515625 l 0.002,0.002 0.746094,0.74414 V 63 c 0,0.400954 0.280974,0.756167 0.671875,0.849609 0.395301,0.09508 0.803728,-0.09638 0.984375,-0.457031 l 0.002,-0.002 L 84.125,62.705078 V 67 c 0,0.477531 0.397469,0.875 0.875,0.875 h 0.125 V 77 c 0,0.477531 0.397469,0.875 0.875,0.875 0.477531,0 0.875,-0.397469 0.875,-0.875 V 67 c 0,-0.477531 -0.397469,-0.875 -0.875,-0.875 H 85.871094 V 59 c 0,-0.400954 -0.280975,-0.756167 -0.671875,-0.849609 -0.396247,-0.09531 -0.806338,0.09667 -0.986328,0.458984 l -0.341797,0.681641 V 58 c 0,-0.23 -0.08989,-0.453176 -0.25586,-0.619141 l -0.785156,-0.785156 -0.542969,-4.748047 c -0.01592,-0.139274 -0.157677,-0.1937 -0.230468,-0.304687 L 81.871094,48.9375 C 81.838632,48.483034 81.45255,48.125 80.998047,48.125 Z m 0,2.623047 0.06836,0.941406 L 81,51.642578 l -0.07031,0.05078 z M 77.125,59.53125 77.572266,60.423828 77.125,60.53125 Z m 7.746094,0 v 0.998047 L 84.423828,60.423828 Z M 78.875,61.46875 v 1 l -0.447266,-0.892578 z m 4.25,0.002 0.447266,0.105469 L 83.125,62.46875 Z"
       id="path34"
       inkscape:connector-curvature="0" /><path
       style="color:#000000;font-style:normal;font-variant:normal;font-weight:normal;font-stretch:normal;font-size:medium;line-height:normal;font-family:sans-serif;font-variant-ligatures:normal;font-variant-position:normal;font-variant-caps:normal;font-variant-numeric:normal;font-variant-alternates:normal;font-feature-settings:normal;text-indent:0;text-align:start;text-decoration:none;text-decoration-line:none;text-decoration-style:solid;text-decoration-color:#000000;letter-spacing:normal;word-spacing:normal;text-transform:none;writing-mode:lr-tb;direction:ltr;text-orientation:mixed;dominant-baseline:auto;baseline-shift:baseline;text-anchor:start;white-space:normal;shape-padding:0;clip-rule:nonzero;display:inline;overflow:visible;visibility:visible;opacity:1;isolation:auto;mix-blend-mode:normal;color-interpolation:sRGB;color-interpolation-filters:linearRGB;solid-color:#000000;solid-opacity:1;vector-effect:none;fill-opacity:1;fill-rule:nonzero;stroke:none;stroke-width:1;stroke-linecap:butt;stroke-linejoin:miter;stroke-miterlimit:4;stroke-dasharray:none;stroke-dashoffset:0;stroke-opacity:1;color-rendering:auto;image-rendering:auto;shape-rendering:auto;text-rendering:auto;enable-background:accumulate"
       d="m 36,25.125 c -0.477531,0 -0.875,0.397469 -0.875,0.875 v 49 c 0,0.477531 0.397469,0.875 0.875,0.875 0.477531,0 0.875,-0.397469 0.875,-0.875 V 26.875 h 2.25 V 34 c 0,0.477531 0.397469,0.875 0.875,0.875 h 1.125 V 36 c 0,0.477531 0.397469,0.875 0.875,0.875 h 1.125 V 41 c 0,0.477531 0.397469,0.875 0.875,0.875 h 2 c 0.477531,0 0.875,-0.397469 0.875,-0.875 v -2.125 h 1.25 V 48 c 0,0.477531 0.397469,0.875 0.875,0.875 h 2.125 V 54 c 0,0.477531 0.397469,0.875 0.875,0.875 h 2.125 V 57 c 0,0.477531 0.397469,0.875 0.875,0.875 h 1.125 V 68 c 0,0.477531 0.397469,0.875 0.875,0.875 0.477531,0 0.875,-0.397469 0.875,-0.875 V 57 c 0,-0.477531 -0.397469,-0.875 -0.875,-0.875 H 55.875 V 54 c 0,-0.477531 -0.397469,-0.875 -0.875,-0.875 H 52.875 V 48 c 0,-0.477531 -0.397469,-0.875 -0.875,-0.875 H 49.875 V 38 c 0,-0.477531 -0.397469,-0.875 -0.875,-0.875 h -3 c -0.477531,0 -0.875,0.397469 -0.875,0.875 v 2.125 h -0.25 V 36 c 0,-0.477531 -0.397469,-0.875 -0.875,-0.875 H 42.875 V 34 c 0,-0.477531 -0.397469,-0.875 -0.875,-0.875 H 40.875 V 26 c 0,-0.477531 -0.397469,-0.875 -0.875,-0.875 z"
       id="path36"
       inkscape:connector-curvature="0" /><path
       style="color:#000000;font-style:normal;font-variant:normal;font-weight:normal;font-stretch:normal;font-size:medium;line-height:normal;font-family:sans-serif;font-variant-ligatures:normal;font-variant-position:normal;font-variant-caps:normal;font-variant-numeric:normal;font-variant-alternates:normal;font-feature-settings:normal;text-indent:0;text-align:start;text-decoration:none;text-decoration-line:none;text-decoration-style:solid;text-decoration-color:#000000;letter-spacing:normal;word-spacing:normal;text-transform:none;writing-mode:lr-tb;direction:ltr;text-orientation:mixed;dominant-baseline:auto;baseline-shift:baseline;text-anchor:start;white-space:normal;shape-padding:0;clip-rule:nonzero;display:inline;overflow:visible;visibility:visible;opacity:1;isolation:auto;mix-blend-mode:normal;color-interpolation:sRGB;color-interpolation-filters:linearRGB;solid-color:#000000;solid-opacity:1;vector-effect:none;fill-opacity:1;fill-rule:nonzero;stroke:none;stroke-width:1;stroke-linecap:butt;stroke-linejoin:miter;stroke-miterlimit:4;stroke-dasharray:none;stroke-dashoffset:0;stroke-opacity:1;color-rendering:auto;image-rendering:auto;shape-rendering:auto;text-rendering:auto;enable-background:accumulate"
       d="m 25,54.125 c -0.477531,0 -0.875,0.397469 -0.875,0.875 v 1.125 H 23 c -0.477531,0 -0.875,0.397469 -0.875,0.875 v 21 c 0,0.477531 0.397469,0.875 0.875,0.875 0.477531,0 0.875,-0.397469 0.875,-0.875 V 57.875 H 25 c 0.477531,0 0.875,-0.397469 0.875,-0.875 v -1.125 h 4.25 V 77 c 0,0.477531 0.397469,0.875 0.875,0.875 0.477531,0 0.875,-0.397469 0.875,-0.875 V 55 c 0,-0.477531 -0.397469,-0.875 -0.875,-0.875 z"
       id="path38"
       inkscape:connector-curvature="0" /><path
       style="color:#000000;font-style:normal;font-variant:normal;font-weight:normal;font-stretch:normal;font-size:medium;line-height:normal;font-family:sans-serif;font-variant-ligatures:normal;font-variant-position:normal;font-variant-caps:normal;font-variant-numeric:normal;font-variant-alternates:normal;font-feature-settings:normal;text-indent:0;text-align:start;text-decoration:none;text-decoration-line:none;text-decoration-style:solid;text-decoration-color:#000000;letter-spacing:normal;word-spacing:normal;text-transform:none;writing-mode:lr-tb;direction:ltr;text-orientation:mixed;dominant-baseline:auto;baseline-shift:baseline;text-anchor:start;white-space:normal;shape-padding:0;clip-rule:nonzero;display:inline;overflow:visible;visibility:visible;opacity:1;isolation:auto;mix-blend-mode:normal;color-interpolation:sRGB;color-interpolation-filters:linearRGB;solid-color:#000000;solid-opacity:1;vector-effect:none;fill-opacity:1;fill-rule:nonzero;stroke:none;stroke-width:1;stroke-linecap:butt;stroke-linejoin:miter;stroke-miterlimit:4;stroke-dasharray:none;stroke-dashoffset:0;stroke-opacity:1;color-rendering:auto;image-rendering:auto;shape-rendering:auto;text-rendering:auto;enable-background:accumulate"
       d="m 5,84.125 c -0.4775314,0 -0.875,0.397469 -0.875,0.875 0,0.477531 0.3974686,0.875 0.875,0.875 h 90 c 0.477531,0 0.875,-0.397469 0.875,-0.875 0,-0.477531 -0.397469,-0.875 -0.875,-0.875 z"
       id="path40"
       inkscape:connector-curvature="0" /><path
       style="color:#000000;font-style:normal;font-variant:normal;font-weight:normal;font-stretch:normal;font-size:medium;line-height:normal;font-family:sans-serif;font-variant-ligatures:normal;font-variant-position:normal;font-variant-caps:normal;font-variant-numeric:normal;font-variant-alternates:normal;font-feature-settings:normal;text-indent:0;text-align:start;text-decoration:none;text-decoration-line:none;text-decoration-style:solid;text-decoration-color:#000000;letter-spacing:normal;word-spacing:normal;text-transform:none;writing-mode:lr-tb;direction:ltr;text-orientation:mixed;dominant-baseline:auto;baseline-shift:baseline;text-anchor:start;white-space:normal;shape-padding:0;clip-rule:nonzero;display:inline;overflow:visible;visibility:visible;opacity:1;isolation:auto;mix-blend-mode:normal;color-interpolation:sRGB;color-interpolation-filters:linearRGB;solid-color:#000000;solid-opacity:1;vector-effect:none;fill-opacity:1;fill-rule:nonzero;stroke:none;stroke-width:1;stroke-linecap:butt;stroke-linejoin:miter;stroke-miterlimit:4;stroke-dasharray:none;stroke-dashoffset:0;stroke-opacity:1;color-rendering:auto;image-rendering:auto;shape-rendering:auto;text-rendering:auto;enable-background:accumulate"
       d="m 5,81.125 c -0.4775314,0 -0.875,0.397469 -0.875,0.875 0,0.477531 0.3974686,0.875 0.875,0.875 h 90 c 0.477531,0 0.875,-0.397469 0.875,-0.875 0,-0.477531 -0.397469,-0.875 -0.875,-0.875 z"
       id="path42"
       inkscape:connector-curvature="0" /><path
       style="color:#000000;font-style:normal;font-variant:normal;font-weight:normal;font-stretch:normal;font-size:medium;line-height:normal;font-family:sans-serif;font-variant-ligatures:normal;font-variant-position:normal;font-variant-caps:normal;font-variant-numeric:normal;font-variant-alternates:normal;font-feature-settings:normal;text-indent:0;text-align:start;text-decoration:none;text-decoration-line:none;text-decoration-style:solid;text-decoration-color:#000000;letter-spacing:normal;word-spacing:normal;text-transform:none;writing-mode:lr-tb;direction:ltr;text-orientation:mixed;dominant-baseline:auto;baseline-shift:baseline;text-anchor:start;white-space:normal;shape-padding:0;clip-rule:nonzero;display:inline;overflow:visible;visibility:visible;opacity:1;isolation:auto;mix-blend-mode:normal;color-interpolation:sRGB;color-interpolation-filters:linearRGB;solid-color:#000000;solid-opacity:1;vector-effect:none;fill-opacity:1;fill-rule:nonzero;stroke:none;stroke-width:1;stroke-linecap:butt;stroke-linejoin:miter;stroke-miterlimit:4;stroke-dasharray:none;stroke-dashoffset:0;stroke-opacity:1;color-rendering:auto;image-rendering:auto;shape-rendering:auto;text-rendering:auto;enable-background:accumulate"
       d="m 56.625,70.126953 c -5.178894,0 -9.893495,2.037409 -14.814453,4.150391 C 36.77854,76.438347 31.642929,78.632812 26,78.632812 c -0.477531,0 -0.875,0.397469 -0.875,0.875 0,0.477532 0.397469,0.875 0.875,0.875 6.054439,0 11.400041,-2.308084 16.501953,-4.498046 4.848999,-2.083 9.364048,-4.007813 14.123047,-4.007813 4.829459,0 9.339593,1.930531 14.183594,4.019531 5.066905,2.183959 10.376539,4.486328 16.441406,4.486328 0.475921,0 0.875,-0.397468 0.875,-0.875 0,-0.477531 -0.397469,-0.875 -0.875,-0.875 -5.65452,0 -10.751981,-2.187768 -15.748047,-4.341796 C 66.583962,72.170019 61.87248,70.126953 56.625,70.126953 Z"
       id="path44"
       inkscape:connector-curvature="0" /></g></svg>