<?xml version="1.0" encoding="UTF-8" standalone="no"?>
<!-- Created with Inkscape (http://www.inkscape.org/) -->

<svg
   xmlns:dc="http://purl.org/dc/elements/1.1/"
   xmlns:cc="http://creativecommons.org/ns#"
   xmlns:rdf="http://www.w3.org/1999/02/22-rdf-syntax-ns#"
   xmlns:svg="http://www.w3.org/2000/svg"
   xmlns="http://www.w3.org/2000/svg"
   xmlns:sodipodi="http://sodipodi.sourceforge.net/DTD/sodipodi-0.dtd"
   xmlns:inkscape="http://www.inkscape.org/namespaces/inkscape"
   version="1.1"
   id="svg2"
   xml:space="preserve"
   width="314.45334"
   height="314.45334"
   viewBox="0 0 314.45334 314.45334"
   sodipodi:docname="am910.svg"
   inkscape:version="0.92.5 (2060ec1f9f, 2020-04-08)"><metadata
     id="metadata8"><rdf:RDF><cc:Work
         rdf:about=""><dc:format>image/svg+xml</dc:format><dc:type
           rdf:resource="http://purl.org/dc/dcmitype/StillImage" /><dc:title></dc:title></cc:Work></rdf:RDF></metadata><defs
     id="defs6" /><sodipodi:namedview
     pagecolor="#ffffff"
     bordercolor="#666666"
     borderopacity="1"
     objecttolerance="10"
     gridtolerance="10"
     guidetolerance="10"
     inkscape:pageopacity="0"
     inkscape:pageshadow="2"
     inkscape:window-width="1848"
     inkscape:window-height="1016"
     id="namedview4"
     showgrid="false"
     inkscape:zoom="0.75050881"
     inkscape:cx="157.22667"
     inkscape:cy="157.22667"
     inkscape:window-x="1752"
     inkscape:window-y="27"
     inkscape:window-maximized="1"
     inkscape:current-layer="g12" /><g
     id="g10"
     inkscape:groupmode="layer"
     inkscape:label="ink_ext_XXXXXX"
     transform="matrix(1.3333333,0,0,-1.3333333,0,314.45333)"><g
       id="g12"
       transform="scale(0.1)"><path
         d="m 1179.2,0 c 651.2,0 1179.2,528 1179.2,1179.2 0,651.2 -528,1179.2 -1179.2,1179.2 C 528,2358.4 0,1830.4 0,1179.2 0,528 528,0 1179.2,0"
         style="fill:#f1841d;fill-opacity:1;fill-rule:nonzero;stroke:none"
         id="path14"
         inkscape:connector-curvature="0" /><g
         id="g16"
         transform="scale(10)"><g
           aria-label="Am
9.
10.
Grün
wählen!"
           transform="matrix(0.992546,0.121869,0.121869,-0.992546,34.4895,139.001)"
           style="font-style:oblique;font-variant:normal;font-size:55.09999084px;font-family:BereitBold;-inkscape-font-specification:BereitBold-Oblique;writing-mode:lr-tb;fill:#1d3e3e;fill-opacity:1;fill-rule:nonzero;stroke:none"
           id="text30"><path
             d="M 23.086896,-44.079993 H 12.342398 L -1.7631997,0 H 7.4384988 L 9.1465985,-6.6670989 H 14.381098 L 13.940298,0 h 9.422098 z m -6.832399,9.862899 -1.377499,20.497196 h -3.9121 z"
             style=""
             id="path840" /><path
             d="m 55.70609,-33.335494 c -3.195799,0 -5.344699,1.928499 -6.391599,3.636599 -0.4408,-2.4795 -2.148899,-3.636599 -4.848799,-3.636599 -2.6999,0 -4.628399,1.377499 -5.840599,2.810099 l 0.3857,-2.2591 H 31.021294 L 25.841895,0 h 7.989499 l 4.132499,-26.007196 c 0.4959,-0.6612 1.102,-0.9918 1.8183,-0.9918 1.0469,0 1.4877,0.6612 1.2673,2.0387 L 37.137393,0 h 7.989499 l 4.132499,-26.117396 c 0.4959,-0.551 1.0469,-0.8816 1.7632,-0.8816 1.0469,0 1.4877,0.6612 1.2673,2.0387 L 48.377791,0 h 7.989499 l 4.132499,-26.172496 c 0.7714,-4.903899 -1.046899,-7.162998 -4.793699,-7.162998 z"
             style=""
             id="path842" /><path
             d="m 86.452487,-44.628658 c -6.391599,0 -10.579198,2.920299 -11.626098,9.587398 l -1.653,10.303698 c -0.991799,6.336499 1.653,9.366999 6.171199,9.366999 2.204,0 4.0223,-0.6612 5.3447,-1.8734 l -1.3224,8.2098987 c -0.2755,1.8182997 -1.102,2.5345996 -2.3142,2.5345996 -1.3224,0 -1.7632,-0.8815998 -1.4877,-2.5345996 l 0.6612,-4.2977997 H 71.35509 l -0.6061,3.6365998 c -1.102,6.7772989 3.085599,10.24859834 9.807798,10.24859834 6.777299,0 10.744498,-3.36109944 11.736298,-9.75269834 l 4.0774,-25.6214958 c 1.046899,-6.446699 -2.6999,-9.807798 -9.917999,-9.807798 z m -0.551,19.835996 c -0.2755,1.8183 -1.0469,2.5346 -2.314199,2.5346 -1.2673,0 -1.8183,-0.7714 -1.5428,-2.4795 l 1.653,-10.303698 c 0.2755,-1.8183 1.101999,-2.5346 2.314199,-2.5346 1.3224,0 1.7632,0.9367 1.4877,2.5346 z"
             style=""
             id="path844" /><path
             d="m 99.952275,0.00233423 1.267295,-8.09969863 h -8.099694 l -1.2673,8.09969863 z"
             style=""
             id="path846" /><path
             d="m 117.25768,-44.080171 c -1.2122,3.8019 -3.1958,5.289599 -7.714,5.509999 l -1.0469,6.556899 h 4.5733 l -5.0692,32.01309500003 h 8.8711 L 123.81458,-44.080171 Z"
             style=""
             id="path848" /><path
             d="m 131.30817,0.55082191 c 6.99769,0 10.96489,-3.36109941 12.01179,-9.69759841 l 4.0774,-25.1806955 c 1.102,-6.942599 -2.8652,-10.303699 -9.5874,-10.303699 -6.94259,0 -10.96489,3.3611 -11.95669,9.697599 l -3.9672,25.2357956 c -1.102,6.8874989 2.8101,10.24859831 9.4221,10.24859831 z m 0.8816,-7.05279881 c -1.3224,0 -1.7632,-0.9917999 -1.4877,-2.5896996 l 4.0774,-25.8969955 c 0.27549,-1.8183 1.04689,-2.5897 2.25909,-2.5897 1.3224,0 1.7632,0.9918 1.4877,2.5897 l -4.07739,25.8969955 c -0.2755,1.8182997 -1.0469,2.5896996 -2.2591,2.5896996 z"
             style=""
             id="path850" /><path
             d="m 152.19307,0.0048267 1.2673,-8.0996987 h -8.09969 l -1.2673,8.0996987 z"
             style=""
             id="path852" /><path
             d="m 51.364892,8.171326 c -6.942599,0 -10.964898,3.361099 -11.956698,9.697598 L 35.440995,43.10472 c -1.102,6.887499 2.8101,10.248598 9.532298,10.248598 6.887499,0 10.909799,-3.361099 11.901598,-9.697598 l 2.5346,-15.978997 H 48.664993 l -1.102,7.052799 h 1.8734 l -1.4326,9.036398 c -0.2755,1.8183 -1.0469,2.5346 -2.2591,2.5346 -1.3224,0 -1.763199,-0.9367 -1.487699,-2.5346 l 4.077399,-26.007196 c 0.2755,-1.818299 1.0469,-2.534599 2.259099,-2.534599 1.3224,0 1.7632,0.8816 1.4877,2.534599 l -0.8265,5.399799 h 8.871099 l 0.8265,-4.683499 c 1.2122,-6.942599 -2.8652,-10.303698 -9.587399,-10.303698 z"
             style=""
             id="path854" /><path
             d="m 71.862085,20.017824 h -7.989499 l -5.179399,32.784495 h 7.989498 l 3.1407,-20.056397 c 0.7163,-4.407999 2.865199,-6.005899 7.273199,-5.454899 l 1.2673,-7.548699 c -3.1407,-0.3857 -5.6202,1.3224 -7.218099,4.683499 z"
             style=""
             id="path856" /><path
             d="m 84.70038,10.761026 -1.102,6.887498 h 5.895699 l 1.102,-6.887498 z m 7.713999,0 -1.102,6.887498 h 5.895699 l 1.102,-6.887498 z M 87.56558,46.02502 c -0.4959,0.6612 -1.102,0.9918 -1.8183,0.9918 -1.0469,0 -1.4877,-0.6612 -1.2673,-2.0387 l 3.9121,-24.960296 H 80.402581 L 76.270082,46.19032 c -0.7714,4.903899 1.046899,7.162998 4.793699,7.162998 2.699899,0 4.628399,-1.377499 5.840599,-2.810099 l -0.3857,2.2591 h 7.989499 l 5.179399,-32.784495 h -7.989499 z"
             style=""
             id="path858" /><path
             d="m 116.43725,19.466824 c -2.6999,0 -4.6284,1.3775 -5.8406,2.8101 l 0.3857,-2.2591 h -7.9895 l -5.179397,32.784495 h 7.989497 l 4.1325,-26.007196 c 0.4959,-0.6612 1.102,-0.9918 1.8183,-0.9918 1.0469,0 1.4877,0.6612 1.2673,2.0387 l -3.9121,24.960296 h 7.9895 l 4.1325,-26.172496 c 0.7714,-4.903899 -1.0469,-7.162999 -4.7937,-7.162999 z"
             style=""
             id="path860" /><path
             d="m 25.907496,92.014715 0.6612,-19.229897 h -5.51 l -5.399799,19.229897 0.6061,-19.229897 H 8.2754986 l 0.3306,32.784492 h 7.9894984 l 4.1325,-13.223995 -0.0551,13.223995 h 7.989498 L 39.351893,72.784818 h -7.989498 z"
             style=""
             id="path862" /><path
             d="m 45.85369,63.52802 -1.101999,6.887499 h 5.895699 l 1.101999,-6.887499 z m 7.713999,0 -1.102,6.887499 h 5.895699 l 1.102,-6.887499 z m -2.4795,8.705799 c -5.675299,0 -9.752698,2.424399 -10.854698,8.981298 l -0.2755,1.653 h 7.934399 l 0.3857,-2.6448 c 0.2204,-1.652999 0.9918,-2.203999 2.0387,-2.203999 1.101999,0 1.652999,0.6612 1.377499,2.314199 l -0.7163,4.628399 H 48.93929 c -6.777299,0 -9.587399,2.0387 -10.579198,8.099699 l -0.9918,6.060999 c -0.7714,4.793696 1.597899,6.997696 5.124299,6.997696 2.1489,0 4.297799,-0.7714 6.116099,-2.8101 l -0.3857,2.2591 h 7.438499 c 0.4959,-2.9203 3.471299,-21.984893 3.691699,-23.307293 1.0469,-7.218099 -2.644799,-10.028198 -8.264999,-10.028198 z M 46.95569,100.38991 c -1.1571,0 -1.653,-0.716296 -1.4326,-2.259096 l 0.9918,-6.336499 c 0.1653,-1.157099 0.9918,-1.652999 2.0387,-1.652999 h 1.5979 l -1.3775,8.760898 c -0.3857,1.0469 -0.9918,1.487696 -1.8183,1.487696 z"
             style=""
             id="path864" /><path
             d="m 77.591287,72.233819 c -2.644799,0 -4.628399,1.322399 -5.785499,2.810099 l 2.1489,-13.554598 h -7.989499 l -6.997699,44.07999 h 7.989499 l 4.132499,-26.062293 c 0.4959,-0.6061 1.102,-0.936699 1.8183,-0.936699 1.0469,0 1.4877,0.661199 1.2673,2.038699 l -3.9121,24.960293 h 7.989499 l 4.132499,-26.172493 c 0.7714,-4.903899 -1.046899,-7.162998 -4.793699,-7.162998 z"
             style=""
             id="path866" /><path
             d="m 81.723115,105.56931 h 7.989498 l 6.997699,-44.07999 h -7.989499 z"
             style=""
             id="path868" /><path
             d="m 107.50991,72.233819 c -5.6202,0 -9.642498,2.424399 -10.689397,8.760898 l -2.4795,15.317798 c -1.1571,7.162995 2.6448,9.807795 8.264997,9.807795 5.6202,0 9.8629,-2.4244 10.7996,-8.705796 l 0.4408,-2.920299 h -7.9344 l -0.6612,3.967199 c -0.2204,1.3224 -0.7714,1.928496 -1.8183,1.928496 -1.1571,0 -1.653,-0.716296 -1.4326,-2.259096 l 1.0469,-6.556899 h 11.2955 l 1.4326,-9.532298 c 1.102,-7.162999 -2.6448,-9.807798 -8.265,-9.807798 z m -2.6448,7.658898 c 0.2204,-1.322399 0.8816,-1.928499 1.8183,-1.928499 1.1571,0 1.653,0.7163 1.4326,2.259099 l -1.2122,7.989499 h -3.3611 z"
             style=""
             id="path870" /><path
             d="m 133.79192,72.233819 c -2.69989,0 -4.62839,1.377499 -5.84059,2.810099 l 0.3857,-2.2591 h -7.9895 l -5.1794,32.784492 h 7.9895 l 4.1325,-26.007193 c 0.4959,-0.6612 1.102,-0.991799 1.8183,-0.991799 1.0469,0 1.4877,0.661199 1.2673,2.038699 l -3.9121,24.960293 h 7.98949 l 4.1325,-26.172493 c 0.7714,-4.903899 -1.0469,-7.162998 -4.7937,-7.162998 z"
             style=""
             id="path872" /><path
             d="m 142.0562,80.609017 -1.653,13.444398 h 7.7691 l 2.5897,-13.444398 3.1958,-19.119697 h -8.9262 z m 4.5733,24.960293 1.2673,-8.099696 h -8.0997 l -1.2673,8.099696 z"
             style=""
             id="path874" /></g></g></g></g></svg>