<?xml version="1.0" encoding="UTF-8" standalone="no"?>
<!-- Created with Inkscape (http://www.inkscape.org/) -->

<svg
   xmlns:dc="http://purl.org/dc/elements/1.1/"
   xmlns:cc="http://creativecommons.org/ns#"
   xmlns:rdf="http://www.w3.org/1999/02/22-rdf-syntax-ns#"
   xmlns:svg="http://www.w3.org/2000/svg"
   xmlns="http://www.w3.org/2000/svg"
   xmlns:sodipodi="http://sodipodi.sourceforge.net/DTD/sodipodi-0.dtd"
   xmlns:inkscape="http://www.inkscape.org/namespaces/inkscape"
   version="1.1"
   id="svg2"
   xml:space="preserve"
   width="317.29333"
   height="317.29333"
   viewBox="0 0 317.29333 317.29333"
   sodipodi:docname="beide-stimmen.svg"
   inkscape:version="0.92.5 (2060ec1f9f, 2020-04-08)"><metadata
     id="metadata8"><rdf:RDF><cc:Work
         rdf:about=""><dc:format>image/svg+xml</dc:format><dc:type
           rdf:resource="http://purl.org/dc/dcmitype/StillImage" /><dc:title></dc:title></cc:Work></rdf:RDF></metadata><defs
     id="defs6" /><sodipodi:namedview
     pagecolor="#ffffff"
     bordercolor="#666666"
     borderopacity="1"
     objecttolerance="10"
     gridtolerance="10"
     guidetolerance="10"
     inkscape:pageopacity="0"
     inkscape:pageshadow="2"
     inkscape:window-width="1848"
     inkscape:window-height="1016"
     id="namedview4"
     showgrid="false"
     inkscape:zoom="0.74379123"
     inkscape:cx="158.64667"
     inkscape:cy="158.64667"
     inkscape:window-x="1752"
     inkscape:window-y="27"
     inkscape:window-maximized="1"
     inkscape:current-layer="g16" /><g
     id="g10"
     inkscape:groupmode="layer"
     inkscape:label="ink_ext_XXXXXX"
     transform="matrix(1.3333333,0,0,-1.3333333,0,317.29333)"><g
       id="g12"
       transform="scale(0.1)"><path
         d="m 1189.87,0 c 657.14,0 1189.86,532.719 1189.86,1189.86 0,657.15 -532.72,1189.87 -1189.86,1189.87 C 532.719,2379.73 0,1847.01 0,1189.86 0,532.719 532.719,0 1189.87,0 v 0"
         style="fill:#f1841d;fill-opacity:1;fill-rule:nonzero;stroke:none"
         id="path14"
         inkscape:connector-curvature="0" /><g
         id="g16"
         transform="scale(10)"><g
           aria-label="Beide 
Stimmen Grün!"
           transform="matrix(0.992546,0.121869,0.121869,-0.992546,73.6938,150.162)"
           style="font-style:oblique;font-variant:normal;font-size:42.48809052px;font-family:BereitBold;-inkscape-font-specification:BereitBold-Oblique;writing-mode:lr-tb;fill:#1d3e3e;fill-opacity:1;fill-rule:nonzero;stroke:none"
           id="text22"><path
             d="M 4.9286185,-33.990472 -0.50985709,0 H 8.45513 c 5.183547,0 8.370154,-2.5917735 9.134939,-7.4779039 l 0.807274,-5.1410591 c 0.382393,-2.506797 -0.297416,-4.248809 -2.464309,-5.268523 2.379333,-0.934738 3.314071,-2.506797 3.653976,-4.843642 l 0.552345,-3.78144 c 0.722297,-4.886131 -1.954452,-7.477904 -7.520392,-7.477904 z m 4.5887138,14.360974 1.4021067,-8.752546 h 1.359619 c 1.019714,0 1.359619,0.637321 1.147179,1.911964 l -0.807274,5.09857 c -0.212441,1.402107 -0.67981,1.742012 -1.699524,1.742012 z M 10.664511,-7.3079516 C 10.45207,-5.9483327 9.857237,-5.3959875 8.922499,-5.3959875 H 7.2654635 l 1.5720593,-9.8572365 h 1.5720592 c 0.934738,0 1.444595,0.552345 1.232155,1.784499 z"
             style=""
             id="path873" /><path
             d="m 29.783604,-25.705295 c -4.333786,0 -7.435416,1.869476 -8.24269,6.755607 L 19.62895,-7.1379992 c -0.89225,5.5234518 2.039428,7.56288011 6.373214,7.56288011 4.333785,0 7.605368,-1.86947601 8.327665,-6.71311831 l 0.339905,-2.2518688 h -6.118285 l -0.509857,3.0591425 c -0.169952,1.0197142 -0.594833,1.4870832 -1.402107,1.4870832 -0.89225,0 -1.274643,-0.5523452 -1.10469,-1.7420117 l 0.807273,-5.0560828 h 8.710059 l 1.10469,-7.35044 c 0.849762,-5.523451 -2.039428,-7.56288 -6.373213,-7.56288 z m -2.039429,5.905845 c 0.169953,-1.019714 0.67981,-1.487083 1.402107,-1.487083 0.89225,0 1.274643,0.552345 1.104691,1.742011 l -0.934738,6.160773 h -2.591774 z"
             style=""
             id="path875" /><path
             d="m 45.929079,-27.107402 0.849762,-5.311011 h -5.395987 l -0.849762,5.311011 z M 41.977687,0 45.971567,-25.280414 H 39.810794 L 35.816914,0 Z"
             style=""
             id="path877" /><path
             d="m 57.103445,-24.728069 c -0.934738,-0.637321 -1.99694,-0.977226 -3.271583,-0.977226 -3.356559,0 -5.56594,1.99694 -6.245749,6.118285 L 45.20678,-4.9286185 c -0.594834,3.7814401 1.232154,5.35349941 3.951392,5.35349941 1.911964,0 3.611488,-1.06220227 4.843642,-2.88919011 L 53.576933,0 h 5.735893 l 5.395987,-33.990472 H 58.54804 Z m -4.588714,20.4367719 c -0.807274,0 -1.147178,-0.467369 -0.977226,-1.5720594 l 2.209381,-13.8936055 c 0.21244,-1.274643 0.722297,-1.699524 1.572059,-1.699524 0.509857,0 0.89225,0.212441 1.147178,0.594834 l -2.464309,15.7630811 c -0.424881,0.5098571 -0.89225,0.8072738 -1.487083,0.8072738 z"
             style=""
             id="path879" /><path
             d="m 72.908217,-25.705295 c -4.333786,0 -7.435416,1.869476 -8.24269,6.755607 l -1.911964,11.8116888 c -0.89225,5.5234518 2.039428,7.56288011 6.373213,7.56288011 4.333786,0 7.605369,-1.86947601 8.327666,-6.71311831 l 0.339905,-2.2518688 h -6.118285 l -0.509857,3.0591425 c -0.169953,1.0197142 -0.594833,1.4870832 -1.402107,1.4870832 -0.89225,0 -1.274643,-0.5523452 -1.104691,-1.7420117 l 0.807274,-5.0560828 h 8.710059 l 1.10469,-7.35044 c 0.849762,-5.523451 -2.039428,-7.56288 -6.373213,-7.56288 z m -2.039429,5.905845 c 0.169953,-1.019714 0.67981,-1.487083 1.402107,-1.487083 0.89225,0 1.274643,0.552345 1.104691,1.742011 l -0.934738,6.160773 h -2.591774 z"
             style=""
             id="path881" /><path
             d="m -65.370682,33.752794 c -0.849762,4.971106 2.081917,7.56288 7.647856,7.56288 4.928619,0 8.200202,-2.251869 9.049964,-7.137999 l 0.807273,-4.67369 c 0.67981,-4.036369 -1.10469,-6.628143 -4.588713,-7.945273 -3.314071,-1.232155 -3.738952,-1.699524 -3.399048,-3.696464 l 0.594834,-3.611488 c 0.21244,-1.402107 0.849762,-1.954452 1.7845,-1.954452 1.019714,0 1.402107,0.722297 1.189666,1.954452 l -0.637321,3.823928 h 6.840582 l 0.67981,-4.036368 c 0.807273,-4.8861308 -2.336845,-7.5628805 -7.520392,-7.5628805 -4.716178,0 -8.370154,2.1668926 -9.219916,7.1379995 l -0.807274,4.758666 c -0.679809,3.951392 0.722298,5.990821 4.631202,7.520392 3.399047,1.274643 3.78144,1.572059 3.356559,4.121345 l -0.594833,3.526511 c -0.254928,1.402107 -0.849762,1.954452 -1.7845,1.954452 -1.019714,0 -1.359619,-0.722297 -1.147178,-1.954452 l 0.637321,-3.823928 h -6.840582 z"
             style=""
             id="path883" /><path
             d="m -33.845148,19.986652 0.722297,-4.376273 h -3.016654 l 0.977226,-6.1607731 h -6.118285 l -0.977226,6.1607731 h -1.7845 l -0.67981,4.376273 h 1.7845 l -2.336845,14.658392 c -0.722297,4.631201 1.529571,6.67063 5.735892,6.67063 1.062203,0 2.166893,-0.212441 2.931679,-0.509857 l 0.679809,-4.376274 c -0.382393,0.08498 -0.722297,0.127465 -1.062202,0.127465 -2.251869,0 -2.209381,-1.57206 -1.699524,-4.801155 l 1.869476,-11.769201 z"
             style=""
             id="path885" /><path
             d="m -24.668291,13.783391 0.849762,-5.3110112 h -5.395988 l -0.849761,5.3110112 z m -3.951392,27.107402 3.99388,-25.280414 h -6.160773 l -3.99388,25.280414 z"
             style=""
             id="path887" /><path
             d="m -2.9143888,15.185498 c -2.4643093,0 -4.1213448,1.487083 -4.9286185,2.804214 -0.3399048,-1.911964 -1.6570356,-2.804214 -3.7389517,-2.804214 -2.081917,0 -3.569,1.062202 -4.503738,2.166893 l 0.297417,-1.742012 h -6.160773 l -3.993881,25.280414 h 6.160773 l 3.186607,-20.054379 c 0.382393,-0.509857 0.849762,-0.764786 1.402107,-0.764786 0.807274,0 1.147178,0.509858 0.977226,1.57206 l -3.016654,19.247105 h 6.160773 l 3.1866066,-20.139355 c 0.3823928,-0.424881 0.8072737,-0.67981 1.3596189,-0.67981 0.8072737,0 1.1471784,0.509858 0.977226,1.57206 l -3.0166544,19.247105 h 6.1607731 L 0.78207503,20.70895 C 1.3769083,16.92751 -0.02519869,15.185498 -2.9143888,15.185498 Z"
             style=""
             id="path889" /><path
             d="m 23.1733,15.185498 c -2.46431,0 -4.121345,1.487083 -4.928619,2.804214 -0.339905,-1.911964 -1.657035,-2.804214 -3.738952,-2.804214 -2.081916,0 -3.568999,1.062202 -4.503737,2.166893 l 0.297416,-1.742012 H 4.1386351 L 0.1447546,40.890793 H 6.3055277 L 9.4921345,20.836414 c 0.3823928,-0.509857 0.8497615,-0.764786 1.4021065,-0.764786 0.807274,0 1.147179,0.509858 0.977227,1.57206 L 8.8548132,40.890793 h 6.1607728 l 3.186607,-20.139355 c 0.382393,-0.424881 0.807274,-0.67981 1.359619,-0.67981 0.807274,0 1.147178,0.509858 0.977226,1.57206 l -3.016654,19.247105 h 6.160773 L 26.869764,20.70895 C 27.464597,16.92751 26.06249,15.185498 23.1733,15.185498 Z"
             style=""
             id="path891" /><path
             d="m 37.278635,15.185498 c -4.333785,0 -7.435416,1.869476 -8.242689,6.755606 l -1.911965,11.81169 c -0.892249,5.523451 2.039429,7.56288 6.373214,7.56288 4.333785,0 7.605368,-1.869476 8.327666,-6.713119 l 0.339904,-2.251868 H 36.04648 l -0.509857,3.059142 c -0.169952,1.019714 -0.594833,1.487083 -1.402107,1.487083 -0.89225,0 -1.274642,-0.552345 -1.10469,-1.742011 L 33.8371,30.098818 h 8.710058 l 1.104691,-7.35044 c 0.849761,-5.523452 -2.039429,-7.56288 -6.373214,-7.56288 z m -2.039428,5.905845 c 0.169952,-1.019715 0.679809,-1.487084 1.402107,-1.487084 0.89225,0 1.274642,0.552346 1.10469,1.742012 l -0.934738,6.160773 h -2.591773 z"
             style=""
             id="path893" /><path
             d="m 57.544824,15.185498 c -2.081916,0 -3.569,1.062202 -4.503738,2.166893 l 0.297417,-1.742012 H 47.17773 l -3.993881,25.280414 h 6.160774 l 3.186606,-20.054379 c 0.382393,-0.509857 0.849762,-0.764786 1.402107,-0.764786 0.807274,0 1.147179,0.509858 0.977226,1.57206 l -3.016654,19.247105 h 6.160773 L 61.241288,20.70895 c 0.594833,-3.78144 -0.807274,-5.523452 -3.696464,-5.523452 z"
             style=""
             id="path895" /><path
             d="m 81.422063,6.4754395 c -5.353499,0 -8.45513,2.5917736 -9.219915,7.4779035 l -3.059143,19.459546 c -0.849762,5.311011 2.166893,7.902785 7.35044,7.902785 5.311011,0 8.412642,-2.591774 9.177428,-7.477904 l 1.954452,-12.321546 h -8.285178 l -0.849762,5.438475 h 1.444595 l -1.10469,6.968047 c -0.212441,1.402107 -0.807274,1.954452 -1.742012,1.954452 -1.019714,0 -1.359619,-0.722297 -1.147178,-1.954452 l 3.144118,-20.054379 c 0.212441,-1.402107 0.807274,-1.954452 1.742012,-1.954452 1.019714,0 1.359619,0.67981 1.147179,1.954452 L 81.337087,18.0322 h 6.840583 l 0.637321,-3.611488 C 89.749729,9.0672131 86.605611,6.4754395 81.422063,6.4754395 Z"
             style=""
             id="path897" /><path
             d="M 97.228743,15.610379 H 91.06797 l -3.993881,25.280414 h 6.160773 l 2.421821,-15.465665 c 0.552346,-3.399047 2.209381,-4.631202 5.608427,-4.206321 l 0.97723,-5.820868 c -2.421824,-0.297417 -4.333788,1.019714 -5.565942,3.611487 z"
             style=""
             id="path899" /><path
             d="m 107.1275,8.4723798 -0.84976,5.3110112 h 4.54623 l 0.84976,-5.3110112 z m 5.94833,0 -0.84976,5.3110112 h 4.54623 l 0.84976,-5.3110112 z m -3.73895,27.1923782 c -0.38239,0.509857 -0.84976,0.764785 -1.40211,0.764785 -0.80727,0 -1.14717,-0.509857 -0.97722,-1.572059 l 3.01665,-19.247105 h -6.16077 l -3.18661,20.181843 c -0.59483,3.78144 0.80728,5.523452 3.69647,5.523452 2.08191,0 3.569,-1.062203 4.50373,-2.166893 l -0.29741,1.742012 h 6.16077 l 3.99388,-25.280414 h -6.16077 z"
             style=""
             id="path901" /><path
             d="m 131.60064,15.185498 c -2.08192,0 -3.569,1.062202 -4.50374,2.166893 l 0.29742,-1.742012 h -6.16078 l -3.99388,25.280414 h 6.16078 l 3.1866,-20.054379 c 0.3824,-0.509857 0.84976,-0.764786 1.40211,-0.764786 0.80727,0 1.14718,0.509858 0.97723,1.57206 l -3.01666,19.247105 h 6.16077 L 135.2971,20.70895 c 0.59483,-3.78144 -0.80727,-5.523452 -3.69646,-5.523452 z"
             style=""
             id="path903" /><path
             d="m 137.97385,21.643688 -1.27464,10.367094 h 5.99082 l 1.99694,-10.367094 2.46431,-14.7433676 h -6.88307 z m 3.52652,19.247105 0.97722,-6.245749 h -6.24575 l -0.97722,6.245749 z"
             style=""
             id="path905" /></g></g><path
         d="m 1589.47,575.672 c 119.81,14.719 205.02,123.769 190.31,243.59 -14.72,119.816 -123.77,205.018 -243.59,190.308 -119.82,-14.711 -205.02,-123.769 -190.31,-243.582 14.71,-119.816 123.77,-205.027 243.59,-190.316 z M 891.602,489.988 C 1011.42,504.699 1096.63,613.762 1081.91,733.57 1067.2,853.391 958.141,938.602 838.328,923.891 718.512,909.172 633.301,800.121 648.02,680.301 662.73,560.48 771.781,475.281 891.602,489.988 Z"
         style="fill:none;stroke:#1d3e3e;stroke-width:48.35900116;stroke-linecap:butt;stroke-linejoin:miter;stroke-miterlimit:4;stroke-dasharray:none;stroke-opacity:1"
         id="path24"
         inkscape:connector-curvature="0" /><path
         d="M 1210.92,1058.86 C 1110.14,945.262 1015.52,837 927.309,713.781 1042.71,615.57 1160.71,533.422 1285.71,449.781 1244.4,419.93 1043.98,532.48 879.512,644.969 826.48,564.25 774.262,476.93 725.871,376.57 643.48,424.93 655.609,491.602 685.031,544.648 701.66,573.699 746.16,633.059 803.289,698.559 731.738,750.48 674.48,795.121 651.309,819.281 609.66,865.84 582.039,925.391 650.27,992.25 721.5,906.578 793.301,834.488 864.281,768.988 996.648,917.93 1163.9,1075.51 1210.92,1058.86 v 0"
         style="fill:#1d3e3e;fill-opacity:1;fill-rule:nonzero;stroke:none"
         id="path26"
         inkscape:connector-curvature="0" /><path
         d="m 1908.78,1144.54 c -100.77,-113.59 -195.4,-221.86 -283.61,-345.071 115.4,-98.207 233.4,-180.367 358.4,-264.008 -41.31,-29.852 -241.73,82.699 -406.2,195.199 -53.03,-80.719 -105.25,-168.051 -153.64,-268.398 -82.38,48.359 -70.26,115.019 -40.83,168.078 16.63,29.051 61.12,88.41 118.25,153.898 -71.55,51.934 -128.81,96.571 -151.98,120.731 -41.65,46.562 -69.27,106.111 -1.03,172.971 71.23,-85.67 143.02,-157.768 214,-223.26 132.38,148.94 299.62,306.52 346.64,289.86 v 0"
         style="fill:#1d3e3e;fill-opacity:1;fill-rule:nonzero;stroke:none"
         id="path28"
         inkscape:connector-curvature="0" /></g></g></svg>