<?xml version="1.0" encoding="UTF-8" standalone="no"?>
<svg
   xmlns:dc="http://purl.org/dc/elements/1.1/"
   xmlns:cc="http://creativecommons.org/ns#"
   xmlns:rdf="http://www.w3.org/1999/02/22-rdf-syntax-ns#"
   xmlns:svg="http://www.w3.org/2000/svg"
   xmlns="http://www.w3.org/2000/svg"
   viewBox="0 0 314.45334 314.45334"
   height="314.45334"
   width="314.45334"
   xml:space="preserve"
   id="svg2"
   version="1.1"><metadata
     id="metadata8"><rdf:RDF><cc:Work
         rdf:about=""><dc:format>image/svg+xml</dc:format><dc:type
           rdf:resource="http://purl.org/dc/dcmitype/StillImage" /><dc:title></dc:title></cc:Work></rdf:RDF></metadata><defs
     id="defs6" /><g
     transform="matrix(1.3333333,0,0,-1.3333333,0,314.45333)"
     id="g10"><g
       transform="scale(0.1)"
       id="g12"><path
         id="path14"
         style="fill:#f1841d;fill-opacity:1;fill-rule:nonzero;stroke:none"
         d="m 1179.2,0 c 651.2,0 1179.2,528 1179.2,1179.2 0,651.2 -528,1179.2 -1179.2,1179.2 C 528,2358.4 0,1830.4 0,1179.2 0,528 528,0 1179.2,0" /><g
         transform="scale(10)"
         id="g16"><g
           id="text22"
           style="font-style:oblique;font-variant:normal;font-size:55.09999084px;font-family:BereitBold;-inkscape-font-specification:BereitBold-Oblique;writing-mode:lr-tb;fill:#1d3e3e;fill-opacity:1;fill-rule:nonzero;stroke:none"
           transform="matrix(0.992546,0.121869,0.121869,-0.992546,24.9895,83.0012)"
           aria-label="Briefwahl
jetzt!"><path
             id="path853"
             style=""
             d="M 6.3915989,-44.079993 -0.66119989,0 H 10.964898 c 6.722199,0 10.854698,-3.3610994 11.846498,-9.6975984 l 1.0469,-6.6670986 c 0.4959,-3.2509 -0.3857,-5.509999 -3.195799,-6.832399 3.085599,-1.2122 4.297799,-3.2509 4.738599,-6.281399 l 0.7163,-4.903899 c 0.9367,-6.336499 -2.5346,-9.697599 -9.752699,-9.697599 z m 5.9507991,18.623797 1.8183,-11.350598 h 1.763199 c 1.3224,0 1.7632,0.8265 1.4877,2.4795 l -1.0469,6.611999 c -0.2755,1.818299 -0.8816,2.259099 -2.203999,2.259099 z m 1.4877,15.9789976 c -0.2755,1.7631997 -1.0469,2.4794996 -2.2591,2.4794996 H 9.4220984 L 11.460798,-19.780897 h 2.0387 c 1.2122,0 1.873399,0.7163 1.597899,2.3142 z" /><path
             id="path855"
             style=""
             d="M 37.467994,-32.784495 H 29.478495 L 24.299096,0 h 7.989499 l 3.140699,-20.056397 c 0.7163,-4.407999 2.8652,-6.005899 7.273199,-5.454899 l 1.2673,-7.548699 c -3.1407,-0.385699 -5.620199,1.3224 -7.218099,4.6835 z" /><path
             id="path857"
             style=""
             d="m 54.108191,-35.153794 1.102,-6.887499 h -6.997699 l -1.102,6.887499 z M 48.983892,0 54.163291,-32.784495 H 46.173792 L 40.994393,0 Z" /><path
             id="path859"
             style=""
             d="m 66.781189,-33.335494 c -5.620199,0 -9.642498,2.424399 -10.689398,8.760898 l -2.4795,15.3177975 c -1.157099,7.1629988 2.6448,9.80779841 8.264999,9.80779841 5.620199,0 9.862898,-2.42439961 10.799598,-8.70579851 l 0.4408,-2.9202994 H 65.18329 l -0.6612,3.9671992 c -0.2204,1.3223998 -0.7714,1.9284997 -1.8183,1.9284997 -1.1571,0 -1.653,-0.7162999 -1.4326,-2.2590997 l 1.0469,-6.5568992 h 11.295498 l 1.4326,-9.532298 c 1.102,-7.162999 -2.6448,-9.807798 -8.264999,-9.807798 z m -2.644799,7.658898 c 0.2204,-1.3224 0.8816,-1.928499 1.818299,-1.928499 1.1571,0 1.653,0.716299 1.4326,2.259099 l -1.2122,7.989499 H 62.81399 Z" /><path
             id="path861"
             style=""
             d="m 91.850942,-44.079993 c -6.226298,0 -9.587398,2.4795 -10.468998,8.044599 l -0.4959,3.250899 h -2.369299 l -0.8816,5.6753 h 2.314199 L 75.651545,0 h 7.934399 l 4.297799,-27.109195 h 3.0856 l 0.881599,-5.6753 h -3.085599 l 0.4959,-3.140699 c 0.2755,-1.7632 0.9918,-2.5346 2.699899,-2.5346 h 1.0469 l 0.8816,-5.620199 z" /><path
             id="path863"
             style=""
             d="m 111.41092,-13.554598 0.6612,-19.229897 h -5.51 l -5.3998,19.229897 0.6061,-19.229897 H 93.778924 L 94.109524,0 h 7.989496 l 4.1325,-13.223998 L 106.17642,0 h 7.9895 l 10.6894,-32.784495 h -7.9895 z" /><path
             id="path865"
             style=""
             d="m 136.59058,-33.335494 c -5.6753,0 -9.7527,2.424399 -10.8547,8.981298 l -0.2755,1.653 h 7.9344 l 0.3857,-2.6448 c 0.2204,-1.653 0.9918,-2.203999 2.0387,-2.203999 1.102,0 1.653,0.661199 1.3775,2.314199 l -0.7163,4.628399 h -2.0387 c -6.7773,0 -9.5874,2.0387 -10.5792,8.099699 l -0.9918,6.0609991 c -0.7714,4.7936992 1.5979,6.99769881 5.1243,6.99769881 2.1489,0 4.2978,-0.77139987 6.1161,-2.81009951 L 133.72538,0 h 7.4385 c 0.4959,-2.9202995 3.4713,-21.984896 3.6917,-23.307296 1.0469,-7.218099 -2.6448,-10.028198 -8.265,-10.028198 z m -4.1325,28.1560949 c -1.1571,0 -1.653,-0.7162999 -1.4326,-2.2590997 l 0.9918,-6.3364992 c 0.1653,-1.1571 0.9918,-1.652999 2.0387,-1.652999 h 1.5979 l -1.3775,8.7608981 c -0.3857,1.0468998 -0.9918,1.4876998 -1.8183,1.4876998 z" /><path
             id="path867"
             style=""
             d="m 163.09368,-33.335494 c -2.6448,0 -4.6284,1.322399 -5.7855,2.810099 l 2.1489,-13.554598 h -7.9895 L 144.46989,0 h 7.98949 l 4.1325,-26.062296 c 0.4959,-0.6061 1.102,-0.9367 1.8183,-0.9367 1.0469,0 1.4877,0.6612 1.2673,2.0387 L 155.76538,0 h 7.9895 l 4.1325,-26.172496 c 0.7714,-4.903899 -1.0469,-7.162998 -4.7937,-7.162998 z" /><path
             id="path869"
             style=""
             d="m 167.22544,0 h 7.9895 l 6.9977,-44.079993 h -7.9895 z" /><path
             id="path871"
             style=""
             d="m 53.800688,18.390395 1.102,-6.887499 H 47.904989 L 46.80299,18.390395 Z M 37.711491,63.462188 c 6.226299,0 9.807799,-1.9836 10.799598,-8.099699 L 53.965988,20.759695 H 45.92139 l -5.399799,34.768094 c -0.2755,1.8183 -0.9367,2.2591 -2.0938,2.2591 h -0.6612 l -0.8816,5.675299 z" /><path
             id="path873"
             style=""
             d="m 66.583889,20.208695 c -5.620199,0 -9.642498,2.4244 -10.689398,8.760899 l -2.4795,15.317797 c -1.157099,7.162999 2.6448,9.807798 8.264999,9.807798 5.620199,0 9.862898,-2.424399 10.799598,-8.705798 l 0.4408,-2.9203 H 64.98599 l -0.6612,3.9672 c -0.2204,1.322399 -0.7714,1.928499 -1.8183,1.928499 -1.1571,0 -1.653,-0.7163 -1.4326,-2.259099 l 1.0469,-6.556899 h 11.295498 l 1.4326,-9.532299 c 1.102,-7.162998 -2.6448,-9.807798 -8.264999,-9.807798 z m -2.644799,7.658899 c 0.2204,-1.3224 0.8816,-1.9285 1.818299,-1.9285 1.1571,0 1.653,0.7163 1.4326,2.2591 l -1.2122,7.989498 H 62.61669 Z" /><path
             id="path875"
             style=""
             d="m 91.269032,26.434994 0.9367,-5.675299 h -3.912099 l 1.2673,-7.989499 h -7.934399 l -1.2673,7.989499 h -2.314199 l -0.8816,5.675299 h 2.314199 l -3.030499,19.009497 c -0.9367,6.005899 1.983599,8.650698 7.438499,8.650698 1.377499,0 2.810099,-0.2755 3.801899,-0.6612 l 0.8816,-5.675299 c -0.4959,0.1102 -0.9367,0.1653 -1.3775,0.1653 -2.9203,0 -2.8652,-2.038699 -2.204,-6.226299 l 2.4244,-15.262697 z" /><path
             id="path877"
             style=""
             d="m 94.353105,20.759695 -1.101999,7.052799 h 8.981294 l -12.287294,20.056396 -0.8816,5.675299 H 107.0261 l 1.0469,-7.052798 h -9.201695 l 12.232195,-20.056397 0.9367,-5.675299 z" /><path
             id="path879"
             style=""
             d="m 126.7519,26.434994 0.9367,-5.675299 h -3.9121 l 1.2673,-7.989499 h -7.9344 l -1.2673,7.989499 h -2.3142 l -0.8816,5.675299 h 2.3142 L 111.93,45.444491 c -0.9367,6.005899 1.9836,8.650698 7.4385,8.650698 1.3775,0 2.8101,-0.2755 3.8019,-0.6612 l 0.8816,-5.675299 c -0.4959,0.1102 -0.9367,0.1653 -1.3775,0.1653 -2.9203,0 -2.8652,-2.038699 -2.204,-6.226299 l 2.4244,-15.262697 z" /><path
             id="path881"
             style=""
             d="m 129.67166,28.583894 -1.653,13.444397 h 7.7691 l 2.5897,-13.444397 3.1958,-19.1196972 h -8.9262 z m 4.5733,24.960295 1.2673,-8.099698 h -8.0997 l -1.2673,8.099698 z" /></g></g><path
         id="path24"
         style="fill:#1d3e3e;fill-opacity:1;fill-rule:nonzero;stroke:none"
         d="m 1639.3,1744.5 c 7.4,-2.4 3.8,5.8 2.4,11.5 -29.3,117.8 -58.7,235.5 -88.3,353.3 -1.1,4.2 -0.2,10.7 -6.1,11.4 -4.3,0.5 -6.2,-4.8 -8.8,-8 -59,-74.9 -117.9,-149.9 -176.8,-225 -11.7,-14.9 -11.5,-15.8 6.6,-24 56.2,-25 112.5,-49.6 168.8,-74.4 32.5,-14.2 64.8,-28.5 102.1,-45 l 0.2,0.2 z m -718.402,-247 c 13.102,-3 23.5,-2.7 33.801,-0.3 24.801,6.1 49.601,12.3 74.401,18.6 78.9,19.7 157.8,39.4 236.6,59 109.3,27.4 218.6,54.6 327.7,81.9 10.7,2.7 21,6.7 29.4,14.1 18.2,16 17.4,21 -4.5,30.7 -89.6,39.5 -179.4,79 -269,118.7 -30.2,13.3 -30.4,13.8 -50.6,-12.5 -14.1,-18.4 -29.1,-35.4 -51.2,-44.5 -32.8,-13.4 -64.8,-12 -97.1,2.6 -21.3,9.6 -47.2,2.6 -61.4,-15.5 -59.8,-75.7 -119.398,-151.5 -179,-227.4 -12.801,-16.2 -11.5,-19.7 9.102,-25.1 1.398,-0.3 3,-0.6 1.796,-0.3 v 0 z m 572.502,673.1 c -8,1.3 -18.4,0.6 -28.6,-1.8 -14.2,-3.5 -28.3,-6.9 -42.6,-10.4 -195.8,-48.8 -391.7,-97.6 -587.7,-146.4 -13.301,-3.4 -25.898,-7.8 -36.5,-17.1 -12.801,-11 -12.801,-14.6 2.102,-21.4 16.199,-7.4 32.5,-14.2 48.796,-21.3 108.301,-47.8 216.502,-95.8 325.002,-143.4 31.5,-13.8 59.5,-6.4 80.6,20.5 83.5,106.1 167,212.3 250.6,318.6 11.4,14.6 9.4,18.9 -11.7,22.7 z M 711.801,1558.9 c 14.597,15 24.5,22.1 38.699,30.1 26.699,15.2 54.199,29 82.602,41.1 10.398,4.5 15.398,1.9 17.796,-9 5.301,-22.7 11.204,-45.4 18.102,-72.6 52.301,66.2 102.199,129.6 152.2,193 l -2.6,3.2 c -185.901,-56.6 -357.299,-145 -525.799,-242.9 10.097,20 123.199,98.4 259,178.7 90.898,53.8 186.699,97.4 286.999,130.7 -0.5,6.2 -5.6,6.4 -9,8 -8,4 -17,6.1 -24.2,11 -42.202,28 -85.1,21.8 -129.799,5.8 -77.903,-28 -151.403,-64.6 -222.699,-106.6 -50.403,-29.6 -99.403,-61.6 -147.403,-94.9 -69.597,-48.2 -136,-100.2 -201.898,-153.1 -2.602,-2.1 -5.903,-4.8 -9,-5 0.597,4.2 3.699,7.2 6.398,10.1 80,84 165.102,162.6 257.801,232.5 81.301,61.4 166.199,117.1 258.699,160.8 8.5,4 17.301,7.5 25.801,11.4 7.5,3.5 6.699,7.2 -0.301,10.4 -19.5,8.8 -38.898,17.6 -58.597,26.2 -8.301,3.7 -11.403,-0.5 -8.204,-8 6.204,-14.9 -1.097,-21 -13.597,-27.4 -26.403,-13.4 -51.199,-29.8 -76.5,-45.8 10.097,18.6 25.597,32 41.097,45.3 7.5,6.4 9.102,12.3 7.403,21.6 -12.301,69.9 19.199,120.5 87.699,137.8 179.5,45.3 359.4,89.8 539,134.6 31.4,7.8 62.7,15.8 94.1,23.7 58.4,14.6 117.4,-18.4 134.1,-76.2 10.7,-37.1 19.5,-74.7 28.8,-112.2 22.1,-88.6 44,-177.3 65.8,-265.9 16.2,-66.6 -19,-124 -85.6,-140.5 -167.5,-41.8 -335,-83.7 -502.7,-125.4 -43,-10.7 -86.1,-21.3 -129.102,-31.8 -63.699,-15.5 -120.796,17.6 -138.398,80.3 -3.5,12.5 -6.898,25.3 -9.301,38.1 -2.398,12.5 -8,16.3 -20.597,12.8 -25.102,-7 -49.903,-15.2 -74.102,-25 -4.301,-1.8 -8.602,-3 -13,-4.6 l 0.199,-0.3 h 0.102" /></g></g></svg>