<?xml version="1.0" encoding="UTF-8" standalone="no"?>
<svg
   xmlns:dc="http://purl.org/dc/elements/1.1/"
   xmlns:cc="http://creativecommons.org/ns#"
   xmlns:rdf="http://www.w3.org/1999/02/22-rdf-syntax-ns#"
   xmlns:svg="http://www.w3.org/2000/svg"
   xmlns="http://www.w3.org/2000/svg"
   version="1.1"
   id="svg2"
   viewBox="0 0 9193.3704 3021.5304"
   height="3021.5303"
   width="9193.3701">
  <defs
     id="defs4">
    <style
       type="text/css"
       id="style4140"><![CDATA[
    .fil0 {fill:#47B5E7;fill-rule:nonzero}
    .fil2 {fill:#FEFEFE;fill-rule:nonzero}
    .fil1 {fill:#FFF225;fill-rule:nonzero}
   ]]></style>
    <style
       type="text/css"
       id="style4229"><![CDATA[
    .fil0 {fill:#FFF225;fill-rule:nonzero}
   ]]></style>
  </defs>
  <metadata
     id="metadata7">
    <rdf:RDF>
      <cc:Work
         rdf:about="">
        <dc:format>image/svg+xml</dc:format>
        <dc:type
           rdf:resource="http://purl.org/dc/dcmitype/StillImage" />
        <dc:title></dc:title>
      </cc:Work>
    </rdf:RDF>
  </metadata>
  <g
     transform="matrix(10.000001,0,0,10.000001,0,-7502.0929)"
     id="layer1">
    <g
       transform="matrix(0.04221784,0,0,0.04221785,0.04221784,750.25128)"
       id="g4240"
       style="clip-rule:evenodd;fill-rule:evenodd;image-rendering:optimizeQuality;shape-rendering:geometricPrecision;text-rendering:geometricPrecision">
      <g
         id="Layer_x0020_1-4">
        <metadata
           id="CorelCorpID_0Corel-Layer-0" />
        <g
           id="g851"
           transform="translate(14652.874)">
          <path
             id="path4233"
             d="m 7122.1551,3126 c -3,-18 -49,-35 -81,-61 -106,-88 -485,-461 -1230,-437 -94,3 -180,12 -259,25 159,-51 241,-82 289,-101 58,-23 438,-153 643,-822 17,-57 67,-195 55,-205 -15,-13 -143,10 -272,89 -130,79 -565,148 -617,156 -30,5 -158,-14 -350,86 215,-221 444,-536 505,-977 29,-212 17,-298 8,-297 -13,1 -20,1 -36,6 -48,14 -97,55 -255,161 -159,106 -327,223 -327,223 0,0 58,-576 40,-590 -18,-13 -345,-10 -847,550 0,0 57,-479 -37,-660 0,0 -26,-131 -47,-199 -10,-34 -37,-70 -41,-67 -5,4 -50,11 -121,93 -111,127 -626,282 -711,949 -65,-269 -202,-629 -540,-811 -178,-174 -264,-235 -283,-238 h -3 c 0,0 0,0 0,0 -9,4 -5,87 -34,275 -33,210 -62,276 -62,276 0,0 -354,-312 -363,-321 -17,-16 -233,668 -169,1009 0,0 -112,-87 -316,-192 -232,-119 -621,-140 -619,-121 5,31 329,664 465,887 0,0 -872.99998,-150 -857.99998,-95 5,18 26,52 60,198 0,0 -343,-7 -338,21 5,32 260,453 279,476 0,0 -265,51 -321,54 -38,2 177,596 766.99998,744 89,22 175,39 257,51 -193,-4 -406.99998,37 -652.99998,128 0,0 -142,55 -217,115 -74,59 -440.999996,121 -466.999996,175 v 4 c 23,48 455.999996,345 455.999996,345 0,0 -263,128 -281,152 -12,17 -22,32 -19,36 3,5 21,26 66,54 105,65 1039.99998,163 1097.99998,140 57,-23 -507.99998,613 -516.99998,933 0,0 93,7 145,11 39.99998,3 -170,401 -132,399 253.99998,-11 674.99998,-256 753.99998,-313 79,-56 187,-140 216,-168 29,-27 -184,354 -97,690 0,0 28,260 29,313 1,52 75,53 75,88 -1,43 206,-163 304,-242 98,-79 231,-232 295,-333 64,-101 7,789 -19,960 -8,55 4,61 13,80 3,6 94,-70 123,-89 43,-29 489,-628 517,-778 0,0 238,1045 318,1157 12,16 22,34 32,38 h 7 c 2,-1 4,-3 6,-6 24,-37 59,-135 86,-143 34,-10 135,-23 188,-172 53,-149 148,-294 193,-681 0,0 506,645 571,705 26,24 163,-205 224,-572 61,-367 -70,-860 -152,-877 0,0 -34,-54 61,-20 55,20 265,385 750,662 82,47 255,47 256,44 39,-109 -342,-1105 -342,-1105 0,0 9,-11 86,20 76,31 804,502 1245,281 89,-45 95,-54 95,-54 51,-217 -338,-628 -577,-814 0,0 627,-25 723,-192 0,0 116,-42 175,-124 10,-14 -67,-157 -158,-220 -237,-164 -288,-226 -288,-226 0,0 66,-80 162,-110 96,-30 404,-220 322,-314 0,0 93,-81 96,-107 v -2 0 z m -2027,-12 c -97,16 -346,22 -116,218 0,0 42,3 -71,70 -113,67 252,106 295,155 43,49 -362,-4 -354,117 8,122 -70,45 199,332 0,0 -162,-38 -180,-15 -19,23 354,332 352,420 0,0 -76,53 -108,7 -32,-46 -258,-296 -294,-303 -28,-5 -80,7 -105,56 0,0 99,230 68,236 -31,6 -185,-102 -185,-102 0,0 -101,44 -68,136 33,92 308,403 292,422 0,0 -23,51 -59,48 -35,-4 -225,-348 -272,-361 -47,-13 55,321 55,321 0,0 -171,-181 -217,-218 -46,-38 -52,40 -52,40 l 50,382 c 0,0 -534,-796 -403,153 0,0 -12,54 -30,52 -18,-2 -131,-314 -118,-400 13,-86 -94,237 -94,237 0,0 -167,-665 -514,17 0,0 -24,-258 -78,-302 -53,-44 -97,-68 -111,-60 -13,8 -136,125 -184,137 -48,11 38,-154 -33,-201 0,0 6,-46 -35,-112 -41,-66 -81,-42 -320,216 0,0 100,-244 99,-329 -1,-84 -94,-104 -94,-104 0,0 -174,132 -224,116 -51,-16 83,-178 86,-223 1,-14 -19,-9 -19,-9 0,0 -21,-15 -196,87 l -283,180 c -21,-13 -49,-10 -40,-78 2,-19 529,-267 506,-293 -23,-26 -199,-69 -199,-69 0,0 110,-133 77,-148 -33,-14 -273,-34 -273,-34 0,0 -42,-66 -33,-53 8,13 235,-36 235,-36 l -152,-119 c 0,0 383,-67 45,-271 -125,-75 -256,-127 -397,-152 361,18 600,-73 559,-206 0,0 -11,-48 -371,-179 0,0 10,-43 34,-49 24,-6 398,131 372,109 -27,-22 -164,-174 -139,-173 25,1 200,75 259,21 56,-52 91,-148 128,-169 37,-21 -98,-145 80,-88 0,0 120,-67 25,-178 -95,-111 -395,-466 95,-37 117,103 410,-210 386,-380 0,0 117,118 142,131 25,13 189,32 226,-25 17,-26 -60,-268 -10,-375 0,0 21,-2 41,21 20,23 22,275 111,323 0,0 100,-59 117,-102 17,-44 -27,273 272,136 0,0 146,-130 188,-133 42,-4 -31,154 5,210 37,56 160,94 199,24 39,-70 226,-211 241,-205 15,6 -95,298 -108,327 -18,42 -31,104 -31,104 0,0 14,82 116,104 0,0 193,-113 393,-259 -21,25 -42,52 -64,80 0,0 -259,267 -260,305 0,39 89,125 162,76 73,-49 248,-121 264,-109 15,13 43,49 7,70 -37,21 -241,128 -241,128 0,0 233,16 519,-42 -309,125 -416,316 -413,334 9,61 489,-63 502,-33 69,156 -152,60 -249,76 z"
             class="fil0"
             style="fill:#ffe100;fill-opacity:1;fill-rule:nonzero" />
          <g
             id="text820"
             style="font-style:normal;font-variant:normal;font-weight:normal;font-stretch:normal;font-size:2615.70092773px;line-height:1226.10961914px;font-family:'DIN 1451 Mittelschrift';-inkscape-font-specification:'DIN 1451 Mittelschrift';text-align:center;letter-spacing:0px;word-spacing:0px;text-anchor:middle;fill:#ffe100;fill-opacity:1;stroke:none;stroke-width:49.04439163"
             aria-label="Endlich machen.">
            <path
               id="path825"
               style="font-style:normal;font-variant:normal;font-weight:normal;font-stretch:normal;font-family:BereitBold;-inkscape-font-specification:BereitBold;fill:#ffe100;fill-opacity:1;stroke-width:49.04439163"
               d="m -13497.734,2431.6106 h -821.33 l -334.809,2092.5608 h 823.945 l 60.162,-379.2766 h -400.203 l 78.471,-489.1361 h 285.112 l 54.929,-358.351 h -282.495 l 75.855,-483.9047 h 400.202 z" />
            <path
               id="path827"
               style="font-style:normal;font-variant:normal;font-weight:normal;font-stretch:normal;font-family:BereitBold;-inkscape-font-specification:BereitBold;fill:#ffe100;fill-opacity:1;stroke-width:49.04439163"
               d="m -12812.424,2941.6723 c -128.169,0 -219.719,65.3925 -277.264,133.4008 l 18.31,-107.2438 h -379.277 l -245.876,1556.3421 h 379.277 l 196.177,-1234.6109 c 23.541,-31.3884 52.314,-47.0826 86.318,-47.0826 49.699,0 70.624,31.3884 60.161,96.781 l -185.714,1184.9125 h 379.276 l 196.178,-1242.458 c 36.62,-232.7973 -49.698,-340.0411 -227.566,-340.0411 z" />
            <path
               id="path829"
               style="font-style:normal;font-variant:normal;font-weight:normal;font-stretch:normal;font-family:BereitBold;-inkscape-font-specification:BereitBold;fill:#ffe100;fill-opacity:1;stroke-width:49.04439163"
               d="m -11857.694,3001.8334 c -57.545,-39.2355 -122.938,-60.1611 -201.409,-60.1611 -206.64,0 -342.656,122.938 -384.508,376.661 l -146.479,902.4168 c -36.62,232.7974 75.855,329.5783 243.26,329.5783 117.707,0 222.335,-65.3925 298.19,-177.8677 l -26.157,151.7107 h 353.12 l 332.194,-2092.5608 h -379.277 z m -282.495,1258.1522 c -49.699,0 -70.624,-28.7727 -60.161,-96.7809 l 136.016,-855.3342 c 13.079,-78.4711 44.467,-104.6281 96.781,-104.6281 31.388,0 54.93,13.0785 70.624,36.6198 l -151.711,970.4251 c -26.157,31.3884 -54.929,49.6983 -91.549,49.6983 z" />
            <path
               id="path831"
               style="font-style:normal;font-variant:normal;font-weight:normal;font-stretch:normal;font-family:BereitBold;-inkscape-font-specification:BereitBold;fill:#ffe100;fill-opacity:1;stroke-width:49.04439163"
               d="m -11556.891,4524.1714 h 379.277 l 332.194,-2092.5608 h -379.277 z" />
            <path
               id="path833"
               style="font-style:normal;font-variant:normal;font-weight:normal;font-stretch:normal;font-family:BereitBold;-inkscape-font-specification:BereitBold;fill:#ffe100;fill-opacity:1;stroke-width:49.04439163"
               d="m -10382.445,2855.3542 52.314,-326.9626 h -332.194 l -52.314,326.9626 z m -243.261,1668.8172 245.876,-1556.3421 h -379.276 l -245.876,1556.3421 z" />
            <path
               id="path835"
               style="font-style:normal;font-variant:normal;font-weight:normal;font-stretch:normal;font-family:BereitBold;-inkscape-font-specification:BereitBold;fill:#ffe100;fill-opacity:1;stroke-width:49.04439163"
               d="m -10013.635,4550.3284 c 266.8012,0 468.2102,-112.4751 512.6771,-413.2808 l 36.6198,-245.8758 h -376.6609 l -47.0826,295.5742 c -10.4628,62.7768 -36.6198,91.5495 -86.3181,91.5495 -54.9293,0 -78.4713,-34.0041 -68.0083,-107.2437 l 136.0165,-865.797 c 10.4628,-62.7769 41.8512,-91.5496 86.3181,-91.5496 54.9297,0 78.471,34.0041 68.0082,107.2438 l -44.4669,295.5742 h 376.661 l 31.3884,-209.2561 c 52.314,-340.0411 -125.5537,-465.5948 -392.3552,-465.5948 -266.8011,0 -460.3631,115.0909 -507.4461,413.2808 l -117.706,729.7805 c -54.93,340.0412 125.553,465.5948 392.355,465.5948 z" />
            <path
               id="path837"
               style="font-style:normal;font-variant:normal;font-weight:normal;font-stretch:normal;font-family:BereitBold;-inkscape-font-specification:BereitBold;fill:#ffe100;fill-opacity:1;stroke-width:49.04439163"
               d="m -8533.153,2941.6723 c -125.5537,0 -219.7189,62.7768 -274.6486,133.4008 l 102.0123,-643.4625 h -379.2766 L -9417.26,4524.1714 h 379.2767 l 196.1775,-1237.2266 c 23.5414,-28.7727 52.3141,-44.4669 86.3182,-44.4669 49.6983,0 70.6239,31.3884 60.1611,96.781 l -185.7148,1184.9125 h 379.2767 l 196.1775,-1242.458 c 36.6199,-232.7973 -49.6983,-340.0411 -227.5659,-340.0411 z" />
            <path
               id="path839"
               style="font-style:normal;font-variant:normal;font-weight:normal;font-stretch:normal;font-family:BereitBold;-inkscape-font-specification:BereitBold;fill:#ffe100;fill-opacity:1;stroke-width:49.04439163"
               d="m -6469.3674,2941.6723 c -151.7107,0 -253.723,91.5496 -303.4213,172.6363 -20.9257,-117.7066 -102.0124,-172.6363 -230.1817,-172.6363 -128.1694,0 -219.7189,65.3925 -277.2643,133.4008 l 18.3099,-107.2438 h -379.2767 l -245.8758,1556.3421 h 379.2766 l 196.1776,-1234.6109 c 23.5413,-31.3884 52.314,-47.0826 86.3181,-47.0826 49.6983,0 70.6239,31.3884 60.1611,96.781 l -185.7147,1184.9125 h 379.2766 l 196.1776,-1239.8423 c 23.5413,-26.157 49.6983,-41.8512 83.7024,-41.8512 49.6983,0 70.6239,31.3884 60.1611,96.781 l -185.7148,1184.9125 h 379.2767 l 196.1775,-1242.458 c 36.6199,-232.7973 -49.6983,-340.0411 -227.5659,-340.0411 z" />
            <path
               id="path841"
               style="font-style:normal;font-variant:normal;font-weight:normal;font-stretch:normal;font-family:BereitBold;-inkscape-font-specification:BereitBold;fill:#ffe100;fill-opacity:1;stroke-width:49.04439163"
               d="m -5603.5757,2941.6723 c -269.4172,0 -462.9791,115.0909 -515.2931,426.3593 l -13.0785,78.471 h 376.6609 l 18.3099,-125.5536 c 10.4628,-78.4711 47.0827,-104.6281 96.781,-104.6281 52.314,0 78.471,31.3884 65.3925,109.8595 l -34.0041,219.7188 h -96.7809 c -321.7313,0 -455.132,96.781 -502.2146,384.5081 l -47.0826,287.7271 c -36.6199,227.566 75.8553,332.194 243.2601,332.194 102.0124,0 204.0247,-36.6198 290.3428,-133.4008 l -18.3099,107.2438 h 353.1197 c 23.5413,-138.6322 164.7891,-1043.6647 175.2519,-1106.4415 49.6983,-342.6568 -125.5536,-476.0576 -392.3551,-476.0576 z m -196.1776,1336.6232 c -54.9297,0 -78.471,-34.0041 -68.0082,-107.2437 l 47.0826,-300.8056 c 7.8471,-54.9298 47.0826,-78.4711 96.7809,-78.4711 h 75.8554 l -65.3925,415.8965 c -18.31,49.6983 -47.0827,70.6239 -86.3182,70.6239 z" />
            <path
               id="path843"
               style="font-style:normal;font-variant:normal;font-weight:normal;font-stretch:normal;font-family:BereitBold;-inkscape-font-specification:BereitBold;fill:#ffe100;fill-opacity:1;stroke-width:49.04439163"
               d="m -4782.248,4550.3284 c 266.8014,0 468.2104,-112.4751 512.6773,-413.2808 l 36.6198,-245.8758 h -376.6609 l -47.0826,295.5742 c -10.4628,62.7768 -36.6198,91.5495 -86.3181,91.5495 -54.9298,0 -78.4711,-34.0041 -68.0083,-107.2437 l 136.0165,-865.797 c 10.4628,-62.7769 41.8512,-91.5496 86.3181,-91.5496 54.9297,0 78.471,34.0041 68.0082,107.2438 l -44.4669,295.5742 h 376.661 l 31.3884,-209.2561 c 52.314,-340.0411 -125.5537,-465.5948 -392.3552,-465.5948 -266.8015,0 -460.3633,115.0909 -507.4459,413.2808 l -117.7066,729.7805 c -54.9297,340.0412 125.5537,465.5948 392.3552,465.5948 z" />
            <path
               id="path845"
               style="font-style:normal;font-variant:normal;font-weight:normal;font-stretch:normal;font-family:BereitBold;-inkscape-font-specification:BereitBold;fill:#ffe100;fill-opacity:1;stroke-width:49.04439163"
               d="m -3301.7658,2941.6723 c -125.5537,0 -219.7189,62.7768 -274.6486,133.4008 l 102.0123,-643.4625 h -379.2766 l -332.1941,2092.5608 h 379.2767 l 196.1776,-1237.2266 c 23.5413,-28.7727 52.314,-44.4669 86.3181,-44.4669 49.6983,0 70.6239,31.3884 60.1611,96.781 l -185.7148,1184.9125 h 379.2767 l 196.1775,-1242.458 c 36.6199,-232.7973 -49.6983,-340.0411 -227.5659,-340.0411 z" />
            <path
               id="path847"
               style="font-style:normal;font-variant:normal;font-weight:normal;font-stretch:normal;font-family:BereitBold;-inkscape-font-specification:BereitBold;fill:#ffe100;fill-opacity:1;stroke-width:49.04439163"
               d="m -2433.354,2941.6723 c -266.8015,0 -457.7476,115.0909 -507.446,415.8965 l -117.7065,727.1648 c -54.9297,340.0412 125.5536,465.5948 392.3551,465.5948 266.8015,0 468.2105,-115.0908 512.6774,-413.2808 l 20.9256,-138.6321 h -376.6609 l -31.3884,188.3305 c -10.4628,62.7768 -36.6198,91.5495 -86.3182,91.5495 -54.9297,0 -78.471,-34.0041 -68.0082,-107.2437 l 49.6983,-311.2684 h 536.2187 l 68.0083,-452.5163 c 52.314,-340.0411 -125.5537,-465.5948 -392.3552,-465.5948 z m -125.5536,363.5825 c 10.4628,-62.7769 41.8512,-91.5496 86.3181,-91.5496 54.9297,0 78.471,34.0041 68.0082,107.2438 l -57.5454,379.2766 h -159.5578 z" />
            <path
               id="path849"
               style="font-style:normal;font-variant:normal;font-weight:normal;font-stretch:normal;font-family:BereitBold;-inkscape-font-specification:BereitBold;fill:#ffe100;fill-opacity:1;stroke-width:49.04439163"
               d="m -1185.6692,2941.6723 c -128.1693,0 -219.7188,65.3925 -277.2643,133.4008 l 18.31,-107.2438 h -379.2767 l -245.8759,1556.3421 h 379.2767 l 196.1775,-1234.6109 c 23.5413,-31.3884 52.3141,-47.0826 86.3182,-47.0826 49.6983,0 70.6239,31.3884 60.1611,96.781 l -185.7148,1184.9125 h 379.2767 l 196.17752,-1242.458 c 36.61982,-232.7973 -49.69832,-340.0411 -227.56602,-340.0411 z" />
            <path
               id="path851"
               style="font-style:normal;font-variant:normal;font-weight:normal;font-stretch:normal;font-family:BereitBold;-inkscape-font-specification:BereitBold;fill:#ffe100;fill-opacity:1;stroke-width:49.04439163"
               d="m -612.83053,4524.1714 60.16112,-384.508 h -384.50804 l -60.16112,384.508 z" />
          </g>
        </g>
      </g>
    </g>
  </g>
</svg>
